<svg width="60" height="60" viewBox="0 0 60 60" fill="none" xmlns="http://www.w3.org/2000/svg">
<g filter="url(#filter0_dd)">
<rect x="6" y="6" width="48" height="47.9985" rx="10" fill="#E7245B" fill-opacity="0.8"/>
<path d="M41.8477 29.514C41.633 29.2208 36.525 22.3326 30.0003 22.3326C23.4757 22.3326 18.367 29.2208 18.1523 29.514C18.0533 29.6496 18 29.8131 18 29.981C18 30.1489 18.0533 30.3125 18.1523 30.4481C18.3664 30.7413 23.475 37.6295 29.9997 37.6295C36.5244 37.6295 41.633 30.7413 41.8471 30.4481C41.9463 30.3126 41.9999 30.1491 42 29.9811C42.0001 29.8132 41.9468 29.6496 41.8477 29.514ZM30.0003 36.0469C25.1944 36.0469 21.0318 31.4753 19.7995 29.9801C21.0299 28.4843 25.1823 23.9145 30.0003 23.9145C34.8063 23.9145 38.9682 28.4855 40.2012 29.9813C38.9707 31.4772 34.8164 36.0469 30.0003 36.0469Z" fill="white"/>
<path d="M30.0003 25.2337C29.061 25.2337 28.1427 25.5122 27.3616 26.0341C26.5805 26.556 25.9718 27.2978 25.6123 28.1656C25.2528 29.0335 25.1587 29.9885 25.342 30.9098C25.5253 31.8312 25.9776 32.6775 26.6419 33.3417C27.3061 34.006 28.1524 34.4583 29.0737 34.6416C29.9951 34.8248 30.95 34.7308 31.8179 34.3713C32.6858 34.0118 33.4276 33.403 33.9495 32.622C34.4714 31.8409 34.7499 30.9226 34.7499 29.9832C34.7499 28.7236 34.2495 27.5155 33.3588 26.6248C32.4681 25.734 31.26 25.2337 30.0003 25.2337ZM30.0003 33.1458C29.3741 33.1458 28.7619 32.9601 28.2412 32.6122C27.7205 32.2643 27.3146 31.7697 27.075 31.1912C26.8353 30.6126 26.7726 29.9759 26.8948 29.3617C27.017 28.7475 27.3185 28.1833 27.7614 27.7405C28.2042 27.2976 28.7684 26.9961 29.3826 26.8739C29.9968 26.7517 30.6335 26.8144 31.2121 27.0541C31.7906 27.2937 32.2852 27.6996 32.6331 28.2203C32.981 28.741 33.1667 29.3532 33.1667 29.9794C33.1667 30.8192 32.8331 31.6246 32.2393 32.2184C31.6455 32.8122 30.8401 33.1458 30.0003 33.1458Z" fill="white"/>
</g>
<defs>
<filter id="filter0_dd" x="0" y="0" width="60" height="59.9985" filterUnits="userSpaceOnUse" color-interpolation-filters="sRGB">
<feFlood flood-opacity="0" result="BackgroundImageFix"/>
<feColorMatrix in="SourceAlpha" type="matrix" values="0 0 0 0 0 0 0 0 0 0 0 0 0 0 0 0 0 0 127 0" result="hardAlpha"/>
<feOffset dx="2" dy="2"/>
<feGaussianBlur stdDeviation="2"/>
<feColorMatrix type="matrix" values="0 0 0 0 0 0 0 0 0 0 0 0 0 0 0 0 0 0 0.25 0"/>
<feBlend mode="normal" in2="BackgroundImageFix" result="effect1_dropShadow"/>
<feColorMatrix in="SourceAlpha" type="matrix" values="0 0 0 0 0 0 0 0 0 0 0 0 0 0 0 0 0 0 127 0" result="hardAlpha"/>
<feOffset dx="-2" dy="-2"/>
<feGaussianBlur stdDeviation="2"/>
<feColorMatrix type="matrix" values="0 0 0 0 1 0 0 0 0 1 0 0 0 0 1 0 0 0 0.9 0"/>
<feBlend mode="normal" in2="effect1_dropShadow" result="effect2_dropShadow"/>
<feBlend mode="normal" in="SourceGraphic" in2="effect2_dropShadow" result="shape"/>
</filter>
</defs>
</svg>
