<svg width="61" height="62" viewBox="0 0 61 62" fill="none" xmlns="http://www.w3.org/2000/svg">
<g filter="url(#filter0_dd)">
<path d="M44 6H17C10.9249 6 6 10.9249 6 17V45C6 51.0751 10.9249 56 17 56H44C50.0751 56 55 51.0751 55 45V17C55 10.9249 50.0751 6 44 6Z" fill="#E7245B"/>
</g>
<path d="M32.5873 20.8787C32.7258 20.8788 32.862 20.8433 32.9828 20.7757L33.0106 20.7603C33.1031 20.7083 33.1844 20.6386 33.2499 20.5551C33.3154 20.4717 33.3638 20.3762 33.3924 20.274C33.421 20.1719 33.4292 20.0651 33.4166 19.9598C33.4039 19.8545 33.3706 19.7527 33.3186 19.6602C33.2666 19.5678 33.1969 19.4865 33.1134 19.421C33.03 19.3555 32.9345 19.307 32.8323 19.2784C32.7302 19.2498 32.6234 19.2416 32.5181 19.2543C32.4128 19.267 32.311 19.3003 32.2186 19.3523L32.1897 19.3688C32.0337 19.4562 31.9111 19.5929 31.8412 19.7574C31.7712 19.922 31.7579 20.1052 31.8033 20.2781C31.8486 20.4511 31.9501 20.6041 32.0918 20.7132C32.2335 20.8223 32.4074 20.8812 32.5863 20.8808L32.5873 20.8787Z" fill="white"/>
<path d="M45.7638 21.3136L40.6891 16.2368C40.5763 16.1237 40.4325 16.0467 40.2759 16.0155C40.1193 15.9843 39.9569 16.0004 39.8094 16.0617C39.6618 16.1226 39.5355 16.226 39.4468 16.3587C39.358 16.4915 39.3107 16.6477 39.3109 16.8074V18.0764H37.1181C36.2107 18.0759 35.3075 18.1982 34.4329 18.4399C34.2267 18.4974 34.0517 18.6343 33.9463 18.8206C33.8408 19.007 33.8136 19.2275 33.8706 19.4339C33.928 19.6401 34.0649 19.8151 34.2513 19.9205C34.4376 20.026 34.6581 20.0532 34.8645 19.9962C35.5987 19.792 36.3571 19.6881 37.1191 19.6872H40.1184C40.3325 19.687 40.5378 19.6018 40.6891 19.4504C40.8405 19.2991 40.9257 19.0938 40.9259 18.8797V18.7531L44.053 21.8801L40.9229 25.0112V24.8845C40.9226 24.6705 40.8374 24.4652 40.686 24.3138C40.5347 24.1625 40.3294 24.0773 40.1154 24.077H37.1181C36.0473 24.0781 35.0208 24.504 34.2636 25.2611C33.5065 26.0182 33.0806 27.0448 33.0795 28.1156V34.7755C32.0106 33.1332 30.4877 31.8368 28.6959 31.0438V28.1146C28.6915 26.9734 28.9211 25.8435 29.3706 24.7946C29.82 23.7456 30.4797 22.8 31.309 22.016C31.464 21.8681 31.5539 21.6647 31.559 21.4505C31.564 21.2362 31.4837 21.0288 31.3358 20.8738C31.1879 20.7188 30.9844 20.6289 30.7702 20.6238C30.556 20.6188 30.3485 20.6991 30.1935 20.847C29.2054 21.7813 28.4193 22.9082 27.8838 24.1582C27.3483 25.4082 27.0747 26.7547 27.0799 28.1146V30.4835C26.2874 30.2868 25.4739 30.1876 24.6574 30.1879H22.6922V28.9221C22.6922 28.7623 22.6448 28.606 22.556 28.4732C22.4673 28.3403 22.341 28.2367 22.1934 28.1756C22.0457 28.1146 21.8832 28.0986 21.7265 28.1299C21.5698 28.1612 21.4259 28.2383 21.313 28.3515L16.2362 33.4283C16.085 33.5798 16 33.7852 16 33.9994C16 34.2135 16.085 34.4189 16.2362 34.5705L21.313 39.6473C21.4258 39.7604 21.5696 39.8374 21.7263 39.8688C21.8829 39.9001 22.0453 39.8843 22.1929 39.8233C22.3405 39.7623 22.4668 39.659 22.5556 39.5262C22.6445 39.3935 22.692 39.2374 22.6922 39.0777V37.8067H24.6491C24.9678 37.806 25.2836 37.8682 25.5782 37.9896C25.8729 38.111 26.1408 38.2893 26.3665 38.5142C26.5923 38.7392 26.7715 39.0065 26.8939 39.3008C27.0163 39.595 27.0795 39.9105 27.0799 40.2292V45.1907C27.0802 45.4047 27.1653 45.61 27.3167 45.7614C27.4681 45.9127 27.6733 45.9979 27.8874 45.9982H33.887C34.1011 45.9979 34.3064 45.9127 34.4577 45.7614C34.6091 45.61 34.6943 45.4047 34.6945 45.1907V28.1146C34.6943 27.4714 34.9494 26.8545 35.4039 26.3995C35.8584 25.9444 36.475 25.6885 37.1181 25.6879H39.3099V26.961C39.3099 27.1208 39.3572 27.277 39.446 27.4099C39.5348 27.5428 39.661 27.6463 39.8087 27.7074C39.9564 27.7685 40.1188 27.7844 40.2756 27.7531C40.4323 27.7218 40.5762 27.6447 40.6891 27.5316L45.7638 22.4558C45.915 22.3043 46 22.0989 46 21.8847C46 21.6706 45.915 21.4652 45.7638 21.3136ZM31.1184 39.945C30.9044 39.9452 30.6991 40.0304 30.5478 40.1818C30.3964 40.3331 30.3112 40.5384 30.3109 40.7525V44.3821H28.6959V40.2292C28.694 39.159 28.2678 38.1332 27.5108 37.3767C26.7537 36.6203 25.7276 36.1948 24.6574 36.1938H21.8888C21.6747 36.194 21.4695 36.2792 21.3181 36.4306C21.1667 36.5819 21.0815 36.7872 21.0813 37.0013V37.1207L17.9542 33.9989L21.0802 30.8718V30.9985C21.0805 31.2126 21.1657 31.4178 21.317 31.5692C21.4684 31.7206 21.6737 31.8058 21.8877 31.806H24.6574C26.8903 31.8085 29.0311 32.6966 30.61 34.2755C32.189 35.8545 33.0771 37.9953 33.0795 40.2282V44.3821H31.926V40.7525C31.9257 40.5384 31.8405 40.3331 31.6891 40.1818C31.5378 40.0304 31.3325 39.9452 31.1184 39.945Z" fill="white"/>
<path d="M31.6902 37.9549C31.5582 37.8227 31.3844 37.7403 31.1985 37.7217C31.0126 37.7032 30.826 37.7498 30.6705 37.8534C30.5151 37.9571 30.4004 38.1115 30.346 38.2902C30.2916 38.469 30.3009 38.6611 30.3723 38.8337C30.4437 39.0064 30.5727 39.149 30.7374 39.2372C30.9022 39.3254 31.0924 39.3537 31.2757 39.3174C31.4589 39.281 31.6239 39.1822 31.7425 39.0378C31.8611 38.8934 31.926 38.7124 31.926 38.5255C31.9257 38.3117 31.8409 38.1066 31.6902 37.9549Z" fill="white"/>
<defs>
<filter id="filter0_dd" x="0" y="0" width="61" height="62" filterUnits="userSpaceOnUse" color-interpolation-filters="sRGB">
<feFlood flood-opacity="0" result="BackgroundImageFix"/>
<feColorMatrix in="SourceAlpha" type="matrix" values="0 0 0 0 0 0 0 0 0 0 0 0 0 0 0 0 0 0 127 0" result="hardAlpha"/>
<feOffset dx="2" dy="2"/>
<feGaussianBlur stdDeviation="2"/>
<feColorMatrix type="matrix" values="0 0 0 0 0 0 0 0 0 0 0 0 0 0 0 0 0 0 0.25 0"/>
<feBlend mode="normal" in2="BackgroundImageFix" result="effect1_dropShadow"/>
<feColorMatrix in="SourceAlpha" type="matrix" values="0 0 0 0 0 0 0 0 0 0 0 0 0 0 0 0 0 0 127 0" result="hardAlpha"/>
<feOffset dx="-2" dy="-2"/>
<feGaussianBlur stdDeviation="2"/>
<feColorMatrix type="matrix" values="0 0 0 0 1 0 0 0 0 1 0 0 0 0 1 0 0 0 0.9 0"/>
<feBlend mode="normal" in2="effect1_dropShadow" result="effect2_dropShadow"/>
<feBlend mode="normal" in="SourceGraphic" in2="effect2_dropShadow" result="shape"/>
</filter>
</defs>
</svg>
