<svg width="60" height="60" viewBox="0 0 60 60" fill="none" xmlns="http://www.w3.org/2000/svg">
<g filter="url(#filter0_dd)">
<rect x="6" y="6" width="48" height="47.9985" rx="10" fill="#E7245B" fill-opacity="0.6"/>
<path d="M23.9526 24.3594C24.0437 24.3437 24.1308 24.3102 24.2089 24.2609C24.287 24.2115 24.3547 24.1473 24.408 24.0718C24.4612 23.9963 24.4991 23.911 24.5195 23.8209C24.5398 23.7308 24.5422 23.6375 24.5265 23.5464C24.4384 23.0383 24.4624 22.517 24.5968 22.0191C24.7312 21.5212 24.9727 21.0587 25.3045 20.6639C25.6364 20.2691 26.0504 19.9516 26.5178 19.7335C26.9851 19.5154 27.4945 19.4021 28.0102 19.4015C28.5259 19.4008 29.0356 19.5129 29.5035 19.7298C29.9714 19.9467 30.3862 20.2632 30.719 20.6571C31.0518 21.0511 31.2946 21.513 31.4302 22.0106C31.5658 22.5082 31.5911 23.0294 31.5043 23.5377C31.4864 23.6298 31.4872 23.7244 31.5064 23.8162C31.5257 23.9079 31.5631 23.9949 31.6165 24.0719C31.6698 24.149 31.738 24.2147 31.8171 24.265C31.8962 24.3154 31.9845 24.3494 32.0769 24.3652C32.1693 24.3809 32.2639 24.378 32.3552 24.3567C32.4465 24.3353 32.5326 24.2959 32.6084 24.2409C32.6843 24.1858 32.7484 24.1161 32.7969 24.0359C32.8454 23.9557 32.8775 23.8666 32.8911 23.7739C33.0115 23.0638 32.9755 22.336 32.7855 21.6413C32.5955 20.9466 32.2561 20.3018 31.791 19.7519C31.3259 19.202 30.7464 18.7602 30.0929 18.4575C29.4394 18.1548 28.7277 17.9984 28.0075 17.9993C27.2873 18.0001 26.576 18.1582 25.9232 18.4625C25.2705 18.7668 24.692 19.2099 24.2283 19.7609C23.7645 20.3119 23.4267 20.9576 23.2383 21.6527C23.0499 22.3478 23.0156 23.0757 23.1377 23.7855C23.1534 23.8767 23.187 23.964 23.2364 24.0423C23.2859 24.1205 23.3503 24.1883 23.426 24.2416C23.5017 24.2949 23.5872 24.3328 23.6776 24.353C23.768 24.3732 23.8614 24.3754 23.9526 24.3594Z" fill="white"/>
<path d="M35.4982 29.2748C35.2472 28.7796 34.8109 28.4034 34.2842 28.2279C33.7575 28.0523 33.1828 28.0915 32.6849 28.337C32.4541 27.8817 32.0661 27.5255 31.5927 27.3345C31.1193 27.1435 30.5927 27.1308 30.1106 27.2986V22.9919C30.1098 22.4397 29.8957 21.9091 29.513 21.5109C29.1304 21.1127 28.6087 20.8778 28.0569 20.855C27.7747 20.8468 27.4936 20.8952 27.2304 20.9974C26.9672 21.0996 26.7272 21.2536 26.5245 21.4502C26.3219 21.6468 26.1607 21.8821 26.0506 22.1421C25.9404 22.4021 25.8835 22.6815 25.8833 22.9639V33.8031L25.0568 32.9379C24.6764 32.5376 24.1559 32.3 23.6043 32.2747C23.0527 32.2495 22.5127 32.4386 22.0973 32.8024C21.8879 32.991 21.7185 33.2196 21.599 33.4748C21.4795 33.73 21.4124 34.0065 21.4016 34.2881C21.3907 34.5697 21.4364 34.8505 21.536 35.1141C21.6355 35.3777 21.7869 35.6187 21.9811 35.8228L26.731 40.8882C27.0605 41.2384 27.458 41.5175 27.8992 41.7085C28.3404 41.8996 28.8159 41.9985 29.2966 41.9993H35.024C35.9565 41.9982 36.8504 41.6274 37.5097 40.968C38.1691 40.3087 38.5399 39.4148 38.541 38.4823V31.1678C38.5405 30.8093 38.4489 30.4568 38.2746 30.1435C38.1003 29.8303 37.8491 29.5665 37.5448 29.3772C37.2404 29.1878 36.8928 29.079 36.5347 29.0611C36.1767 29.0432 35.82 29.1167 35.4982 29.2748ZM37.1338 38.4814C37.133 39.0407 36.9105 39.5769 36.515 39.9723C36.1195 40.3678 35.5833 40.5904 35.024 40.5911H29.2966C29.0083 40.5906 28.723 40.5312 28.4584 40.4166C28.1938 40.3019 27.9554 40.1344 27.7579 39.9243L23.0031 34.8531C22.9381 34.7851 22.8875 34.7047 22.8541 34.6167C22.8208 34.5287 22.8054 34.435 22.8089 34.3409C22.8124 34.2469 22.8348 34.1545 22.8746 34.0693C22.9145 33.9841 22.971 33.9077 23.0409 33.8447C23.1829 33.7237 23.3661 33.6622 23.5524 33.673C23.7387 33.6838 23.9136 33.7661 24.0406 33.9028L26.0788 36.0367C26.1757 36.138 26.3008 36.2079 26.4378 36.2376C26.5748 36.2674 26.7176 36.2554 26.8478 36.2034C26.978 36.1514 27.0897 36.0617 27.1686 35.9458C27.2474 35.8299 27.2899 35.693 27.2904 35.5528V22.9619C27.2906 22.8674 27.3098 22.774 27.3468 22.6871C27.3838 22.6001 27.4379 22.5215 27.5059 22.4559C27.5739 22.3903 27.6543 22.339 27.7425 22.305C27.8307 22.2711 27.9247 22.2552 28.0192 22.2583C28.2062 22.2681 28.3823 22.3497 28.5105 22.4863C28.6388 22.6228 28.7093 22.8036 28.7073 22.991C28.7073 30.7333 28.6937 27.2221 28.6937 31.402C28.7067 31.5809 28.7868 31.7482 28.9181 31.8704C29.0493 31.9926 29.2219 32.0607 29.4012 32.0609C29.5806 32.0612 29.7534 31.9936 29.8849 31.8717C30.0165 31.7499 30.0971 31.5828 30.1106 31.4039V29.1587C30.1446 28.9877 30.2409 28.8354 30.3808 28.7314C30.5207 28.6274 30.6942 28.579 30.8677 28.5956C31.0413 28.6123 31.2024 28.6927 31.32 28.8214C31.4376 28.9501 31.5032 29.1179 31.5042 29.2922V31.4039C31.5109 31.5859 31.588 31.7581 31.7191 31.8845C31.8502 32.0108 32.0252 32.0814 32.2073 32.0814C32.3894 32.0814 32.5643 32.0108 32.6955 31.8845C32.8266 31.7581 32.9036 31.5859 32.9104 31.4039V30.23C32.9069 30.1355 32.9224 30.0412 32.9562 29.9528C32.99 29.8645 33.0412 29.7838 33.1068 29.7157C33.1725 29.6476 33.2511 29.5934 33.3382 29.5564C33.4253 29.5194 33.5189 29.5003 33.6135 29.5003C33.7081 29.5003 33.8017 29.5194 33.8887 29.5564C33.9758 29.5934 34.0545 29.6476 34.1201 29.7157C34.1857 29.7838 34.237 29.8645 34.2707 29.9528C34.3045 30.0412 34.3201 30.1355 34.3166 30.23V31.4039C34.3233 31.5859 34.4003 31.7581 34.5315 31.8845C34.6626 32.0108 34.8376 32.0814 35.0197 32.0814C35.2017 32.0814 35.3767 32.0108 35.5079 31.8845C35.639 31.7581 35.716 31.5859 35.7228 31.4039V31.1697C35.7295 30.9878 35.8065 30.8155 35.9377 30.6892C36.0688 30.5628 36.2438 30.4922 36.4259 30.4922C36.6079 30.4922 36.7829 30.5628 36.9141 30.6892C37.0452 30.8155 37.1222 30.9878 37.129 31.1697L37.1338 38.4814Z" fill="white"/>
</g>
<defs>
<filter id="filter0_dd" x="0" y="0" width="60" height="59.9985" filterUnits="userSpaceOnUse" color-interpolation-filters="sRGB">
<feFlood flood-opacity="0" result="BackgroundImageFix"/>
<feColorMatrix in="SourceAlpha" type="matrix" values="0 0 0 0 0 0 0 0 0 0 0 0 0 0 0 0 0 0 127 0" result="hardAlpha"/>
<feOffset dx="2" dy="2"/>
<feGaussianBlur stdDeviation="2"/>
<feColorMatrix type="matrix" values="0 0 0 0 0 0 0 0 0 0 0 0 0 0 0 0 0 0 0.25 0"/>
<feBlend mode="normal" in2="BackgroundImageFix" result="effect1_dropShadow"/>
<feColorMatrix in="SourceAlpha" type="matrix" values="0 0 0 0 0 0 0 0 0 0 0 0 0 0 0 0 0 0 127 0" result="hardAlpha"/>
<feOffset dx="-2" dy="-2"/>
<feGaussianBlur stdDeviation="2"/>
<feColorMatrix type="matrix" values="0 0 0 0 1 0 0 0 0 1 0 0 0 0 1 0 0 0 0.9 0"/>
<feBlend mode="normal" in2="effect1_dropShadow" result="effect2_dropShadow"/>
<feBlend mode="normal" in="SourceGraphic" in2="effect2_dropShadow" result="shape"/>
</filter>
</defs>
</svg>
