<svg width="61" height="62" viewBox="0 0 61 62" fill="none" xmlns="http://www.w3.org/2000/svg">
<g filter="url(#filter0_dd)">
<path d="M44 6H17C10.9249 6 6 10.9249 6 17V45C6 51.0751 10.9249 56 17 56H44C50.0751 56 55 51.0751 55 45V17C55 10.9249 50.0751 6 44 6Z" fill="#E7245B" fill-opacity="0.2"/>
</g>
<path d="M30.074 16C21.7845 16 15.074 22.7105 15.074 31C15.074 33.7632 15.8635 36.5263 17.4424 39.0921L15.074 44.6184C14.8766 45.0132 15.074 45.6053 15.6661 45.8026C15.8635 45.8026 15.8635 45.8026 16.0609 45.8026C16.2582 45.8026 16.2582 45.8026 16.4556 45.8026L21.9819 43.6316C24.3503 45.2105 27.1135 46 30.074 46C38.3635 46 45.074 39.2895 45.074 31C45.074 22.7105 38.1661 16 30.074 16ZM30.074 44.0263C27.5082 44.0263 24.9424 43.2368 22.7714 41.6579C22.574 41.4605 22.3766 41.4605 22.1793 41.4605C21.9819 41.4605 21.9819 41.4605 21.7845 41.4605L17.6398 43.0395L19.2188 38.8947C19.4161 38.6974 19.2188 38.3026 19.0214 38.1053C17.4424 35.9342 16.653 33.3684 16.653 30.8026C16.653 23.5 22.574 17.7763 29.6793 17.7763C36.7845 17.7763 42.7056 23.6974 42.7056 30.8026C42.7056 37.9079 37.1793 44.0263 30.074 44.0263Z" fill="white"/>
<defs>
<filter id="filter0_dd" x="0" y="0" width="61" height="62" filterUnits="userSpaceOnUse" color-interpolation-filters="sRGB">
<feFlood flood-opacity="0" result="BackgroundImageFix"/>
<feColorMatrix in="SourceAlpha" type="matrix" values="0 0 0 0 0 0 0 0 0 0 0 0 0 0 0 0 0 0 127 0" result="hardAlpha"/>
<feOffset dx="2" dy="2"/>
<feGaussianBlur stdDeviation="2"/>
<feColorMatrix type="matrix" values="0 0 0 0 0 0 0 0 0 0 0 0 0 0 0 0 0 0 0.25 0"/>
<feBlend mode="normal" in2="BackgroundImageFix" result="effect1_dropShadow"/>
<feColorMatrix in="SourceAlpha" type="matrix" values="0 0 0 0 0 0 0 0 0 0 0 0 0 0 0 0 0 0 127 0" result="hardAlpha"/>
<feOffset dx="-2" dy="-2"/>
<feGaussianBlur stdDeviation="2"/>
<feColorMatrix type="matrix" values="0 0 0 0 1 0 0 0 0 1 0 0 0 0 1 0 0 0 0.9 0"/>
<feBlend mode="normal" in2="effect1_dropShadow" result="effect2_dropShadow"/>
<feBlend mode="normal" in="SourceGraphic" in2="effect2_dropShadow" result="shape"/>
</filter>
</defs>
</svg>
