<svg width="121" height="136" viewBox="0 0 121 136" fill="none" xmlns="http://www.w3.org/2000/svg">
<path d="M34.8783 74.304C34.8783 80.1545 30.1538 84.8963 24.3291 84.8963C18.5044 84.8963 13.7809 80.1545 13.7809 74.304C13.7809 68.4525 18.5034 63.7135 24.3291 63.7135C30.1548 63.7135 34.8783 68.4525 34.8783 74.304ZM46.6544 73.9376C46.6544 61.5548 36.6601 51.5168 24.3291 51.5168C12.0019 51.5168 2.00756 61.5548 2.00378 73.9356L2 73.9376C2 74.6894 2.04821 75.4355 2.1191 76.1779C2.12099 76.2187 2.12761 76.2576 2.13139 76.2966C3.86974 93.9309 24.3281 108.6 24.3281 108.6C24.3281 108.6 46.6544 94.2973 46.6544 73.9376Z" stroke="white" stroke-width="3"/>
<path d="M101.735 35.407C101.735 43.984 94.8107 50.9377 86.2711 50.9377C77.7306 50.9377 70.8065 43.983 70.8065 35.407C70.8065 26.831 77.7306 19.8773 86.2711 19.8773C94.8107 19.8773 101.735 26.831 101.735 35.407ZM119 34.8678C119 16.7152 104.347 2 86.2702 2C68.1967 2 53.5441 16.7142 53.5412 34.864L53.5337 34.8678C53.5337 35.9718 53.6036 37.0655 53.7067 38.1562C53.7133 38.2151 53.7199 38.2711 53.7265 38.328C56.275 64.1805 86.2711 85.6889 86.2711 85.6889C86.2711 85.6889 119 64.7216 119 34.8678Z" stroke="white" stroke-width="3"/>
<path d="M72.3091 134C59.0612 134 42.6939 132.319 24.3954 128.054C21.7364 127.437 20.0812 124.769 20.6985 122.098C21.3148 119.428 23.9615 117.762 26.63 118.386C52.6201 124.441 72.3752 124.749 84.6335 123.508C80.2002 122.695 75.9172 121.751 72.2231 120.758C60.9782 117.737 56.4277 114.796 55.9919 110.271C55.7471 107.716 56.8039 104.237 63.2374 102.172C77.648 97.5391 84.831 96.9904 85.1307 96.9695C87.8408 96.7711 90.2153 98.8368 90.4081 101.571C90.599 104.299 88.5573 106.668 85.8415 106.87C85.7073 106.881 80.8609 107.307 71.1455 110.128C77.3852 112.081 87.4381 114.249 97.8228 115.478C101.448 115.903 105.795 116.878 107.245 120.644C108.061 122.754 107.607 125.102 106.033 126.925C102.615 130.879 90.3608 134 72.3091 134Z" stroke="white" stroke-width="3"/>
</svg>
