<svg width="160" height="34" viewBox="0 0 160 34" fill="none" xmlns="http://www.w3.org/2000/svg">
<path d="M8.49355 18.5989C8.49355 20.1039 7.27307 21.3236 5.76835 21.3236C4.26363 21.3236 3.04339 20.1039 3.04339 18.5989C3.04339 17.0937 4.26338 15.8747 5.76835 15.8747C7.27332 15.8747 8.49355 17.0937 8.49355 18.5989ZM11.5357 18.5047C11.5357 15.3194 8.95386 12.7373 5.76835 12.7373C2.58382 12.7373 0.00195302 15.3194 0.000976239 18.5042L0 18.5047C0 18.6981 0.0124538 18.89 0.0307683 19.081C0.0312567 19.0915 0.0329662 19.1015 0.0339429 19.1115C0.483016 23.6476 5.76811 27.4212 5.76811 27.4212C5.76811 27.4212 11.5357 23.7419 11.5357 18.5047Z" fill="#414042"/>
<path d="M25.7644 8.59343C25.7644 10.7997 23.9757 12.5884 21.7697 12.5884C19.5634 12.5884 17.7747 10.7995 17.7747 8.59343C17.7747 6.38738 19.5634 4.59866 21.7697 4.59866C23.9757 4.59866 25.7644 6.38738 25.7644 8.59343ZM30.2246 8.45473C30.2246 3.78525 26.4394 0 21.7694 0C17.1004 0 13.3152 3.78501 13.3145 8.45375L13.3125 8.45473C13.3125 8.73873 13.3306 9.02004 13.3572 9.30062C13.3589 9.31576 13.3606 9.33017 13.3623 9.34482C14.0207 15.995 21.7697 21.5277 21.7697 21.5277C21.7697 21.5277 30.2246 16.1341 30.2246 8.45473Z" fill="#EC1C59"/>
<path d="M141.816 30.8082C141.87 31.2677 141.981 31.6777 142.146 32.0392C142.311 32.4003 142.547 32.6885 142.853 32.9026C143.159 33.1168 143.564 33.2245 144.065 33.2245C144.286 33.2245 144.488 33.1844 144.672 33.1046C144.855 33.025 145.026 32.8867 145.186 32.6912C145.344 32.4958 145.501 32.2413 145.655 31.929C145.807 31.6169 145.97 31.2216 146.141 30.7437L149.43 21.5769H149.723C149.821 22.3486 149.951 23.1109 150.109 23.8638C150.269 24.6174 150.514 25.2967 150.844 25.9033C151.175 26.5096 151.622 26.9995 152.186 27.3733C152.749 27.7462 153.489 27.9335 154.408 27.9335C154.923 27.9335 155.427 27.8573 155.924 27.7035C156.42 27.5511 156.898 27.3614 157.357 27.1343C157.816 26.9079 158.248 26.6657 158.653 26.4083C159.638 25.7599 160.307 22.7505 158.321 22.6238C157.957 22.6255 157.292 23.2062 156.704 23.4509C156.117 23.696 155.547 23.8181 154.996 23.8181C154.8 23.8181 154.614 23.7815 154.436 23.708C154.258 23.6347 154.099 23.5097 153.959 23.3319C153.817 23.1542 153.703 22.9185 153.618 22.624C153.533 22.3302 153.49 21.963 153.49 21.5225C153.49 21.2653 153.521 20.9435 153.582 20.5579C153.643 20.1721 153.71 19.7738 153.784 19.3633C153.858 18.953 153.924 18.5614 153.986 18.1877C154.047 17.8144 154.078 17.5235 154.078 17.3152C154.078 17.0456 154.028 16.8036 153.931 16.589C153.832 16.3753 153.701 16.1939 153.536 16.0471C153.37 15.9001 153.177 15.7873 152.957 15.708C152.737 15.6276 152.51 15.5883 152.277 15.5883C151.603 15.5883 151.01 15.7688 150.495 16.1302C149.981 16.4916 149.522 16.9353 149.117 17.462C148.713 17.9885 148.358 18.5548 148.052 19.1616C147.746 19.7674 147.47 20.3161 147.225 20.8053H147.024C146.998 20.1804 146.986 19.5472 146.986 18.9044V17.2598C146.986 16.8801 146.978 16.5802 146.959 16.3597C146.941 16.1392 146.889 15.9714 146.803 15.855C146.717 15.7387 146.585 15.665 146.408 15.6347C146.23 15.6037 145.982 15.5888 145.664 15.5888C145.382 15.5888 145.146 15.6037 144.957 15.6347C144.767 15.665 144.607 15.7265 144.479 15.8178C144.351 15.9099 144.237 16.0359 144.139 16.1944C144.041 16.3538 143.943 16.5685 143.845 16.8383C143.686 17.2422 143.526 17.756 143.367 18.3809C143.208 19.0055 143.049 19.6915 142.89 20.4385C142.731 21.185 142.58 21.9723 142.44 22.7993C142.299 23.6264 142.176 24.4374 142.073 25.2332C141.968 26.0293 141.885 26.7856 141.825 27.5018C141.763 28.2187 141.733 28.8461 141.733 29.3853C141.733 29.8744 141.76 30.3491 141.816 30.8082ZM131.077 23.6157C131.102 23.2367 131.153 22.8445 131.233 22.4404C131.313 22.036 131.429 21.6353 131.583 21.2372C131.735 20.8394 131.937 20.4839 132.189 20.1718C132.44 19.859 132.752 19.6055 133.126 19.4092C133.498 19.2136 133.949 19.1154 134.476 19.1154C134.77 19.1154 135.018 19.293 135.22 19.648C135.422 20.0033 135.523 20.4568 135.523 21.0074C135.523 21.3991 135.37 21.8035 135.064 22.2199C134.758 22.6367 134.381 23.0225 133.934 23.3769C133.486 23.7329 133.003 24.023 132.482 24.2501C131.961 24.4774 131.481 24.5898 131.041 24.5898C131.041 24.3207 131.053 23.9959 131.077 23.6157ZM135.66 32.9759C136.377 32.8106 137.069 32.5905 137.737 32.3146C138.404 32.0392 139.041 31.7239 139.648 31.3688C140.254 31.0133 140.821 30.6519 141.347 30.2849C142.559 29.428 143.704 28.4417 144.782 27.3272L142.412 24.8655C141.934 25.3309 141.353 25.8242 140.667 26.3448C139.981 26.8652 139.253 27.3457 138.481 27.7868C137.71 28.2273 136.916 28.5953 136.102 28.8888C135.288 29.1833 134.513 29.3303 133.778 29.3303C133.545 29.3303 133.328 29.3059 133.126 29.2563C132.924 29.2077 132.731 29.1215 132.547 28.9992C132.363 28.8766 132.183 28.7049 132.005 28.4844C131.827 28.2647 131.647 27.9887 131.462 27.6581C132.529 27.3645 133.517 26.9536 134.429 26.4276C135.342 25.9011 136.129 25.3001 136.79 24.6269C137.452 23.9527 137.969 23.2372 138.343 22.4773C138.716 21.7181 138.903 20.9586 138.903 20.1997C138.903 19.5015 138.78 18.8708 138.536 18.3072C138.291 17.7443 137.951 17.2637 137.516 16.8652C137.081 16.4674 136.569 16.158 135.983 15.937C135.394 15.717 134.757 15.6061 134.072 15.6061C133.227 15.6061 132.458 15.757 131.766 16.0571C131.074 16.357 130.45 16.7609 129.892 17.2693C129.335 17.7775 128.848 18.3653 128.432 19.0326C128.015 19.7008 127.669 20.4011 127.394 21.1364C127.118 21.8709 126.913 22.6213 126.778 23.3871C126.643 24.1524 126.576 24.8782 126.576 25.5641C126.576 26.5809 126.72 27.5514 127.008 28.4754C127.295 29.4006 127.727 30.2145 128.303 30.919C128.879 31.6233 129.598 32.1845 130.462 32.5998C131.325 33.0167 132.333 33.2252 133.484 33.2252C134.219 33.2247 134.944 33.1412 135.66 32.9759ZM116.619 23.6157C116.644 23.2367 116.696 22.8445 116.775 22.4404C116.856 22.036 116.971 21.6353 117.125 21.2372C117.277 20.8394 117.479 20.4839 117.731 20.1718C117.982 19.859 118.294 19.6055 118.668 19.4092C119.041 19.2136 119.492 19.1154 120.018 19.1154C120.312 19.1154 120.56 19.293 120.762 19.648C120.965 20.0033 121.065 20.4568 121.065 21.0074C121.065 21.3991 120.913 21.8035 120.605 22.2199C120.299 22.6367 119.923 23.0225 119.476 23.3769C119.028 23.7329 118.545 24.023 118.025 24.2501C117.504 24.4774 117.024 24.5898 116.583 24.5898C116.583 24.3207 116.595 23.9959 116.619 23.6157ZM121.203 32.9759C121.92 32.8106 122.611 32.5905 123.279 32.3146C123.946 32.0392 124.584 31.7239 125.189 31.3688C125.796 31.0133 126.362 30.6519 126.889 30.2849C128.101 29.428 129.247 28.4417 130.324 27.3272L127.954 24.8655C127.477 25.3309 126.895 25.8242 126.209 26.3448C125.523 26.8652 124.795 27.3457 124.023 27.7868C123.251 28.2273 122.459 28.5953 121.644 28.8888C120.829 29.1833 120.055 29.3303 119.319 29.3303C119.087 29.3303 118.87 29.3059 118.668 29.2563C118.466 29.2077 118.273 29.1215 118.089 28.9992C117.905 28.8766 117.725 28.7049 117.547 28.4844C117.369 28.2647 117.189 27.9887 117.005 27.6581C118.07 27.3645 119.059 26.9536 119.971 26.4276C120.884 25.9011 121.672 25.3001 122.332 24.6269C122.994 23.9527 123.511 23.2372 123.885 22.4773C124.258 21.7181 124.445 20.9586 124.445 20.1997C124.445 19.5015 124.323 18.8708 124.077 18.3072C123.832 17.7443 123.492 17.2637 123.058 16.8652C122.623 16.4674 122.112 16.158 121.524 15.937C120.937 15.717 120.299 15.6061 119.613 15.6061C118.769 15.6061 118 15.757 117.308 16.0571C116.616 16.357 115.991 16.7609 115.434 17.2693C114.877 17.7775 114.39 18.3653 113.974 19.0326C113.557 19.7008 113.211 20.4011 112.936 21.1364C112.66 21.8709 112.454 22.6213 112.32 23.3871C112.185 24.1524 112.119 24.8782 112.119 25.5641C112.119 26.5809 112.262 27.5514 112.55 28.4754C112.837 29.4006 113.269 30.2145 113.846 30.919C114.42 31.6233 115.14 32.1845 116.004 32.5998C116.867 33.0167 117.874 33.2252 119.026 33.2252C119.761 33.2247 120.487 33.1412 121.203 32.9759ZM107.195 7.35823C106.986 7.97042 106.724 8.62853 106.406 9.33278C106.086 10.037 105.728 10.7535 105.331 11.4822C104.933 12.2111 104.551 12.887 104.182 13.5119C103.986 13.4877 103.797 13.466 103.613 13.4479C103.429 13.4289 103.245 13.4084 103.062 13.383C103.282 12.3913 103.524 11.3684 103.788 10.3154C104.051 9.26196 104.332 8.29715 104.633 7.42172C104.933 6.54604 105.244 5.82665 105.57 5.26305C105.894 4.70018 106.216 4.41789 106.534 4.41789C106.766 4.41789 106.948 4.46673 107.076 4.56539C107.205 4.66355 107.299 4.7854 107.361 4.93216C107.422 5.07893 107.462 5.23594 107.48 5.40102C107.499 5.56609 107.508 5.71627 107.508 5.85082C107.507 6.24397 107.403 6.74579 107.195 7.35823ZM113.386 24.4061C113.019 24.8105 112.608 25.2051 112.155 25.5915C111.702 25.977 111.228 26.3448 110.732 26.6933C110.235 27.0427 109.733 27.3645 109.225 27.6581C108.717 27.9523 108.233 28.2063 107.774 28.4202C107.314 28.6348 106.892 28.8036 106.506 28.9254C106.121 29.048 105.799 29.1093 105.542 29.1093C105.125 29.1093 104.749 29.0453 104.412 28.9159C104.075 28.788 103.79 28.5799 103.558 28.2913C103.325 28.0041 103.147 27.6339 103.025 27.1804C102.902 26.7274 102.841 26.1692 102.841 25.5084C102.841 25.2511 102.844 24.969 102.85 24.6638C102.856 24.3571 102.865 24.0384 102.878 23.7077C102.89 23.3769 102.902 23.0438 102.915 22.707C102.927 22.3703 102.939 22.0423 102.951 21.7237C102.989 20.9889 103.03 20.2426 103.08 19.482C103.386 19.1032 103.719 18.6769 104.081 18.2053C104.442 17.7343 104.8 17.2532 105.156 16.7634H112.211C112.505 16.7634 112.774 16.629 113.019 16.3592C113.264 16.0899 113.386 15.7409 113.386 15.3119C113.386 14.9571 113.33 14.6635 113.221 14.4308C113.111 14.1981 112.933 14.0758 112.687 14.0628C112.479 14.0511 112.216 14.0384 111.897 14.0262C111.579 14.0142 111.236 14.002 110.869 13.9898C110.502 13.9776 110.122 13.9622 109.73 13.9439C109.338 13.9251 108.973 13.91 108.637 13.898C108.3 13.8858 108.003 13.8765 107.746 13.8701C107.49 13.8645 107.305 13.8548 107.195 13.843C107.636 13.1444 108.055 12.4411 108.453 11.7305C108.851 11.0199 109.197 10.3186 109.491 9.62679C109.785 8.93499 110.017 8.2554 110.19 7.58704C110.361 6.9199 110.447 6.28573 110.447 5.68623C110.447 4.97587 110.364 4.29286 110.199 3.63745C110.033 2.98301 109.798 2.40988 109.491 1.92003C109.185 1.43018 108.815 1.03776 108.38 0.744237C107.945 0.449739 107.464 0.303223 106.937 0.303223C106.117 0.303223 105.334 0.668294 104.587 1.39697C103.84 2.12491 103.15 3.09241 102.519 4.29897C101.889 5.50553 101.319 6.88376 100.811 8.43268C100.303 9.98209 99.8831 11.583 99.5522 13.236C99.4299 13.2611 99.207 13.2704 98.8817 13.2638C98.5579 13.2577 98.1906 13.2487 97.7799 13.236C97.3691 13.2245 96.9408 13.2211 96.4935 13.2272C96.0468 13.2333 95.6368 13.2672 95.2632 13.328C94.8896 13.3893 94.5829 13.4843 94.3443 13.613C94.105 13.7419 93.9861 13.9288 93.9861 14.1729C93.9861 14.2838 93.9924 14.4152 94.0037 14.5681C94.0169 14.7212 94.0596 14.8679 94.1326 15.0088C94.2066 15.15 94.3228 15.2726 94.4816 15.3766C94.641 15.4801 94.8679 15.5507 95.1619 15.5878C95.8224 15.6616 96.3282 15.7224 96.6771 15.771C97.0261 15.8205 97.3142 15.8659 97.5403 15.9089C97.7665 15.9519 97.9816 15.9949 98.1833 16.0374C98.3862 16.0806 98.67 16.1265 99.038 16.1753C98.9286 16.9956 98.8414 17.8224 98.7806 18.6546C98.7191 19.4883 98.6888 20.2717 98.6888 21.0065C98.6888 22.8929 98.8082 24.5888 99.0465 26.0955C99.2861 27.6017 99.6441 28.8849 100.122 29.9442C100.599 31.004 101.193 31.815 101.904 32.3788C102.613 32.9422 103.435 33.224 104.366 33.224C104.818 33.224 105.324 33.1378 105.881 32.9661C106.438 32.7944 107.075 32.5376 107.792 32.1945C108.508 31.8523 109.325 31.423 110.244 30.909C111.162 30.3943 112.21 29.7945 113.386 29.1083V24.4061H113.386ZM93.6193 15.9368C93.252 15.7167 92.7553 15.6059 92.1309 15.6059C91.58 15.6059 91.0868 15.7077 90.6519 15.9097C90.2172 16.1118 89.9686 16.3595 89.9078 16.654L88.089 25.9861C87.9909 26.4759 87.8441 26.9138 87.6478 27.2996C87.4519 27.6852 87.229 28.0097 86.978 28.2732C86.7269 28.5364 86.4608 28.7391 86.1785 28.8793C85.8969 29.0204 85.6215 29.0908 85.3516 29.0908C85.1687 29.0908 85.009 29.0422 84.8742 28.944C84.7397 28.8456 84.6293 28.7174 84.5436 28.5577C84.4581 28.3992 84.3937 28.218 84.3507 28.0158C84.3075 27.8136 84.2865 27.6024 84.2865 27.3821C84.2865 27.3699 84.314 27.1802 84.369 26.8119C84.4247 26.4449 84.5004 25.9617 84.5988 25.3612C84.6967 24.7617 84.8073 24.0782 84.9292 23.3124C85.0513 22.5473 85.1802 21.7608 85.3155 20.952C85.4503 20.1437 85.5817 19.3413 85.7106 18.5457C85.8386 17.7497 85.9585 17.0273 86.0686 16.3778C86.0686 16.1692 85.9279 15.9954 85.6459 15.8545C85.3648 15.7138 84.8989 15.6313 84.2501 15.6056C83.8579 15.6183 83.5063 15.7226 83.1939 15.9187C82.8814 16.1143 82.6088 16.3661 82.3759 16.6718C82.1432 16.978 81.9412 17.3209 81.77 17.7003C81.5979 18.08 81.4548 18.4534 81.3383 18.8209C81.2208 19.1882 81.1298 19.5281 81.0624 19.8412C80.9947 20.153 80.9488 20.4006 80.9241 20.585C80.594 22.4585 80.3156 24.1241 80.0888 25.5812C79.8622 27.0393 79.7496 28.2393 79.7496 29.1828C79.7496 29.9535 79.8289 30.6001 79.9879 31.1205C80.1474 31.6416 80.3647 32.0606 80.6404 32.3793C80.9159 32.6975 81.2311 32.9236 81.5864 33.0584C81.9415 33.1935 82.3212 33.2601 82.7251 33.2601C83.2149 33.2601 83.7202 33.1593 84.2413 32.9573C84.7612 32.7551 85.2752 32.477 85.7841 32.1217C86.2923 31.7666 86.7914 31.3473 87.2815 30.8636C87.7713 30.3794 88.2368 29.8502 88.6773 29.2741C88.7999 29.837 88.9442 30.3486 89.1093 30.8079C89.2746 31.2675 89.4768 31.6624 89.7156 31.9932C89.9544 32.3236 90.2392 32.5805 90.5701 32.7642C90.9002 32.9478 91.298 33.0403 91.7637 33.0403C92.2294 33.0403 92.7314 32.9754 93.2701 32.8474C93.809 32.718 94.3543 32.5471 94.9057 32.3329C95.4569 32.1185 96.0048 31.8702 96.5494 31.5881C97.0942 31.3073 97.6092 31.0131 98.0927 30.7073C98.5762 30.4006 99.0175 30.0946 99.415 29.7884C99.813 29.4824 100.147 29.194 100.416 28.9249C100.416 28.5333 100.413 28.1777 100.407 27.8598C100.401 27.5409 100.397 27.2322 100.397 26.9316C100.397 26.6317 100.395 26.316 100.389 25.9856C100.383 25.6549 100.38 25.2874 100.38 24.883C100.171 25.1526 99.8988 25.4442 99.562 25.756C99.2253 26.0681 98.8514 26.3834 98.4419 26.7023C98.0309 27.0205 97.5999 27.3238 97.1462 27.6114C96.6935 27.8991 96.2485 28.1562 95.8146 28.3828C95.3799 28.6097 94.9692 28.7902 94.5834 28.9249C94.1973 29.0595 93.8703 29.1264 93.6012 29.1264C93.3556 29.1264 93.169 29.069 93.0403 28.9525C92.9116 28.8361 92.8169 28.6712 92.7556 28.4568C92.6945 28.2419 92.6582 27.9914 92.646 27.703C92.6335 27.4158 92.6269 27.1006 92.6269 26.7572C92.6269 26.5729 92.6635 26.2454 92.738 25.7744C92.811 25.3033 92.9058 24.7551 93.022 24.1302C93.138 23.5055 93.2638 22.8321 93.3983 22.11C93.5336 21.3874 93.6589 20.6858 93.7753 20.0067C93.8918 19.3267 93.9868 18.7013 94.0603 18.1323C94.1336 17.5626 94.1709 17.1126 94.1709 16.7817C94.1707 16.4393 93.9866 16.1578 93.6193 15.9368ZM68.7633 29.3938C68.4207 29.1919 68.1445 28.9225 67.9365 28.585C67.7279 28.2485 67.5753 27.8532 67.4771 27.3997C67.3792 26.9472 67.3299 26.4632 67.3299 25.9492C67.3299 25.202 67.4285 24.4242 67.6241 23.6154C67.82 22.8074 68.0896 22.0699 68.4322 21.4023C68.775 20.7347 69.173 20.1867 69.6268 19.7582C70.0795 19.3298 70.5571 19.1152 71.0594 19.1152C71.4392 19.1152 71.7635 19.219 72.033 19.427C72.3024 19.6356 72.5231 19.9179 72.6941 20.2722C72.866 20.628 72.9944 21.0477 73.0802 21.5305C73.1661 22.015 73.2088 22.5383 73.2088 23.1014C73.2088 23.8123 73.1197 24.5558 72.9422 25.3336C72.7644 26.1118 72.529 26.8222 72.2352 27.4652C71.941 28.1079 71.5976 28.6407 71.2064 29.0632C70.8143 29.4854 70.4106 29.6971 69.9938 29.6971C69.5159 29.6971 69.1059 29.596 68.7633 29.3938ZM75.8173 19.2622C76.2588 19.5564 76.7846 19.9205 77.3975 20.355C78.0102 20.7899 78.6312 21.2524 79.2624 21.7427C79.8929 22.2326 80.4897 22.7344 81.0536 23.2489C81.6167 23.7627 82.0643 24.2411 82.3944 24.6816L82.7432 22.0914C82.0821 21.259 81.3683 20.4502 80.6033 19.6661C79.8377 18.8827 79.0109 18.1877 78.123 17.5817C77.2349 16.9748 76.283 16.4916 75.2664 16.1302C74.2501 15.769 73.16 15.5883 71.9964 15.5883C70.6367 15.5883 69.4121 15.8359 68.322 16.3319C67.2322 16.8276 66.3106 17.5077 65.5575 18.3711C64.8044 19.2346 64.2254 20.2517 63.8218 21.4204C63.4169 22.5908 63.2147 23.8491 63.2147 25.1959C63.2147 26.1756 63.3285 27.1433 63.5551 28.0986C63.7812 29.0539 64.1402 29.9112 64.6298 30.6709C65.1194 31.4299 65.7475 32.046 66.5126 32.517C67.2781 32.9883 68.1997 33.2247 69.2778 33.2247C70.0248 33.2247 70.7291 33.0958 71.3906 32.8382C72.0519 32.581 72.6604 32.2326 73.2181 31.7915C73.7756 31.3503 74.2716 30.8299 74.7062 30.2297C75.1409 29.6302 75.5079 28.9867 75.8083 28.3008C76.1084 27.6146 76.3382 26.9042 76.4972 26.1692C76.6564 25.4344 76.7362 24.7065 76.7362 23.9837C76.7362 23.2609 76.6466 22.5046 76.4703 21.7149C76.2923 20.9249 76.0259 20.1747 75.6711 19.4644L75.8173 19.2622ZM52.6086 17.7416C52.9359 17.0273 53.2213 16.3705 53.4665 15.7714C53.7107 15.1729 53.9085 14.6425 54.0582 14.1793C54.2079 13.717 54.2828 13.3564 54.2828 13.0975C54.2828 12.8387 54.2421 12.6248 54.16 12.4548C54.0787 12.2846 53.9827 12.1554 53.8743 12.0668C53.7654 11.9784 53.6428 11.9173 53.5068 11.8829C53.371 11.8494 53.255 11.8323 53.1595 11.8323C52.8055 11.8323 52.4077 12.0331 51.9657 12.4343C51.5232 12.8355 51.0539 13.3703 50.5574 14.0364C50.0602 14.7036 49.5501 15.4691 49.0261 16.3328C48.5025 17.1973 47.9814 18.0925 47.4645 19.0173L41.4431 30.0397C41.2932 30.3259 41.1774 30.6316 41.0961 30.9586C41.0148 31.2858 40.9738 31.6047 40.9738 31.918C40.9738 32.1361 41.0045 32.3669 41.0656 32.6125C41.1269 32.8567 41.2319 33.0819 41.3818 33.2858C41.5315 33.4897 41.742 33.6599 42.0145 33.7961C42.2868 33.9321 42.6404 34 43.0763 34C43.6067 34 44.0963 33.8096 44.5458 33.4279C44.9947 33.0474 45.4164 32.5478 45.8113 31.9283C46.2059 31.3095 46.5666 30.6087 46.893 29.8263C47.2195 29.0436 47.5323 28.2507 47.832 27.4478C48.1309 26.6447 48.4102 25.8657 48.6688 25.1104C48.9272 24.3551 49.1789 23.6992 49.4244 23.1407C49.8595 24.5566 50.356 25.9001 50.9139 27.1726C51.4717 28.4449 52.0907 29.5569 52.7718 30.51C53.4523 31.4621 54.2071 32.2174 55.0376 32.7756C55.8672 33.3329 56.7724 33.6125 57.7521 33.6125C58.9491 33.6125 60.2185 33.3092 61.5586 32.7038C62.8995 32.099 64.2701 31.1356 65.6718 29.8155C66.1477 29.3664 66.485 28.9345 66.6828 28.5196C66.8793 28.1045 66.9782 27.7411 66.9782 27.4273C66.9782 27.1013 66.8828 26.8425 66.6928 26.652C66.5021 26.462 66.2706 26.3665 65.9988 26.3665C65.5631 26.3665 65.1348 26.6041 64.7128 27.0808C64.2635 27.6793 63.7329 28.2029 63.1205 28.6517C62.6033 29.0473 61.9576 29.4075 61.1816 29.7344C60.406 30.0609 59.5213 30.2243 58.5277 30.2243H58.2424C58.1472 30.2243 58.0449 30.217 57.936 30.2038C57.3917 30.1628 56.8747 29.8912 56.3849 29.387C55.8945 28.8834 55.4494 28.2742 55.0474 27.5604C54.6464 26.8461 54.3058 26.0903 54.0269 25.2943C53.748 24.4987 53.5476 23.7815 53.4247 23.141C54.2953 22.9918 55.1973 22.7464 56.1297 22.4062C57.0613 22.0663 57.9699 21.6509 58.8549 21.1608C59.7393 20.6714 60.5725 20.1103 61.3552 19.4771C62.1373 18.8436 62.8213 18.1499 63.4064 17.3951C63.9913 16.6398 64.4579 15.8303 64.8047 14.9656C65.1517 14.1016 65.3255 13.1935 65.3255 12.2409C65.3255 10.8253 65.0359 9.58747 64.4577 8.52572C63.8789 7.46445 63.1002 6.5834 62.1205 5.88232C61.141 5.18173 60.0146 4.65427 58.7423 4.30019C57.4701 3.94659 56.1399 3.77005 54.7517 3.77005C53.3368 3.77005 51.9962 3.91607 50.7305 4.20813C49.4651 4.50116 48.2981 4.88943 47.2298 5.37244C46.1614 5.85522 45.1991 6.41344 44.3415 7.04566C43.4838 7.67861 42.7593 8.33574 42.1674 9.01631C41.5755 9.69688 41.1193 10.3767 40.7997 11.0573C40.4795 11.7379 40.3203 12.3706 40.3203 12.9554C40.3203 13.5815 40.49 14.0677 40.8304 14.4149C41.1706 14.7619 41.6807 14.9353 42.3613 14.9353C42.8648 14.9353 43.2868 14.8201 43.6272 14.5883C43.9669 14.3576 44.2767 14.0574 44.5561 13.6902C44.835 13.3229 45.1036 12.9012 45.3617 12.425C45.6205 11.9491 45.9097 11.4587 46.2296 10.9554C46.5492 10.4517 46.9304 9.96232 47.3729 9.48565C47.8154 9.00923 48.3594 8.58726 49.0056 8.21975C49.6519 7.85248 50.4209 7.55334 51.3122 7.3216C52.2033 7.09059 53.2682 6.97436 54.5068 6.97436C55.6093 6.97436 56.558 7.10451 57.3543 7.36262C58.1504 7.62147 58.8036 7.96798 59.3137 8.40338C59.8246 8.83902 60.1984 9.34939 60.4365 9.93472C60.6746 10.5198 60.7938 11.1388 60.7938 11.7921C60.7938 12.7036 60.5655 13.6426 60.11 14.6088C59.6536 15.5754 59.0309 16.4527 58.2424 17.2425C57.453 18.0315 56.5306 18.6817 55.4765 19.1916C54.4218 19.702 53.3024 19.9567 52.1188 19.9567H51.8428C51.7545 19.9567 51.6692 19.9503 51.5879 19.9367C51.942 19.1877 52.2824 18.4559 52.6086 17.7416Z" fill="#414042"/>
<path d="M18.163 33.9549C14.7406 33.9549 10.5124 33.5225 5.78528 32.4253C5.09836 32.2666 4.67077 31.5804 4.83023 30.8932C4.98945 30.2066 5.67319 29.778 6.36255 29.9384C13.0767 31.4961 18.1801 31.5753 21.3468 31.2561C20.2015 31.0468 19.0951 30.8041 18.1408 30.5487C15.2358 29.7717 14.0603 29.0151 13.9477 27.8511C13.8845 27.1937 14.1575 26.299 15.8195 25.7676C19.5422 24.5759 21.3978 24.4348 21.4752 24.4294C22.1753 24.3784 22.7887 24.9097 22.8386 25.613C22.8879 26.3148 22.3604 26.9241 21.6589 26.9761C21.6242 26.979 20.3722 27.0887 17.8624 27.8142C19.4743 28.3165 22.0713 28.8742 24.754 29.1905C25.6905 29.2999 26.8136 29.5507 27.1881 30.5194C27.3989 31.062 27.2817 31.6661 26.8751 32.135C25.9921 33.152 22.8264 33.9549 18.163 33.9549Z" fill="#0AB4C9"/>
</svg>
