<svg width="125" height="36" viewBox="0 0 125 36" fill="none" xmlns="http://www.w3.org/2000/svg">
<path d="M106.359 32.59C106.416 33.081 106.532 33.519 106.705 33.9051C106.878 34.2909 107.126 34.5988 107.446 34.8276C107.766 35.0564 108.19 35.1714 108.716 35.1714C108.948 35.1714 109.159 35.1286 109.352 35.0433C109.544 34.9583 109.723 34.8106 109.891 34.6017C110.057 34.393 110.221 34.1211 110.382 33.7874C110.542 33.454 110.712 33.0317 110.892 32.5211L114.338 22.7278H114.645C114.748 23.5521 114.884 24.3666 115.05 25.1709C115.217 25.976 115.474 26.7018 115.82 27.3498C116.167 27.9976 116.635 28.521 117.226 28.9204C117.816 29.3187 118.592 29.5188 119.555 29.5188C120.094 29.5188 120.623 29.4375 121.143 29.2731C121.663 29.1103 122.164 28.9076 122.645 28.665C123.126 28.4231 123.578 28.1643 124.003 27.8894C125.035 27.1967 125.736 23.9816 123.655 23.8462C123.274 23.848 122.577 24.4684 121.961 24.7298C121.345 24.9917 120.749 25.1222 120.171 25.1222C119.965 25.1222 119.77 25.083 119.584 25.0045C119.397 24.9262 119.231 24.7927 119.084 24.6027C118.936 24.4128 118.816 24.1611 118.727 23.8464C118.637 23.5326 118.592 23.1402 118.592 22.6696C118.592 22.3949 118.625 22.051 118.689 21.6391C118.753 21.2269 118.823 20.8014 118.9 20.3628C118.978 19.9245 119.047 19.5061 119.112 19.1069C119.177 18.708 119.209 18.3973 119.209 18.1748C119.209 17.8868 119.157 17.6282 119.054 17.3989C118.951 17.1706 118.813 16.9768 118.641 16.82C118.467 16.663 118.265 16.5424 118.034 16.4577C117.804 16.3718 117.566 16.3298 117.322 16.3298C116.615 16.3298 115.994 16.5226 115.454 16.9087C114.916 17.2948 114.435 17.7689 114.01 18.3316C113.587 18.8941 113.215 19.499 112.894 20.1473C112.573 20.7946 112.284 21.3808 112.028 21.9034H111.817C111.79 21.2358 111.777 20.5593 111.777 19.8726V18.1156C111.777 17.7099 111.768 17.3895 111.749 17.154C111.73 16.9184 111.675 16.7391 111.585 16.6147C111.495 16.4905 111.357 16.4117 111.171 16.3794C110.985 16.3463 110.725 16.3303 110.391 16.3303C110.096 16.3303 109.849 16.3463 109.65 16.3794C109.452 16.4117 109.284 16.4775 109.15 16.5751C109.016 16.6734 108.896 16.808 108.793 16.9773C108.691 17.1477 108.588 17.377 108.486 17.6653C108.318 18.0968 108.152 18.6457 107.985 19.3133C107.818 19.9806 107.651 20.7135 107.484 21.5115C107.318 22.309 107.16 23.1501 107.013 24.0337C106.865 24.9174 106.737 25.7838 106.628 26.634C106.518 27.4845 106.432 28.2924 106.368 29.0576C106.304 29.8236 106.272 30.4938 106.272 31.0698C106.272 31.5924 106.3 32.0995 106.359 32.59ZM95.1053 24.9059C95.1314 24.501 95.1857 24.082 95.2693 23.6502C95.3528 23.2182 95.4746 22.7901 95.6355 22.3649C95.7954 21.9399 96.0068 21.56 96.2704 21.2266C96.5335 20.8924 96.8605 20.6216 97.2525 20.4119C97.643 20.2029 98.1156 20.098 98.6671 20.098C98.9755 20.098 99.2352 20.2877 99.4471 20.667C99.6587 21.0466 99.7652 21.5311 99.7652 22.1194C99.7652 22.5378 99.6042 22.9699 99.2836 23.4147C98.9627 23.86 98.5678 24.2722 98.099 24.6507C97.6305 25.0311 97.1241 25.341 96.5782 25.5837C96.0324 25.8265 95.5293 25.9466 95.0682 25.9466C95.0682 25.6591 95.08 25.3121 95.1053 24.9059ZM99.9087 34.9058C100.66 34.7292 101.385 34.4942 102.085 34.1994C102.784 33.9051 103.451 33.5683 104.087 33.189C104.722 32.8091 105.316 32.423 105.868 32.0309C107.138 31.1155 108.338 30.0617 109.467 28.8711L106.984 26.2411C106.483 26.7383 105.874 27.2653 105.155 27.8215C104.436 28.3775 103.673 28.8909 102.864 29.362C102.056 29.8327 101.225 30.2258 100.371 30.5394C99.518 30.854 98.7063 31.0111 97.9358 31.0111C97.6919 31.0111 97.4647 30.985 97.2525 30.9321C97.0406 30.8801 96.8387 30.7881 96.6455 30.6573C96.4529 30.5264 96.2643 30.343 96.0777 30.1074C95.8919 29.8726 95.7026 29.5778 95.5094 29.2246C96.6269 28.911 97.6627 28.4719 98.6187 27.91C99.5748 27.3475 100.4 26.7055 101.092 25.9862C101.786 25.2659 102.328 24.5015 102.719 23.6896C103.111 22.8785 103.306 22.0672 103.306 21.2564C103.306 20.5105 103.178 19.8366 102.922 19.2345C102.665 18.6332 102.309 18.1198 101.854 17.694C101.398 17.269 100.861 16.9385 100.246 16.7024C99.6298 16.4673 98.9624 16.3489 98.2436 16.3489C97.3582 16.3489 96.5526 16.5101 95.8277 16.8307C95.1025 17.1511 94.4482 17.5826 93.864 18.1257C93.28 18.6687 92.7697 19.2966 92.3342 20.0096C91.8971 20.7234 91.5345 21.4716 91.2459 22.2571C90.9572 23.0419 90.7418 23.8436 90.601 24.6617C90.4595 25.4793 90.3891 26.2547 90.3891 26.9875C90.3891 28.0738 90.5396 29.1106 90.8418 30.0977C91.1425 31.0862 91.5952 31.9558 92.1986 32.7084C92.802 33.4608 93.5561 34.0603 94.461 34.5041C95.3653 34.9494 96.4214 35.1722 97.6277 35.1722C98.3977 35.1717 99.1582 35.0825 99.9087 34.9058ZM79.955 24.9059C79.9806 24.501 80.0351 24.082 80.1183 23.6502C80.2027 23.2182 80.324 22.7901 80.4847 22.3649C80.6447 21.9399 80.8565 21.56 81.1201 21.2266C81.3832 20.8924 81.7097 20.6216 82.1025 20.4119C82.493 20.2029 82.9651 20.098 83.5163 20.098C83.8244 20.098 84.0847 20.2877 84.2965 20.667C84.5087 21.0466 84.6141 21.5311 84.6141 22.1194C84.6141 22.5378 84.4542 22.9699 84.132 23.4147C83.8116 23.86 83.4168 24.2722 82.9487 24.6507C82.4794 25.0311 81.9733 25.341 81.4279 25.5837C80.8819 25.8265 80.3788 25.9466 79.9174 25.9466C79.9174 25.6591 79.9299 25.3121 79.955 24.9059ZM84.7584 34.9058C85.5095 34.7292 86.2342 34.4942 86.9338 34.1994C87.6326 33.9051 88.301 33.5683 88.9359 33.189C89.5713 32.8091 90.165 32.423 90.7167 32.0309C91.9872 31.1155 93.1876 30.0617 94.3169 28.8711L91.8332 26.2411C91.3329 26.7383 90.7233 27.2653 90.0045 27.8215C89.2855 28.3775 88.5226 28.8909 87.7135 29.362C86.9049 29.8327 86.0742 30.2258 85.2208 30.5394C84.3669 30.854 83.5552 31.0111 82.7847 31.0111C82.5408 31.0111 82.3133 30.985 82.1025 30.9321C81.8904 30.8801 81.6877 30.7881 81.4952 30.6573C81.3026 30.5264 81.114 30.343 80.9274 30.1074C80.7409 29.8726 80.5518 29.5778 80.3591 29.2246C81.4758 28.911 82.5117 28.4719 83.4674 27.91C84.4242 27.3475 85.2495 26.7055 85.9414 25.9862C86.6352 25.2659 87.1774 24.5015 87.5689 23.6896C87.9599 22.8785 88.1559 22.0672 88.1559 21.2564C88.1559 20.5105 88.0275 19.8366 87.7706 19.2345C87.5139 18.6332 87.1574 18.1198 86.7022 17.694C86.2467 17.269 85.7111 16.9385 85.0947 16.7024C84.4792 16.4673 83.8114 16.3489 83.0926 16.3489C82.2074 16.3489 81.4016 16.5101 80.6766 16.8307C79.952 17.1511 79.2971 17.5826 78.7129 18.1257C78.1292 18.6687 77.6187 19.2966 77.1832 20.0096C76.7461 20.7234 76.384 21.4716 76.0948 22.2571C75.8064 23.0419 75.5907 23.8436 75.4502 24.6617C75.3082 25.4793 75.2389 26.2547 75.2389 26.9875C75.2389 28.0738 75.3886 29.1106 75.6905 30.0977C75.992 31.0862 76.4444 31.9558 77.0486 32.7084C77.6509 33.4608 78.4051 34.0603 79.3104 34.5041C80.2142 34.9494 81.2703 35.1722 82.4771 35.1722C83.2474 35.1717 84.0081 35.0825 84.7584 34.9058ZM70.0795 7.53722C69.8607 8.19126 69.5854 8.89434 69.2519 9.64674C68.9175 10.3991 68.5423 11.1646 68.1255 11.943C67.7086 12.7218 67.3082 13.4439 66.9223 14.1115C66.7165 14.0857 66.5185 14.0625 66.3253 14.0432C66.1331 14.0228 65.9404 14.0009 65.748 13.9738C65.979 12.9143 66.2324 11.8215 66.5085 10.6965C66.7843 9.57107 67.0789 8.54032 67.3946 7.60505C67.7089 6.66952 68.0352 5.90095 68.3765 5.29883C68.7156 4.69749 69.0531 4.39591 69.3868 4.39591C69.6301 4.39591 69.8203 4.44809 69.9544 4.55348C70.0897 4.65836 70.1883 4.78854 70.2527 4.94533C70.3172 5.10212 70.3592 5.26987 70.3776 5.44623C70.3973 5.62259 70.4068 5.78303 70.4068 5.92678C70.4065 6.3468 70.297 6.88292 70.0795 7.53722ZM76.5672 25.7504C76.1821 26.1824 75.7519 26.604 75.2772 27.0167C74.8023 27.4286 74.3054 27.8215 73.7854 28.1938C73.2654 28.5671 72.7388 28.911 72.2065 29.2246C71.6737 29.5389 71.1673 29.8103 70.6855 30.0388C70.2044 30.2681 69.7617 30.4484 69.3574 30.5786C68.9536 30.7095 68.6163 30.775 68.3471 30.775C67.9105 30.775 67.5159 30.7067 67.1626 30.5684C66.8097 30.4317 66.5113 30.2094 66.2682 29.901C66.0236 29.5942 65.8373 29.1987 65.7096 28.7143C65.5804 28.2303 65.5169 27.634 65.5169 26.928C65.5169 26.653 65.52 26.3517 65.5258 26.0256C65.5328 25.6979 65.5422 25.3575 65.5553 25.0042C65.5676 24.6507 65.5803 24.2949 65.5939 23.9351C65.6062 23.5754 65.6192 23.225 65.6315 22.8845C65.6712 22.0995 65.7149 21.3023 65.7666 20.4896C66.0873 20.085 66.4368 19.6295 66.8163 19.1257C67.1948 18.6225 67.5699 18.1085 67.942 17.5852H75.3353C75.6432 17.5852 75.9252 17.4417 76.1821 17.1534C76.439 16.8657 76.5672 16.4929 76.5672 16.0345C76.5672 15.6554 76.5086 15.3418 76.3935 15.0932C76.2783 14.8446 76.092 14.7139 75.8348 14.7001C75.6163 14.6875 75.341 14.674 75.007 14.6609C74.6733 14.6482 74.3143 14.6351 73.9292 14.6221C73.5446 14.609 73.1464 14.5926 72.736 14.573C72.3252 14.5529 71.9427 14.5368 71.5903 14.524C71.2372 14.5109 70.9263 14.501 70.6571 14.4942C70.3879 14.4882 70.1947 14.4778 70.0792 14.4653C70.5416 13.7189 70.9808 12.9675 71.3979 12.2084C71.8147 11.4492 72.1773 10.6999 72.4849 9.96084C72.7933 9.22176 73.0369 8.49571 73.2175 7.78167C73.3967 7.06893 73.487 6.39142 73.487 5.75094C73.487 4.99203 73.3997 4.26234 73.2273 3.56212C73.0527 2.86295 72.8066 2.25065 72.4849 1.72732C72.1645 1.20398 71.7766 0.784741 71.3211 0.471158C70.8649 0.156531 70.3607 0 69.809 0C68.95 0 68.1286 0.390024 67.3458 1.1685C66.563 1.9462 65.8406 2.97983 65.1796 4.26886C64.5189 5.55789 63.9221 7.03032 63.3894 8.68511C62.8569 10.3404 62.417 12.0508 62.0702 13.8167C61.942 13.8436 61.7084 13.8535 61.3675 13.8465C61.0282 13.8399 60.6434 13.8303 60.2129 13.8167C59.7825 13.8045 59.3337 13.8008 58.8649 13.8073C58.3969 13.8138 57.9672 13.8501 57.5757 13.9151C57.1842 13.9805 56.8628 14.082 56.6128 14.2195C56.362 14.3573 56.2374 14.5568 56.2374 14.8177C56.2374 14.9362 56.244 15.0765 56.2558 15.2398C56.2696 15.4034 56.3144 15.5602 56.3909 15.7107C56.4684 15.8615 56.5902 15.9925 56.7566 16.1036C56.9237 16.2142 57.1614 16.2896 57.4695 16.3293C58.1617 16.4081 58.6917 16.473 59.0573 16.525C59.423 16.5779 59.725 16.6264 59.9619 16.6724C60.1989 16.7183 60.4243 16.7642 60.6357 16.8096C60.8483 16.8558 61.1457 16.9048 61.5313 16.957C61.4167 17.8333 61.3253 18.7167 61.2616 19.6058C61.1971 20.4964 61.1654 21.3333 61.1654 22.1183C61.1654 24.1337 61.2905 25.9455 61.5403 27.5552C61.7913 29.1643 62.1665 30.5353 62.667 31.667C63.1675 32.7992 63.7901 33.6656 64.5348 34.268C65.2779 34.8699 66.1387 35.1709 67.1142 35.1709C67.5881 35.1709 68.1183 35.0788 68.7018 34.8954C69.2857 34.712 69.9533 34.4376 70.7044 34.071C71.4552 33.7055 72.3117 33.2469 73.2746 32.6977C74.2365 32.1478 75.3348 31.507 76.5665 30.774V25.7504H76.5672ZM55.853 16.7021C55.4681 16.467 54.9476 16.3486 54.2933 16.3486C53.716 16.3486 53.1991 16.4574 52.7434 16.6731C52.2879 16.8892 52.0274 17.1537 51.9636 17.4683L50.0577 27.4383C49.9549 27.9616 49.8011 28.4294 49.5953 28.8416C49.3901 29.2535 49.1565 29.6002 48.8934 29.8817C48.6304 30.163 48.3514 30.3795 48.0556 30.5292C47.7606 30.68 47.4719 30.7552 47.1892 30.7552C46.9975 30.7552 46.8301 30.7033 46.6889 30.5984C46.5479 30.4932 46.4322 30.3563 46.3424 30.1857C46.2528 30.0164 46.1853 29.8228 46.1402 29.6068C46.0949 29.3908 46.0729 29.1651 46.0729 28.9298C46.0729 28.9167 46.1018 28.714 46.1594 28.3206C46.2178 27.9285 46.2971 27.4122 46.4002 26.7707C46.5028 26.1302 46.6188 25.4 46.7465 24.5819C46.8744 23.7645 47.0095 22.9242 47.1513 22.0602C47.2925 21.1966 47.4302 20.3394 47.5653 19.4894C47.6994 18.6389 47.8251 17.8672 47.9405 17.1733C47.9405 16.9505 47.7931 16.7647 47.4975 16.6142C47.203 16.4639 46.7147 16.3757 46.0348 16.3483C45.6238 16.3619 45.2554 16.4733 44.9281 16.6828C44.6005 16.8918 44.3149 17.1607 44.0708 17.4874C43.8269 17.8145 43.6153 18.1808 43.4359 18.5862C43.2555 18.9919 43.1056 19.3908 42.9835 19.7834C42.8604 20.1758 42.765 20.5389 42.6944 20.8734C42.6235 21.2065 42.5754 21.4711 42.5495 21.668C42.2035 23.6696 41.9118 25.449 41.6741 27.0057C41.4366 28.5635 41.3187 29.8455 41.3187 30.8535C41.3187 31.6769 41.4018 32.3677 41.5684 32.9236C41.7355 33.4804 41.9633 33.9281 42.2522 34.2685C42.5408 34.6084 42.8712 34.85 43.2435 34.994C43.6156 35.1383 44.0135 35.2095 44.4367 35.2095C44.9501 35.2095 45.4795 35.1018 46.0256 34.886C46.5704 34.67 47.1091 34.3729 47.6423 33.9933C48.1749 33.614 48.6979 33.166 49.2115 32.6492C49.7248 32.1319 50.2126 31.5665 50.6742 30.9511C50.8027 31.5524 50.9539 32.099 51.1269 32.5897C51.3001 33.0807 51.512 33.5026 51.7623 33.8561C52.0125 34.209 52.3109 34.4835 52.6576 34.6797C53.0036 34.8759 53.4205 34.9747 53.9085 34.9747C54.3964 34.9747 54.9226 34.9053 55.4871 34.7686C56.0518 34.6304 56.6232 34.4477 57.2011 34.2189C57.7786 33.9899 58.3528 33.7246 58.9235 33.4232C59.4944 33.1232 60.0341 32.8089 60.5407 32.4822C61.0474 32.1546 61.5098 31.8277 61.9264 31.5005C62.3435 31.1736 62.6933 30.8655 62.9758 30.578C62.9758 30.1596 62.972 29.7797 62.9664 29.4401C62.9597 29.0993 62.9559 28.7696 62.9559 28.4484C62.9559 28.1281 62.9536 27.7907 62.9469 27.4378C62.9405 27.0845 62.9375 26.6919 62.9375 26.2599C62.7189 26.5479 62.4333 26.8594 62.0805 27.1925C61.7276 27.5259 61.3358 27.8627 60.9067 28.2035C60.476 28.5434 60.0243 28.8674 59.5489 29.1747C59.0745 29.4821 58.6082 29.7568 58.1535 29.9989C57.698 30.2412 57.2676 30.434 56.8633 30.578C56.4587 30.7218 56.1161 30.7933 55.8341 30.7933C55.5766 30.7933 55.3811 30.732 55.2463 30.6075C55.1114 30.4831 55.0121 30.307 54.9479 30.0779C54.8839 29.8483 54.8458 29.5807 54.833 29.2726C54.82 28.9658 54.813 28.629 54.813 28.2622C54.813 28.0652 54.8514 27.7153 54.9295 27.2121C55.006 26.7089 55.1053 26.1232 55.2271 25.4556C55.3486 24.7882 55.4804 24.0687 55.6214 23.2973C55.7632 22.5253 55.8945 21.7758 56.0165 21.0503C56.1386 20.3237 56.2381 19.6556 56.3151 19.0477C56.3919 18.4391 56.4311 17.9583 56.4311 17.6048C56.4308 17.239 56.2379 16.9382 55.853 16.7021ZM29.8059 31.0789C29.4469 30.8632 29.1575 30.5754 28.9395 30.2149C28.7209 29.8554 28.561 29.433 28.4581 28.9485C28.3555 28.4651 28.3038 27.9481 28.3038 27.3989C28.3038 26.6006 28.4072 25.7697 28.6122 24.9056C28.8174 24.0423 29.0999 23.2545 29.4589 22.5412C29.8182 21.828 30.2353 21.2425 30.7108 20.7847C31.1852 20.3271 31.6857 20.0978 32.2121 20.0978C32.61 20.0978 32.9499 20.2087 33.2324 20.4309C33.5146 20.6537 33.7459 20.9553 33.9251 21.3338C34.1052 21.714 34.2398 22.1624 34.3296 22.6782C34.4197 23.1958 34.4645 23.7549 34.4645 24.3565C34.4645 25.1159 34.3711 25.9103 34.1851 26.7412C33.9988 27.5726 33.7521 28.3316 33.4442 29.0185C33.1359 29.7051 32.7761 30.2744 32.3662 30.7257C31.9552 31.1768 31.5322 31.403 31.0954 31.403C30.5946 31.403 30.1649 31.295 29.8059 31.0789ZM37.198 20.2548C37.6606 20.5692 38.2116 20.9582 38.8539 21.4223C39.4959 21.8869 40.1467 22.381 40.8081 22.9049C41.4689 23.4282 42.0943 23.9643 42.6851 24.514C43.2752 25.0629 43.7443 25.574 44.0903 26.0446L44.4557 23.2774C43.763 22.3881 43.015 21.524 42.2133 20.6863C41.411 19.8494 40.5446 19.1069 39.6141 18.4594C38.6834 17.8111 37.686 17.2948 36.6207 16.9087C35.5556 16.5229 34.4133 16.3298 33.194 16.3298C31.7692 16.3298 30.4858 16.5944 29.3435 17.1242C28.2015 17.6538 27.2357 18.3804 26.4465 19.3029C25.6573 20.2253 25.0506 21.3119 24.6276 22.5605C24.2033 23.8109 23.9915 25.1553 23.9915 26.5941C23.9915 27.6407 24.1107 28.6746 24.3482 29.6952C24.5851 30.7158 24.9613 31.6317 25.4744 32.4434C25.9875 33.2542 26.6456 33.9124 27.4473 34.4156C28.2496 34.9192 29.2153 35.1717 30.3451 35.1717C31.1279 35.1717 31.8659 35.0339 32.5591 34.7587C33.2521 34.484 33.8898 34.1117 34.4742 33.6406C35.0584 33.1691 35.5782 32.6132 36.0336 31.9719C36.4891 31.3315 36.8737 30.644 37.1885 29.9112C37.503 29.1781 37.7438 28.4192 37.9104 27.6339C38.0772 26.8489 38.1609 26.0713 38.1609 25.299C38.1609 24.5268 38.067 23.7189 37.8822 22.8752C37.6957 22.0312 37.4165 21.2298 37.0447 20.4708L37.198 20.2548ZM12.8772 18.6303C13.2201 17.8672 13.5192 17.1654 13.7761 16.5255C14.032 15.8861 14.2393 15.3194 14.3962 14.8245C14.553 14.3307 14.6316 13.9453 14.6316 13.6688C14.6316 13.3923 14.5889 13.1637 14.5029 12.9821C14.4177 12.8003 14.3171 12.6623 14.2035 12.5676C14.0893 12.4732 13.9609 12.4079 13.8183 12.3712C13.6761 12.3354 13.5545 12.3171 13.4545 12.3171C13.0834 12.3171 12.6666 12.5316 12.2034 12.9602C11.7397 13.3889 11.2479 13.9602 10.7276 14.6719C10.2066 15.3846 9.67208 16.2025 9.12292 17.1253C8.57429 18.0488 8.02821 19.0052 7.48648 19.9932L1.17661 31.769C1.01949 32.0747 0.898193 32.4014 0.81298 32.7507C0.727767 33.1003 0.684775 33.441 0.684775 33.7757C0.684775 34.0087 0.717019 34.2552 0.780993 34.5177C0.845223 34.7785 0.955261 35.0191 1.11238 35.2369C1.26924 35.4548 1.48983 35.6366 1.77541 35.7822C2.06073 35.9275 2.43126 36 2.88804 36C3.44384 36 3.95691 35.7965 4.42802 35.3887C4.89835 34.9823 5.34029 34.4485 5.75407 33.7867C6.1676 33.1256 6.54555 32.3768 6.88768 31.541C7.22982 30.7048 7.55762 29.8577 7.8716 28.9999C8.18482 28.1419 8.47756 27.3097 8.74856 26.5028C9.01929 25.6958 9.28312 24.9951 9.54029 24.3985C9.9963 25.9111 10.5165 27.3465 11.1013 28.7059C11.6857 30.0651 12.3344 31.2532 13.0481 32.2714C13.7613 33.2886 14.5523 34.0955 15.4226 34.6919C16.2918 35.2873 17.2404 35.586 18.2671 35.586C19.5215 35.586 20.8516 35.262 22.256 34.6152C23.6611 33.969 25.0975 32.9398 26.5663 31.5295C27.065 31.0497 27.4184 30.5882 27.6257 30.145C27.8317 29.7015 27.9353 29.3133 27.9353 28.978C27.9353 28.6297 27.8353 28.3532 27.6362 28.1497C27.4363 27.9468 27.1937 27.8447 26.9089 27.8447C26.4524 27.8447 26.0036 28.0986 25.5614 28.6078C25.0905 29.2473 24.5345 29.8066 23.8927 30.2861C23.3507 30.7087 22.6741 31.0935 21.8609 31.4429C21.0482 31.7917 20.1211 31.9662 19.0798 31.9662H18.7809C18.6811 31.9662 18.5739 31.9584 18.4598 31.9443C17.8894 31.9005 17.3477 31.6104 16.8343 31.0716C16.3205 30.5337 15.854 29.8828 15.4328 29.1202C15.0126 28.3571 14.6556 27.5497 14.3634 26.6992C14.0712 25.8492 13.8611 25.083 13.7324 24.3987C14.6446 24.2393 15.5899 23.9771 16.5669 23.6137C17.5432 23.2506 18.4953 22.8068 19.4227 22.2832C20.3496 21.7604 21.2227 21.1609 22.0428 20.4844C22.8625 19.8077 23.5792 19.0665 24.1923 18.2601C24.8052 17.4532 25.2942 16.5884 25.6576 15.6646C26.0212 14.7415 26.2034 13.7713 26.2034 12.7536C26.2034 11.2413 25.8999 9.91884 25.294 8.78451C24.6875 7.6507 23.8715 6.70943 22.8448 5.96043C21.8184 5.21195 20.638 4.64844 19.3047 4.27016C17.9715 3.8924 16.5777 3.70378 15.1229 3.70378C13.6403 3.70378 12.2354 3.85979 10.9091 4.17181C9.58303 4.48487 8.3601 4.89968 7.24056 5.41571C6.12102 5.93148 5.11254 6.52786 4.21383 7.20329C3.31513 7.8795 2.55588 8.58154 1.93559 9.30863C1.3153 10.0357 0.837293 10.762 0.502326 11.4891C0.166847 12.2162 0 12.8921 0 13.517C0 14.1859 0.177852 14.7053 0.53457 15.0763C0.891033 15.447 1.42559 15.6322 2.13877 15.6322C2.66643 15.6322 3.10862 15.5091 3.46534 15.2615C3.82129 15.015 4.14602 14.6943 4.43876 14.302C4.731 13.9096 5.01248 13.459 5.28296 12.9503C5.55421 12.4419 5.85719 11.918 6.19241 11.3803C6.52738 10.8421 6.92683 10.3193 7.39052 9.81005C7.8542 9.30106 8.42433 8.85025 9.10143 8.45762C9.77879 8.06525 10.5846 7.74567 11.5186 7.49809C12.4524 7.25129 13.5683 7.12711 14.8662 7.12711C16.0216 7.12711 17.0158 7.26616 17.8502 7.54191C18.6845 7.81845 19.369 8.18865 19.9035 8.65381C20.4389 9.11923 20.8307 9.66447 21.0802 10.2898C21.3297 10.9149 21.4545 11.5762 21.4545 12.2741C21.4545 13.248 21.2153 14.2511 20.738 15.2834C20.2598 16.316 19.6072 17.2533 18.7809 18.097C17.9536 18.94 16.9871 19.6347 15.8824 20.1794C14.7772 20.7247 13.6042 20.9968 12.3638 20.9968H12.0747C11.982 20.9968 11.8927 20.99 11.8075 20.9754C12.1786 20.1753 12.5353 19.3934 12.8772 18.6303Z" fill="white"/>
</svg>
