<svg width="590" height="655" viewBox="0 0 590 655" fill="none" xmlns="http://www.w3.org/2000/svg">
<g style="mix-blend-mode:overlay">
<path d="M124.814 326.135C124.814 358.35 98.6887 384.46 66.4783 384.46C34.2679 384.46 8.14731 358.35 8.14731 326.135C8.14731 293.914 34.2627 267.819 66.4783 267.819C98.6939 267.819 124.814 293.914 124.814 326.135ZM189.936 324.117C189.936 255.933 134.668 200.659 66.4783 200.659C-1.69037 200.659 -56.9582 255.932 -56.9791 324.106L-57 324.117C-57 328.257 -56.7334 332.365 -56.3414 336.453C-56.3309 336.678 -56.2943 336.892 -56.2734 337.107C-46.6605 434.208 66.4731 514.985 66.4731 514.985C66.4731 514.985 189.936 436.226 189.936 324.117Z" fill="#BCBCBB"/>
<path d="M494.524 111.953C494.524 159.181 456.235 197.47 409.012 197.47C361.783 197.47 323.494 159.176 323.494 111.953C323.494 64.7294 361.783 26.4397 409.012 26.4397C456.235 26.4397 494.524 64.7294 494.524 111.953ZM590 108.983C590 9.02774 508.973 -72 409.007 -72C309.061 -72 228.034 9.02253 228.018 108.962L227.976 108.983C227.976 115.063 228.363 121.085 228.933 127.091C228.969 127.415 229.006 127.723 229.042 128.037C243.135 270.391 409.012 388.825 409.012 388.825C409.012 388.825 590 273.37 590 108.983Z" fill="#BCBCBB"/>
<path d="M331.803 654.846C258.543 654.846 168.033 645.588 66.8434 622.102C52.1391 618.705 42.9862 604.016 46.3996 589.306C49.8078 574.607 64.4441 565.433 79.2007 568.868C222.924 602.212 332.169 603.906 399.956 597.074C375.44 592.594 351.755 587.399 331.327 581.931C269.144 565.298 243.98 549.104 241.57 524.185C240.216 510.113 246.06 490.961 281.637 479.586C361.326 454.077 401.048 451.056 402.705 450.941C417.692 449.848 430.823 461.223 431.889 476.277C432.945 491.301 421.654 504.343 406.636 505.456C405.894 505.519 379.094 507.866 325.368 523.396C359.873 534.148 415.465 546.087 472.892 552.857C492.938 555.199 516.978 560.567 524.997 581.303C529.508 592.918 526.999 605.851 518.296 615.887C499.394 637.658 431.628 654.846 331.803 654.846Z" fill="#BCBCBB"/>
</g>
</svg>
