<svg width="103" height="131" viewBox="0 0 103 131" fill="none" xmlns="http://www.w3.org/2000/svg">
<path d="M51.5 63.7379C68.9615 63.7379 83.0547 49.4166 83.0547 32.1689C83.0547 14.6996 68.7399 0.599976 51.5 0.599976C34.2601 0.599976 19.9452 14.6996 19.9452 31.9916C19.9452 49.4609 34.0385 63.7379 51.5 63.7379Z" fill="#13B4C9"/>
<path d="M51.5 87.8138C32.8862 87.8138 15.2031 96.6815 0.666626 112.555C14.494 123.905 32.2214 130.733 51.5 130.733C70.7785 130.733 88.5059 123.905 102.333 112.555C88.0184 96.4598 70.1137 87.8138 51.5 87.8138Z" fill="#13B4C9"/>
<path d="M82.5547 32.1689C82.5547 49.143 68.6828 63.2379 51.5 63.2379C34.3185 63.2379 20.4452 49.1887 20.4452 31.9916C20.4452 14.9796 34.5323 1.09998 51.5 1.09998C68.4658 1.09998 82.5547 14.9778 82.5547 32.1689Z" stroke="#13B4C9"/>
<path d="M1.39414 112.503C15.7883 96.9549 33.2074 88.3138 51.5 88.3138C69.7996 88.3138 87.4354 96.743 101.612 112.498C87.9299 123.58 70.4711 130.233 51.5 130.233C32.5315 130.233 15.075 123.582 1.39414 112.503Z" stroke="#13B4C9"/>
</svg>
