<svg width="49" height="36" viewBox="0 0 49 36" fill="none" xmlns="http://www.w3.org/2000/svg">
<path d="M48.9972 24.8723C48.5636 25.8914 47.7668 26.2487 46.6743 26.1933C45.6409 26.1407 44.6048 26.1822 43.5348 26.1822C43.2307 27.9519 42.4058 29.4141 41.088 30.4775C42.1242 31.217 43.1463 31.9592 44.1824 32.6764C44.3176 32.7706 44.54 32.7706 44.723 32.7706C46.0098 32.7706 47.1248 33.1999 48.0624 34.0639C48.4566 34.4295 48.4932 34.8532 48.175 35.18C47.8709 35.4929 47.4627 35.4846 47.0657 35.1606C45.5536 33.9227 43.9966 33.9199 42.4846 35.1523C42.0679 35.4902 41.6371 35.4929 41.3414 35.1551C41.043 34.8172 41.0909 34.4046 41.5047 34.0418C41.8145 33.7731 42.1552 33.5405 42.5184 33.2636C42.4339 33.1888 42.3382 33.0974 42.234 33.0226C37.9627 29.8849 31.8161 30.2477 27.939 33.859C27.8123 33.9781 27.6912 34.1055 27.5504 34.2052C27.2125 34.4406 26.8211 34.399 26.5565 34.1138C26.3003 33.8368 26.2862 33.4242 26.5621 33.1306C26.8409 32.8343 27.1534 32.5657 27.4519 32.286C25.2669 30.1895 21.6038 30.3031 19.7989 31.7819C20.2551 32.1724 20.7196 32.5546 21.1617 32.9589C21.6038 33.3633 21.646 33.8147 21.3081 34.1442C20.9731 34.4683 20.5704 34.4322 20.1312 34.0251C17.8477 31.8927 15.1362 30.8237 11.9855 30.8985C9.16141 30.9677 6.7118 31.9813 4.63104 33.8562C4.53812 33.9421 4.44802 34.0335 4.35229 34.1138C3.96654 34.4406 3.54701 34.4406 3.24574 34.1193C2.95573 33.8091 2.98388 33.3771 3.34147 33.0337C4.70143 31.7182 6.27537 30.7323 8.08583 30.1203C8.17312 30.0898 8.25759 30.0483 8.39274 29.9901C7.36221 28.9073 6.73432 27.6472 6.49499 26.1822C5.82487 26.1822 5.18853 26.1877 4.55501 26.1822C3.63711 26.1739 2.9698 25.7169 2.72766 24.9443C2.45172 24.0664 2.75863 23.2134 3.49633 22.6983C3.6343 22.6014 3.75819 22.3937 3.76945 22.2303C3.80605 21.7512 3.78353 21.2693 3.78353 20.7514C3.09369 20.7514 2.47425 20.757 1.85481 20.7514C0.722917 20.7376 0.00211174 20.0341 0.00211174 18.9236C-0.000703912 15.6253 -0.000703912 12.3297 0.00211174 9.03686C0.00492738 7.95402 0.71447 7.23398 1.81539 7.20075C2.45172 7.18136 3.08806 7.19798 3.78353 7.19798C3.78353 6.23699 3.79197 5.31478 3.77226 4.39534C3.76945 4.30395 3.62303 4.17933 3.51604 4.13502C2.95573 3.89131 2.68261 3.47867 2.68261 2.88325C2.68261 2.34876 2.67135 1.81703 2.68542 1.28254C2.70513 0.509877 3.18942 0.0390793 3.98062 0.00861591C4.1214 -0.00246169 4.265 0.000307711 4.4086 0.000307711C13.5003 0.000307711 22.5892 0.000307711 31.681 0.000307711C32.9987 0.000307711 33.3901 0.382485 33.3901 1.67856C33.3901 1.96104 33.3901 2.24352 33.3901 2.526C33.3901 3.62822 33.1958 3.90239 32.1371 4.26518C32.444 4.96861 32.7622 5.6665 33.055 6.37269C33.2324 6.79918 33.0663 7.19798 32.6861 7.36137C32.2976 7.52753 31.909 7.37522 31.6922 6.96812C31.6415 6.87119 31.6049 6.76595 31.5599 6.66625C31.2473 5.96282 30.9235 5.26494 30.6307 4.5532C30.5153 4.27349 30.3548 4.19041 30.0591 4.19318C28.4486 4.20703 26.838 4.19872 25.2275 4.19872C25.0839 4.19872 24.9403 4.20426 24.7967 4.19318C24.3377 4.15718 24.0308 3.84423 24.0477 3.4399C24.0646 3.04665 24.3631 2.7614 24.8051 2.74478C25.2022 2.73094 25.602 2.73924 26.0018 2.73924C27.7728 2.73924 29.5411 2.73924 31.3121 2.73924C31.4839 2.73924 31.6528 2.73924 31.8527 2.73924C31.8527 2.30168 31.8527 1.91673 31.8527 1.49578C22.6512 1.49578 13.4581 1.49578 4.2284 1.49578C4.2284 1.89735 4.2284 2.29337 4.2284 2.73924C4.43676 2.73924 4.62259 2.73924 4.81124 2.73924C10.3778 2.73924 15.9443 2.73924 21.5108 2.73924C21.6375 2.73924 21.7671 2.73924 21.8938 2.73924C22.5104 2.74478 22.8595 3.01341 22.8539 3.4759C22.8455 3.93562 22.4991 4.19318 21.8741 4.19595C21.187 4.20149 20.5028 4.19595 19.8158 4.19595C19.661 4.19595 19.5061 4.19595 19.3203 4.19595C19.3203 7.17582 19.3203 10.1003 19.3203 13.0553C24.3349 13.0553 29.3214 13.0553 34.3558 13.0553C34.3023 12.9112 34.2629 12.7839 34.2094 12.6592C33.7476 11.6096 33.2831 10.5628 32.8241 9.51042C32.582 8.95654 32.7143 8.54944 33.1732 8.36943C33.5928 8.20327 33.9616 8.40266 34.201 8.93993C34.7388 10.1446 35.2822 11.3465 35.7918 12.5623C35.9523 12.9417 36.1381 13.0996 36.5886 13.0968C39.4578 13.0691 42.3297 13.0829 45.2017 13.0829C46.8376 13.0829 47.6879 13.9082 47.7583 15.5283C47.7639 15.6806 47.8428 15.8551 47.9441 15.9742C48.2679 16.3508 48.4453 16.7662 48.4341 17.262C48.4228 17.7328 48.4707 18.2091 48.4172 18.6716C48.3777 19.0012 48.2905 19.3889 48.0765 19.6187C47.7696 19.9538 47.7386 20.2945 47.7499 20.6905C47.7639 21.1751 47.7639 21.6625 47.747 22.15C47.7386 22.3964 47.7921 22.546 48.0483 22.6568C48.5664 22.8783 48.8085 23.3463 49 23.8365C48.9972 24.1827 48.9972 24.5289 48.9972 24.8723ZM5.29553 13.1494C5.60525 13.1245 5.85584 13.0885 6.10925 13.0857C7.35377 13.0802 8.59547 13.0802 9.83998 13.0857C10.4256 13.0885 10.7438 13.3599 10.7354 13.8279C10.7269 14.2904 10.4144 14.5397 9.81183 14.5424C8.66304 14.548 7.51707 14.5424 6.36829 14.5452C5.52078 14.548 5.27582 14.7834 5.27582 15.6031C5.273 17.7189 5.27582 19.8375 5.27582 21.9533C5.27582 22.1029 5.27582 22.2552 5.27582 22.3964C5.38563 22.4214 5.43068 22.438 5.47573 22.438C5.87555 22.4407 6.27537 22.4214 6.66956 22.4491C6.97365 22.4712 7.1088 22.341 7.24959 22.0918C8.57294 19.7627 10.6002 18.4944 13.3117 18.4944C16.0034 18.4944 18.0251 19.7517 19.3456 22.0586C19.523 22.3715 19.7116 22.4518 20.0495 22.4491C23.2706 22.438 26.4889 22.4407 29.71 22.4407C30.535 22.4407 30.535 22.4407 30.8841 21.5601C30.6955 21.5601 30.5265 21.5601 30.3604 21.5601C27.6658 21.5601 24.9713 21.5518 22.2767 21.5656C21.5981 21.5684 21.0406 21.3635 20.562 20.8843C19.9932 20.3139 19.4188 19.7434 18.7966 19.231C18.0476 18.6134 17.7322 17.874 17.797 16.9186C17.8505 16.1431 17.8083 15.3649 17.8083 14.5424C17.5689 14.5424 17.3972 14.5424 17.2254 14.5424C15.9021 14.5424 14.5787 14.5452 13.2554 14.5397C12.681 14.5369 12.3403 14.2516 12.3459 13.803C12.3515 13.3571 12.6894 13.0857 13.2723 13.0829C14.5956 13.0774 15.919 13.0802 17.2423 13.0802C17.4113 13.0802 17.5802 13.0802 17.752 13.0802C17.752 10.0865 17.752 7.16474 17.752 4.22918C13.582 4.22918 9.44579 4.22918 5.2899 4.22918C5.29553 7.2229 5.29553 10.1834 5.29553 13.1494ZM34.8091 14.5701C29.6227 14.5701 24.4982 14.5701 19.3315 14.5701C19.3315 15.5643 19.3203 16.5336 19.3428 17.5029C19.3456 17.6469 19.4892 17.8075 19.6046 17.9211C20.2748 18.5691 20.9505 19.2144 21.646 19.8375C21.7924 19.9704 22.0345 20.0646 22.2316 20.0674C25.4837 20.0812 28.7358 20.0785 31.9879 20.0701C32.1484 20.0701 32.3201 20.0037 32.4665 19.9261C33.1535 19.5716 33.8377 19.2089 34.5135 18.8295C34.6374 18.7602 34.7922 18.6024 34.7951 18.4833C34.8148 17.201 34.8091 15.916 34.8091 14.5701ZM20.134 26.1822C19.7539 27.9795 19.6131 28.2288 17.6816 30.5412C18.087 30.8874 18.4193 30.8902 18.9035 30.5551C21.6038 28.6802 25.2866 28.7744 27.9277 30.7296C28.2064 30.9345 28.4683 31.1616 28.6851 31.3333C29.7269 30.8514 30.7265 30.3889 31.6753 29.9514C31.3008 29.3809 30.8644 28.8298 30.5631 28.2177C30.2534 27.5918 30.0789 26.905 29.8226 26.1822C29.2342 26.1822 28.5837 26.1822 27.9361 26.1822C27.266 26.1822 26.5959 26.1961 25.9286 26.1739C25.4556 26.1573 25.1656 25.8554 25.1627 25.44C25.1599 25.0218 25.4499 24.7338 25.923 24.6978C26.0975 24.684 26.2721 24.6923 26.4495 24.6923C27.5786 24.6923 28.7076 24.6923 29.8564 24.6923C29.8958 24.4292 29.9296 24.2049 29.969 23.9584C26.6522 23.9584 23.3776 23.9584 20.0692 23.9584C20.1086 24.2187 20.1424 24.443 20.1819 24.6923C20.4465 24.6923 20.669 24.6923 20.8886 24.6923C21.6544 24.6923 22.4203 24.6812 23.1833 24.7006C23.6338 24.7117 23.9182 25.0024 23.9379 25.3985C23.9576 25.8028 23.6958 26.1102 23.265 26.1711C23.1242 26.1905 22.9778 26.1822 22.8342 26.1822C21.9388 26.1822 21.0491 26.1822 20.134 26.1822ZM35.5891 29.3864C35.5947 29.3615 35.6003 29.3366 35.606 29.3116C36.6872 29.4833 37.7656 29.6716 38.8524 29.8184C39.0946 29.8517 39.4071 29.8295 39.5957 29.7021C41.4428 28.4642 42.2988 26.7444 42.02 24.5455C41.7216 22.1693 39.8294 20.3249 37.4108 19.9954C35.0794 19.6769 32.7481 20.9813 31.7936 23.1359C30.8363 25.2932 31.467 27.8854 33.3253 29.3449C33.4745 29.4639 33.7223 29.5166 33.9194 29.511C34.4797 29.4944 35.0344 29.4307 35.5891 29.3864ZM13.3483 19.9621C11.0592 19.9455 9.03471 21.3413 8.25477 23.4765C7.49173 25.5591 8.16467 27.9602 9.91319 29.3338C10.0681 29.4556 10.3158 29.5553 10.4988 29.5304C12.1798 29.3033 13.8326 29.4169 15.4797 29.7935C15.7078 29.8461 16.026 29.8018 16.2231 29.6772C18.2334 28.4227 19.1316 25.9911 18.4559 23.7202C17.7998 21.5213 15.7078 19.9788 13.3483 19.9621ZM36.324 14.5729C36.324 15.8773 36.324 17.154 36.324 18.4417C36.4056 18.4556 36.4647 18.475 36.5267 18.475C39.3789 18.4999 41.485 19.7517 42.8563 22.2081C42.9098 22.3023 43.028 22.4269 43.1181 22.4297C44.1458 22.4463 45.1764 22.4407 46.2012 22.4407C46.2012 21.7124 46.2012 21.0477 46.2012 20.3554C45.7705 20.3554 45.3735 20.3554 44.9764 20.3554C44.5625 20.3554 44.1486 20.3637 43.7347 20.3526C42.7521 20.3222 42.0285 19.6104 42.0031 18.6439C41.9919 18.1897 41.9947 17.7355 42.0003 17.2814C42.0116 16.1681 42.7239 15.4646 43.8558 15.4591C44.6357 15.4563 45.4129 15.4591 46.19 15.4591C46.2435 14.8055 45.9676 14.548 45.227 14.5452C42.4058 14.5424 39.5873 14.5424 36.766 14.5452C36.628 14.5452 36.4873 14.5618 36.324 14.5729ZM3.75255 8.6796C3.23729 8.6796 2.74455 8.6796 2.25463 8.6796C1.50848 8.6796 1.50848 8.6796 1.50848 9.39134C1.50848 10.8979 1.50848 12.4017 1.50848 13.9082C1.50848 15.5228 1.50848 17.1401 1.50848 18.7547C1.50848 18.9901 1.46906 19.2698 1.82102 19.2781C2.45454 19.2947 3.08806 19.2836 3.75255 19.2836C3.75255 15.7305 3.75255 12.2244 3.75255 8.6796ZM45.1792 18.871C45.61 18.871 46.0408 18.8599 46.4716 18.8738C46.7954 18.8848 46.9446 18.7658 46.9333 18.439C46.9221 18.0956 46.9192 17.7494 46.9333 17.4032C46.9474 17.0653 46.8179 16.9158 46.4631 16.9296C45.9535 16.9463 45.4438 16.9241 44.9342 16.9352C43.2195 16.9767 43.532 16.5973 43.4926 18.4223C43.4841 18.7796 43.6503 18.8876 43.9881 18.8738C44.3823 18.8599 44.7822 18.871 45.1792 18.871ZM43.5742 24.695C44.785 24.695 45.9591 24.6923 47.1304 24.6978C47.4035 24.6978 47.488 24.5566 47.488 24.3129C47.488 24.0719 47.4063 23.9251 47.1304 23.9279C46.7982 23.9335 46.4631 23.9279 46.1309 23.9279C45.2467 23.9279 44.3654 23.9279 43.4644 23.9279C43.5039 24.2049 43.5348 24.4181 43.5742 24.695ZM6.55694 23.9307C5.83332 23.9307 5.15475 23.9141 4.47617 23.9473C4.36073 23.9528 4.1749 24.1744 4.16927 24.3018C4.16645 24.4292 4.34384 24.6673 4.45083 24.6729C5.1097 24.7089 5.77419 24.6895 6.45557 24.6895C6.49218 24.4292 6.52033 24.2159 6.55694 23.9307Z" fill="white"/>
<path d="M35.2314 33.3549C36.5013 33.3965 37.5937 33.7953 38.5032 34.6399C38.9058 35.0138 38.9537 35.4154 38.6552 35.7532C38.3624 36.08 37.9147 36.0745 37.5121 35.7422C36.0367 34.5181 34.443 34.5236 32.9366 35.7505C32.5481 36.0662 32.1201 36.0773 31.8273 35.7782C31.5091 35.4541 31.5429 35.0221 31.9315 34.6621C32.8663 33.798 33.9841 33.3799 35.2314 33.3549Z" fill="white"/>
<path d="M16.1358 35.3157C15.9444 35.5428 15.8092 35.8502 15.6093 35.9C15.3446 35.9637 14.9561 35.9139 14.7505 35.7533C14.0973 35.2326 13.4018 34.8781 12.5515 34.8477C11.6477 34.8172 10.8593 35.0997 10.1976 35.6979C9.91605 35.9526 9.61478 36.0883 9.24593 35.936C8.73348 35.7228 8.66309 35.1218 9.09107 34.6926C10.4257 33.355 12.6895 32.9645 14.4352 33.8119C14.8998 34.0362 15.3193 34.363 15.7247 34.6843C15.8993 34.8172 15.9781 35.0609 16.1358 35.3157Z" fill="white"/>
<path d="M22.7948 15.3566C23.2256 15.3566 23.6535 15.3428 24.0843 15.3594C24.5236 15.376 24.808 15.6696 24.8136 16.0684C24.8192 16.4782 24.5574 16.7884 24.1097 16.7995C23.2368 16.8244 22.3583 16.8216 21.4855 16.7995C21.0575 16.7884 20.7647 16.4533 20.7731 16.0684C20.7788 15.6779 21.0772 15.376 21.508 15.3566C21.936 15.3455 22.3668 15.3566 22.7948 15.3566Z" fill="white"/>
<path d="M36.6873 28.9184C34.6487 28.9073 33.0016 27.265 33.0044 25.2461C33.0072 23.2079 34.6825 21.5684 36.7464 21.5822C38.7793 21.5961 40.4462 23.2522 40.4405 25.2572C40.4349 27.2872 38.7511 28.9294 36.6873 28.9184ZM36.7239 27.4367C37.9487 27.434 38.937 26.4591 38.9398 25.2572C38.9426 24.0525 37.9543 23.0749 36.7323 23.0694C35.4794 23.0639 34.4798 24.047 34.4939 25.2711C34.5108 26.4813 35.4962 27.4395 36.7239 27.4367Z" fill="white"/>
<path d="M13.2948 28.9184C11.2647 28.9128 9.58939 27.2595 9.58375 25.2572C9.57812 23.2383 11.276 21.5739 13.3286 21.5795C15.384 21.5878 17.0508 23.255 17.034 25.2905C17.0171 27.2955 15.3389 28.9267 13.2948 28.9184ZM15.5248 25.2295C15.5163 24.0138 14.5393 23.0639 13.3032 23.0666C12.0531 23.0694 11.0817 24.0525 11.0986 25.296C11.1155 26.4979 12.115 27.4506 13.3483 27.434C14.5731 27.4229 15.5332 26.4508 15.5248 25.2295Z" fill="white"/>
</svg>
