<svg width="29" height="32" viewBox="0 0 29 32" fill="none" xmlns="http://www.w3.org/2000/svg">
<g opacity="0.7">
<path d="M8.00453 17.5281C8.00453 18.9464 6.85432 20.0959 5.43623 20.0959C4.01815 20.0959 2.86816 18.9464 2.86816 17.5281C2.86816 16.1095 4.01792 14.9607 5.43623 14.9607C6.85455 14.9607 8.00453 16.1095 8.00453 17.5281ZM10.8716 17.4392C10.8716 14.4374 8.43834 12.0039 5.43623 12.0039C2.43505 12.0039 0.00184057 14.4373 0.000920032 17.4388L0 17.4392C0 17.6215 0.0117367 17.8024 0.0289968 17.9823C0.0294571 17.9922 0.0310681 18.0017 0.0319887 18.0111C0.455206 22.2861 5.43601 25.8423 5.43601 25.8423C5.43601 25.8423 10.8716 22.3749 10.8716 17.4392Z" fill="#414142"/>
<path d="M24.2812 8.09866C24.2812 10.1779 22.5955 11.8637 20.5164 11.8637C18.4372 11.8637 16.7514 10.1777 16.7514 8.09866C16.7514 6.01963 18.4372 4.33389 20.5164 4.33389C22.5955 4.33389 24.2812 6.01963 24.2812 8.09866ZM28.4846 7.96794C28.4846 3.56731 24.9173 0 20.5162 0C16.116 0 12.5487 3.56708 12.548 7.96702L12.5462 7.96794C12.5462 8.23559 12.5632 8.50071 12.5883 8.76513C12.5899 8.7794 12.5915 8.79298 12.5931 8.80679C13.2136 15.074 20.5164 20.2882 20.5164 20.2882C20.5164 20.2882 28.4846 15.2052 28.4846 7.96794Z" fill="#E7245B"/>
<path d="M17.1174 32.0001C13.892 32.0001 9.90725 31.5926 5.45231 30.5586C4.80494 30.409 4.40197 29.7623 4.55225 29.1147C4.7023 28.4676 5.34667 28.0637 5.99634 28.2149C12.3239 29.6829 17.1335 29.7575 20.1179 29.4567C19.0385 29.2594 17.9958 29.0307 17.0964 28.79C14.3587 28.0577 13.2509 27.3447 13.1448 26.2477C13.0852 25.6282 13.3425 24.7849 14.9088 24.2842C18.4172 23.1611 20.1659 23.0281 20.2389 23.023C20.8987 22.9749 21.4768 23.4757 21.5237 24.1385C21.5702 24.7999 21.0731 25.3741 20.412 25.4231C20.3793 25.4259 19.1994 25.5292 16.8341 26.2129C18.3532 26.6863 20.8007 27.2119 23.3289 27.51C24.2115 27.6131 25.2699 27.8494 25.6229 28.7624C25.8215 29.2737 25.711 29.8431 25.3279 30.2849C24.4957 31.2434 21.5122 32.0001 17.1174 32.0001Z" fill="#13B4C9"/>
</g>
</svg>
