<svg width="31" height="19" viewBox="0 0 31 19" fill="none" xmlns="http://www.w3.org/2000/svg">
<path d="M30.5 11.1633C30.319 11.4367 30.1833 11.8013 29.9118 11.9835C29.6855 12.1658 29.3235 12.2114 29.0068 12.257C28.9163 12.3025 28.7805 12.257 28.6448 12.257C28.6448 12.6215 28.6448 12.9861 28.6448 13.3506C28.6448 13.4873 28.6448 13.5785 28.6448 13.7152C28.6448 13.9886 28.4186 14.1709 28.1923 14.1709C27.9661 14.1709 27.7851 13.9886 27.7851 13.7152C27.7851 13.5785 27.7851 13.4418 27.7851 13.3506C27.7851 13.2139 27.7851 13.1228 27.7851 12.8949C27.1063 13.6241 26.3371 14.0797 25.3869 14.1709C25.3869 14.6722 25.3869 15.1734 25.3869 15.6291C25.3869 15.6747 25.5226 15.7658 25.5679 15.8114C26.0656 16.0848 26.3824 16.6772 26.2919 17.2241C26.2014 17.8165 25.7941 18.2722 25.1606 18.4089C24.5271 18.5456 23.8484 18.181 23.6222 17.543C23.3959 16.9051 23.6222 16.176 24.2557 15.857C24.4366 15.7658 24.5271 15.6291 24.4819 15.4468C24.4819 15.0367 24.4819 14.6266 24.4819 14.2165C24.3462 14.2165 24.3009 14.2165 24.2104 14.2165C23.0792 14.2165 21.948 14.2165 20.862 14.2165C20.7262 14.2165 20.6357 14.2165 20.5452 14.3987C20.2738 14.9456 19.8213 15.1734 19.233 15.1734C18.2828 15.1734 17.3326 15.1734 16.3824 15.1734C16.2919 15.1734 16.1561 15.1734 16.0656 15.1734C15.9751 15.6291 15.9751 15.7203 16.3371 15.9481C16.8348 16.2671 17.0611 16.9051 16.9253 17.4975C16.7443 18.0899 16.2014 18.5 15.6131 18.5C15.0249 18.5 14.4819 18.0899 14.3009 17.543C14.1199 16.9506 14.3009 16.2671 14.8439 15.9937C15.2059 15.8114 15.2059 15.538 15.1606 15.219C15.0701 15.219 14.9796 15.219 14.8439 15.219C13.9389 15.219 12.9887 15.219 12.0837 15.219C11.4502 15.219 10.9072 15.0367 10.5905 14.3987C10.319 13.8063 10.4548 13.2595 10.9072 12.7582C10.7715 12.7127 10.681 12.6671 10.5905 12.6215C7.64932 11.6646 4.6629 10.7076 1.72172 9.7962C1.17873 9.61392 0.771493 9.34051 0.590498 8.7481C0.590498 8.56582 0.590498 8.38354 0.590498 8.20127C0.861991 7.47215 1.40498 7.15317 2.17421 7.19873C2.49095 7.2443 2.80769 7.19873 3.16968 7.19873C2.71719 6.24177 2.3552 5.42152 2.03846 4.60127C1.49548 3.41646 0.997738 2.27722 0.5 1.09241C0.5 1.00127 0.5 0.910127 0.5 0.818987C0.635747 0.591139 0.861991 0.5 1.13348 0.5C1.94796 0.5 2.76244 0.5 3.62217 0.5C4.16516 0.5 4.61765 0.682278 4.97964 1.13797C6.6086 3.0519 8.23756 4.96582 9.91176 6.92532C10.0475 7.1076 10.1833 7.15317 10.4095 7.15317C13.8032 7.15317 17.1968 7.15317 20.5905 7.15317C21.767 7.15317 22.7172 7.56329 23.4412 8.52025C23.4412 8.56582 23.4864 8.56582 23.4864 8.61139C23.7579 8.93038 23.9389 9.34051 24.2557 9.47722C24.5724 9.61392 25.0249 9.52279 25.4321 9.52279C26.1109 9.52279 26.7896 9.52279 27.4683 9.52279C27.5588 9.52279 27.6946 9.52279 27.7851 9.52279C27.7851 9.06709 27.7851 8.61139 27.7851 8.1557C27.7851 7.83671 27.9661 7.60886 28.2376 7.60886C28.509 7.60886 28.6448 7.79114 28.6448 8.1557C28.6448 8.61139 28.6448 9.02152 28.6448 9.52279C28.7805 9.52279 28.9163 9.52279 29.052 9.52279C29.776 9.52279 30.2285 9.84177 30.4547 10.5253C30.4547 10.5709 30.5 10.5709 30.5 10.6165C30.5 10.7532 30.5 10.981 30.5 11.1633ZM24.4367 10.3886C24.1199 11.5279 23.8032 11.8013 22.6267 11.8013C21.1335 11.8013 19.6855 11.8013 18.1923 11.8013C17.2873 11.8013 16.3824 11.619 15.5679 11.2544C14.7986 10.8899 13.9842 10.5253 13.1697 10.2063C12.5362 9.93291 12.2195 9.43165 12.2195 8.7481C12.2195 8.52025 12.2195 8.29241 12.2195 8.06456C11.7217 8.06456 11.2692 8.06456 10.8167 8.06456C9.45928 8.06456 8.10181 8.06456 6.74434 8.06456C6.3371 8.06456 6.11086 7.92785 6.11086 7.60886C6.11086 7.33544 6.3371 7.15317 6.74434 7.15317C7.28733 7.15317 7.87557 7.15317 8.41855 7.15317C8.5543 7.15317 8.69004 7.15317 8.87104 7.15317C8.78054 7.06203 8.73529 6.97089 8.69005 6.92532C7.87557 6.01393 7.06109 5.10253 6.3371 4.1C5.83937 3.46203 5.34163 3.18861 4.52715 3.27975C3.84842 3.37089 3.12443 3.27975 2.40045 3.27975C2.4457 3.41646 2.49095 3.5076 2.5362 3.59873C2.98869 4.60127 3.44118 5.64937 3.84842 6.6519C3.98416 7.01646 4.16516 7.19874 4.5724 7.15317C4.93439 7.1076 5.16063 7.28987 5.11538 7.60886C5.11538 7.88228 4.93439 8.01899 4.52715 8.06456C3.89366 8.06456 3.21493 8.06456 2.58145 8.06456C2.30995 8.06456 1.99321 8.06456 1.72172 8.06456C1.49548 8.06456 1.31448 8.20127 1.35973 8.38354C1.35973 8.52025 1.49548 8.65696 1.63122 8.79367C1.67647 8.83924 1.72172 8.83924 1.81222 8.83924C5.38688 9.97848 8.91629 11.1177 12.4909 12.257C12.6719 12.3025 12.8529 12.3481 13.0792 12.3481C14.4367 12.3481 15.7941 12.3481 17.1516 12.3481C17.2421 12.3481 17.3778 12.3481 17.4683 12.3481C17.6946 12.3937 17.8303 12.5304 17.8303 12.7582C17.8303 12.9861 17.7398 13.1228 17.5136 13.2139C17.4231 13.2595 17.2873 13.2595 17.1516 13.2595C15.4321 13.2595 13.7127 13.2595 12.0385 13.2595C11.948 13.2595 11.8122 13.2595 11.7217 13.2595C11.4502 13.3051 11.3145 13.4418 11.2692 13.7152C11.224 13.943 11.405 14.1709 11.6765 14.2165C11.767 14.262 11.9027 14.262 11.9932 14.262C14.3462 14.262 16.7443 14.262 19.0973 14.262C19.233 14.262 19.3688 14.262 19.4593 14.2165C19.776 14.1253 19.9118 13.7152 19.6855 13.4873C19.595 13.3506 19.414 13.3051 19.233 13.2595C18.9615 13.1684 18.8258 13.0316 18.871 12.7582C18.9163 12.5304 19.0973 12.3937 19.3688 12.3937C19.9118 12.3937 20.2738 12.6671 20.5452 13.1228C20.6357 13.3051 20.7262 13.3506 20.9072 13.3506C22.31 13.3506 23.7127 13.3506 25.1154 13.3506C25.7036 13.3506 26.2466 13.2139 26.6538 12.8494C27.0611 12.5304 27.3778 12.1658 27.7398 11.8013C27.7851 11.7557 27.8303 11.7101 27.8303 11.6646C27.8303 11.2544 27.8303 10.8899 27.8303 10.4797C26.6086 10.3886 25.5226 10.3886 24.4367 10.3886ZM17.3778 8.01899C17.3778 8.88481 17.3778 9.75063 17.3778 10.5709C17.3778 10.7987 17.4231 10.8899 17.6946 10.8899C18.871 10.8899 20.0928 10.8899 21.2692 10.8899C21.3145 10.8899 21.3597 10.8899 21.405 10.8443C20.9525 9.93291 20.5 9.02152 20.0475 8.11013C20.0023 8.06456 19.957 7.97342 19.8665 7.97342C19.0068 8.01899 18.2376 8.01899 17.3778 8.01899ZM13.1244 8.01899C13.1244 8.29241 13.1244 8.52025 13.1244 8.79367C13.1244 9.06709 13.2602 9.24937 13.4864 9.34051C14.3462 9.70506 15.2511 10.1152 16.1109 10.5253C16.2014 10.5709 16.3371 10.6165 16.4728 10.662C16.4728 9.75063 16.4728 8.93038 16.4728 8.06456C15.3416 8.01899 14.2557 8.01899 13.1244 8.01899ZM20.9525 8.01899C21.405 8.97595 21.8575 9.88734 22.31 10.7532C22.3552 10.7987 22.4457 10.8899 22.4909 10.8899C22.6719 10.8899 22.8982 10.8899 23.0792 10.8899C23.4864 10.8443 23.7127 10.2975 23.4412 10.0241C23.1244 9.56836 22.7624 9.15823 22.4005 8.7481C22.0385 8.29241 21.5407 8.06456 20.9525 8.01899ZM4.88914 2.41392C4.61765 2.04937 4.3914 1.77595 4.16516 1.5481C4.07466 1.45696 3.93891 1.41139 3.84842 1.41139C3.12443 1.41139 2.40045 1.41139 1.63122 1.41139C1.76697 1.73038 1.85747 2.0038 1.99321 2.27722C2.03846 2.32279 2.12896 2.36835 2.21946 2.36835C3.07919 2.41392 3.93891 2.41392 4.88914 2.41392ZM28.6448 11.3911C29.0068 11.3911 29.3688 11.4823 29.5498 11.1177C29.595 10.981 29.595 10.7532 29.5045 10.6165C29.2783 10.2975 28.9615 10.4342 28.6448 10.3886C28.6448 10.7076 28.6448 11.0266 28.6448 11.3911ZM24.8891 16.5405C24.6176 16.5405 24.3914 16.7684 24.3914 17.0418C24.3914 17.3152 24.6176 17.543 24.8891 17.543C25.1606 17.543 25.3869 17.3152 25.3869 17.0418C25.4321 16.7228 25.2059 16.5405 24.8891 16.5405ZM15.5226 17.4975C15.7941 17.4975 16.0204 17.2696 16.0204 16.9962C16.0204 16.7228 15.8394 16.4949 15.5679 16.4949C15.2964 16.4949 15.0701 16.6772 15.0701 16.9506C15.0249 17.2696 15.2059 17.4975 15.5226 17.4975Z" fill="#E7245B"/>
</svg>
