<svg width="49" height="29" viewBox="0 0 49 29" fill="none" xmlns="http://www.w3.org/2000/svg">
<path d="M49 17.1797C48.7044 17.6203 48.4827 18.2076 48.0392 18.5013C47.6697 18.7949 47.0784 18.8684 46.5611 18.9418C46.4133 19.0152 46.1916 18.9418 45.9698 18.9418C45.9698 19.5291 45.9698 20.1165 45.9698 20.7038C45.9698 20.9241 45.9698 21.0709 45.9698 21.2911C45.9698 21.7316 45.6003 22.0253 45.2308 22.0253C44.8612 22.0253 44.5656 21.7316 44.5656 21.2911C44.5656 21.0709 44.5656 20.8506 44.5656 20.7038C44.5656 20.4835 44.5656 20.3367 44.5656 19.9696C43.457 21.1443 42.2006 21.8785 40.6486 22.0253C40.6486 22.8329 40.6486 23.6405 40.6486 24.3747C40.6486 24.4481 40.8703 24.5949 40.9442 24.6684C41.7572 25.1089 42.2745 26.0633 42.1267 26.9443C41.9789 27.8987 41.3137 28.6329 40.279 28.8532C39.2443 29.0734 38.1357 28.4861 37.7662 27.4582C37.3967 26.4304 37.7662 25.2557 38.8009 24.7418C39.0965 24.5949 39.2443 24.3747 39.1704 24.081C39.1704 23.4203 39.1704 22.7595 39.1704 22.0987C38.9487 22.0987 38.8748 22.0987 38.727 22.0987C36.8793 22.0987 35.0317 22.0987 33.2579 22.0987C33.0362 22.0987 32.8884 22.0987 32.7406 22.3924C32.2971 23.2734 31.5581 23.6405 30.5973 23.6405C29.0452 23.6405 27.4932 23.6405 25.9412 23.6405C25.7934 23.6405 25.5716 23.6405 25.4238 23.6405C25.276 24.3747 25.276 24.5215 25.8673 24.8886C26.6802 25.4025 27.0498 26.4304 26.8281 27.3848C26.5324 28.3392 25.6455 29 24.6848 29C23.724 29 22.8371 28.3392 22.5415 27.4582C22.2459 26.5038 22.5415 25.4025 23.4284 24.962C24.0196 24.6684 24.0196 24.2278 23.9457 23.7139C23.7979 23.7139 23.6501 23.7139 23.4284 23.7139C21.9502 23.7139 20.3982 23.7139 18.9201 23.7139C17.8854 23.7139 16.9985 23.4203 16.4811 22.3924C16.0377 21.438 16.2594 20.557 16.9985 19.7494C16.7768 19.6759 16.629 19.6025 16.4811 19.5291C11.6772 17.9873 6.7994 16.4456 1.99548 14.9772C1.1086 14.6835 0.443439 14.243 0.147813 13.2886C0.147813 12.9949 0.147813 12.7013 0.147813 12.4076C0.591252 11.2329 1.47813 10.719 2.73454 10.7924C3.25189 10.8658 3.76923 10.7924 4.36048 10.7924C3.62142 9.25063 3.03017 7.92911 2.51282 6.60759C1.62594 4.69873 0.812971 2.86329 0 0.95443C0 0.807595 0 0.66076 0 0.513924C0.221719 0.146835 0.591252 0 1.03469 0C2.36501 0 3.69532 0 5.09955 0C5.98642 0 6.72549 0.293671 7.31674 1.02785C9.97738 4.11139 12.638 7.19494 15.3725 10.3519C15.5943 10.6456 15.816 10.719 16.1855 10.719C21.7285 10.719 27.2715 10.719 32.8145 10.719C34.736 10.719 36.2881 11.3797 37.4706 12.9215C37.4706 12.9949 37.5445 12.9949 37.5445 13.0684C37.9879 13.5823 38.2836 14.243 38.8009 14.4633C39.3182 14.6835 40.0573 14.5367 40.7225 14.5367C41.8311 14.5367 42.9397 14.5367 44.0483 14.5367C44.1961 14.5367 44.4178 14.5367 44.5656 14.5367C44.5656 13.8025 44.5656 13.0684 44.5656 12.3342C44.5656 11.8203 44.8612 11.4532 45.3047 11.4532C45.7481 11.4532 45.9698 11.7468 45.9698 12.3342C45.9698 13.0684 45.9698 13.7291 45.9698 14.5367C46.1916 14.5367 46.4133 14.5367 46.635 14.5367C47.8175 14.5367 48.5566 15.0506 48.9261 16.1519C48.9261 16.2253 49 16.2253 49 16.2987C49 16.519 49 16.8861 49 17.1797ZM39.0965 15.9316C38.5792 17.7671 38.0618 18.2076 36.1403 18.2076C33.7014 18.2076 31.3363 18.2076 28.8974 18.2076C27.4193 18.2076 25.9412 17.9139 24.6109 17.3266C23.3544 16.7392 22.0241 16.1519 20.6938 15.638C19.6591 15.1975 19.1418 14.3899 19.1418 13.2886C19.1418 12.9215 19.1418 12.5544 19.1418 12.1873C18.3288 12.1873 17.5897 12.1873 16.8507 12.1873C14.6335 12.1873 12.4163 12.1873 10.1991 12.1873C9.53394 12.1873 9.1644 11.9671 9.1644 11.4532C9.1644 11.0127 9.53394 10.719 10.1991 10.719C11.086 10.719 12.0468 10.719 12.9336 10.719C13.1554 10.719 13.3771 10.719 13.6727 10.719C13.5249 10.5722 13.451 10.4253 13.3771 10.3519C12.0468 8.88354 10.7164 7.41519 9.53394 5.8C8.72096 4.77215 7.90799 4.33165 6.57768 4.47848C5.46908 4.62532 4.28658 4.47848 3.10407 4.47848C3.17798 4.69873 3.25189 4.84557 3.32579 4.99241C4.06486 6.6076 4.80392 8.2962 5.46908 9.91139C5.6908 10.4987 5.98642 10.7924 6.65158 10.719C7.24284 10.6456 7.61237 10.9392 7.53846 11.4532C7.53846 11.8937 7.24284 12.1139 6.57768 12.1873C5.54299 12.1873 4.43439 12.1873 3.3997 12.1873C2.95626 12.1873 2.43891 12.1873 1.99548 12.1873C1.62594 12.1873 1.33032 12.4076 1.40422 12.7013C1.40422 12.9215 1.62594 13.1418 1.84766 13.362C1.92157 13.4354 1.99548 13.4354 2.14329 13.4354C7.9819 15.2709 13.7466 17.1063 19.5852 18.9418C19.8808 19.0152 20.1765 19.0886 20.546 19.0886C22.7632 19.0886 24.9804 19.0886 27.1976 19.0886C27.3454 19.0886 27.5671 19.0886 27.7149 19.0886C28.0845 19.162 28.3062 19.3823 28.3062 19.7494C28.3062 20.1165 28.1584 20.3367 27.7888 20.4835C27.641 20.557 27.4193 20.557 27.1976 20.557C24.3891 20.557 21.5807 20.557 18.8462 20.557C18.6983 20.557 18.4766 20.557 18.3288 20.557C17.8854 20.6304 17.6636 20.8506 17.5897 21.2911C17.5158 21.6582 17.8115 22.0253 18.2549 22.0987C18.4027 22.1722 18.6244 22.1722 18.7722 22.1722C22.6154 22.1722 26.5324 22.1722 30.3756 22.1722C30.5973 22.1722 30.819 22.1722 30.9668 22.0987C31.4842 21.9519 31.7059 21.2911 31.3363 20.9241C31.1885 20.7038 30.8929 20.6304 30.5973 20.557C30.1538 20.4101 29.9321 20.1899 30.006 19.7494C30.0799 19.3823 30.3756 19.162 30.819 19.162C31.7059 19.162 32.2971 19.6025 32.7406 20.3367C32.8884 20.6304 33.0362 20.7038 33.3318 20.7038C35.6229 20.7038 37.914 20.7038 40.2051 20.7038C41.1659 20.7038 42.0528 20.4835 42.7179 19.8962C43.3831 19.3823 43.9005 18.7949 44.4917 18.2076C44.5656 18.1342 44.6395 18.0608 44.6395 17.9873C44.6395 17.3266 44.6395 16.7392 44.6395 16.0785C42.644 15.9316 40.8703 15.9316 39.0965 15.9316ZM27.5671 12.1139C27.5671 13.5089 27.5671 14.9038 27.5671 16.2253C27.5671 16.5924 27.641 16.7392 28.0845 16.7392C30.006 16.7392 32.0015 16.7392 33.9231 16.7392C33.997 16.7392 34.0709 16.7392 34.1448 16.6658C33.4057 15.1975 32.6667 13.7291 31.9276 12.2608C31.8537 12.1873 31.7798 12.0405 31.632 12.0405C30.2278 12.1139 28.9713 12.1139 27.5671 12.1139ZM20.6199 12.1139C20.6199 12.5544 20.6199 12.9215 20.6199 13.362C20.6199 13.8025 20.8416 14.0962 21.2112 14.243C22.6154 14.8304 24.0935 15.4911 25.4977 16.1519C25.6455 16.2253 25.8673 16.2987 26.089 16.3722C26.089 14.9038 26.089 13.5823 26.089 12.1873C24.2413 12.1139 22.4676 12.1139 20.6199 12.1139ZM33.4057 12.1139C34.1448 13.6557 34.8839 15.1241 35.6229 16.519C35.6968 16.5924 35.8446 16.7392 35.9185 16.7392C36.2142 16.7392 36.5837 16.7392 36.8793 16.7392C37.5445 16.6658 37.914 15.7848 37.4706 15.3443C36.9532 14.6101 36.362 13.9494 35.7707 13.2886C35.1795 12.5544 34.3665 12.1873 33.4057 12.1139ZM7.16893 3.08354C6.72549 2.4962 6.35596 2.0557 5.98643 1.68861C5.83861 1.54177 5.61689 1.46835 5.46908 1.46835C4.28658 1.46835 3.10407 1.46835 1.84766 1.46835C2.06938 1.98228 2.21719 2.42278 2.43891 2.86329C2.51282 2.93671 2.66063 3.01013 2.80845 3.01013C4.21267 3.08354 5.61689 3.08354 7.16893 3.08354ZM45.9698 17.5468C46.5611 17.5468 47.1523 17.6937 47.448 17.1063C47.5219 16.8861 47.5219 16.519 47.3741 16.2987C47.0045 15.7848 46.4872 16.0051 45.9698 15.9316C45.9698 16.4456 45.9698 16.9595 45.9698 17.5468ZM39.8356 25.843C39.3922 25.843 39.0226 26.2101 39.0226 26.6506C39.0226 27.0911 39.3922 27.4582 39.8356 27.4582C40.279 27.4582 40.6486 27.0911 40.6486 26.6506C40.7225 26.1367 40.3529 25.843 39.8356 25.843ZM24.537 27.3848C24.9804 27.3848 25.3499 27.0177 25.3499 26.5772C25.3499 26.1367 25.0543 25.7696 24.6109 25.7696C24.1674 25.7696 23.7979 26.0633 23.7979 26.5038C23.724 27.0177 24.0196 27.3848 24.537 27.3848Z" fill="white"/>
</svg>
