<svg width="31" height="19" viewBox="0 0 31 19" fill="none" xmlns="http://www.w3.org/2000/svg">
<path d="M0.564049 13.067C0.948342 12.6337 1.46073 12.8194 1.97312 12.8813C2.16527 12.8813 2.29337 12.9432 2.48551 13.0051C2.35742 12.4479 2.10122 11.9527 2.03717 11.4574C1.90908 10.8384 1.84503 10.1574 1.84503 9.47644C1.84503 9.1669 2.03717 8.98118 2.35742 8.91928C2.74171 8.91928 3.126 8.91928 3.5103 8.91928C3.70244 8.91928 3.76649 8.85737 3.89459 8.73356C4.72723 7.30971 5.62391 5.94777 6.45655 4.52392C6.58464 4.27629 6.84084 4.15248 7.22513 4.15248C7.80157 4.15248 8.37801 4.15248 8.95445 4.15248C8.95445 4.02867 8.95445 3.90485 8.95445 3.84295C8.95445 2.91435 8.95445 1.98575 8.95445 1.11906C8.95445 0.623813 9.1466 0.5 9.59494 0.5C10.2995 0.5 11.0681 0.5 11.7726 0.5C12.0928 0.5 12.285 0.623813 12.4131 0.871439C12.9895 1.92385 13.566 2.97626 14.1424 4.02867C14.2065 4.21439 14.3346 4.27629 14.5267 4.27629C15.9998 4.27629 17.537 4.27629 19.0101 4.27629C19.3304 4.27629 19.5225 4.40011 19.7147 4.58583C20.9956 6.00967 22.2126 7.37162 23.4935 8.79546C23.6857 8.98118 23.8138 9.04309 24.134 9.04309C25.9915 9.04309 27.8489 9.04309 29.7063 9.04309C29.8344 9.04309 29.9625 9.04309 30.0265 9.04309C30.2187 9.105 30.4108 9.22881 30.4749 9.35262C30.5389 9.47643 30.4749 9.72406 30.3468 9.84787C29.6422 10.5908 28.9377 11.3336 28.1691 12.0146C27.3365 12.8813 26.5038 13.6861 25.6072 14.6147C25.9274 14.6766 26.1836 14.6766 26.4398 14.7385C26.8241 14.7385 27.0162 14.9242 27.0162 15.2337C27.0162 15.5433 26.76 15.729 26.4398 15.729C25.6072 15.729 24.8386 15.4814 24.134 14.9861C23.8778 14.8004 23.6216 14.6147 23.3014 14.367C22.1485 13.5623 20.6754 13.5623 19.5225 14.367C19.2663 14.5528 18.9461 14.8004 18.6899 14.9861C17.2168 15.9766 15.3593 15.9766 13.9503 14.9861C13.6941 14.8004 13.4379 14.6147 13.1817 14.429C11.9647 13.5623 10.4916 13.5623 9.2747 14.429C8.63421 14.8623 8.05777 15.3575 7.28918 15.5433C6.0082 15.9147 4.79127 15.729 3.63839 14.9242C3.44625 14.7385 3.19005 14.6147 2.99791 14.429C2.48551 13.9956 1.84503 13.748 1.20454 13.748C0.948342 13.748 0.692147 13.6861 0.5 13.4384C0.564049 13.3765 0.564049 13.1908 0.564049 13.067ZM28.7456 9.97169C20.0349 9.97169 11.3883 9.97169 2.74171 9.97169C2.74171 10.2193 2.80576 10.4669 2.80576 10.7146C2.93386 11.6432 3.19005 12.5099 3.70244 13.3146C4.59913 14.6147 6.45655 15.3575 8.05777 14.0575C8.24991 13.8718 8.50611 13.748 8.76231 13.5623C10.2995 12.5718 12.0928 12.5718 13.63 13.6242C13.8862 13.8099 14.2065 14.0575 14.4627 14.2432C15.5515 14.9861 16.9606 14.9861 18.0494 14.2432C18.3056 14.0575 18.5618 13.8718 18.882 13.6242C20.4192 12.5718 22.2766 12.5718 23.8138 13.6242C24.07 13.8099 24.3262 13.9956 24.5824 14.1813C25.9915 12.7575 27.4005 11.3955 28.7456 9.97169ZM6.20035 6.81446C11.004 6.81446 15.7436 6.81446 20.4832 6.81446C20.0349 6.31921 19.5866 5.82396 19.1382 5.3287C19.0101 5.20489 18.882 5.14298 18.6899 5.14298C16.0639 5.14298 13.3738 5.14298 10.7478 5.14298C9.65899 5.14298 8.57016 5.14298 7.48133 5.14298C7.35323 5.14298 7.22513 5.20489 7.16108 5.2668C6.90489 5.76205 6.58464 6.31921 6.20035 6.81446ZM4.91937 8.98118C10.8119 8.98118 16.5763 8.98118 22.4688 8.98118C22.2126 8.67165 21.9564 8.42403 21.7002 8.11449C21.508 7.92877 21.3159 7.86687 21.0597 7.86687C15.9998 7.86687 11.004 7.86687 5.94415 7.86687C5.88011 7.86687 5.81606 7.86687 5.68796 7.86687C5.68796 7.86687 5.62391 7.86687 5.55986 7.92877C5.36771 8.30021 5.17557 8.60975 4.91937 8.98118ZM9.97923 2.79054C9.97923 3.28579 9.97923 3.78104 9.97923 4.21439C11.004 4.21439 12.0288 4.21439 13.1176 4.21439C12.8614 3.78104 12.6693 3.3477 12.4131 2.91435C12.4131 2.85245 12.285 2.79054 12.2209 2.79054C11.5164 2.79054 10.7478 2.79054 9.97923 2.79054ZM11.7726 1.73813L11.8367 1.67622C11.7086 1.61432 11.6445 1.4286 11.5164 1.4286C11.004 1.4286 10.4916 1.4286 9.97923 1.4286C9.97923 1.55241 9.97923 1.61432 9.97923 1.73813C10.5557 1.73813 11.1321 1.73813 11.7726 1.73813Z" fill="#E7245B"/>
<path d="M0.563965 15.9147C0.756111 15.6052 1.07636 15.5433 1.3966 15.6052C2.29328 15.6671 2.99782 16.0385 3.70236 16.5338C4.08665 16.7814 4.47095 17.091 4.91929 17.2767C6.00812 17.71 7.09695 17.5862 8.12173 16.9052C8.69817 16.5338 9.27461 16.1004 9.9151 15.8528C11.1961 15.3576 12.4771 15.5433 13.694 16.2862C14.0142 16.4719 14.2704 16.7195 14.5907 16.9671C15.7435 17.71 17.1526 17.71 18.3055 16.9671C18.5617 16.7814 18.8819 16.5338 19.1381 16.3481C20.6113 15.3576 22.4687 15.3576 23.9418 16.3481C24.198 16.5338 24.4542 16.7195 24.7104 16.9052C25.2228 17.2767 25.8633 17.5243 26.5678 17.5243C26.824 17.5243 27.0802 17.6481 27.1443 17.8957C27.2083 18.1434 27.0802 18.2672 26.8881 18.391C26.76 18.4529 26.6319 18.4529 26.5038 18.4529C25.6711 18.4529 24.9025 18.2053 24.198 17.71C23.9418 17.5243 23.6856 17.3386 23.4294 17.1529C22.2765 16.3481 20.8034 16.3481 19.6505 17.1529C19.2662 17.4005 18.8819 17.7719 18.4336 17.9576C16.9605 18.7005 15.4874 18.6386 14.0142 17.71C13.694 17.5243 13.4378 17.2767 13.1175 17.091C11.9647 16.2862 10.4915 16.3481 9.40271 17.1529C9.08247 17.4005 8.76222 17.6481 8.37793 17.8338C6.96885 18.7624 5.17548 18.7005 3.76641 17.7719C3.51021 17.5862 3.31807 17.4624 3.06187 17.2767C2.48543 16.8433 1.90899 16.5957 1.20445 16.5957C0.948258 16.5957 0.692063 16.5338 0.563965 16.2862C0.563965 16.1624 0.563965 16.0385 0.563965 15.9147Z" fill="#E7245B"/>
</svg>
