<svg width="51" height="32" viewBox="0 0 51 32" fill="none" xmlns="http://www.w3.org/2000/svg">
<path d="M0.108883 22.3413C0.762182 21.571 1.63325 21.9011 2.50431 22.0112C2.83096 22.0112 3.04873 22.1212 3.37538 22.2313C3.15761 21.2408 2.72208 20.3603 2.61319 19.4799C2.39543 18.3793 2.28654 17.1687 2.28654 15.9581C2.28654 15.4078 2.61319 15.0777 3.15761 14.9676C3.81091 14.9676 4.46421 14.9676 5.11751 14.9676C5.44415 14.9676 5.55304 14.8575 5.7708 14.6374C7.18628 12.1061 8.71065 9.68492 10.1261 7.15363C10.3439 6.71341 10.7794 6.4933 11.4327 6.4933C12.4127 6.4933 13.3926 6.4933 14.3726 6.4933C14.3726 6.27319 14.3726 6.05308 14.3726 5.94302C14.3726 4.29218 14.3726 2.64134 14.3726 1.10056C14.3726 0.220112 14.6992 0 15.4614 0C16.6591 0 17.9657 0 19.1634 0C19.7078 0 20.0345 0.220112 20.2523 0.660335C21.2322 2.53129 22.2122 4.40224 23.1921 6.27319C23.301 6.60335 23.5187 6.71341 23.8454 6.71341C26.3497 6.71341 28.9629 6.71341 31.4672 6.71341C32.0116 6.71341 32.3383 6.93352 32.6649 7.26369C34.8426 9.79498 36.9114 12.2162 39.089 14.7475C39.4157 15.0777 39.6334 15.1877 40.1779 15.1877C43.3355 15.1877 46.4931 15.1877 49.6507 15.1877C49.8685 15.1877 50.0862 15.1877 50.1951 15.1877C50.5218 15.2978 50.8484 15.5179 50.9573 15.738C51.0662 15.9581 50.9573 16.3983 50.7395 16.6184C49.5418 17.9391 48.3441 19.2598 47.0375 20.4704C45.622 22.0112 44.2065 23.4419 42.6822 25.0927C43.2266 25.2028 43.6621 25.2028 44.0977 25.3129C44.751 25.3129 45.0776 25.643 45.0776 26.1933C45.0776 26.7436 44.6421 27.0738 44.0977 27.0738C42.6822 27.0738 41.3756 26.6335 40.1779 25.7531C39.7423 25.4229 39.3068 25.0927 38.7624 24.6525C36.8025 23.2218 34.2982 23.2218 32.3383 24.6525C31.9027 24.9827 31.3583 25.4229 30.9228 25.7531C28.4185 27.514 25.2609 27.514 22.8654 25.7531C22.4299 25.4229 21.9944 25.0927 21.5589 24.7626C19.4901 23.2218 16.9858 23.2218 14.917 24.7626C13.8282 25.533 12.8482 26.4134 11.5416 26.7436C9.36395 27.4039 7.29517 27.0738 5.33527 25.643C5.00862 25.3129 4.57309 25.0927 4.24644 24.7626C3.37538 23.9922 2.28655 23.552 1.19771 23.552C0.762182 23.552 0.326649 23.4419 0 23.0017C0.108883 22.8916 0.108883 22.5615 0.108883 22.3413ZM48.0174 16.8386C33.2093 16.8386 18.5101 16.8386 3.81091 16.8386C3.81091 17.2788 3.91979 17.719 3.91979 18.1592C4.13756 19.8101 4.57309 21.3508 5.44415 22.7816C6.96852 25.0927 10.1261 26.4134 12.8482 24.1022C13.1749 23.7721 13.6104 23.552 14.0459 23.2218C16.6591 21.4609 19.7078 21.4609 22.321 23.3319C22.7566 23.662 23.301 24.1022 23.7365 24.4324C25.5875 25.7531 27.983 25.7531 29.834 24.4324C30.2695 24.1022 30.705 23.7721 31.2494 23.3319C33.8626 21.4609 37.0202 21.4609 39.6334 23.3319C40.069 23.662 40.5045 23.9922 40.94 24.3224C43.3355 21.7911 45.7309 19.3698 48.0174 16.8386ZM9.6906 11.2257C17.8568 11.2257 25.9142 11.2257 33.9715 11.2257C33.2093 10.3453 32.4472 9.46481 31.685 8.58436C31.4672 8.36425 31.2494 8.25419 30.9228 8.25419C26.4586 8.25419 21.8855 8.25419 17.4213 8.25419C15.5703 8.25419 13.7193 8.25419 11.8683 8.25419C11.6505 8.25419 11.4327 8.36425 11.3238 8.47431C10.8883 9.35475 10.3439 10.3453 9.6906 11.2257ZM7.51293 15.0777C17.5302 15.0777 27.3297 15.0777 37.3469 15.0777C36.9114 14.5274 36.4758 14.0872 36.0403 13.5369C35.7137 13.2067 35.387 13.0967 34.9515 13.0967C26.3497 13.0967 17.8568 13.0967 9.25506 13.0967C9.14618 13.0967 9.0373 13.0967 8.81953 13.0967C8.81953 13.0967 8.71065 13.0967 8.60176 13.2067C8.27512 13.867 7.94847 14.4173 7.51293 15.0777ZM16.1147 4.07207C16.1147 4.95252 16.1147 5.83296 16.1147 6.60335C17.8568 6.60335 19.599 6.60335 21.45 6.60335C21.0144 5.83296 20.6878 5.06257 20.2523 4.29218C20.2523 4.18212 20.0345 4.07207 19.9256 4.07207C18.7279 4.07207 17.4213 4.07207 16.1147 4.07207ZM19.1634 2.20112L19.2723 2.09106C19.0545 1.98101 18.9457 1.65084 18.7279 1.65084C17.8568 1.65084 16.9858 1.65084 16.1147 1.65084C16.1147 1.87095 16.1147 1.98101 16.1147 2.20112C17.0946 2.20112 18.0746 2.20112 19.1634 2.20112Z" fill="white"/>
<path d="M0.108765 27.4039C0.435414 26.8536 0.979829 26.7435 1.52424 26.8536C3.04861 26.9636 4.24632 27.624 5.44404 28.5044C6.09733 28.9446 6.75063 29.4949 7.51281 29.8251C9.36383 30.5955 11.2148 30.3754 12.957 29.1648C13.9369 28.5044 14.9169 27.734 16.0057 27.2938C18.1834 26.4134 20.361 26.7435 22.4298 28.0642C22.9742 28.3944 23.4097 28.8346 23.9542 29.2748C25.9141 30.5955 28.3095 30.5955 30.2694 29.2748C30.7049 28.9447 31.2493 28.5044 31.6849 28.1743C34.1892 26.4134 37.3468 26.4134 39.8511 28.1743C40.2866 28.5044 40.7222 28.8346 41.1577 29.1648C42.0288 29.8251 43.1176 30.2653 44.3153 30.2653C44.7508 30.2653 45.1864 30.4854 45.2952 30.9257C45.4041 31.3659 45.1864 31.586 44.8597 31.8061C44.6419 31.9162 44.4242 31.9162 44.2064 31.9162C42.7909 31.9162 41.4843 31.4759 40.2866 30.5955C39.8511 30.2653 39.4156 29.9352 38.98 29.605C37.0201 28.1743 34.5158 28.1743 32.5559 29.605C31.9026 30.0452 31.2493 30.7055 30.4871 31.0357C27.9828 32.3564 25.4785 32.2463 22.9742 30.5955C22.4298 30.2653 21.9943 29.8251 21.4499 29.4949C19.49 28.0642 16.9856 28.1743 15.1346 29.605C14.5902 30.0452 14.0458 30.4854 13.3925 30.8156C10.9971 32.4664 7.94835 32.3564 5.55292 30.7055C5.11739 30.3754 4.79074 30.1553 4.35521 29.8251C3.37526 29.0547 2.39531 28.6145 1.1976 28.6145C0.762063 28.6145 0.326531 28.5044 0.108765 28.0642C0.108765 27.8441 0.108765 27.624 0.108765 27.4039Z" fill="white"/>
</svg>
