<svg width="31" height="19" viewBox="0 0 31 19" fill="none" xmlns="http://www.w3.org/2000/svg">
<path d="M30.5 15.5773C30.3187 15.7629 30.0921 15.8093 29.8202 15.8093C28.9592 15.8093 28.0982 15.8093 27.1918 15.8093C27.0106 15.8093 26.9199 15.8557 26.8746 16.0412C26.5574 17.4794 25.2885 18.5 23.8384 18.5C22.3882 18.5 21.1647 17.4794 20.8474 16.0412C20.8928 15.8557 20.8021 15.8093 20.6662 15.8093C17.2221 15.8093 13.8233 15.8093 10.3792 15.8093C10.1979 15.8093 10.1526 15.8557 10.1073 16.0412C9.79003 17.4794 8.56647 18.5 7.11631 18.5C5.66616 18.5 4.4426 17.4794 4.12538 15.9948C4.03474 15.8093 3.98943 15.8093 3.80816 15.8093C2.90181 15.8093 1.95015 15.8093 1.04381 15.8093C0.635952 15.8093 0.5 15.6701 0.5 15.2062C0.5 11.0309 0.5 6.90206 0.5 2.7268C0.5 1.47423 1.45166 0.5 2.67523 0.5C11.1949 0.5 19.7598 0.5 28.2795 0.5C29.3218 0.5 30.1375 1.14948 30.4094 2.2165C30.4094 2.26289 30.4547 2.30928 30.4547 2.40206C30.5 6.76289 30.5 11.1701 30.5 15.5773ZM23.4758 3.23711C16.6782 3.23711 9.92598 3.23711 3.17372 3.23711C3.17372 3.84021 3.17372 4.39691 3.17372 4.95361C3.17372 5.27835 2.99245 5.46392 2.72054 5.46392C2.44864 5.46392 2.26737 5.27835 2.26737 4.95361C2.26737 4.30412 2.26737 3.65464 2.26737 3.05155C2.26737 2.44845 2.35801 2.35567 2.94713 2.35567C11.6934 2.35567 20.3943 2.35567 29.1405 2.35567C29.2764 2.35567 29.3671 2.35567 29.503 2.35567C29.2764 1.75258 28.8233 1.47423 28.0982 1.47423C19.6692 1.47423 11.2855 1.47423 2.8565 1.47423C1.90483 1.47423 1.36103 2.03093 1.36103 3.00516C1.36103 5.97423 1.36103 8.9433 1.36103 11.9588C1.36103 12.0515 1.36103 12.1443 1.36103 12.2835C1.49698 12.2835 1.58761 12.2835 1.72357 12.2835C3.49094 12.2835 5.30363 12.2835 7.071 12.2835C8.52115 12.2835 9.74471 13.2577 10.0619 14.6959C10.1073 14.9278 10.1979 14.9742 10.4245 14.9742C12.6903 14.9742 15.0015 14.9742 17.2674 14.9742C18.355 14.9742 19.4879 14.9742 20.5755 14.9742C20.7115 14.9742 20.8021 14.9742 20.8474 14.7887C21.1647 13.2577 22.3882 12.2835 23.929 12.2835C25.6964 12.2835 27.4637 12.2835 29.2764 12.2835C29.3671 12.2835 29.503 12.2835 29.5937 12.2835C29.5937 11.9588 29.5937 11.6804 29.5937 11.4021C29.4577 11.4021 29.3671 11.4021 29.2764 11.4021C28.0982 11.4021 26.8746 11.4021 25.6964 11.4021C25.5604 11.4021 25.3792 11.4021 25.2432 11.3557C24.2915 11.1701 23.7477 10.5206 23.4758 9.59278C23.3399 9.59278 23.2492 9.59278 23.1133 9.59278C16.361 9.59278 9.65408 9.59278 2.90181 9.59278C2.81118 9.59278 2.72054 9.59278 2.62991 9.59278C2.40332 9.54639 2.22205 9.40722 2.22205 9.17526C2.22205 8.43299 2.22205 7.64433 2.22205 6.90206C2.22205 6.76289 2.35801 6.57732 2.49396 6.48454C2.76586 6.34536 3.08308 6.57732 3.08308 6.90206C3.08308 7.50516 3.08308 8.06186 3.08308 8.66495C9.88066 8.66495 16.6329 8.66495 23.3852 8.66495C23.4758 6.76289 23.4758 5 23.4758 3.23711ZM24.3369 3.19072C24.3369 3.28351 24.3369 3.37629 24.3369 3.46907C24.3369 5.27835 24.3369 7.08763 24.3369 8.9433C24.3369 9.87114 24.8807 10.4278 25.787 10.4278C26.7387 10.4278 27.6903 10.4278 28.642 10.4278C28.9592 10.4278 29.2764 10.4278 29.5937 10.4278C29.5937 8.01546 29.5937 5.64949 29.5937 3.23711C27.8716 3.19072 26.1495 3.19072 24.3369 3.19072ZM9.29154 15.3454C9.29154 14.1392 8.29456 13.0722 7.071 13.0722C5.89275 13.0722 4.89577 14.0928 4.89577 15.299C4.89577 16.5052 5.89275 17.5722 7.071 17.5722C8.29456 17.6186 9.29154 16.5515 9.29154 15.3454ZM26.1042 15.3454C26.1042 14.1392 25.0619 13.0722 23.8837 13.1186C22.7054 13.1186 21.7085 14.1392 21.7085 15.3454C21.7085 16.5515 22.7054 17.6186 23.929 17.6186C25.1073 17.5722 26.1042 16.5515 26.1042 15.3454ZM4.89577 13.1186C3.71752 13.1186 2.53928 13.1186 1.40634 13.1186C1.40634 13.7217 1.40634 14.3247 1.40634 14.8814C2.26737 14.8814 3.08308 14.8814 3.89879 14.8814C3.94411 14.8814 4.08006 14.7887 4.08006 14.7423C4.1707 14.1392 4.48792 13.6289 4.89577 13.1186ZM29.5937 14.8814C29.5937 14.2784 29.5937 13.6753 29.5937 13.1186C28.4154 13.1186 27.2825 13.1186 26.1042 13.1186C26.2855 13.3969 26.4668 13.6289 26.6027 13.9072C26.7387 14.1856 26.784 14.4639 26.9199 14.7887C26.9199 14.8351 27.0106 14.9278 27.0559 14.9278C27.9169 14.8814 28.7779 14.8814 29.5937 14.8814Z" fill="#E7245B"/>
</svg>
