<svg width="55" height="30" viewBox="0 0 55 30" fill="none" xmlns="http://www.w3.org/2000/svg">
<path d="M0 1.69748C0.281213 1.08967 0.762865 0.898987 1.41803 0.898987C16.6215 0.907925 31.825 0.898987 47.0284 0.910905C51.4231 0.913884 54.5613 4.09295 54.5643 8.46974C54.5673 13.937 54.5643 19.4043 54.5643 24.8716C54.5643 25.9948 54.2293 26.3345 53.1104 26.3345C51.2975 26.3345 49.4875 26.3434 47.6746 26.3255C47.3276 26.3225 47.1511 26.406 47.0164 26.7516C46.3164 28.5571 44.671 29.6655 42.7743 29.6536C40.8986 29.6446 39.2592 28.5303 38.5801 26.7605C38.4484 26.4179 38.2869 26.3225 37.9309 26.3255C30.1706 26.3374 22.4073 26.3345 14.647 26.3315C14.3538 26.3315 14.1414 26.3285 14.0008 26.695C13.2769 28.5571 11.6614 29.6625 9.74673 29.6565C7.82012 29.6506 6.20464 28.5065 5.47767 26.6264C5.44477 26.546 5.41485 26.4626 5.36698 26.3345C4.06263 26.3345 2.7523 26.3076 1.44197 26.3464C0.783807 26.3643 0.314121 26.1527 0 25.5807C0 17.6196 0 9.65854 0 1.69748ZM14.2192 24.1625C14.3419 24.1684 14.4466 24.1803 14.5543 24.1803C22.3505 24.1803 30.1437 24.1773 37.9398 24.1893C38.3048 24.1893 38.4035 24.0373 38.5053 23.7304C39.1215 21.8772 40.8327 20.6437 42.7713 20.6199C44.683 20.599 46.445 21.8415 47.0882 23.6679C47.1451 23.8317 47.2019 23.9956 47.2558 24.1535C48.967 24.1535 50.6483 24.1535 52.3535 24.1535C52.3535 23.4712 52.3535 22.8157 52.3535 22.1215C52.0932 22.1215 51.8808 22.1215 51.6714 22.1215C50.8727 22.1186 50.0739 22.1364 49.2751 22.1096C48.611 22.0888 48.1832 21.6508 48.1772 21.0519C48.1712 20.4441 48.6349 19.9823 49.305 19.9585C49.8376 19.9406 50.3701 19.9525 50.9026 19.9525C51.3902 19.9525 51.8778 19.9525 52.4044 19.9525C52.4044 19.4132 52.4074 18.9544 52.4014 18.4985C52.4014 18.3972 52.3804 18.293 52.3625 18.138C51.9915 18.138 51.6415 18.144 51.2915 18.138C50.5346 18.1261 50.0649 17.6941 50.0739 17.0327C50.0829 16.3951 50.5346 15.9958 51.2825 15.9809C51.6445 15.972 52.0065 15.9809 52.3655 15.9809C52.3655 15.3195 52.3655 14.7593 52.3655 14.1754C35.6333 14.1754 18.934 14.1754 2.20483 14.1754C2.20483 16.109 2.20483 18.0069 2.20483 19.9585C2.56682 19.9585 2.89889 19.9495 3.23096 19.9614C3.92502 19.9823 4.37376 20.4024 4.38573 21.0221C4.3977 21.6508 3.9669 22.0828 3.27583 22.1186C2.9288 22.1364 2.57878 22.1215 2.20782 22.1215C2.20782 22.8426 2.20782 23.4861 2.20782 24.1833C3.09334 24.1833 3.93998 24.1625 4.78661 24.1922C5.19048 24.2071 5.35502 24.0909 5.48665 23.6917C6.09694 21.8474 7.85602 20.6139 9.77664 20.6229C11.7062 20.6318 13.4234 21.8713 14.0607 23.7126C14.1115 23.8615 14.1654 24.0075 14.2192 24.1625ZM52.3984 11.9646C52.3984 10.7788 52.4044 9.63172 52.3984 8.48762C52.3804 5.24599 50.1906 3.07398 46.9327 3.07398C32.2079 3.071 17.4861 3.07398 2.76127 3.07398C2.57579 3.07398 2.38732 3.08888 2.20184 3.09781C2.20184 6.08619 2.20184 9.01498 2.20184 11.9497C4.44556 11.9497 6.65338 11.9497 8.89711 11.9497C8.89711 11.7144 8.89711 11.5237 8.89711 11.33C8.89711 9.68535 8.89411 8.0407 8.89711 6.39307C8.9001 5.50222 9.31294 4.98976 10.001 5.00465C10.6681 5.01955 11.072 5.53202 11.072 6.37818C11.075 7.7219 11.072 9.06861 11.072 10.4123C11.072 10.9218 11.072 11.4283 11.072 11.9527C14.0427 11.9527 16.9595 11.9527 19.9123 11.9527C19.9123 11.7203 19.9123 11.5296 19.9123 11.3389C19.9123 9.71217 19.9123 8.08242 19.9123 6.45564C19.9123 5.5201 20.3072 4.9987 21.0042 5.00763C21.6893 5.01657 22.0692 5.52308 22.0692 6.42883C22.0692 7.91557 22.0692 9.40231 22.0692 10.8861C22.0692 11.2347 22.0692 11.5862 22.0692 11.9527C24.9711 11.9527 27.8162 11.9527 30.6911 11.9527C30.6911 11.7203 30.6911 11.5266 30.6911 11.333C30.6911 9.72409 30.6911 8.11221 30.6911 6.50331C30.6911 6.37818 30.6881 6.25602 30.6941 6.13088C30.727 5.47243 31.1967 4.99274 31.798 5.00465C32.3904 5.01359 32.8481 5.45455 32.8571 6.11003C32.878 7.86194 32.866 9.61385 32.869 11.3628C32.869 11.5654 32.89 11.765 32.9019 11.9616C35.8218 11.9616 38.6758 11.9616 41.5896 11.9616C41.5896 11.7441 41.5896 11.5564 41.5896 11.3658C41.5896 9.77474 41.5896 8.18074 41.5896 6.58972C41.5896 6.4467 41.5836 6.30667 41.5926 6.16664C41.6315 5.48137 42.0623 5.01657 42.6636 5.00465C43.2859 4.98976 43.7675 5.47243 43.7735 6.17855C43.7885 7.91259 43.7795 9.64662 43.7795 11.3807C43.7795 11.5684 43.7795 11.7561 43.7795 11.9676C46.6694 11.9646 49.4875 11.9646 52.3984 11.9646ZM7.41625 25.1814C7.42822 26.4775 8.51119 27.5173 9.82451 27.4935C11.087 27.4696 12.155 26.3672 12.1221 25.1129C12.0892 23.8258 11.0421 22.8038 9.7557 22.8098C8.43939 22.8128 7.40129 23.8645 7.41625 25.1814ZM42.8162 22.8098C41.4939 22.8038 40.4528 23.8407 40.4528 25.1606C40.4528 26.4387 41.4969 27.4816 42.7863 27.4935C44.0787 27.5054 45.1766 26.4149 45.1616 25.1337C45.1467 23.8526 44.0966 22.8128 42.8162 22.8098Z" fill="white"/>
<path d="M26.3234 22.1245C23.2719 22.1245 20.2175 22.1245 17.166 22.1245C17.0404 22.1245 16.9177 22.1245 16.792 22.1245C15.9484 22.1126 15.4428 21.6925 15.4638 21.0191C15.4817 20.3696 15.9903 19.9614 16.795 19.9614C21.2137 19.9585 25.6323 19.9614 30.0539 19.9614C32.0224 19.9614 33.9939 19.9585 35.9624 19.9644C36.6385 19.9674 37.0843 20.2951 37.189 20.8374C37.3056 21.4541 36.9108 22.0202 36.2795 22.1007C35.9833 22.1394 35.6782 22.1275 35.376 22.1275C32.3575 22.1245 29.3389 22.1245 26.3234 22.1245Z" fill="white"/>
<path d="M49.2871 9.25631C49.2871 8.94049 49.2572 8.61871 49.2931 8.30587C49.3619 7.72786 49.8196 7.32861 50.3641 7.33159C50.9055 7.33159 51.3932 7.73381 51.4351 8.30885C51.4799 8.94049 51.4829 9.57809 51.4291 10.2068C51.3812 10.7848 50.8936 11.1602 50.3371 11.1483C49.8016 11.1363 49.3738 10.7669 49.302 10.2038C49.2631 9.89093 49.2961 9.57213 49.2961 9.25631C49.2931 9.25631 49.2901 9.25631 49.2871 9.25631Z" fill="white"/>
</svg>
