<svg width="49" height="24" viewBox="0 0 49 24" fill="none" xmlns="http://www.w3.org/2000/svg">
<path d="M0 17.5887C0.189587 17.3186 0.400239 17.0616 0.558228 16.7729C0.629323 16.6458 0.624057 16.4498 0.592459 16.2961C0.226451 14.5321 0.258049 12.7521 0.523997 10.9907C0.62669 10.3046 0.995331 9.63185 1.35344 9.01999C2.03016 7.85983 2.80694 6.76059 3.50999 5.61368C4.7818 3.53705 6.59605 2.22061 8.90795 1.51074C14.9036 -0.3275 20.9441 -0.454641 27.0346 0.946555C28.1668 1.20613 29.1938 1.71735 30.118 2.42457C30.4761 2.69739 30.5472 3.1106 30.3286 3.43904C30.1154 3.75689 29.6862 3.87874 29.3596 3.6271C27.993 2.57554 26.3842 2.21266 24.7411 1.93984C19.3668 1.04721 14.0742 1.32003 8.88162 3.04438C7.2517 3.58472 5.93776 4.55417 4.98456 5.99245C4.21831 7.15261 3.48103 8.33131 2.69635 9.55239C3.36517 9.70866 3.98659 9.97619 4.19724 10.6145C4.38683 11.1867 4.47109 11.8383 4.4158 12.4369C4.31047 13.5812 3.66271 13.9705 1.83794 14.1665C1.71945 14.8896 1.85374 15.5889 2.10126 16.2644C2.13549 16.3571 2.3988 16.4339 2.53046 16.4047C2.69635 16.3703 2.90963 16.2538 2.97546 16.1134C3.68378 14.5771 4.81603 13.5123 6.41436 12.9799C9.1344 12.074 12.0888 13.3851 13.2737 16.0313C13.4054 16.3279 13.5449 16.4312 13.8688 16.4312C20.2621 16.4206 26.6554 16.4206 33.0487 16.4312C33.3489 16.4312 33.4779 16.3359 33.6069 16.0604C34.6391 13.8911 36.3744 12.7097 38.7574 12.715C41.1193 12.7203 42.8387 13.9043 43.8657 16.0525C43.9973 16.3253 44.1185 16.4392 44.4213 16.4312C45.1375 16.41 45.8537 16.4233 46.6147 16.4233C46.6147 15.9465 46.6147 15.4936 46.6147 14.9665C46.2276 14.9665 45.8353 14.9691 45.4429 14.9665C44.1079 14.9559 43.3101 14.1533 43.2943 12.8024C43.2864 12.1773 43.2943 11.5549 43.2943 10.8688C41.2141 10.4397 39.1471 10.0159 37.0563 9.58417C37.0116 9.78018 37.0142 9.97354 36.9273 10.1086C36.6666 10.5165 36.456 11.0569 36.0742 11.2635C35.042 11.8197 33.9413 11.7747 32.8696 11.2555C32.6379 11.1443 32.3746 11.0357 32.1271 11.0357C24.8096 11.0251 17.492 11.0225 10.1719 11.0357C9.59257 11.0357 9.13177 10.8768 8.7052 10.4821C7.90735 9.74575 7.07528 9.04647 6.259 8.32866C5.57175 7.72474 5.51909 7.20294 6.05362 6.44274C7.05421 5.01506 8.50245 4.30519 10.1192 3.84165C15.4408 2.31597 20.7966 2.19677 26.1893 3.40461C27.2373 3.64035 28.1616 4.11448 28.9726 4.81905C30.0443 5.74876 31.1186 6.67583 32.0981 7.52344C32.3851 7.25856 32.6405 7.02547 32.9407 6.75C32.6642 6.50896 32.3167 6.2123 31.9744 5.91034C31.5215 5.51038 31.4504 5.09982 31.769 4.75018C32.0718 4.41644 32.4589 4.43498 32.9065 4.8164C33.3331 5.17928 33.7517 5.54746 34.1757 5.91564C34.5812 6.26792 34.9525 6.62021 35.5502 6.68643C36.1295 6.75 36.5587 7.1685 36.7904 7.7115C36.9115 7.99492 37.0616 8.12206 37.3671 8.18298C39.6474 8.63857 41.925 9.1021 44.1975 9.59212C46.5278 10.0954 48.0261 11.9469 48.0866 14.3546C48.1024 14.9638 48.0708 15.5757 48.1024 16.1822C48.1129 16.373 48.213 16.6246 48.3552 16.7279C49.1004 17.255 49.0925 18.5449 48.8634 19.3157C48.6527 20.0256 48.0366 20.362 47.1124 20.362C46.2039 20.362 45.2955 20.3699 44.387 20.3567C44.1185 20.354 43.971 20.4229 43.842 20.6878C42.7992 22.828 41.0745 24.004 38.7126 23.9934C36.3717 23.9829 34.6575 22.8147 33.6306 20.6904C33.4884 20.3964 33.3146 20.3567 33.0382 20.3567C30.0574 20.362 27.0741 20.362 24.0933 20.3567C23.8906 20.3567 23.6194 20.3832 23.4956 20.2693C23.2955 20.0865 23.0611 19.7846 23.0848 19.5594C23.1085 19.3343 23.4087 19.1065 23.6352 18.9476C23.7563 18.8628 23.9748 18.9184 24.1513 18.9184C26.9424 18.9184 29.7309 18.9184 32.5221 18.9184C32.6958 18.9184 32.8696 18.9184 33.0777 18.9184C33.0777 18.5582 33.0777 18.235 33.0777 17.8854C26.6501 17.8854 20.2331 17.8854 13.7898 17.8854C13.7898 18.2165 13.7898 18.529 13.7898 18.9184C13.9531 18.9184 14.1216 18.9184 14.2901 18.9184C16.2834 18.9184 18.2767 18.9211 20.27 18.9158C20.6176 18.9158 20.9415 18.9926 21.0389 19.3475C21.0968 19.5647 21.0836 19.9064 20.9494 20.0468C20.7782 20.2269 20.457 20.3435 20.1989 20.3461C18.5084 20.3726 16.8179 20.3593 15.1301 20.3593C14.6193 20.3593 14.0321 20.2031 13.6213 20.407C13.2369 20.5977 13.0446 21.1725 12.7655 21.5751C10.3114 25.1192 4.97929 24.706 3.10712 20.8096C2.92806 20.4335 2.72268 20.3143 2.3514 20.3567C2.22501 20.3726 2.09599 20.3514 1.9696 20.3593C1.0164 20.4362 0.347576 20.0468 0 19.1277C0 18.6165 0 18.1026 0 17.5887ZM21.3391 4.14096C18.5927 3.90258 15.8937 4.05091 13.1737 4.58596C13.437 6.14078 13.7108 7.63468 13.9346 9.13653C13.9926 9.51795 14.1348 9.59477 14.4823 9.59212C16.6178 9.57888 18.7559 9.58682 20.8914 9.58417C21.031 9.58417 21.1705 9.56828 21.3391 9.55769C21.3391 7.74328 21.3391 5.95537 21.3391 4.14096ZM32.1402 9.54709C31.9612 9.35108 31.8743 9.23189 31.7637 9.13653C30.5103 8.04524 29.2543 6.95925 27.9957 5.87326C27.3532 5.31966 26.6185 4.95149 25.7891 4.79256C25.0386 4.64688 24.2882 4.51179 23.5351 4.382C23.3087 4.34227 23.0769 4.32903 22.8347 4.30254C22.8347 6.08781 22.8347 7.81215 22.8347 9.54974C25.9128 9.54709 28.9594 9.54709 32.1402 9.54709ZM38.7205 14.1347C36.4218 14.148 34.5285 16.0789 34.547 18.3887C34.568 20.6798 36.4639 22.5737 38.7389 22.5764C41.0324 22.5764 42.9441 20.6507 42.9362 18.3463C42.9283 16.0313 41.0166 14.1215 38.7205 14.1347ZM3.97606 18.3648C3.98396 20.6904 5.88773 22.5949 8.18384 22.5737C10.4931 22.5525 12.3574 20.6454 12.3442 18.3171C12.331 16.0207 10.4431 14.1347 8.16014 14.1347C5.8535 14.1347 3.96553 16.0445 3.97606 18.3648ZM11.7702 4.89321C10.0481 5.3435 8.35236 5.69579 7.23853 7.26651C8.09167 8.01346 8.92902 8.75246 9.77163 9.48087C9.83745 9.53914 9.94278 9.57623 10.0297 9.57888C10.8539 9.58682 11.678 9.58417 12.5233 9.58417C12.5233 9.45703 12.5338 9.37757 12.5206 9.30076C12.2758 7.85188 12.0282 6.40301 11.7702 4.89321ZM33.47 9.08621C33.4674 10.1298 33.499 10.1616 34.5443 10.1616C34.6865 10.1616 34.8313 10.1643 34.9735 10.159C35.329 10.1484 35.5949 9.96824 35.5607 9.61066C35.5107 9.0915 35.8583 8.4664 35.2263 8.07438C35.1763 8.04259 35.1025 8.04524 35.0394 8.04524C34.6891 8.04259 34.3389 8.0373 33.9861 8.04524C33.6622 8.05319 33.4884 8.23065 33.47 8.5538C33.4647 8.73392 33.47 8.91139 33.47 9.08621ZM44.3818 18.9158C45.3666 18.9158 46.3303 18.9264 47.2914 18.8972C47.3783 18.8946 47.531 18.635 47.5258 18.4999C47.5179 18.2854 47.7206 17.896 47.3283 17.8775C46.3514 17.8351 45.3718 17.8642 44.3818 17.8642C44.3818 18.235 44.3818 18.5476 44.3818 18.9158ZM44.7425 11.3562C44.7425 11.9204 44.7004 12.4793 44.7662 13.0223C44.7873 13.2024 45.0585 13.4567 45.2507 13.4937C45.6431 13.5679 46.0591 13.5149 46.4699 13.5149C46.4093 12.6514 45.5825 11.6184 44.7425 11.3562ZM1.78791 12.6461C2.90173 12.7733 3.14135 12.5534 3.03866 11.5866C2.99653 11.2026 2.79114 11.0542 2.40933 11.0172C1.99593 10.9774 1.87744 11.184 1.85111 11.5257C1.82741 11.8886 1.81161 12.2541 1.78791 12.6461ZM2.54099 18.8734C2.54099 18.688 2.54099 18.529 2.54099 18.3701C2.54099 18.2138 2.54099 18.0602 2.54099 17.896C2.15918 17.896 1.81951 17.896 1.4851 17.896C1.32974 18.9449 1.40874 19.0191 2.54099 18.8734Z" fill="white"/>
<path d="M15.6726 13.7427C15.512 13.7427 15.354 13.7533 15.196 13.7401C14.8116 13.7057 14.5746 13.4938 14.5351 13.107C14.493 12.6938 14.7036 12.4025 15.096 12.3389C15.4699 12.2806 15.8622 12.2806 16.2387 12.331C16.6311 12.3839 16.8628 12.6594 16.8338 13.0753C16.8049 13.4832 16.56 13.7083 16.1519 13.7401C15.9939 13.7533 15.8332 13.7427 15.6726 13.7427Z" fill="white"/>
<path d="M24.6489 13.7428C24.4883 13.7428 24.3277 13.756 24.1723 13.7401C23.7905 13.6977 23.5588 13.4805 23.5272 13.0912C23.493 12.6753 23.7115 12.3919 24.1038 12.3363C24.4778 12.2833 24.8727 12.2833 25.2466 12.3363C25.639 12.3945 25.8628 12.6779 25.8259 13.0912C25.7891 13.4964 25.5389 13.7189 25.1308 13.7428C24.9675 13.7507 24.8095 13.7454 24.6489 13.7428Z" fill="white"/>
<path d="M38.7495 15.1731C40.4979 15.1757 41.904 16.5875 41.9066 18.3463C41.9093 20.1236 40.4847 21.546 38.7126 21.5354C36.9721 21.5248 35.5739 20.0945 35.5818 18.3331C35.5871 16.5769 36.9958 15.1731 38.7495 15.1731ZM38.7785 16.6167C37.8068 16.6008 37.0274 17.353 37.0143 18.3172C37.0011 19.2919 37.7489 20.0786 38.7047 20.0945C39.6685 20.1104 40.4558 19.3528 40.4716 18.3913C40.4847 17.4166 39.7369 16.6299 38.7785 16.6167Z" fill="white"/>
<path d="M11.32 18.3648C11.3121 20.1263 9.90596 21.5354 8.15755 21.5354C6.39861 21.5354 4.96354 20.0759 4.9846 18.3145C5.00567 16.5663 6.43547 15.1625 8.18125 15.1704C9.9323 15.181 11.3252 16.6034 11.32 18.3648ZM8.17072 16.614C7.20962 16.6087 6.42757 17.3795 6.41967 18.3384C6.41177 19.2919 7.19382 20.0865 8.14439 20.0918C9.10812 20.0971 9.87963 19.3316 9.88753 18.3648C9.8928 17.3954 9.13445 16.6193 8.17072 16.614Z" fill="white"/>
</svg>
