<svg width="18" height="16" viewBox="0 0 18 16" fill="none" xmlns="http://www.w3.org/2000/svg">
<path d="M11.0769 5.92307H10.5577C10.3673 5.92307 10.2115 6.07883 10.2115 6.26922C10.2115 6.4596 10.3673 6.61537 10.5577 6.61537H11.0769C11.2673 6.61537 11.4231 6.4596 11.4231 6.26922C11.4231 6.07883 11.2673 5.92307 11.0769 5.92307Z" fill="#E7245B"/>
<path d="M9.00005 5.92307H6.40389C6.21351 5.92307 6.05774 6.07883 6.05774 6.26922C6.05774 6.4596 6.21351 6.61537 6.40389 6.61537H9.00005C9.19043 6.61537 9.3462 6.4596 9.3462 6.26922C9.3462 6.07883 9.19043 5.92307 9.00005 5.92307Z" fill="#E7245B"/>
<path d="M14.5385 3.84613H6.40389C6.21351 3.84613 6.05774 4.0019 6.05774 4.19229C6.05774 4.38267 6.21351 4.53845 6.40389 4.53845H14.5385C14.7289 4.53845 14.8847 4.38267 14.8847 4.19229C14.8847 4.0019 14.7289 3.84613 14.5385 3.84613Z" fill="#E7245B"/>
<path d="M16.2692 0.384613H4.5C3.54808 0.384613 2.76923 1.16346 2.76923 2.11538V5.92307H1.03846C0.467308 5.92307 0 6.39038 0 6.96154V12.5C0 13.0712 0.467308 13.5385 1.03846 13.5385H2.76923V15.2692C2.76923 15.4077 2.85577 15.5288 2.97692 15.5808C3.02885 15.5981 3.06346 15.6154 3.11538 15.6154C3.20192 15.6154 3.28846 15.5808 3.34038 15.5288L5.48654 13.625L5.50385 13.6077C5.55577 13.5558 5.625 13.5385 5.72885 13.5385H7.97885C8.55 13.5385 9.01731 13.0712 9.01731 12.5V10.0769H9.32885C9.58846 10.0769 9.83077 10.1635 10.0212 10.3538L13.2577 13.3481C13.3269 13.4 13.4135 13.4346 13.5 13.4346C13.5519 13.4346 13.5865 13.4173 13.6385 13.4C13.7596 13.3481 13.8462 13.2269 13.8462 13.0885V10.0769H16.2692C17.2212 10.0769 18 9.29807 18 8.34615V2.11538C18 1.16346 17.2212 0.384613 16.2692 0.384613ZM8.325 12.5C8.325 12.6904 8.16923 12.8462 7.97885 12.8462H5.72885C5.45192 12.8462 5.20962 12.9327 5.01923 13.1058L3.46154 14.4904V13.1923C3.46154 13.0019 3.30577 12.8462 3.11538 12.8462H1.03846C0.848077 12.8462 0.692308 12.6904 0.692308 12.5V6.96154C0.692308 6.77115 0.848077 6.61538 1.03846 6.61538H2.76923V8.34615C2.76923 9.29807 3.54808 10.0769 4.5 10.0769H8.325V12.5ZM17.3077 8.34615C17.3077 8.91731 16.8404 9.38461 16.2692 9.38461H13.8462V8.34615C13.8462 8.15577 13.6904 8 13.5 8C13.3096 8 13.1538 8.15577 13.1538 8.34615V12.2923L10.5058 9.83461C10.1942 9.54038 9.77885 9.38461 9.32885 9.38461H4.5C3.92885 9.38461 3.46154 8.91731 3.46154 8.34615V2.11538C3.46154 1.54423 3.92885 1.07692 4.5 1.07692H16.2692C16.8404 1.07692 17.3077 1.54423 17.3077 2.11538V8.34615Z" fill="#E7245B"/>
</svg>
