<svg width="15" height="15" viewBox="0 0 15 15" fill="none" xmlns="http://www.w3.org/2000/svg">
<path d="M7.5 0C3.33333 0 0 3.33333 0 7.5C0 11.6667 3.33333 15 7.5 15C11.6667 15 15 11.6667 15 7.5C15 3.33333 11.6667 0 7.5 0ZM11.8333 4.75L7 10.8333C6.91667 11 6.66667 11.0833 6.5 11.0833C6.25 11.0833 6.08333 11 5.91667 10.9167L3.25 8.08333C3 7.91667 3.08333 7.58333 3.33333 7.33333C3.58333 7.16667 4 7.16667 4.25 7.41667L6.41667 9.66667L10.6667 4.16667C10.8333 3.91667 11.25 3.83333 11.5833 4C11.9167 4.16667 12 4.5 11.8333 4.75Z" fill="#E7245B"/>
</svg>
