<svg width="57" height="35" viewBox="0 0 57 35" fill="none" xmlns="http://www.w3.org/2000/svg">
<path d="M56.2022 29.0293C55.868 29.3866 55.4503 29.4759 54.9491 29.4759C53.3619 29.4759 51.7746 29.4759 50.1038 29.4759C49.7697 29.4759 49.6026 29.5653 49.5191 29.9226C48.9343 32.6915 46.5952 34.6566 43.9219 34.6566C41.2487 34.6566 38.9931 32.6915 38.4083 29.9226C38.4919 29.5653 38.3248 29.4759 38.0742 29.4759C31.7252 29.4759 25.4597 29.4759 19.1107 29.4759C18.7766 29.4759 18.693 29.5653 18.6095 29.9226C18.0247 32.6915 15.7692 34.6566 13.0959 34.6566C10.4227 34.6566 8.16709 32.6915 7.58232 29.8332C7.41524 29.4759 7.3317 29.4759 6.99754 29.4759C5.32675 29.4759 3.57243 29.4759 1.90164 29.4759C1.14979 29.4759 0.89917 29.208 0.89917 28.3148C0.89917 20.2759 0.89917 12.3263 0.89917 4.28741C0.89917 1.87574 2.6535 0 4.90906 0C20.6145 0 36.4034 0 52.1088 0C54.0302 0 55.5339 1.25049 56.0351 3.30488C56.0351 3.3942 56.1187 3.48352 56.1187 3.66216C56.2022 12.0583 56.2022 20.5438 56.2022 29.0293ZM43.2536 5.26994C30.7227 5.26994 18.2753 5.26994 5.82799 5.26994C5.82799 6.43112 5.82799 7.50297 5.82799 8.57482C5.82799 9.20007 5.49383 9.55735 4.9926 9.55735C4.49136 9.55735 4.1572 9.20007 4.1572 8.57482C4.1572 7.32433 4.1572 6.07383 4.1572 4.91266C4.1572 3.75148 4.32428 3.57284 5.41029 3.57284C21.5334 3.57284 37.5729 3.57284 53.696 3.57284C53.9466 3.57284 54.1137 3.57284 54.3643 3.57284C53.9466 2.41167 53.1112 1.87574 51.7746 1.87574C36.2363 1.87574 20.7815 1.87574 5.24321 1.87574C3.48889 1.87574 2.48642 2.94759 2.48642 4.82334C2.48642 10.5399 2.48642 16.2564 2.48642 22.0623C2.48642 22.2409 2.48642 22.4196 2.48642 22.6875C2.73704 22.6875 2.90411 22.6875 3.15473 22.6875C6.41277 22.6875 9.75434 22.6875 13.0124 22.6875C15.6856 22.6875 17.9412 24.5633 18.526 27.3322C18.6095 27.7788 18.7766 27.8682 19.1943 27.8682C23.3712 27.8682 27.6318 27.8682 31.8087 27.8682C33.8137 27.8682 35.9021 27.8682 37.9071 27.8682C38.1577 27.8682 38.3248 27.8682 38.4083 27.5109C38.9931 24.5633 41.2487 22.6875 44.089 22.6875C47.347 22.6875 50.6051 22.6875 53.9466 22.6875C54.1137 22.6875 54.3643 22.6875 54.5314 22.6875C54.5314 22.0623 54.5314 21.5264 54.5314 20.9904C54.2808 20.9904 54.1137 20.9904 53.9466 20.9904C51.7746 20.9904 49.5191 20.9904 47.347 20.9904C47.0964 20.9904 46.7623 20.9904 46.5116 20.9011C44.7573 20.5438 43.7548 19.2933 43.2536 17.5069C43.003 17.5069 42.8359 17.5069 42.5853 17.5069C30.1379 17.5069 17.7741 17.5069 5.32675 17.5069C5.15968 17.5069 4.9926 17.5069 4.82552 17.5069C4.40782 17.4176 4.07366 17.1496 4.07366 16.703C4.07366 15.2739 4.07366 13.7554 4.07366 12.3263C4.07366 12.0583 4.32428 11.7011 4.5749 11.5224C5.07614 11.2545 5.66091 11.7011 5.66091 12.3263C5.66091 13.4875 5.66091 14.5593 5.66091 15.7205C18.1918 15.7205 30.6392 15.7205 43.0865 15.7205C43.2536 12.0583 43.2536 8.66414 43.2536 5.26994ZM44.8409 5.18062C44.8409 5.35926 44.8409 5.53791 44.8409 5.71655C44.8409 9.20007 44.8409 12.6836 44.8409 16.2564C44.8409 18.0429 45.8433 19.1147 47.5141 19.1147C49.2684 19.1147 51.0228 19.1147 52.7771 19.1147C53.3619 19.1147 53.9466 19.1147 54.5314 19.1147C54.5314 14.47 54.5314 9.91464 54.5314 5.26994C51.3569 5.18062 48.1824 5.18062 44.8409 5.18062ZM17.1058 28.5827C17.1058 26.2604 15.2679 24.206 13.0124 24.206C10.8404 24.206 9.00248 26.1711 9.00248 28.4934C9.00248 30.8158 10.8404 32.8701 13.0124 32.8701C15.2679 32.9595 17.1058 30.9051 17.1058 28.5827ZM48.0989 28.5827C48.0989 26.2604 46.1775 24.206 44.0055 24.2953C41.8334 24.2953 39.9956 26.2604 39.9956 28.5827C39.9956 30.9051 41.8334 32.9595 44.089 32.9595C46.261 32.8701 48.0989 30.9051 48.0989 28.5827ZM9.00248 24.2953C6.83046 24.2953 4.65844 24.2953 2.56996 24.2953C2.56996 25.4565 2.56996 26.6177 2.56996 27.6895C4.1572 27.6895 5.66091 27.6895 7.16462 27.6895C7.24816 27.6895 7.49878 27.5109 7.49878 27.4216C7.66586 26.2604 8.25063 25.2779 9.00248 24.2953ZM54.5314 27.6895C54.5314 26.5284 54.5314 25.3672 54.5314 24.2953C52.3594 24.2953 50.2709 24.2953 48.0989 24.2953C48.433 24.8313 48.7672 25.2779 49.0178 25.8138C49.2684 26.3497 49.352 26.8856 49.6026 27.5109C49.6026 27.6002 49.7697 27.7788 49.8532 27.7788C51.4405 27.6895 53.0277 27.6895 54.5314 27.6895Z" fill="white"/>
<path d="M15.5185 28.5826C15.5185 30.0118 14.4325 31.1729 13.0959 31.1729C11.7592 31.1729 10.6732 30.0118 10.6732 28.4933C10.6732 27.0642 11.7592 25.903 13.0959 25.903C14.4325 25.9923 15.5185 27.1535 15.5185 28.5826ZM13.0123 27.6894C12.5946 27.6894 12.1769 28.136 12.1769 28.5826C12.1769 29.0292 12.5946 29.4758 12.9288 29.4758C13.3465 29.4758 13.7642 29.0292 13.7642 28.5826C13.8477 28.136 13.43 27.6894 13.0123 27.6894Z" fill="white"/>
<path d="M44.0889 25.9923C45.4255 25.9923 46.5115 27.1535 46.5115 28.5826C46.5115 30.1011 45.4255 31.1729 44.0889 31.1729C42.7523 31.1729 41.6663 30.0118 41.6663 28.5826C41.6663 27.1535 42.6687 25.9923 44.0889 25.9923ZM44.8408 28.5826C44.8408 28.136 44.4231 27.6894 44.0889 27.6894C43.6712 27.6894 43.2535 28.0467 43.2535 28.4933C43.2535 28.9399 43.6712 29.3865 44.0889 29.3865C44.5066 29.4758 44.8408 29.0292 44.8408 28.5826Z" fill="white"/>
</svg>
