<svg width="51" height="30" viewBox="0 0 51 30" fill="none" xmlns="http://www.w3.org/2000/svg">
<path d="M51 24.6778C50.7376 25.0462 50.3801 25.1739 49.9314 25.1627C49.0415 25.1401 48.2391 25.4483 47.4747 25.8618C45.7558 26.7901 43.9494 26.9555 42.0822 26.4444C41.5612 26.3015 41.0592 26.0647 40.5762 25.8167C38.7394 24.8845 36.9178 24.8883 35.1038 25.858C33.3849 26.7789 31.5785 26.9518 29.7113 26.4444C29.2055 26.3053 28.7149 26.0835 28.2472 25.843C26.3609 24.8657 24.5013 24.9033 22.6417 25.8994C20.9342 26.8127 19.1392 26.9405 17.291 26.4368C16.8004 26.3015 16.3288 26.0798 15.8763 25.843C14.0129 24.8733 12.1609 24.8921 10.3164 25.8768C8.60894 26.7901 6.81777 26.948 4.96955 26.4444C4.44855 26.3015 3.94657 26.0647 3.4636 25.8167C2.65358 25.3995 1.81694 25.1589 0.896632 25.1326C0.638034 25.1251 0.303378 24.9672 0.139853 24.768C-0.202409 24.3508 0.124641 23.7344 0.676063 23.6818C0.953676 23.6555 1.23889 23.678 1.60397 23.678C1.60397 23.5051 1.60397 23.3322 1.60397 23.1631C1.60397 21.7837 1.60017 20.408 1.60397 19.0286C1.60778 18.0063 2.18202 17.4312 3.2088 17.341C3.41036 17.3222 3.65755 17.1568 3.77544 16.9839C4.85166 15.4279 5.91648 13.8643 6.95467 12.2819C7.52131 11.4137 8.28949 11.0002 9.32769 11.0303C9.82207 11.0453 10.3164 11.0341 10.8869 11.0341C10.556 10.0418 10.248 9.11718 9.93996 8.18881C9.84108 7.89188 9.7308 7.60247 9.64713 7.30178C9.49502 6.76054 9.77263 6.32454 10.3393 6.30575C11.4003 6.27192 12.4613 6.28319 13.5261 6.29823C13.9406 6.30575 14.165 6.56885 14.2905 6.95599C14.6936 8.18505 15.1309 9.4066 15.5226 10.6394C15.6215 10.9514 15.7698 11.0566 16.0855 11.0378C16.4581 11.0153 16.8346 11.0341 17.2758 11.0341C16.8765 9.83508 16.5 8.72253 16.1273 7.60622C15.8117 6.66281 16.0855 6.29447 17.1008 6.29071C17.9299 6.29071 18.7589 6.29071 19.5917 6.29071C20.3219 6.29071 20.4892 6.41099 20.7174 7.08002C21.1167 8.26022 21.5274 9.43667 21.9039 10.6244C22.0104 10.9551 22.1853 11.0002 22.501 11.0491C23.8282 11.2633 24.7979 10.8461 25.4064 9.63211C25.5433 9.35773 25.7791 9.13222 25.9654 8.88039C26.4598 8.2076 27.1367 7.87684 27.9696 7.87684C30.8256 7.86933 33.6777 7.87308 36.5337 7.87684C37.473 7.87684 38.169 8.29781 38.6862 9.07208C40.4431 11.6956 42.2229 14.3078 43.976 16.9313C44.1852 17.2433 44.4019 17.3636 44.7784 17.356C46.1703 17.3335 47.566 17.3824 48.9578 17.3335C49.9086 17.2997 50.6007 17.5966 50.9962 18.4724C50.9962 19.0625 50.9962 19.6526 50.9962 20.2427C50.7376 20.9756 50.2166 21.5093 49.6348 22.0054C49.0415 22.5053 48.4749 23.0353 47.893 23.5502C47.7447 23.6818 47.5964 23.8133 47.4481 23.9449C47.315 24.0652 47.1857 24.1892 47.0526 24.3132C48.0033 23.9223 48.954 23.6968 49.9618 23.6667C50.4258 23.6517 50.7756 23.7645 50.9924 24.1817C51 24.3508 51 24.5162 51 24.6778ZM3.09852 18.8632C3.09852 20.5396 3.09472 22.1633 3.10612 23.7833C3.10612 23.8885 3.17838 24.0501 3.26204 24.0915C3.99601 24.4297 4.71476 24.8357 5.48675 25.0537C6.92805 25.4558 8.33513 25.2642 9.67375 24.5538C11.9441 23.3473 14.2334 23.3585 16.5304 24.5124C16.9715 24.7342 17.4279 24.9522 17.9033 25.0687C19.3598 25.4295 20.7478 25.2341 22.0865 24.5312C24.3226 23.351 26.5891 23.3623 28.8556 24.4936C29.2968 24.7154 29.7493 24.9409 30.2247 25.0612C31.6584 25.422 33.0465 25.2792 34.3699 24.5763C36.6744 23.351 38.9828 23.3623 41.3216 24.5275C41.9605 24.8469 42.683 25.0161 43.3828 25.1852C43.5843 25.2341 43.9038 25.1138 44.0749 24.9635C45.6911 23.5502 47.2617 22.0919 48.897 20.7012C49.5283 20.1637 49.5815 19.5699 49.4598 18.8708C46.9993 18.8708 44.5693 18.8708 42.1506 18.8708C42.1696 19.2504 42.2381 19.5962 42.1963 19.9307C42.0403 21.2011 41.0554 21.9904 39.6559 21.9904C29.6847 21.9942 19.7096 21.9904 9.7384 21.9904C9.50642 21.9904 9.27445 21.9716 9.04627 21.9303C7.913 21.7123 7.08017 20.6072 7.19806 19.4797C7.21707 19.288 7.2589 19.1 7.29693 18.8708C5.89746 18.8632 4.52841 18.8632 3.09852 18.8632ZM38.207 11.0453C37.9712 10.692 37.7773 10.4477 37.6366 10.1734C37.3095 9.54566 36.8151 9.33142 36.1002 9.3427C33.5941 9.38029 31.0879 9.35773 28.5818 9.35773C27.4714 9.35773 26.707 9.92152 26.3305 11.0416C26.5397 11.0416 26.7374 11.0416 26.9352 11.0416C29.2587 11.0416 31.5823 11.0416 33.9059 11.0416C34.0732 11.0416 34.2406 11.0378 34.4003 11.0641C34.7996 11.1318 35.024 11.3949 35.0202 11.782C35.0164 12.1654 34.8034 12.436 34.3965 12.4924C34.1835 12.5225 33.9668 12.5187 33.75 12.5187C28.2738 12.5187 22.7976 12.5187 17.3214 12.5187C14.667 12.5187 12.0125 12.5112 9.35431 12.5262C9.07289 12.5262 8.6964 12.5676 8.52527 12.7442C8.13738 13.1464 7.85216 13.6425 7.45285 14.2026C7.81033 14.2026 8.01949 14.2026 8.23245 14.2026C17.542 14.2026 26.8515 14.2026 36.161 14.2026C36.3778 14.2026 36.5946 14.1951 36.8075 14.2251C37.1916 14.2815 37.397 14.5409 37.4122 14.9017C37.4312 15.2625 37.2411 15.5406 36.8684 15.6271C36.644 15.6797 36.4082 15.676 36.1762 15.676C28.6237 15.6797 21.0749 15.6797 13.5223 15.6797C11.3318 15.6797 9.14135 15.6797 6.95087 15.6835C6.77593 15.6835 6.51353 15.6684 6.43367 15.7662C6.05718 16.2473 5.73394 16.7659 5.36125 17.3109C17.7625 17.3109 30.065 17.3109 42.432 17.3109C42.0784 16.7885 41.7817 16.3149 41.4433 15.8752C41.3558 15.7624 41.1428 15.7023 40.9793 15.6872C40.5686 15.6534 40.1465 15.6872 39.7396 15.6421C39.3403 15.597 39.1273 15.3264 39.1311 14.928C39.1349 14.5296 39.3593 14.2928 39.7548 14.2214C39.9107 14.1951 40.0704 14.1838 40.2986 14.1575C39.9373 13.6238 39.6331 13.1426 39.287 12.6879C39.211 12.5826 39.0056 12.5338 38.8573 12.5262C38.3933 12.5037 37.9294 12.53 37.4654 12.5037C37.0015 12.4774 36.7391 12.2068 36.7315 11.7971C36.7201 11.3686 36.9977 11.0867 37.4768 11.0453C37.6898 11.0303 37.8876 11.0453 38.207 11.0453ZM23.06 18.8557C23.06 19.3481 23.041 19.8217 23.0752 20.2878C23.0828 20.3704 23.2958 20.4982 23.4175 20.502C23.9803 20.5246 24.5431 20.5133 25.106 20.5133C25.5091 20.5133 25.916 20.5133 26.3191 20.5133C26.3191 19.9081 26.3191 19.3932 26.3191 18.8557C25.2277 18.8557 24.1743 18.8557 23.06 18.8557ZM16.7434 18.8632C15.6329 18.8632 14.5795 18.8632 13.4995 18.8632C13.4995 19.412 13.4995 19.9269 13.4995 20.4794C14.5871 20.4794 15.6519 20.4794 16.7434 20.4794C16.7434 19.9307 16.7434 19.4158 16.7434 18.8632ZM21.5312 18.8332C20.4968 18.8332 19.4929 18.8294 18.4889 18.8445C18.4128 18.8445 18.2797 19.0023 18.2721 19.0888C18.2493 19.5398 18.2607 19.9946 18.2607 20.4719C19.3826 20.4719 20.4474 20.4719 21.5274 20.4719C21.5312 19.9232 21.5312 19.4045 21.5312 18.8332ZM27.8517 18.8294C27.8517 19.3293 27.8631 19.739 27.8479 20.1449C27.8365 20.4193 27.9429 20.5208 28.2244 20.5133C28.7872 20.4982 29.35 20.5095 29.9129 20.5095C31.1944 20.5095 31.1944 20.5095 31.1526 19.2391C31.1526 19.1902 31.1716 19.1226 31.145 19.0963C31.0651 19.0023 30.9701 18.8445 30.8788 18.8407C29.89 18.8257 28.9013 18.8294 27.8517 18.8294ZM32.6738 20.4794C33.7842 20.4794 34.8338 20.4794 35.8986 20.4794C35.8986 19.9194 35.8986 19.3932 35.8986 18.8595C34.8034 18.8595 33.75 18.8595 32.6738 18.8595C32.6738 19.4082 32.6738 19.9269 32.6738 20.4794ZM14.0889 11.0378C13.7277 9.96663 13.4044 8.99315 13.0621 8.02719C13.0279 7.92946 12.8986 7.79415 12.8074 7.7904C12.3548 7.76784 11.8985 7.77912 11.3737 7.77912C11.7311 8.84656 12.0582 9.83508 12.4004 10.8161C12.4347 10.91 12.5792 11.0228 12.6781 11.0266C13.123 11.0491 13.5679 11.0378 14.0889 11.0378ZM20.4778 11.0378C20.1127 9.95911 19.7857 8.98187 19.4434 8.01215C19.4092 7.91443 19.2761 7.79415 19.181 7.78664C18.7399 7.76409 18.2988 7.77536 17.7587 7.77536C18.1314 8.86912 18.4737 9.88394 18.8274 10.8988C18.8502 10.9627 18.9757 11.0303 19.0593 11.0303C19.5043 11.0416 19.9454 11.0378 20.4778 11.0378ZM11.9365 20.502C11.9365 19.9119 11.9365 19.3857 11.9365 18.8407C11.1036 18.8407 10.3126 18.8219 9.52164 18.8482C9.02726 18.8632 8.70021 19.2128 8.6926 19.6526C8.68119 20.0848 9.00824 20.4757 9.48741 20.4945C10.286 20.5246 11.096 20.502 11.9365 20.502ZM37.4692 20.4945C38.3249 20.4945 39.1501 20.5208 39.9754 20.4832C40.4317 20.4644 40.6979 20.1412 40.7169 19.6977C40.7359 19.2805 40.5116 18.9084 40.0856 18.882C39.2186 18.8257 38.3477 18.867 37.4692 18.867C37.4692 19.427 37.4692 19.942 37.4692 20.4945Z" fill="white"/>
<path d="M31.6584 29.8947C29.9699 29.8722 28.3651 29.5076 26.8819 28.6957C25.9388 28.1808 25.0565 28.2109 24.102 28.6957C20.9114 30.3082 17.6941 30.3044 14.5073 28.692C13.5489 28.2071 12.6857 28.2259 11.7197 28.6882C10.8489 29.1092 9.90193 29.3798 8.97782 29.6805C8.64316 29.7895 8.26667 29.7068 8.12597 29.3572C8.0347 29.1317 8.05371 28.816 8.14498 28.583C8.20583 28.4251 8.46443 28.3199 8.65837 28.2447C9.56347 27.8951 10.499 27.6095 11.3851 27.2148C12.5868 26.6811 13.7695 26.636 14.9218 27.2562C16.6711 28.1958 18.5231 28.6206 20.4854 28.2973C21.4362 28.1395 22.4059 27.8651 23.2578 27.4328C24.7789 26.6623 26.2088 26.6097 27.7034 27.4366C29.1789 28.256 30.7913 28.4928 32.4646 28.3575C33.0198 28.3124 33.4001 28.5867 33.4305 29.0415C33.461 29.4775 33.1643 29.7632 32.6015 29.8233C32.2897 29.8609 31.974 29.8722 31.6584 29.8947Z" fill="white"/>
<path d="M3.69934 1.9608C4.37625 0.912147 5.28895 0.239356 6.53251 0.0476675C8.42636 -0.245504 10.2746 0.836975 10.8564 2.65238C10.9895 3.07334 11.1835 3.20114 11.5828 3.14476C11.6626 3.13348 11.7501 3.141 11.83 3.14476C12.37 3.17483 12.6818 3.46048 12.6666 3.91527C12.6514 4.35127 12.3548 4.60686 11.8262 4.61813C11.4116 4.62565 10.9971 4.62189 10.5826 4.61813C9.84864 4.61437 9.63948 4.41893 9.57483 3.70855C9.48737 2.73883 8.98158 2.04349 8.0879 1.66763C7.18661 1.28801 6.31954 1.43083 5.57797 2.05476C5.30797 2.28028 5.095 2.596 4.92387 2.90421C4.44471 3.78748 3.76018 3.9491 2.98819 3.32893C2.32648 2.79897 1.65337 3.05455 1.50886 3.89272C1.42139 4.39637 1.12476 4.65572 0.679823 4.61061C0.250094 4.56551 -0.00470083 4.22724 0.0219196 3.72734C0.0941749 2.21638 1.6914 1.19404 3.14791 1.72025C3.31524 1.78038 3.47877 1.86307 3.69934 1.9608Z" fill="white"/>
<path d="M44.0977 30C42.4244 29.8722 40.8386 29.5565 39.3935 28.7597C38.3705 28.1959 37.4046 28.147 36.3892 28.7371C36.1838 28.8574 35.8568 28.9213 35.6476 28.8461C35.4423 28.7709 35.2065 28.4966 35.1875 28.2936C35.1647 28.0643 35.2978 27.7073 35.4841 27.587C36.7695 26.7601 38.1652 26.4744 39.5684 27.2224C41.892 28.4627 44.2917 28.7333 46.8168 27.9854C47.2541 27.8576 47.6344 28.0681 47.7637 28.4665C47.8892 28.8499 47.6953 29.2783 47.2427 29.3836C46.2045 29.6166 45.1473 29.797 44.0977 30Z" fill="white"/>
<path d="M36.6706 6.19674C35.9253 6.19674 35.1761 6.20426 34.4307 6.19298C33.8603 6.18547 33.5599 5.93364 33.5523 5.47509C33.5447 5.00526 33.8641 4.72337 34.4497 4.71961C35.9253 4.71209 37.4008 4.71585 38.8763 4.71961C39.4544 4.72337 39.808 5.00151 39.8195 5.44878C39.8309 5.91109 39.4734 6.18923 38.8573 6.19298C38.131 6.2005 37.4008 6.19674 36.6706 6.19674Z" fill="white"/>
<path d="M5.53614 7.7716C5.02275 7.7716 4.50935 7.78288 3.99596 7.76784C3.5282 7.75657 3.21636 7.45964 3.20876 7.05371C3.20115 6.65154 3.50538 6.31702 3.96934 6.30575C5.01514 6.28319 6.05714 6.28319 7.10294 6.30199C7.60492 6.31326 7.90155 6.6365 7.88253 7.0725C7.86352 7.48595 7.56689 7.75281 7.08012 7.76408C6.56293 7.78288 6.04953 7.7716 5.53614 7.7716Z" fill="white"/>
<path d="M16.3251 4.61439C15.9258 4.61439 15.5303 4.62567 15.131 4.61063C14.6937 4.59184 14.397 4.30619 14.378 3.91529C14.3628 3.53567 14.6518 3.17485 15.0739 3.15981C15.8992 3.12974 16.732 3.12974 17.5572 3.15981C17.9984 3.17485 18.257 3.5056 18.2494 3.90777C18.238 4.31746 17.9642 4.59184 17.5154 4.61063C17.1237 4.62567 16.7244 4.61439 16.3251 4.61439Z" fill="white"/>
<path d="M3.79444 27.9027C4.58925 28.0869 5.22813 28.1996 5.8404 28.3876C6.19407 28.4928 6.34239 28.8161 6.27394 29.1806C6.19788 29.5678 5.91646 29.8271 5.53617 29.7707C4.88587 29.673 4.23938 29.5114 3.6157 29.3084C3.26963 29.1957 3.0985 28.8386 3.25062 28.5041C3.36471 28.2447 3.64612 28.0568 3.79444 27.9027Z" fill="white"/>
<path d="M43.0139 6.18923C42.7477 6.18923 42.4815 6.20426 42.2191 6.18547C41.8198 6.1554 41.5764 5.92612 41.5383 5.53147C41.5003 5.1105 41.7171 4.79478 42.1316 4.76095C42.7553 4.70833 43.3904 4.71209 44.0102 4.76095C44.4019 4.79102 44.6225 5.10299 44.5997 5.49012C44.5769 5.89605 44.3335 6.1554 43.9037 6.18171C43.6109 6.20426 43.3143 6.18923 43.0139 6.18923Z" fill="white"/>
</svg>
