<svg width="18" height="18" viewBox="0 0 18 18" fill="none" xmlns="http://www.w3.org/2000/svg">
<path d="M9.95297 2.92754C10.0361 2.92758 10.1178 2.9063 10.1903 2.86574L10.207 2.85647C10.2625 2.82526 10.3112 2.78343 10.3506 2.73337C10.3899 2.68332 10.4189 2.626 10.4361 2.56471C10.4532 2.50342 10.4582 2.43935 10.4506 2.37616C10.443 2.31296 10.423 2.25189 10.3918 2.19641C10.3606 2.14094 10.3187 2.09216 10.2687 2.05285C10.2186 2.01354 10.1613 1.98448 10.1 1.96732C10.0387 1.95016 9.97465 1.94524 9.91146 1.95284C9.84826 1.96044 9.78719 1.98042 9.73171 2.01162L9.71442 2.02151C9.6208 2.07395 9.54724 2.15598 9.50527 2.25473C9.4633 2.35348 9.45531 2.46337 9.48253 2.56716C9.50975 2.67095 9.57064 2.76277 9.65567 2.82822C9.7407 2.89366 9.84505 2.92903 9.95235 2.92878L9.95297 2.92754Z" fill="#E7245B"/>
<path d="M17.8594 3.18835L14.8143 0.14209C14.7467 0.0742283 14.6604 0.0280077 14.5664 0.00930034C14.4724 -0.00940702 14.375 0.000243214 14.2865 0.037025C14.1979 0.0735458 14.1222 0.135585 14.0689 0.215258C14.0157 0.294931 13.9873 0.388641 13.9874 0.484477V1.24589H12.6716C12.1272 1.24561 11.5852 1.31899 11.0604 1.46405C10.9367 1.49853 10.8317 1.58068 10.7684 1.69249C10.7052 1.80429 10.6888 1.93662 10.723 2.06045C10.7575 2.18419 10.8396 2.28921 10.9514 2.35247C11.0632 2.41573 11.1956 2.43206 11.3194 2.39789C11.7599 2.27534 12.215 2.21297 12.6723 2.21248H14.4719C14.6004 2.21232 14.7236 2.16122 14.8144 2.07039C14.9052 1.97955 14.9563 1.8564 14.9565 1.72795V1.65193L16.8328 3.52826L14.9546 5.40707V5.33105C14.9545 5.20259 14.9034 5.07945 14.8125 4.98861C14.7217 4.89778 14.5986 4.84668 14.4701 4.84652H12.6716C12.0291 4.84717 11.4131 5.10269 10.9588 5.557C10.5045 6.01132 10.249 6.62731 10.2483 7.2698V11.266C9.60697 10.2806 8.69318 9.50269 7.61802 9.02686V7.26919C7.61538 6.58445 7.75316 5.90645 8.02283 5.27706C8.29251 4.64766 8.68837 4.08024 9.18596 3.60984C9.27898 3.52109 9.33293 3.39901 9.33594 3.27047C9.33895 3.14194 9.29078 3.01747 9.20203 2.92445C9.11327 2.83143 8.99119 2.77748 8.86266 2.77447C8.73412 2.77145 8.60965 2.81962 8.51663 2.90838C7.92374 3.469 7.45206 4.1452 7.13073 4.89524C6.80939 5.64527 6.64521 6.45322 6.64834 7.26919V8.69065C6.17282 8.57262 5.68468 8.51306 5.19473 8.51327H4.01554V7.75372C4.01557 7.65783 3.98715 7.56408 3.93387 7.48435C3.88059 7.40462 3.80485 7.34249 3.71625 7.30583C3.62764 7.26917 3.53015 7.25963 3.43611 7.27841C3.34208 7.29719 3.25573 7.34345 3.188 7.41133L0.14174 10.4576C0.0509755 10.5485 0 10.6718 0 10.8003C0 10.9288 0.0509755 11.052 0.14174 11.143L3.188 14.1892C3.25569 14.2571 3.34198 14.3033 3.43596 14.3221C3.52994 14.3409 3.62738 14.3314 3.71596 14.2949C3.80454 14.2583 3.88029 14.1962 3.93361 14.1166C3.98694 14.037 4.01545 13.9433 4.01554 13.8475V13.0848H5.18979C5.38103 13.0844 5.57047 13.1217 5.74729 13.1946C5.92411 13.2674 6.08484 13.3744 6.22029 13.5094C6.35575 13.6444 6.46327 13.8047 6.53672 13.9813C6.61016 14.1579 6.64809 14.3472 6.64834 14.5384V17.5155C6.6485 17.6439 6.6996 17.7671 6.79043 17.8579C6.88127 17.9487 7.00441 17.9998 7.13287 18H10.7329C10.8613 17.9998 10.9845 17.9487 11.0753 17.8579C11.1661 17.7671 11.2173 17.6439 11.2174 17.5155V7.26919C11.2173 6.88328 11.3704 6.51311 11.6431 6.24006C11.9158 5.96701 12.2857 5.81344 12.6716 5.81311H13.9868V6.57699C13.9868 6.67289 14.0152 6.76663 14.0685 6.84636C14.1217 6.92609 14.1975 6.98822 14.2861 7.02488C14.3747 7.06154 14.4722 7.07108 14.5662 7.0523C14.6603 7.03352 14.7466 6.98726 14.8143 6.91938L17.8594 3.87374C17.9501 3.78279 18.0011 3.65954 18.0011 3.53104C18.0011 3.40255 17.9501 3.2793 17.8594 3.18835ZM9.07162 14.3679C8.94317 14.368 8.82002 14.4191 8.72919 14.5099C8.63835 14.6008 8.58725 14.7239 8.58709 14.8524V17.0303H7.61802V14.5384C7.61688 13.8963 7.36114 13.2807 6.90688 12.8268C6.45262 12.3729 5.83691 12.1176 5.19473 12.117H3.53348C3.40502 12.1172 3.28187 12.1683 3.19104 12.2591C3.10021 12.3499 3.04911 12.4731 3.04894 12.6015V12.6732L1.17261 10.8L3.04832 8.92365V8.99966C3.04849 9.12812 3.09959 9.25127 3.19042 9.3421C3.28125 9.43293 3.4044 9.48403 3.53286 9.4842H5.19473C6.53458 9.48567 7.81913 10.0186 8.76655 10.966C9.71397 11.9134 10.2469 13.198 10.2483 14.5378V17.0303H9.55616V14.8524C9.55599 14.7239 9.50489 14.6008 9.41406 14.5099C9.32323 14.4191 9.20008 14.368 9.07162 14.3679Z" fill="#E7245B"/>
<path d="M9.41458 13.1739C9.33539 13.0945 9.23112 13.045 9.11956 13.0339C9.00799 13.0228 8.89603 13.0507 8.80275 13.1129C8.70947 13.1752 8.64065 13.2678 8.60802 13.375C8.57538 13.4823 8.58096 13.5975 8.62378 13.7012C8.66661 13.8048 8.74404 13.8903 8.84289 13.9433C8.94173 13.9962 9.05587 14.0132 9.16584 13.9913C9.27581 13.9695 9.37483 13.9103 9.44599 13.8236C9.51715 13.737 9.55606 13.6283 9.5561 13.5162C9.55587 13.3879 9.50502 13.2649 9.41458 13.1739Z" fill="#E7245B"/>
</svg>
