<svg width="17" height="16" viewBox="0 0 17 16" fill="none" xmlns="http://www.w3.org/2000/svg">
<path d="M3.61263 15.501H0.98468V12.873L10.321 3.53454L12.949 6.16252L3.61263 15.501Z" stroke="white"/>
<path d="M13.7961 0.61315C13.7962 0.613225 13.7963 0.6133 13.7963 0.613375L15.8706 2.68832C15.8706 2.68838 15.8707 2.68843 15.8707 2.68849C15.9437 2.76169 15.9847 2.86085 15.9847 2.96422C15.9847 3.06767 15.9436 3.16689 15.8706 3.24012L14.5991 4.51385L11.9715 1.88618L13.2443 0.613375C13.2443 0.613309 13.2444 0.613243 13.2445 0.613177C13.3177 0.540227 13.4169 0.499268 13.5203 0.499268C13.6237 0.499268 13.7229 0.540216 13.7961 0.61315Z" stroke="white"/>
<path d="M0.48468 12.6657V16.0008H3.81977L13.6561 6.16224L10.321 2.82715L0.48468 12.6657Z" fill="white"/>
<path d="M16.2245 2.33513L14.1494 0.259313C13.9824 0.0927831 13.7562 -0.000732422 13.5203 -0.000732422C13.2845 -0.000732422 13.0582 0.0927831 12.8912 0.259313L11.2643 1.88618L14.5994 5.22127L16.2245 3.59331C16.3911 3.42634 16.4847 3.2001 16.4847 2.96422C16.4847 2.72834 16.3911 2.5021 16.2245 2.33513V2.33513Z" fill="white"/>
</svg>
