<svg width="16" height="12" viewBox="0 0 16 12" fill="none" xmlns="http://www.w3.org/2000/svg">
<mask id="path-1-inside-1" fill="white">
<path d="M15.1752 0.493408H0.821715C0.368678 0.493408 0 0.862086 0 1.31512V10.3384C0 10.7883 0.368678 11.1601 0.821715 11.1601H15.1783C15.6282 11.1601 16 10.7914 16 10.3384V1.31512C15.9969 0.862086 15.6282 0.493408 15.1752 0.493408ZM14.869 1.10891L8.47022 5.90798C8.35462 5.99546 8.17965 6.0517 7.99844 6.04857C7.81722 6.04857 7.64226 5.99546 7.52666 5.90798L1.1279 1.10891H14.869ZM11.4509 6.22354L14.9377 10.5289C14.9408 10.5321 14.944 10.5352 14.9502 10.5414H1.04667C1.0498 10.5383 1.05604 10.5352 1.05917 10.5289L4.54599 6.22354C4.65222 6.09231 4.63347 5.8986 4.49912 5.78925C4.3679 5.68302 4.17418 5.70177 4.06796 5.83611L0.615505 10.1009V1.49321L7.15798 6.39851C7.4048 6.58284 7.70162 6.66095 7.99844 6.66408C8.29526 6.66408 8.59207 6.58284 8.8389 6.39851L15.3814 1.49321V10.1009L11.9289 5.83611C11.8227 5.70489 11.629 5.68302 11.4978 5.78925C11.3634 5.8986 11.3447 6.09231 11.4509 6.22354Z"/>
</mask>
<path d="M15.1752 0.493408H0.821715C0.368678 0.493408 0 0.862086 0 1.31512V10.3384C0 10.7883 0.368678 11.1601 0.821715 11.1601H15.1783C15.6282 11.1601 16 10.7914 16 10.3384V1.31512C15.9969 0.862086 15.6282 0.493408 15.1752 0.493408ZM14.869 1.10891L8.47022 5.90798C8.35462 5.99546 8.17965 6.0517 7.99844 6.04857C7.81722 6.04857 7.64226 5.99546 7.52666 5.90798L1.1279 1.10891H14.869ZM11.4509 6.22354L14.9377 10.5289C14.9408 10.5321 14.944 10.5352 14.9502 10.5414H1.04667C1.0498 10.5383 1.05604 10.5352 1.05917 10.5289L4.54599 6.22354C4.65222 6.09231 4.63347 5.8986 4.49912 5.78925C4.3679 5.68302 4.17418 5.70177 4.06796 5.83611L0.615505 10.1009V1.49321L7.15798 6.39851C7.4048 6.58284 7.70162 6.66095 7.99844 6.66408C8.29526 6.66408 8.59207 6.58284 8.8389 6.39851L15.3814 1.49321V10.1009L11.9289 5.83611C11.8227 5.70489 11.629 5.68302 11.4978 5.78925C11.3634 5.8986 11.3447 6.09231 11.4509 6.22354Z" fill="#E7245B"/>
<path d="M16 1.31512H17L17 1.30823L16 1.31512ZM14.869 1.10891L15.469 1.90891L17.869 0.108913H14.869V1.10891ZM8.47022 5.90798L7.87022 5.10797L7.86678 5.11057L8.47022 5.90798ZM7.99844 6.04857L8.01568 5.04872L8.00706 5.04857H7.99844V6.04857ZM7.52666 5.90798L8.1301 5.11056L8.12666 5.10798L7.52666 5.90798ZM1.1279 1.10891V0.108913H-1.8721L0.527905 1.90891L1.1279 1.10891ZM11.4509 6.22354L10.6736 6.85274L10.6738 6.8529L11.4509 6.22354ZM14.9377 10.5289L14.1606 11.1583L14.1936 11.199L14.2306 11.2361L14.9377 10.5289ZM14.9502 10.5414V11.5414H17.3644L15.6573 9.83434L14.9502 10.5414ZM1.04667 10.5414L0.339564 9.83434L-1.36754 11.5414H1.04667V10.5414ZM1.05917 10.5289L0.282055 9.89959L0.213474 9.98427L0.164741 10.0817L1.05917 10.5289ZM4.54599 6.22354L5.3231 6.8529L5.32323 6.85274L4.54599 6.22354ZM4.49912 5.78925L5.1304 5.01368L5.12832 5.012L4.49912 5.78925ZM4.06796 5.83611L4.84525 6.46535L4.85237 6.45635L4.06796 5.83611ZM0.615505 10.1009H-0.384495V12.9255L1.39275 10.7301L0.615505 10.1009ZM0.615505 1.49321L1.21538 0.693121L-0.384495 -0.506405V1.49321H0.615505ZM7.15798 6.39851L6.5581 7.1986L6.5596 7.19972L7.15798 6.39851ZM7.99844 6.66408L7.98791 7.66408H7.99844V6.66408ZM8.8389 6.39851L9.43728 7.19972L9.43878 7.1986L8.8389 6.39851ZM15.3814 1.49321H16.3814V-0.506405L14.7815 0.693121L15.3814 1.49321ZM15.3814 10.1009L14.6041 10.7301L16.3814 12.9255V10.1009H15.3814ZM11.9289 5.83611L12.7062 5.20692L11.9289 5.83611ZM11.4978 5.78925L10.8686 5.012L10.8665 5.01369L11.4978 5.78925ZM15.1752 -0.506592H0.821715V1.49341H15.1752V-0.506592ZM0.821715 -0.506592C-0.183607 -0.506592 -1 0.309801 -1 1.31512H1C1 1.41437 0.920963 1.49341 0.821715 1.49341V-0.506592ZM-1 1.31512V10.3384H1V1.31512H-1ZM-1 10.3384C-1 11.3381 -0.186076 12.1601 0.821715 12.1601V10.1601C0.923432 10.1601 1 10.2385 1 10.3384H-1ZM0.821715 12.1601H15.1783V10.1601H0.821715V12.1601ZM15.1783 12.1601C16.178 12.1601 17 11.3462 17 10.3384H15C15 10.2366 15.0784 10.1601 15.1783 10.1601V12.1601ZM17 10.3384V1.31512H15V10.3384H17ZM17 1.30823C16.9931 0.309632 16.1818 -0.506592 15.1752 -0.506592V1.49341C15.0746 1.49341 15.0007 1.41454 15 1.32202L17 1.30823ZM14.269 0.308913L7.87022 5.10798L9.07022 6.70798L15.469 1.90891L14.269 0.308913ZM7.86678 5.11057C7.91635 5.07306 7.95334 5.05997 7.96777 5.05558C7.98443 5.05051 7.99937 5.04844 8.01568 5.04872L7.9812 7.04843C8.35734 7.05491 8.75796 6.94429 9.07366 6.70538L7.86678 5.11057ZM7.99844 5.04857C8.0033 5.04857 8.01099 5.04897 8.02487 5.05313C8.03618 5.05652 8.07602 5.06965 8.1301 5.11057L6.92321 6.70538C7.2476 6.95087 7.6479 7.04857 7.99844 7.04857V5.04857ZM8.12666 5.10798L1.7279 0.308913L0.527905 1.90891L6.92666 6.70798L8.12666 5.10798ZM1.1279 2.10891H14.869V0.108913H1.1279V2.10891ZM10.6738 6.8529L14.1606 11.1583L15.7148 9.89959L12.228 5.59418L10.6738 6.8529ZM14.2306 11.2361C14.2306 11.2361 14.2306 11.2361 14.2306 11.2361C14.2306 11.2361 14.2306 11.2361 14.2306 11.2361C14.2306 11.2361 14.2307 11.2361 14.2307 11.2361C14.2307 11.2361 14.2307 11.2361 14.2307 11.2361C14.2307 11.2361 14.2307 11.2361 14.2307 11.2361C14.2307 11.2362 14.2307 11.2362 14.2307 11.2362C14.2307 11.2362 14.2307 11.2362 14.2307 11.2362C14.2307 11.2362 14.2307 11.2362 14.2307 11.2362C14.2308 11.2362 14.2308 11.2362 14.2308 11.2362C14.2308 11.2362 14.2308 11.2362 14.2308 11.2362C14.2308 11.2362 14.2308 11.2363 14.2308 11.2363C14.2308 11.2363 14.2308 11.2363 14.2308 11.2363C14.2308 11.2363 14.2308 11.2363 14.2308 11.2363C14.2308 11.2363 14.2309 11.2363 14.2309 11.2363C14.2309 11.2363 14.2309 11.2363 14.2309 11.2363C14.2309 11.2363 14.2309 11.2363 14.2309 11.2363C14.2309 11.2364 14.2309 11.2364 14.2309 11.2364C14.2309 11.2364 14.2309 11.2364 14.2309 11.2364C14.2309 11.2364 14.2309 11.2364 14.231 11.2364C14.231 11.2364 14.231 11.2364 14.231 11.2364C14.231 11.2364 14.231 11.2364 14.231 11.2364C14.231 11.2364 14.231 11.2365 14.231 11.2365C14.231 11.2365 14.231 11.2365 14.231 11.2365C14.231 11.2365 14.231 11.2365 14.231 11.2365C14.231 11.2365 14.2311 11.2365 14.2311 11.2365C14.2311 11.2365 14.2311 11.2365 14.2311 11.2365C14.2311 11.2365 14.2311 11.2365 14.2311 11.2366C14.2311 11.2366 14.2311 11.2366 14.2311 11.2366C14.2311 11.2366 14.2311 11.2366 14.2311 11.2366C14.2311 11.2366 14.2311 11.2366 14.2312 11.2366C14.2312 11.2366 14.2312 11.2366 14.2312 11.2366C14.2312 11.2366 14.2312 11.2366 14.2312 11.2366C14.2312 11.2366 14.2312 11.2367 14.2312 11.2367C14.2312 11.2367 14.2312 11.2367 14.2312 11.2367C14.2312 11.2367 14.2312 11.2367 14.2312 11.2367C14.2312 11.2367 14.2313 11.2367 14.2313 11.2367C14.2313 11.2367 14.2313 11.2367 14.2313 11.2367C14.2313 11.2367 14.2313 11.2367 14.2313 11.2368C14.2313 11.2368 14.2313 11.2368 14.2313 11.2368C14.2313 11.2368 14.2313 11.2368 14.2313 11.2368C14.2313 11.2368 14.2313 11.2368 14.2314 11.2368C14.2314 11.2368 14.2314 11.2368 14.2314 11.2368C14.2314 11.2368 14.2314 11.2368 14.2314 11.2368C14.2314 11.2369 14.2314 11.2369 14.2314 11.2369C14.2314 11.2369 14.2314 11.2369 14.2314 11.2369C14.2314 11.2369 14.2314 11.2369 14.2314 11.2369C14.2315 11.2369 14.2315 11.2369 14.2315 11.2369C14.2315 11.2369 14.2315 11.2369 14.2315 11.2369C14.2315 11.2369 14.2315 11.2369 14.2315 11.237C14.2315 11.237 14.2315 11.237 14.2315 11.237C14.2315 11.237 14.2315 11.237 14.2315 11.237C14.2315 11.237 14.2316 11.237 14.2316 11.237C14.2316 11.237 14.2316 11.237 14.2316 11.237C14.2316 11.237 14.2316 11.237 14.2316 11.237C14.2316 11.2371 14.2316 11.2371 14.2316 11.2371C14.2316 11.2371 14.2316 11.2371 14.2316 11.2371C14.2316 11.2371 14.2316 11.2371 14.2316 11.2371C14.2317 11.2371 14.2317 11.2371 14.2317 11.2371C14.2317 11.2371 14.2317 11.2371 14.2317 11.2371C14.2317 11.2371 14.2317 11.2372 14.2317 11.2372C14.2317 11.2372 14.2317 11.2372 14.2317 11.2372C14.2317 11.2372 14.2317 11.2372 14.2317 11.2372C14.2317 11.2372 14.2318 11.2372 14.2318 11.2372C14.2318 11.2372 14.2318 11.2372 14.2318 11.2372C14.2318 11.2372 14.2318 11.2372 14.2318 11.2373C14.2318 11.2373 14.2318 11.2373 14.2318 11.2373C14.2318 11.2373 14.2318 11.2373 14.2318 11.2373C14.2318 11.2373 14.2318 11.2373 14.2319 11.2373C14.2319 11.2373 14.2319 11.2373 14.2319 11.2373C14.2319 11.2373 14.2319 11.2373 14.2319 11.2373C14.2319 11.2374 14.2319 11.2374 14.2319 11.2374C14.2319 11.2374 14.2319 11.2374 14.2319 11.2374C14.2319 11.2374 14.2319 11.2374 14.2319 11.2374C14.232 11.2374 14.232 11.2374 14.232 11.2374C14.232 11.2374 14.232 11.2374 14.232 11.2374C14.232 11.2374 14.232 11.2375 14.232 11.2375C14.232 11.2375 14.232 11.2375 14.232 11.2375C14.232 11.2375 14.232 11.2375 14.232 11.2375C14.232 11.2375 14.2321 11.2375 14.2321 11.2375C14.2321 11.2375 14.2321 11.2375 14.2321 11.2375C14.2321 11.2375 14.2321 11.2375 14.2321 11.2376C14.2321 11.2376 14.2321 11.2376 14.2321 11.2376C14.2321 11.2376 14.2321 11.2376 14.2321 11.2376C14.2321 11.2376 14.2321 11.2376 14.2322 11.2376C14.2322 11.2376 14.2322 11.2376 14.2322 11.2376C14.2322 11.2376 14.2322 11.2376 14.2322 11.2376C14.2322 11.2377 14.2322 11.2377 14.2322 11.2377C14.2322 11.2377 14.2322 11.2377 14.2322 11.2377C14.2322 11.2377 14.2322 11.2377 14.2322 11.2377C14.2323 11.2377 14.2323 11.2377 14.2323 11.2377C14.2323 11.2377 14.2323 11.2377 14.2323 11.2377C14.2323 11.2377 14.2323 11.2378 14.2323 11.2378C14.2323 11.2378 14.2323 11.2378 14.2323 11.2378C14.2323 11.2378 14.2323 11.2378 14.2323 11.2378C14.2323 11.2378 14.2324 11.2378 14.2324 11.2378C14.2324 11.2378 14.2324 11.2378 14.2324 11.2378C14.2324 11.2378 14.2324 11.2378 14.2324 11.2379C14.2324 11.2379 14.2324 11.2379 14.2324 11.2379C14.2324 11.2379 14.2324 11.2379 14.2324 11.2379C14.2324 11.2379 14.2324 11.2379 14.2325 11.2379C14.2325 11.2379 14.2325 11.2379 14.2325 11.2379C14.2325 11.2379 14.2325 11.2379 14.2325 11.2379C14.2325 11.238 14.2325 11.238 14.2325 11.238C14.2325 11.238 14.2325 11.238 14.2325 11.238C14.2325 11.238 14.2325 11.238 14.2326 11.238C14.2326 11.238 14.2326 11.238 14.2326 11.238C14.2326 11.238 14.2326 11.238 14.2326 11.238C14.2326 11.238 14.2326 11.2381 14.2326 11.2381C14.2326 11.2381 14.2326 11.2381 14.2326 11.2381C14.2326 11.2381 14.2326 11.2381 14.2326 11.2381C14.2327 11.2381 14.2327 11.2381 14.2327 11.2381C14.2327 11.2381 14.2327 11.2381 14.2327 11.2381C14.2327 11.2381 14.2327 11.2382 14.2327 11.2382C14.2327 11.2382 14.2327 11.2382 14.2327 11.2382C14.2327 11.2382 14.2327 11.2382 14.2327 11.2382C14.2327 11.2382 14.2328 11.2382 14.2328 11.2382C14.2328 11.2382 14.2328 11.2382 14.2328 11.2382C14.2328 11.2382 14.2328 11.2382 14.2328 11.2383C14.2328 11.2383 14.2328 11.2383 14.2328 11.2383C14.2328 11.2383 14.2328 11.2383 14.2328 11.2383C14.2328 11.2383 14.2329 11.2383 14.2329 11.2383C14.2329 11.2383 14.2329 11.2383 14.2329 11.2383C14.2329 11.2383 14.2329 11.2383 14.2329 11.2384C14.2329 11.2384 14.2329 11.2384 14.2329 11.2384C14.2329 11.2384 14.2329 11.2384 14.2329 11.2384C14.2329 11.2384 14.2329 11.2384 14.233 11.2384C14.233 11.2384 14.233 11.2384 14.233 11.2384C14.233 11.2384 14.233 11.2384 14.233 11.2384C14.233 11.2385 14.233 11.2385 14.233 11.2385C14.233 11.2385 14.233 11.2385 14.233 11.2385C14.233 11.2385 14.233 11.2385 14.2331 11.2385C14.2331 11.2385 14.2331 11.2385 14.2331 11.2385C14.2331 11.2385 14.2331 11.2385 14.2331 11.2385C14.2331 11.2386 14.2331 11.2386 14.2331 11.2386C14.2331 11.2386 14.2331 11.2386 14.2331 11.2386C14.2331 11.2386 14.2331 11.2386 14.2332 11.2386C14.2332 11.2386 14.2332 11.2386 14.2332 11.2386C14.2332 11.2386 14.2332 11.2386 14.2332 11.2386C14.2332 11.2387 14.2332 11.2387 14.2332 11.2387C14.2332 11.2387 14.2332 11.2387 14.2332 11.2387C14.2332 11.2387 14.2332 11.2387 14.2332 11.2387C14.2333 11.2387 14.2333 11.2387 14.2333 11.2387C14.2333 11.2387 14.2333 11.2387 14.2333 11.2387C14.2333 11.2387 14.2333 11.2388 14.2333 11.2388C14.2333 11.2388 14.2333 11.2388 14.2333 11.2388C14.2333 11.2388 14.2333 11.2388 14.2333 11.2388C14.2334 11.2388 14.2334 11.2388 14.2334 11.2388C14.2334 11.2388 14.2334 11.2388 14.2334 11.2388C14.2334 11.2388 14.2334 11.2389 14.2334 11.2389C14.2334 11.2389 14.2334 11.2389 14.2334 11.2389C14.2334 11.2389 14.2334 11.2389 14.2334 11.2389C14.2335 11.2389 14.2335 11.2389 14.2335 11.2389C14.2335 11.2389 14.2335 11.2389 14.2335 11.2389C14.2335 11.2389 14.2335 11.239 14.2335 11.239C14.2335 11.239 14.2335 11.239 14.2335 11.239C14.2335 11.239 14.2335 11.239 14.2335 11.239C14.2336 11.239 14.2336 11.239 14.2336 11.239C14.2336 11.239 14.2336 11.239 14.2336 11.239C14.2336 11.239 14.2336 11.2391 14.2336 11.2391C14.2336 11.2391 14.2336 11.2391 14.2336 11.2391C14.2336 11.2391 14.2336 11.2391 14.2336 11.2391C14.2337 11.2391 14.2337 11.2391 14.2337 11.2391C14.2337 11.2391 14.2337 11.2391 14.2337 11.2391C14.2337 11.2391 14.2337 11.2392 14.2337 11.2392C14.2337 11.2392 14.2337 11.2392 14.2337 11.2392C14.2337 11.2392 14.2337 11.2392 14.2337 11.2392C14.2338 11.2392 14.2338 11.2392 14.2338 11.2392C14.2338 11.2392 14.2338 11.2392 14.2338 11.2392C14.2338 11.2392 14.2338 11.2393 14.2338 11.2393C14.2338 11.2393 14.2338 11.2393 14.2338 11.2393C14.2338 11.2393 14.2338 11.2393 14.2338 11.2393C14.2339 11.2393 14.2339 11.2393 14.2339 11.2393C14.2339 11.2393 14.2339 11.2393 14.2339 11.2393C14.2339 11.2394 14.2339 11.2394 14.2339 11.2394C14.2339 11.2394 14.2339 11.2394 14.2339 11.2394C14.2339 11.2394 14.2339 11.2394 14.234 11.2394C14.234 11.2394 14.234 11.2394 14.234 11.2394C14.234 11.2394 14.234 11.2394 14.234 11.2394C14.234 11.2395 14.234 11.2395 14.234 11.2395C14.234 11.2395 14.234 11.2395 14.234 11.2395C14.234 11.2395 14.234 11.2395 14.2341 11.2395C14.2341 11.2395 14.2341 11.2395 14.2341 11.2395C14.2341 11.2395 14.2341 11.2395 14.2341 11.2395C14.2341 11.2396 14.2341 11.2396 14.2341 11.2396C14.2341 11.2396 14.2341 11.2396 14.2341 11.2396C14.2341 11.2396 14.2341 11.2396 14.2342 11.2396C14.2342 11.2396 14.2342 11.2396 14.2342 11.2396C14.2342 11.2396 14.2342 11.2396 14.2342 11.2397C14.2342 11.2397 14.2342 11.2397 14.2342 11.2397C14.2342 11.2397 14.2342 11.2397 14.2342 11.2397C14.2342 11.2397 14.2343 11.2397 14.2343 11.2397C14.2343 11.2397 14.2343 11.2397 14.2343 11.2397C14.2343 11.2397 14.2343 11.2397 14.2343 11.2398C14.2343 11.2398 14.2343 11.2398 14.2343 11.2398C14.2343 11.2398 14.2343 11.2398 14.2343 11.2398C14.2344 11.2398 14.2344 11.2398 14.2344 11.2398C14.2344 11.2398 14.2344 11.2398 14.2344 11.2398C14.2344 11.2398 14.2344 11.2399 14.2344 11.2399C14.2344 11.2399 14.2344 11.2399 14.2344 11.2399C14.2344 11.2399 14.2344 11.2399 14.2344 11.2399C14.2345 11.2399 14.2345 11.2399 14.2345 11.2399C14.2345 11.2399 14.2345 11.2399 14.2345 11.2399C14.2345 11.24 14.2345 11.24 14.2345 11.24C14.2345 11.24 14.2345 11.24 14.2345 11.24C14.2345 11.24 14.2345 11.24 14.2346 11.24C14.2346 11.24 14.2346 11.24 14.2346 11.24C14.2346 11.24 14.2346 11.24 14.2346 11.2401C14.2346 11.2401 14.2346 11.2401 14.2346 11.2401C14.2346 11.2401 14.2346 11.2401 14.2346 11.2401C14.2346 11.2401 14.2347 11.2401 14.2347 11.2401C14.2347 11.2401 14.2347 11.2401 14.2347 11.2401C14.2347 11.2401 14.2347 11.2402 14.2347 11.2402C14.2347 11.2402 14.2347 11.2402 14.2347 11.2402C14.2347 11.2402 14.2347 11.2402 14.2347 11.2402C14.2348 11.2402 14.2348 11.2402 14.2348 11.2402C14.2348 11.2402 14.2348 11.2402 14.2348 11.2402C14.2348 11.2403 14.2348 11.2403 14.2348 11.2403C14.2348 11.2403 14.2348 11.2403 14.2348 11.2403C14.2348 11.2403 14.2348 11.2403 14.2349 11.2403C14.2349 11.2403 14.2349 11.2403 14.2349 11.2403C14.2349 11.2403 14.2349 11.2403 14.2349 11.2404C14.2349 11.2404 14.2349 11.2404 14.2349 11.2404C14.2349 11.2404 14.2349 11.2404 14.2349 11.2404C14.235 11.2404 14.235 11.2404 14.235 11.2404C14.235 11.2404 14.235 11.2404 14.235 11.2404C14.235 11.2404 14.235 11.2405 14.235 11.2405C14.235 11.2405 14.235 11.2405 14.235 11.2405C14.235 11.2405 14.235 11.2405 14.2351 11.2405C14.2351 11.2405 14.2351 11.2405 14.2351 11.2405C14.2351 11.2405 14.2351 11.2405 14.2351 11.2406C14.2351 11.2406 14.2351 11.2406 14.2351 11.2406C14.2351 11.2406 14.2351 11.2406 14.2351 11.2406C14.2351 11.2406 14.2352 11.2406 14.2352 11.2406C14.2352 11.2406 14.2352 11.2406 14.2352 11.2406C14.2352 11.2406 14.2352 11.2407 14.2352 11.2407C14.2352 11.2407 14.2352 11.2407 14.2352 11.2407C14.2352 11.2407 14.2352 11.2407 14.2353 11.2407C14.2353 11.2407 14.2353 11.2407 14.2353 11.2407C14.2353 11.2407 14.2353 11.2407 14.2353 11.2407C14.2353 11.2408 14.2353 11.2408 14.2353 11.2408C14.2353 11.2408 14.2353 11.2408 14.2353 11.2408C14.2353 11.2408 14.2354 11.2408 14.2354 11.2408C14.2354 11.2408 14.2354 11.2408 14.2354 11.2408C14.2354 11.2408 14.2354 11.2409 14.2354 11.2409C14.2354 11.2409 14.2354 11.2409 14.2354 11.2409C14.2354 11.2409 14.2354 11.2409 14.2355 11.2409C14.2355 11.2409 14.2355 11.2409 14.2355 11.2409C14.2355 11.2409 14.2355 11.2409 14.2355 11.241C14.2355 11.241 14.2355 11.241 14.2355 11.241C14.2355 11.241 14.2355 11.241 14.2355 11.241C14.2355 11.241 14.2356 11.241 14.2356 11.241C14.2356 11.241 14.2356 11.241 14.2356 11.241C14.2356 11.241 14.2356 11.2411 14.2356 11.2411C14.2356 11.2411 14.2356 11.2411 14.2356 11.2411C14.2356 11.2411 14.2356 11.2411 14.2357 11.2411C14.2357 11.2411 14.2357 11.2411 14.2357 11.2411C14.2357 11.2411 14.2357 11.2411 14.2357 11.2412C14.2357 11.2412 14.2357 11.2412 14.2357 11.2412C14.2357 11.2412 14.2357 11.2412 14.2357 11.2412C14.2358 11.2412 14.2358 11.2412 14.2358 11.2412C14.2358 11.2412 14.2358 11.2412 14.2358 11.2412C14.2358 11.2413 14.2358 11.2413 14.2358 11.2413C14.2358 11.2413 14.2358 11.2413 14.2358 11.2413C14.2358 11.2413 14.2359 11.2413 14.2359 11.2413C14.2359 11.2413 14.2359 11.2413 14.2359 11.2413C14.2359 11.2413 14.2359 11.2414 14.2359 11.2414C14.2359 11.2414 14.2359 11.2414 14.2359 11.2414C14.2359 11.2414 14.2359 11.2414 14.236 11.2414C14.236 11.2414 14.236 11.2414 14.236 11.2414C14.236 11.2414 14.236 11.2414 14.236 11.2415C14.236 11.2415 14.236 11.2415 14.236 11.2415C14.236 11.2415 14.236 11.2415 14.236 11.2415C14.2361 11.2415 14.2361 11.2415 14.2361 11.2415C14.2361 11.2415 14.2361 11.2415 14.2361 11.2416C14.2361 11.2416 14.2361 11.2416 14.2361 11.2416C14.2361 11.2416 14.2361 11.2416 14.2361 11.2416C14.2362 11.2416 14.2362 11.2416 14.2362 11.2416C14.2362 11.2416 14.2362 11.2416 14.2362 11.2416C14.2362 11.2417 14.2362 11.2417 14.2362 11.2417C14.2362 11.2417 14.2362 11.2417 14.2362 11.2417C14.2362 11.2417 14.2363 11.2417 14.2363 11.2417C14.2363 11.2417 14.2363 11.2417 14.2363 11.2417C14.2363 11.2417 14.2363 11.2418 14.2363 11.2418C14.2363 11.2418 14.2363 11.2418 14.2363 11.2418C14.2363 11.2418 14.2364 11.2418 14.2364 11.2418C14.2364 11.2418 14.2364 11.2418 14.2364 11.2418C14.2364 11.2418 14.2364 11.2419 14.2364 11.2419C14.2364 11.2419 14.2364 11.2419 14.2364 11.2419C14.2364 11.2419 14.2364 11.2419 14.2365 11.2419C14.2365 11.2419 14.2365 11.2419 14.2365 11.2419C14.2365 11.2419 14.2365 11.2419 14.2365 11.242C14.2365 11.242 14.2365 11.242 14.2365 11.242C14.2365 11.242 14.2365 11.242 14.2366 11.242C14.2366 11.242 14.2366 11.242 14.2366 11.242C14.2366 11.242 14.2366 11.242 14.2366 11.2421C14.2366 11.2421 14.2366 11.2421 14.2366 11.2421C14.2366 11.2421 14.2366 11.2421 14.2366 11.2421C14.2367 11.2421 14.2367 11.2421 14.2367 11.2421C14.2367 11.2421 14.2367 11.2421 14.2367 11.2422C14.2367 11.2422 14.2367 11.2422 14.2367 11.2422C14.2367 11.2422 14.2367 11.2422 14.2367 11.2422C14.2368 11.2422 14.2368 11.2422 14.2368 11.2422C14.2368 11.2422 14.2368 11.2422 14.2368 11.2423C14.2368 11.2423 14.2368 11.2423 14.2368 11.2423C14.2368 11.2423 14.2368 11.2423 14.2368 11.2423C14.2369 11.2423 14.2369 11.2423 14.2369 11.2423C14.2369 11.2423 14.2369 11.2423 14.2369 11.2423C14.2369 11.2424 14.2369 11.2424 14.2369 11.2424C14.2369 11.2424 14.2369 11.2424 14.2369 11.2424C14.237 11.2424 14.237 11.2424 14.237 11.2424C14.237 11.2424 14.237 11.2424 14.237 11.2424C14.237 11.2425 14.237 11.2425 14.237 11.2425C14.237 11.2425 14.237 11.2425 14.237 11.2425C14.2371 11.2425 14.2371 11.2425 14.2371 11.2425C14.2371 11.2425 14.2371 11.2425 14.2371 11.2425C14.2371 11.2426 14.2371 11.2426 14.2371 11.2426C14.2371 11.2426 14.2371 11.2426 14.2371 11.2426C14.2372 11.2426 14.2372 11.2426 14.2372 11.2426C14.2372 11.2426 14.2372 11.2426 14.2372 11.2427C14.2372 11.2427 14.2372 11.2427 14.2372 11.2427C14.2372 11.2427 14.2372 11.2427 14.2372 11.2427C14.2373 11.2427 14.2373 11.2427 14.2373 11.2427C14.2373 11.2427 14.2373 11.2427 14.2373 11.2428C14.2373 11.2428 14.2373 11.2428 14.2373 11.2428C14.2373 11.2428 14.2373 11.2428 14.2374 11.2428C14.2374 11.2428 14.2374 11.2428 14.2374 11.2428C14.2374 11.2428 14.2374 11.2428 14.2374 11.2429C14.2374 11.2429 14.2374 11.2429 14.2374 11.2429C14.2374 11.2429 14.2374 11.2429 14.2375 11.2429C14.2375 11.2429 14.2375 11.2429 14.2375 11.2429C14.2375 11.2429 14.2375 11.243 14.2375 11.243C14.2375 11.243 14.2375 11.243 14.2375 11.243C14.2375 11.243 14.2375 11.243 14.2376 11.243C14.2376 11.243 14.2376 11.243 14.2376 11.243C14.2376 11.243 14.2376 11.2431 14.2376 11.2431C14.2376 11.2431 14.2376 11.2431 14.2376 11.2431C14.2376 11.2431 14.2377 11.2431 14.2377 11.2431C14.2377 11.2431 14.2377 11.2431 14.2377 11.2431C14.2377 11.2432 14.2377 11.2432 14.2377 11.2432C14.2377 11.2432 14.2377 11.2432 14.2377 11.2432C14.2378 11.2432 14.2378 11.2432 14.2378 11.2432C14.2378 11.2432 14.2378 11.2432 14.2378 11.2432C14.2378 11.2433 14.2378 11.2433 14.2378 11.2433C14.2378 11.2433 14.2378 11.2433 14.2378 11.2433C14.2379 11.2433 14.2379 11.2433 14.2379 11.2433C14.2379 11.2433 14.2379 11.2433 14.2379 11.2434C14.2379 11.2434 14.2379 11.2434 14.2379 11.2434C14.2379 11.2434 14.2379 11.2434 14.238 11.2434C14.238 11.2434 14.238 11.2434 14.238 11.2434C14.238 11.2434 14.238 11.2435 14.238 11.2435C14.238 11.2435 14.238 11.2435 14.238 11.2435C14.238 11.2435 14.2381 11.2435 14.2381 11.2435C14.2381 11.2435 14.2381 11.2435 14.2381 11.2435C14.2381 11.2436 14.2381 11.2436 14.2381 11.2436C14.2381 11.2436 14.2381 11.2436 14.2381 11.2436C14.2382 11.2436 14.2382 11.2436 14.2382 11.2436C14.2382 11.2436 14.2382 11.2436 14.2382 11.2437C14.2382 11.2437 14.2382 11.2437 14.2382 11.2437C14.2382 11.2437 14.2382 11.2437 14.2383 11.2437C14.2383 11.2437 14.2383 11.2437 14.2383 11.2437C14.2383 11.2437 14.2383 11.2438 14.2383 11.2438C14.2383 11.2438 14.2383 11.2438 14.2383 11.2438C14.2383 11.2438 14.2384 11.2438 14.2384 11.2438C14.2384 11.2438 14.2384 11.2438 14.2384 11.2438C14.2384 11.2439 14.2384 11.2439 14.2384 11.2439C14.2384 11.2439 14.2384 11.2439 14.2384 11.2439C14.2385 11.2439 14.2385 11.2439 14.2385 11.2439C14.2385 11.2439 14.2385 11.2439 14.2385 11.244C14.2385 11.244 14.2385 11.244 14.2385 11.244C14.2385 11.244 14.2385 11.244 14.2386 11.244C14.2386 11.244 14.2386 11.244 14.2386 11.244C14.2386 11.244 14.2386 11.2441 14.2386 11.2441C14.2386 11.2441 14.2386 11.2441 14.2386 11.2441C14.2386 11.2441 14.2387 11.2441 14.2387 11.2441C14.2387 11.2441 14.2387 11.2441 14.2387 11.2441C14.2387 11.2442 14.2387 11.2442 14.2387 11.2442C14.2387 11.2442 14.2387 11.2442 14.2388 11.2442C14.2388 11.2442 14.2388 11.2442 14.2388 11.2442C14.2388 11.2442 14.2388 11.2443 14.2388 11.2443C14.2388 11.2443 14.2388 11.2443 14.2388 11.2443C14.2388 11.2443 14.2389 11.2443 14.2389 11.2443C14.2389 11.2443 14.2389 11.2443 14.2389 11.2443C14.2389 11.2444 14.2389 11.2444 14.2389 11.2444C14.2389 11.2444 14.2389 11.2444 14.2389 11.2444C14.239 11.2444 14.239 11.2444 14.239 11.2444C14.239 11.2444 14.239 11.2445 14.239 11.2445C14.239 11.2445 14.239 11.2445 14.239 11.2445C14.239 11.2445 14.2391 11.2445 14.2391 11.2445C14.2391 11.2445 14.2391 11.2445 14.2391 11.2445C14.2391 11.2446 14.2391 11.2446 14.2391 11.2446C14.2391 11.2446 14.2391 11.2446 14.2392 11.2446C14.2392 11.2446 14.2392 11.2446 14.2392 11.2446C14.2392 11.2446 14.2392 11.2447 14.2392 11.2447C14.2392 11.2447 14.2392 11.2447 14.2392 11.2447C14.2392 11.2447 14.2393 11.2447 14.2393 11.2447C14.2393 11.2447 14.2393 11.2447 14.2393 11.2448C14.2393 11.2448 14.2393 11.2448 14.2393 11.2448C14.2393 11.2448 14.2393 11.2448 14.2394 11.2448C14.2394 11.2448 14.2394 11.2448 14.2394 11.2448C14.2394 11.2448 14.2394 11.2449 14.2394 11.2449C14.2394 11.2449 14.2394 11.2449 14.2394 11.2449C14.2395 11.2449 14.2395 11.2449 14.2395 11.2449C14.2395 11.2449 14.2395 11.2449 14.2395 11.245C14.2395 11.245 14.2395 11.245 14.2395 11.245C14.2395 11.245 14.2396 11.245 14.2396 11.245C14.2396 11.245 14.2396 11.245 14.2396 11.245C14.2396 11.2451 14.2396 11.2451 14.2396 11.2451C14.2396 11.2451 14.2396 11.2451 14.2397 11.2451C14.2397 11.2451 14.2397 11.2451 14.2397 11.2451C14.2397 11.2451 14.2397 11.2452 14.2397 11.2452C14.2397 11.2452 14.2397 11.2452 14.2397 11.2452C14.2398 11.2452 14.2398 11.2452 14.2398 11.2452C14.2398 11.2452 14.2398 11.2452 14.2398 11.2453C14.2398 11.2453 14.2398 11.2453 14.2398 11.2453C14.2398 11.2453 14.2399 11.2453 14.2399 11.2453C14.2399 11.2453 14.2399 11.2453 14.2399 11.2453C14.2399 11.2454 14.2399 11.2454 14.2399 11.2454C14.2399 11.2454 14.2399 11.2454 14.24 11.2454C14.24 11.2454 14.24 11.2454 14.24 11.2454C14.24 11.2454 14.24 11.2455 14.24 11.2455C14.24 11.2455 14.24 11.2455 14.24 11.2455C14.2401 11.2455 14.2401 11.2455 14.2401 11.2455C14.2401 11.2455 14.2401 11.2456 14.2401 11.2456C14.2401 11.2456 14.2401 11.2456 14.2401 11.2456C14.2401 11.2456 14.2402 11.2456 14.2402 11.2456C14.2402 11.2456 14.2402 11.2456 14.2402 11.2457C14.2402 11.2457 14.2402 11.2457 14.2402 11.2457C14.2402 11.2457 14.2403 11.2457 14.2403 11.2457C14.2403 11.2457 14.2403 11.2457 14.2403 11.2457C14.2403 11.2458 14.2403 11.2458 14.2403 11.2458C14.2403 11.2458 14.2403 11.2458 14.2404 11.2458C14.2404 11.2458 14.2404 11.2458 14.2404 11.2458C14.2404 11.2459 14.2404 11.2459 14.2404 11.2459C14.2404 11.2459 14.2404 11.2459 14.2404 11.2459C14.2405 11.2459 14.2405 11.2459 14.2405 11.2459C14.2405 11.2459 14.2405 11.246 14.2405 11.246C14.2405 11.246 14.2405 11.246 14.2405 11.246C14.2406 11.246 14.2406 11.246 14.2406 11.246C14.2406 11.246 14.2406 11.2461 14.2406 11.2461C14.2406 11.2461 14.2406 11.2461 14.2406 11.2461C14.2407 11.2461 14.2407 11.2461 14.2407 11.2461C14.2407 11.2461 14.2407 11.2461 14.2407 11.2462C14.2407 11.2462 14.2407 11.2462 14.2407 11.2462C14.2407 11.2462 14.2408 11.2462 14.2408 11.2462C14.2408 11.2462 14.2408 11.2462 14.2408 11.2463C14.2408 11.2463 14.2408 11.2463 14.2408 11.2463C14.2408 11.2463 14.2409 11.2463 14.2409 11.2463C14.2409 11.2463 14.2409 11.2463 14.2409 11.2464C14.2409 11.2464 14.2409 11.2464 14.2409 11.2464C14.2409 11.2464 14.241 11.2464 14.241 11.2464C14.241 11.2464 14.241 11.2464 14.241 11.2464C14.241 11.2465 14.241 11.2465 14.241 11.2465C14.241 11.2465 14.241 11.2465 14.2411 11.2465C14.2411 11.2465 14.2411 11.2465 14.2411 11.2465C14.2411 11.2466 14.2411 11.2466 14.2411 11.2466C14.2411 11.2466 14.2411 11.2466 14.2412 11.2466C14.2412 11.2466 14.2412 11.2466 14.2412 11.2466C14.2412 11.2467 14.2412 11.2467 14.2412 11.2467C14.2412 11.2467 14.2412 11.2467 14.2413 11.2467C14.2413 11.2467 14.2413 11.2467 14.2413 11.2467C14.2413 11.2468 14.2413 11.2468 14.2413 11.2468C14.2413 11.2468 14.2413 11.2468 14.2414 11.2468C14.2414 11.2468 14.2414 11.2468 14.2414 11.2468C14.2414 11.2469 14.2414 11.2469 14.2414 11.2469C14.2414 11.2469 14.2414 11.2469 14.2415 11.2469C14.2415 11.2469 14.2415 11.2469 14.2415 11.2469C14.2415 11.247 14.2415 11.247 14.2415 11.247C14.2415 11.247 14.2415 11.247 14.2416 11.247C14.2416 11.247 14.2416 11.247 14.2416 11.247C14.2416 11.2471 14.2416 11.2471 14.2416 11.2471C14.2416 11.2471 14.2416 11.2471 14.2417 11.2471C14.2417 11.2471 14.2417 11.2471 14.2417 11.2471C14.2417 11.2472 14.2417 11.2472 14.2417 11.2472C14.2417 11.2472 14.2417 11.2472 14.2418 11.2472C14.2418 11.2472 14.2418 11.2472 14.2418 11.2472C14.2418 11.2473 14.2418 11.2473 14.2418 11.2473C14.2418 11.2473 14.2418 11.2473 14.2419 11.2473C14.2419 11.2473 14.2419 11.2473 14.2419 11.2473C14.2419 11.2474 14.2419 11.2474 14.2419 11.2474C14.2419 11.2474 14.242 11.2474 14.242 11.2474C14.242 11.2474 14.242 11.2474 14.242 11.2475C14.242 11.2475 14.242 11.2475 14.242 11.2475C14.242 11.2475 14.2421 11.2475 14.2421 11.2475C14.2421 11.2475 14.2421 11.2475 14.2421 11.2476C14.2421 11.2476 14.2421 11.2476 14.2421 11.2476C14.2421 11.2476 14.2422 11.2476 14.2422 11.2476C14.2422 11.2476 14.2422 11.2476 14.2422 11.2477C14.2422 11.2477 14.2422 11.2477 14.2422 11.2477C14.2423 11.2477 14.2423 11.2477 14.2423 11.2477C14.2423 11.2477 14.2423 11.2478 14.2423 11.2478C14.2423 11.2478 14.2423 11.2478 14.2423 11.2478C14.2424 11.2478 14.2424 11.2478 14.2424 11.2478C14.2424 11.2478 14.2424 11.2479 14.2424 11.2479C14.2424 11.2479 14.2424 11.2479 14.2425 11.2479C14.2425 11.2479 14.2425 11.2479 14.2425 11.2479C14.2425 11.248 14.2425 11.248 14.2425 11.248C14.2425 11.248 14.2425 11.248 14.2426 11.248C14.2426 11.248 14.2426 11.248 14.2426 11.248C14.2426 11.2481 14.2426 11.2481 14.2426 11.2481C14.2426 11.2481 14.2427 11.2481 14.2427 11.2481C14.2427 11.2481 14.2427 11.2481 14.2427 11.2482C14.2427 11.2482 14.2427 11.2482 14.2427 11.2482C14.2427 11.2482 14.2428 11.2482 14.2428 11.2482C14.2428 11.2482 14.2428 11.2483 14.2428 11.2483C14.2428 11.2483 14.2428 11.2483 14.2428 11.2483C14.2429 11.2483 14.2429 11.2483 14.2429 11.2483C14.2429 11.2483 14.2429 11.2484 14.2429 11.2484C14.2429 11.2484 14.2429 11.2484 14.243 11.2484C14.243 11.2484 14.243 11.2484 14.243 11.2484C14.243 11.2485 14.243 11.2485 14.243 11.2485C14.243 11.2485 14.2431 11.2485 14.2431 11.2485C14.2431 11.2485 14.2431 11.2485 14.2431 11.2486L15.6573 9.83434C15.6573 9.83433 15.6573 9.83432 15.6573 9.8343C15.6573 9.83429 15.6573 9.83428 15.6572 9.83427C15.6572 9.83425 15.6572 9.83424 15.6572 9.83423C15.6572 9.83422 15.6572 9.83421 15.6572 9.83419C15.6572 9.83418 15.6571 9.83417 15.6571 9.83416C15.6571 9.83415 15.6571 9.83413 15.6571 9.83412C15.6571 9.83411 15.6571 9.8341 15.6571 9.83409C15.657 9.83407 15.657 9.83406 15.657 9.83405C15.657 9.83404 15.657 9.83403 15.657 9.83401C15.657 9.834 15.657 9.83399 15.6569 9.83398C15.6569 9.83397 15.6569 9.83395 15.6569 9.83394C15.6569 9.83393 15.6569 9.83392 15.6569 9.83391C15.6569 9.83389 15.6569 9.83388 15.6568 9.83387C15.6568 9.83386 15.6568 9.83385 15.6568 9.83383C15.6568 9.83382 15.6568 9.83381 15.6568 9.8338C15.6568 9.83379 15.6567 9.83377 15.6567 9.83376C15.6567 9.83375 15.6567 9.83374 15.6567 9.83373C15.6567 9.83372 15.6567 9.8337 15.6567 9.83369C15.6567 9.83368 15.6566 9.83367 15.6566 9.83366C15.6566 9.83364 15.6566 9.83363 15.6566 9.83362C15.6566 9.83361 15.6566 9.8336 15.6566 9.83359C15.6565 9.83357 15.6565 9.83356 15.6565 9.83355C15.6565 9.83354 15.6565 9.83353 15.6565 9.83352C15.6565 9.8335 15.6565 9.83349 15.6565 9.83348C15.6564 9.83347 15.6564 9.83346 15.6564 9.83345C15.6564 9.83344 15.6564 9.83342 15.6564 9.83341C15.6564 9.8334 15.6564 9.83339 15.6564 9.83338C15.6563 9.83337 15.6563 9.83335 15.6563 9.83334C15.6563 9.83333 15.6563 9.83332 15.6563 9.83331C15.6563 9.8333 15.6563 9.83328 15.6562 9.83327C15.6562 9.83326 15.6562 9.83325 15.6562 9.83324C15.6562 9.83323 15.6562 9.83322 15.6562 9.8332C15.6562 9.83319 15.6562 9.83318 15.6561 9.83317C15.6561 9.83316 15.6561 9.83315 15.6561 9.83314C15.6561 9.83312 15.6561 9.83311 15.6561 9.8331C15.6561 9.83309 15.6561 9.83308 15.656 9.83307C15.656 9.83306 15.656 9.83304 15.656 9.83303C15.656 9.83302 15.656 9.83301 15.656 9.833C15.656 9.83299 15.6559 9.83298 15.6559 9.83296C15.6559 9.83295 15.6559 9.83294 15.6559 9.83293C15.6559 9.83292 15.6559 9.83291 15.6559 9.8329C15.6559 9.83289 15.6558 9.83287 15.6558 9.83286C15.6558 9.83285 15.6558 9.83284 15.6558 9.83283C15.6558 9.83282 15.6558 9.83281 15.6558 9.8328C15.6558 9.83278 15.6557 9.83277 15.6557 9.83276C15.6557 9.83275 15.6557 9.83274 15.6557 9.83273C15.6557 9.83272 15.6557 9.83271 15.6557 9.8327C15.6557 9.83268 15.6556 9.83267 15.6556 9.83266C15.6556 9.83265 15.6556 9.83264 15.6556 9.83263C15.6556 9.83262 15.6556 9.83261 15.6556 9.8326C15.6556 9.83258 15.6555 9.83257 15.6555 9.83256C15.6555 9.83255 15.6555 9.83254 15.6555 9.83253C15.6555 9.83252 15.6555 9.83251 15.6555 9.8325C15.6555 9.83249 15.6554 9.83247 15.6554 9.83246C15.6554 9.83245 15.6554 9.83244 15.6554 9.83243C15.6554 9.83242 15.6554 9.83241 15.6554 9.8324C15.6554 9.83239 15.6553 9.83238 15.6553 9.83237C15.6553 9.83235 15.6553 9.83234 15.6553 9.83233C15.6553 9.83232 15.6553 9.83231 15.6553 9.8323C15.6553 9.83229 15.6553 9.83228 15.6552 9.83227C15.6552 9.83226 15.6552 9.83224 15.6552 9.83223C15.6552 9.83222 15.6552 9.83221 15.6552 9.8322C15.6552 9.83219 15.6552 9.83218 15.6551 9.83217C15.6551 9.83216 15.6551 9.83215 15.6551 9.83214C15.6551 9.83213 15.6551 9.83212 15.6551 9.8321C15.6551 9.83209 15.6551 9.83208 15.655 9.83207C15.655 9.83206 15.655 9.83205 15.655 9.83204C15.655 9.83203 15.655 9.83202 15.655 9.83201C15.655 9.832 15.655 9.83199 15.6549 9.83198C15.6549 9.83197 15.6549 9.83195 15.6549 9.83194C15.6549 9.83193 15.6549 9.83192 15.6549 9.83191C15.6549 9.8319 15.6549 9.83189 15.6549 9.83188C15.6548 9.83187 15.6548 9.83186 15.6548 9.83185C15.6548 9.83184 15.6548 9.83183 15.6548 9.83182C15.6548 9.83181 15.6548 9.8318 15.6548 9.83179C15.6547 9.83177 15.6547 9.83176 15.6547 9.83175C15.6547 9.83174 15.6547 9.83173 15.6547 9.83172C15.6547 9.83171 15.6547 9.8317 15.6547 9.83169C15.6547 9.83168 15.6546 9.83167 15.6546 9.83166C15.6546 9.83165 15.6546 9.83164 15.6546 9.83163C15.6546 9.83162 15.6546 9.83161 15.6546 9.8316C15.6546 9.83159 15.6545 9.83158 15.6545 9.83156C15.6545 9.83155 15.6545 9.83154 15.6545 9.83153C15.6545 9.83152 15.6545 9.83151 15.6545 9.8315C15.6545 9.83149 15.6545 9.83148 15.6544 9.83147C15.6544 9.83146 15.6544 9.83145 15.6544 9.83144C15.6544 9.83143 15.6544 9.83142 15.6544 9.83141C15.6544 9.8314 15.6544 9.83139 15.6544 9.83138C15.6543 9.83137 15.6543 9.83136 15.6543 9.83135C15.6543 9.83134 15.6543 9.83133 15.6543 9.83132C15.6543 9.83131 15.6543 9.8313 15.6543 9.83129C15.6542 9.83128 15.6542 9.83127 15.6542 9.83126C15.6542 9.83125 15.6542 9.83124 15.6542 9.83123C15.6542 9.83121 15.6542 9.8312 15.6542 9.83119C15.6542 9.83118 15.6541 9.83117 15.6541 9.83116C15.6541 9.83115 15.6541 9.83114 15.6541 9.83113C15.6541 9.83112 15.6541 9.83111 15.6541 9.8311C15.6541 9.83109 15.6541 9.83108 15.654 9.83107C15.654 9.83106 15.654 9.83105 15.654 9.83104C15.654 9.83103 15.654 9.83102 15.654 9.83101C15.654 9.831 15.654 9.83099 15.654 9.83098C15.6539 9.83097 15.6539 9.83096 15.6539 9.83095C15.6539 9.83094 15.6539 9.83093 15.6539 9.83092C15.6539 9.83091 15.6539 9.8309 15.6539 9.83089C15.6539 9.83088 15.6538 9.83087 15.6538 9.83086C15.6538 9.83085 15.6538 9.83084 15.6538 9.83083C15.6538 9.83082 15.6538 9.83081 15.6538 9.8308C15.6538 9.83079 15.6538 9.83078 15.6537 9.83077C15.6537 9.83076 15.6537 9.83075 15.6537 9.83074C15.6537 9.83073 15.6537 9.83072 15.6537 9.83071C15.6537 9.8307 15.6537 9.83069 15.6537 9.83068C15.6536 9.83067 15.6536 9.83066 15.6536 9.83066C15.6536 9.83064 15.6536 9.83064 15.6536 9.83063C15.6536 9.83062 15.6536 9.83061 15.6536 9.8306C15.6536 9.83059 15.6535 9.83058 15.6535 9.83057C15.6535 9.83056 15.6535 9.83055 15.6535 9.83054C15.6535 9.83053 15.6535 9.83052 15.6535 9.83051C15.6535 9.8305 15.6535 9.83049 15.6535 9.83048C15.6534 9.83047 15.6534 9.83046 15.6534 9.83045C15.6534 9.83044 15.6534 9.83043 15.6534 9.83042C15.6534 9.83041 15.6534 9.8304 15.6534 9.83039C15.6534 9.83038 15.6533 9.83037 15.6533 9.83036C15.6533 9.83035 15.6533 9.83034 15.6533 9.83033C15.6533 9.83032 15.6533 9.83031 15.6533 9.83031C15.6533 9.8303 15.6533 9.83029 15.6532 9.83028C15.6532 9.83027 15.6532 9.83026 15.6532 9.83025C15.6532 9.83024 15.6532 9.83023 15.6532 9.83022C15.6532 9.83021 15.6532 9.8302 15.6532 9.83019C15.6532 9.83018 15.6531 9.83017 15.6531 9.83016C15.6531 9.83015 15.6531 9.83014 15.6531 9.83013C15.6531 9.83012 15.6531 9.83011 15.6531 9.8301C15.6531 9.8301 15.6531 9.83009 15.653 9.83008C15.653 9.83007 15.653 9.83006 15.653 9.83005C15.653 9.83004 15.653 9.83003 15.653 9.83002C15.653 9.83001 15.653 9.83 15.653 9.82999C15.653 9.82998 15.6529 9.82997 15.6529 9.82996C15.6529 9.82995 15.6529 9.82994 15.6529 9.82994C15.6529 9.82993 15.6529 9.82992 15.6529 9.82991C15.6529 9.8299 15.6529 9.82989 15.6529 9.82988C15.6528 9.82987 15.6528 9.82986 15.6528 9.82985C15.6528 9.82984 15.6528 9.82983 15.6528 9.82982C15.6528 9.82981 15.6528 9.8298 15.6528 9.82979C15.6528 9.82979 15.6527 9.82978 15.6527 9.82977C15.6527 9.82976 15.6527 9.82975 15.6527 9.82974C15.6527 9.82973 15.6527 9.82972 15.6527 9.82971C15.6527 9.8297 15.6527 9.82969 15.6527 9.82968C15.6526 9.82967 15.6526 9.82967 15.6526 9.82966C15.6526 9.82965 15.6526 9.82964 15.6526 9.82963C15.6526 9.82962 15.6526 9.82961 15.6526 9.8296C15.6526 9.82959 15.6526 9.82958 15.6525 9.82957C15.6525 9.82956 15.6525 9.82956 15.6525 9.82955C15.6525 9.82954 15.6525 9.82953 15.6525 9.82952C15.6525 9.82951 15.6525 9.8295 15.6525 9.82949C15.6525 9.82948 15.6524 9.82947 15.6524 9.82946C15.6524 9.82946 15.6524 9.82945 15.6524 9.82944C15.6524 9.82943 15.6524 9.82942 15.6524 9.82941C15.6524 9.8294 15.6524 9.82939 15.6524 9.82938C15.6523 9.82937 15.6523 9.82936 15.6523 9.82936C15.6523 9.82935 15.6523 9.82934 15.6523 9.82933C15.6523 9.82932 15.6523 9.82931 15.6523 9.8293C15.6523 9.82929 15.6523 9.82928 15.6522 9.82928C15.6522 9.82927 15.6522 9.82926 15.6522 9.82925C15.6522 9.82924 15.6522 9.82923 15.6522 9.82922C15.6522 9.82921 15.6522 9.8292 15.6522 9.82919C15.6522 9.82919 15.6521 9.82918 15.6521 9.82917C15.6521 9.82916 15.6521 9.82915 15.6521 9.82914C15.6521 9.82913 15.6521 9.82912 15.6521 9.82911C15.6521 9.82911 15.6521 9.8291 15.6521 9.82909C15.6521 9.82908 15.652 9.82907 15.652 9.82906C15.652 9.82905 15.652 9.82904 15.652 9.82903C15.652 9.82903 15.652 9.82902 15.652 9.82901C15.652 9.829 15.652 9.82899 15.652 9.82898C15.6519 9.82897 15.6519 9.82896 15.6519 9.82896C15.6519 9.82895 15.6519 9.82894 15.6519 9.82893C15.6519 9.82892 15.6519 9.82891 15.6519 9.8289C15.6519 9.82889 15.6519 9.82889 15.6518 9.82888C15.6518 9.82887 15.6518 9.82886 15.6518 9.82885C15.6518 9.82884 15.6518 9.82883 15.6518 9.82882C15.6518 9.82882 15.6518 9.82881 15.6518 9.8288C15.6518 9.82879 15.6518 9.82878 15.6517 9.82877C15.6517 9.82876 15.6517 9.82875 15.6517 9.82875C15.6517 9.82874 15.6517 9.82873 15.6517 9.82872C15.6517 9.82871 15.6517 9.8287 15.6517 9.82869C15.6517 9.82869 15.6517 9.82868 15.6516 9.82867C15.6516 9.82866 15.6516 9.82865 15.6516 9.82864C15.6516 9.82863 15.6516 9.82863 15.6516 9.82862C15.6516 9.82861 15.6516 9.8286 15.6516 9.82859C15.6516 9.82858 15.6515 9.82857 15.6515 9.82857C15.6515 9.82856 15.6515 9.82855 15.6515 9.82854C15.6515 9.82853 15.6515 9.82852 15.6515 9.82851C15.6515 9.82851 15.6515 9.8285 15.6515 9.82849C15.6515 9.82848 15.6514 9.82847 15.6514 9.82846C15.6514 9.82845 15.6514 9.82845 15.6514 9.82844C15.6514 9.82843 15.6514 9.82842 15.6514 9.82841C15.6514 9.8284 15.6514 9.8284 15.6514 9.82839C15.6514 9.82838 15.6513 9.82837 15.6513 9.82836C15.6513 9.82835 15.6513 9.82835 15.6513 9.82834C15.6513 9.82833 15.6513 9.82832 15.6513 9.82831C15.6513 9.8283 15.6513 9.82829 15.6513 9.82829C15.6513 9.82828 15.6512 9.82827 15.6512 9.82826C15.6512 9.82825 15.6512 9.82824 15.6512 9.82824C15.6512 9.82823 15.6512 9.82822 15.6512 9.82821C15.6512 9.8282 15.6512 9.82819 15.6512 9.82819C15.6512 9.82818 15.6511 9.82817 15.6511 9.82816C15.6511 9.82815 15.6511 9.82814 15.6511 9.82814C15.6511 9.82813 15.6511 9.82812 15.6511 9.82811C15.6511 9.8281 15.6511 9.82809 15.6511 9.82809C15.6511 9.82808 15.651 9.82807 15.651 9.82806C15.651 9.82805 15.651 9.82804 15.651 9.82804C15.651 9.82803 15.651 9.82802 15.651 9.82801C15.651 9.828 15.651 9.828 15.651 9.82799C15.651 9.82798 15.6509 9.82797 15.6509 9.82796C15.6509 9.82795 15.6509 9.82795 15.6509 9.82794C15.6509 9.82793 15.6509 9.82792 15.6509 9.82791C15.6509 9.82791 15.6509 9.8279 15.6509 9.82789C15.6509 9.82788 15.6508 9.82787 15.6508 9.82786C15.6508 9.82786 15.6508 9.82785 15.6508 9.82784C15.6508 9.82783 15.6508 9.82782 15.6508 9.82782C15.6508 9.82781 15.6508 9.8278 15.6508 9.82779C15.6508 9.82778 15.6507 9.82778 15.6507 9.82777C15.6507 9.82776 15.6507 9.82775 15.6507 9.82774C15.6507 9.82773 15.6507 9.82773 15.6507 9.82772C15.6507 9.82771 15.6507 9.8277 15.6507 9.82769C15.6507 9.82769 15.6507 9.82768 15.6506 9.82767C15.6506 9.82766 15.6506 9.82765 15.6506 9.82765C15.6506 9.82764 15.6506 9.82763 15.6506 9.82762C15.6506 9.82761 15.6506 9.82761 15.6506 9.8276C15.6506 9.82759 15.6506 9.82758 15.6505 9.82757C15.6505 9.82757 15.6505 9.82756 15.6505 9.82755C15.6505 9.82754 15.6505 9.82753 15.6505 9.82753C15.6505 9.82752 15.6505 9.82751 15.6505 9.8275C15.6505 9.8275 15.6505 9.82749 15.6505 9.82748C15.6504 9.82747 15.6504 9.82746 15.6504 9.82746C15.6504 9.82745 15.6504 9.82744 15.6504 9.82743C15.6504 9.82742 15.6504 9.82742 15.6504 9.82741C15.6504 9.8274 15.6504 9.82739 15.6504 9.82738C15.6503 9.82738 15.6503 9.82737 15.6503 9.82736C15.6503 9.82735 15.6503 9.82734 15.6503 9.82734C15.6503 9.82733 15.6503 9.82732 15.6503 9.82731C15.6503 9.82731 15.6503 9.8273 15.6503 9.82729C15.6503 9.82728 15.6502 9.82727 15.6502 9.82727C15.6502 9.82726 15.6502 9.82725 15.6502 9.82724C15.6502 9.82724 15.6502 9.82723 15.6502 9.82722C15.6502 9.82721 15.6502 9.8272 15.6502 9.8272C15.6502 9.82719 15.6502 9.82718 15.6501 9.82717C15.6501 9.82717 15.6501 9.82716 15.6501 9.82715C15.6501 9.82714 15.6501 9.82714 15.6501 9.82713C15.6501 9.82712 15.6501 9.82711 15.6501 9.8271C15.6501 9.8271 15.6501 9.82709 15.6501 9.82708C15.65 9.82707 15.65 9.82707 15.65 9.82706C15.65 9.82705 15.65 9.82704 15.65 9.82703C15.65 9.82703 15.65 9.82702 15.65 9.82701C15.65 9.827 15.65 9.827 15.65 9.82699C15.65 9.82698 15.6499 9.82697 15.6499 9.82697C15.6499 9.82696 15.6499 9.82695 15.6499 9.82694C15.6499 9.82693 15.6499 9.82693 15.6499 9.82692C15.6499 9.82691 15.6499 9.8269 15.6499 9.8269C15.6499 9.82689 15.6499 9.82688 15.6498 9.82687C15.6498 9.82687 15.6498 9.82686 15.6498 9.82685C15.6498 9.82684 15.6498 9.82684 15.6498 9.82683C15.6498 9.82682 15.6498 9.82681 15.6498 9.82681C15.6498 9.8268 15.6498 9.82679 15.6498 9.82678C15.6497 9.82678 15.6497 9.82677 15.6497 9.82676C15.6497 9.82675 15.6497 9.82675 15.6497 9.82674C15.6497 9.82673 15.6497 9.82672 15.6497 9.82671C15.6497 9.82671 15.6497 9.8267 15.6497 9.82669C15.6497 9.82668 15.6497 9.82668 15.6496 9.82667C15.6496 9.82666 15.6496 9.82665 15.6496 9.82665C15.6496 9.82664 15.6496 9.82663 15.6496 9.82662C15.6496 9.82662 15.6496 9.82661 15.6496 9.8266C15.6496 9.8266 15.6496 9.82659 15.6496 9.82658C15.6495 9.82657 15.6495 9.82656 15.6495 9.82656C15.6495 9.82655 15.6495 9.82654 15.6495 9.82654C15.6495 9.82653 15.6495 9.82652 15.6495 9.82651C15.6495 9.82651 15.6495 9.8265 15.6495 9.82649C15.6495 9.82648 15.6494 9.82648 15.6494 9.82647C15.6494 9.82646 15.6494 9.82645 15.6494 9.82645C15.6494 9.82644 15.6494 9.82643 15.6494 9.82642C15.6494 9.82642 15.6494 9.82641 15.6494 9.8264C15.6494 9.8264 15.6494 9.82639 15.6494 9.82638C15.6493 9.82637 15.6493 9.82637 15.6493 9.82636C15.6493 9.82635 15.6493 9.82634 15.6493 9.82634C15.6493 9.82633 15.6493 9.82632 15.6493 9.82631C15.6493 9.82631 15.6493 9.8263 15.6493 9.82629C15.6493 9.82629 15.6493 9.82628 15.6492 9.82627C15.6492 9.82626 15.6492 9.82626 15.6492 9.82625C15.6492 9.82624 15.6492 9.82623 15.6492 9.82623C15.6492 9.82622 15.6492 9.82621 15.6492 9.8262C15.6492 9.8262 15.6492 9.82619 15.6492 9.82618C15.6491 9.82618 15.6491 9.82617 15.6491 9.82616C15.6491 9.82615 15.6491 9.82615 15.6491 9.82614C15.6491 9.82613 15.6491 9.82613 15.6491 9.82612C15.6491 9.82611 15.6491 9.8261 15.6491 9.8261C15.6491 9.82609 15.6491 9.82608 15.649 9.82607C15.649 9.82607 15.649 9.82606 15.649 9.82605C15.649 9.82605 15.649 9.82604 15.649 9.82603C15.649 9.82602 15.649 9.82602 15.649 9.82601C15.649 9.826 15.649 9.826 15.649 9.82599C15.649 9.82598 15.6489 9.82597 15.6489 9.82597C15.6489 9.82596 15.6489 9.82595 15.6489 9.82594C15.6489 9.82594 15.6489 9.82593 15.6489 9.82592C15.6489 9.82592 15.6489 9.82591 15.6489 9.8259C15.6489 9.8259 15.6489 9.82589 15.6489 9.82588C15.6488 9.82587 15.6488 9.82587 15.6488 9.82586C15.6488 9.82585 15.6488 9.82585 15.6488 9.82584C15.6488 9.82583 15.6488 9.82582 15.6488 9.82582C15.6488 9.82581 15.6488 9.8258 15.6488 9.8258C15.6488 9.82579 15.6488 9.82578 15.6487 9.82577C15.6487 9.82577 15.6487 9.82576 15.6487 9.82575C15.6487 9.82575 15.6487 9.82574 15.6487 9.82573C15.6487 9.82573 15.6487 9.82572 15.6487 9.82571C15.6487 9.8257 15.6487 9.8257 15.6487 9.82569C15.6487 9.82568 15.6486 9.82568 15.6486 9.82567C15.6486 9.82566 15.6486 9.82565 15.6486 9.82565C15.6486 9.82564 15.6486 9.82563 15.6486 9.82563C15.6486 9.82562 15.6486 9.82561 15.6486 9.82561C15.6486 9.8256 15.6486 9.82559 15.6486 9.82558C15.6486 9.82558 15.6485 9.82557 15.6485 9.82556C15.6485 9.82556 15.6485 9.82555 15.6485 9.82554C15.6485 9.82554 15.6485 9.82553 15.6485 9.82552C15.6485 9.82551 15.6485 9.82551 15.6485 9.8255C15.6485 9.82549 15.6485 9.82549 15.6485 9.82548C15.6484 9.82547 15.6484 9.82547 15.6484 9.82546C15.6484 9.82545 15.6484 9.82545 15.6484 9.82544C15.6484 9.82543 15.6484 9.82543 15.6484 9.82542C15.6484 9.82541 15.6484 9.8254 15.6484 9.8254C15.6484 9.82539 15.6484 9.82538 15.6483 9.82538C15.6483 9.82537 15.6483 9.82536 15.6483 9.82536C15.6483 9.82535 15.6483 9.82534 15.6483 9.82534C15.6483 9.82533 15.6483 9.82532 15.6483 9.82531C15.6483 9.82531 15.6483 9.8253 15.6483 9.82529C15.6483 9.82529 15.6483 9.82528 15.6482 9.82527C15.6482 9.82527 15.6482 9.82526 15.6482 9.82525C15.6482 9.82525 15.6482 9.82524 15.6482 9.82523C15.6482 9.82523 15.6482 9.82522 15.6482 9.82521C15.6482 9.8252 15.6482 9.8252 15.6482 9.82519C15.6482 9.82518 15.6482 9.82518 15.6481 9.82517C15.6481 9.82516 15.6481 9.82516 15.6481 9.82515C15.6481 9.82514 15.6481 9.82514 15.6481 9.82513C15.6481 9.82512 15.6481 9.82512 15.6481 9.82511C15.6481 9.8251 15.6481 9.8251 15.6481 9.82509C15.6481 9.82508 15.648 9.82508 15.648 9.82507C15.648 9.82506 15.648 9.82506 15.648 9.82505C15.648 9.82504 15.648 9.82504 15.648 9.82503C15.648 9.82502 15.648 9.82502 15.648 9.82501C15.648 9.825 15.648 9.825 15.648 9.82499C15.648 9.82498 15.6479 9.82497 15.6479 9.82497C15.6479 9.82496 15.6479 9.82495 15.6479 9.82495C15.6479 9.82494 15.6479 9.82493 15.6479 9.82493C15.6479 9.82492 15.6479 9.82491 15.6479 9.82491C15.6479 9.8249 15.6479 9.82489 15.6479 9.82489C15.6479 9.82488 15.6478 9.82487 15.6478 9.82487C15.6478 9.82486 15.6478 9.82485 15.6478 9.82485C15.6478 9.82484 15.6478 9.82483 15.6478 9.82483C15.6478 9.82482 15.6478 9.82481 15.6478 9.82481C15.6478 9.8248 15.6478 9.82479 15.6478 9.82479C15.6478 9.82478 15.6477 9.82477 15.6477 9.82477C15.6477 9.82476 15.6477 9.82475 15.6477 9.82475C15.6477 9.82474 15.6477 9.82473 15.6477 9.82473C15.6477 9.82472 15.6477 9.82471 15.6477 9.82471C15.6477 9.8247 15.6477 9.82469 15.6477 9.82469C15.6477 9.82468 15.6476 9.82467 15.6476 9.82467C15.6476 9.82466 15.6476 9.82465 15.6476 9.82465C15.6476 9.82464 15.6476 9.82463 15.6476 9.82463C15.6476 9.82462 15.6476 9.82461 15.6476 9.82461C15.6476 9.8246 15.6476 9.82459 15.6476 9.82459C15.6476 9.82458 15.6475 9.82457 15.6475 9.82457C15.6475 9.82456 15.6475 9.82455 15.6475 9.82455C15.6475 9.82454 15.6475 9.82454 15.6475 9.82453C15.6475 9.82452 15.6475 9.82452 15.6475 9.82451C15.6475 9.8245 15.6475 9.8245 15.6475 9.82449C15.6475 9.82448 15.6474 9.82448 15.6474 9.82447C15.6474 9.82446 15.6474 9.82446 15.6474 9.82445C15.6474 9.82444 15.6474 9.82444 15.6474 9.82443C15.6474 9.82442 15.6474 9.82442 15.6474 9.82441C15.6474 9.8244 15.6474 9.8244 15.6474 9.82439C15.6474 9.82438 15.6474 9.82438 15.6473 9.82437C15.6473 9.82436 15.6473 9.82436 15.6473 9.82435C15.6473 9.82434 15.6473 9.82434 15.6473 9.82433C15.6473 9.82433 15.6473 9.82432 15.6473 9.82431C15.6473 9.82431 15.6473 9.8243 15.6473 9.82429C15.6473 9.82429 15.6473 9.82428 15.6472 9.82427C15.6472 9.82427 15.6472 9.82426 15.6472 9.82425C15.6472 9.82425 15.6472 9.82424 15.6472 9.82423C15.6472 9.82423 15.6472 9.82422 15.6472 9.82421C15.6472 9.82421 15.6472 9.8242 15.6472 9.8242C15.6472 9.82419 15.6472 9.82418 15.6471 9.82418C15.6471 9.82417 15.6471 9.82416 15.6471 9.82416C15.6471 9.82415 15.6471 9.82414 15.6471 9.82414C15.6471 9.82413 15.6471 9.82412 15.6471 9.82412C15.6471 9.82411 15.6471 9.82411 15.6471 9.8241C15.6471 9.82409 15.6471 9.82409 15.6471 9.82408C15.647 9.82407 15.647 9.82407 15.647 9.82406C15.647 9.82405 15.647 9.82405 15.647 9.82404C15.647 9.82403 15.647 9.82403 15.647 9.82402C15.647 9.82402 15.647 9.82401 15.647 9.824C15.647 9.824 15.647 9.82399 15.647 9.82398C15.6469 9.82398 15.6469 9.82397 15.6469 9.82396C15.6469 9.82396 15.6469 9.82395 15.6469 9.82395C15.6469 9.82394 15.6469 9.82393 15.6469 9.82393C15.6469 9.82392 15.6469 9.82391 15.6469 9.82391C15.6469 9.8239 15.6469 9.82389 15.6469 9.82389C15.6469 9.82388 15.6468 9.82387 15.6468 9.82387C15.6468 9.82386 15.6468 9.82386 15.6468 9.82385C15.6468 9.82384 15.6468 9.82384 15.6468 9.82383C15.6468 9.82382 15.6468 9.82382 15.6468 9.82381C15.6468 9.8238 15.6468 9.8238 15.6468 9.82379C15.6468 9.82378 15.6468 9.82378 15.6467 9.82377C15.6467 9.82377 15.6467 9.82376 15.6467 9.82375C15.6467 9.82375 15.6467 9.82374 15.6467 9.82373C15.6467 9.82373 15.6467 9.82372 15.6467 9.82372C15.6467 9.82371 15.6467 9.8237 15.6467 9.8237C15.6467 9.82369 15.6467 9.82368 15.6467 9.82368C15.6466 9.82367 15.6466 9.82366 15.6466 9.82366C15.6466 9.82365 15.6466 9.82365 15.6466 9.82364C15.6466 9.82363 15.6466 9.82363 15.6466 9.82362C15.6466 9.82361 15.6466 9.82361 15.6466 9.8236C15.6466 9.8236 15.6466 9.82359 15.6466 9.82358C15.6465 9.82358 15.6465 9.82357 15.6465 9.82356C15.6465 9.82356 15.6465 9.82355 15.6465 9.82354C15.6465 9.82354 15.6465 9.82353 15.6465 9.82353C15.6465 9.82352 15.6465 9.82351 15.6465 9.82351C15.6465 9.8235 15.6465 9.82349 15.6465 9.82349C15.6465 9.82348 15.6464 9.82348 15.6464 9.82347C15.6464 9.82346 15.6464 9.82346 15.6464 9.82345C15.6464 9.82344 15.6464 9.82344 15.6464 9.82343C15.6464 9.82343 15.6464 9.82342 15.6464 9.82341C15.6464 9.82341 15.6464 9.8234 15.6464 9.82339C15.6464 9.82339 15.6464 9.82338 15.6463 9.82337C15.6463 9.82337 15.6463 9.82336 15.6463 9.82336C15.6463 9.82335 15.6463 9.82334 15.6463 9.82334C15.6463 9.82333 15.6463 9.82333 15.6463 9.82332C15.6463 9.82331 15.6463 9.82331 15.6463 9.8233C15.6463 9.82329 15.6463 9.82329 15.6463 9.82328C15.6462 9.82328 15.6462 9.82327 15.6462 9.82326C15.6462 9.82326 15.6462 9.82325 15.6462 9.82324C15.6462 9.82324 15.6462 9.82323 15.6462 9.82323C15.6462 9.82322 15.6462 9.82321 15.6462 9.82321C15.6462 9.8232 15.6462 9.82319 15.6462 9.82319C15.6462 9.82318 15.6461 9.82318 15.6461 9.82317C15.6461 9.82316 15.6461 9.82316 15.6461 9.82315C15.6461 9.82314 15.6461 9.82314 15.6461 9.82313C15.6461 9.82313 15.6461 9.82312 15.6461 9.82311C15.6461 9.82311 15.6461 9.8231 15.6461 9.82309C15.6461 9.82309 15.6461 9.82308 15.646 9.82308C15.646 9.82307 15.646 9.82306 15.646 9.82306C15.646 9.82305 15.646 9.82304 15.646 9.82304C15.646 9.82303 15.646 9.82303 15.646 9.82302C15.646 9.82301 15.646 9.82301 15.646 9.823C15.646 9.823 15.646 9.82299 15.646 9.82298C15.646 9.82298 15.6459 9.82297 15.6459 9.82296C15.6459 9.82296 15.6459 9.82295 15.6459 9.82295C15.6459 9.82294 15.6459 9.82293 15.6459 9.82293C15.6459 9.82292 15.6459 9.82292 15.6459 9.82291C15.6459 9.8229 15.6459 9.8229 15.6459 9.82289C15.6459 9.82288 15.6459 9.82288 15.6458 9.82287C15.6458 9.82287 15.6458 9.82286 15.6458 9.82285C15.6458 9.82285 15.6458 9.82284 15.6458 9.82283C15.6458 9.82283 15.6458 9.82282 15.6458 9.82282C15.6458 9.82281 15.6458 9.8228 15.6458 9.8228C15.6458 9.82279 15.6458 9.82279 15.6458 9.82278C15.6457 9.82277 15.6457 9.82277 15.6457 9.82276C15.6457 9.82275 15.6457 9.82275 15.6457 9.82274C15.6457 9.82274 15.6457 9.82273 15.6457 9.82272C15.6457 9.82272 15.6457 9.82271 15.6457 9.82271C15.6457 9.8227 15.6457 9.82269 15.6457 9.82269C15.6457 9.82268 15.6456 9.82267 15.6456 9.82267C15.6456 9.82266 15.6456 9.82266 15.6456 9.82265C15.6456 9.82264 15.6456 9.82264 15.6456 9.82263C15.6456 9.82263 15.6456 9.82262 15.6456 9.82261C15.6456 9.82261 15.6456 9.8226 15.6456 9.82259C15.6456 9.82259 15.6456 9.82258 15.6455 9.82258C15.6455 9.82257 15.6455 9.82256 15.6455 9.82256C15.6455 9.82255 15.6455 9.82255 15.6455 9.82254C15.6455 9.82253 15.6455 9.82253 15.6455 9.82252C15.6455 9.82251 15.6455 9.82251 15.6455 9.8225C15.6455 9.8225 15.6455 9.82249 15.6455 9.82248C15.6455 9.82248 15.6454 9.82247 15.6454 9.82247C15.6454 9.82246 15.6454 9.82245 15.6454 9.82245C15.6454 9.82244 15.6454 9.82244 15.6454 9.82243C15.6454 9.82242 15.6454 9.82242 15.6454 9.82241C15.6454 9.8224 15.6454 9.8224 15.6454 9.82239C15.6454 9.82239 15.6454 9.82238 15.6453 9.82237C15.6453 9.82237 15.6453 9.82236 15.6453 9.82236C15.6453 9.82235 15.6453 9.82234 15.6453 9.82234C15.6453 9.82233 15.6453 9.82232 15.6453 9.82232C15.6453 9.82231 15.6453 9.82231 15.6453 9.8223C15.6453 9.82229 15.6453 9.82229 15.6453 9.82228C15.6452 9.82228 15.6452 9.82227 15.6452 9.82226C15.6452 9.82226 15.6452 9.82225 15.6452 9.82225C15.6452 9.82224 15.6452 9.82223 15.6452 9.82223C15.6452 9.82222 15.6452 9.82222 15.6452 9.82221C15.6452 9.8222 15.6452 9.8222 15.6452 9.82219C15.6452 9.82218 15.6452 9.82218 15.6451 9.82217C15.6451 9.82217 15.6451 9.82216 15.6451 9.82215C15.6451 9.82215 15.6451 9.82214 15.6451 9.82213C15.6451 9.82213 15.6451 9.82212 15.6451 9.82212C15.6451 9.82211 15.6451 9.8221 15.6451 9.8221C15.6451 9.82209 15.6451 9.82209 15.6451 9.82208C15.645 9.82207 15.645 9.82207 15.645 9.82206C15.645 9.82206 15.645 9.82205 15.645 9.82204C15.645 9.82204 15.645 9.82203 15.645 9.82203C15.645 9.82202 15.645 9.82201 15.645 9.82201C15.645 9.822 15.645 9.82199 15.645 9.82199C15.645 9.82198 15.6449 9.82198 15.6449 9.82197C15.6449 9.82196 15.6449 9.82196 15.6449 9.82195C15.6449 9.82195 15.6449 9.82194 15.6449 9.82193C15.6449 9.82193 15.6449 9.82192 15.6449 9.82192C15.6449 9.82191 15.6449 9.8219 15.6449 9.8219C15.6449 9.82189 15.6449 9.82189 15.6449 9.82188C15.6448 9.82187 15.6448 9.82187 15.6448 9.82186C15.6448 9.82185 15.6448 9.82185 15.6448 9.82184L14.2306 11.2361ZM14.9502 9.54145H1.04667V11.5414H14.9502V9.54145ZM1.75378 11.2486C1.72589 11.2764 1.70194 11.297 1.68815 11.3085C1.67433 11.32 1.66331 11.3285 1.66094 11.3303C1.6475 11.3407 1.67321 11.3212 1.69309 11.3046C1.74053 11.2651 1.8627 11.158 1.9536 10.9762L0.164741 10.0817C0.252516 9.90619 0.37 9.80376 0.412746 9.76814C0.430286 9.75352 0.453649 9.73572 0.438064 9.74776C0.437779 9.74798 0.390473 9.78343 0.339564 9.83434L1.75378 11.2486ZM1.83628 11.1583L5.3231 6.8529L3.76887 5.59418L0.282055 9.89959L1.83628 11.1583ZM5.32323 6.85274C5.77696 6.29225 5.69145 5.47036 5.13039 5.01369L3.86785 6.56481C3.57549 6.32685 3.52747 5.89238 3.76874 5.59434L5.32323 6.85274ZM5.12832 5.012C4.57322 4.56263 3.74214 4.63589 3.28354 5.21588L4.85237 6.45635C4.60623 6.76764 4.16258 6.8034 3.86992 6.56649L5.12832 5.012ZM3.29071 5.20692L-0.16174 9.47171L1.39275 10.7301L4.8452 6.46531L3.29071 5.20692ZM1.6155 10.1009V1.49321H-0.384495V10.1009H1.6155ZM0.0156271 2.2933L6.5581 7.1986L7.75786 5.59841L1.21538 0.693121L0.0156271 2.2933ZM6.5596 7.19972C7.01107 7.5369 7.52691 7.65917 7.98791 7.66402L8.00896 5.66413C7.87633 5.66274 7.79854 5.62879 7.75635 5.59729L6.5596 7.19972ZM7.99844 7.66408C8.47487 7.66408 8.99083 7.53314 9.43727 7.19972L8.24052 5.59729C8.19332 5.63254 8.11564 5.66408 7.99844 5.66408V7.66408ZM9.43878 7.1986L15.9812 2.2933L14.7815 0.693121L8.23902 5.59841L9.43878 7.1986ZM14.3814 1.49321V10.1009H16.3814V1.49321H14.3814ZM16.1586 9.47171L12.7062 5.20692L11.1517 6.46531L14.6041 10.7301L16.1586 9.47171ZM12.7062 5.20692C12.258 4.65331 11.4359 4.55274 10.8686 5.012L12.127 6.56649C11.8221 6.8133 11.3874 6.75647 11.1517 6.46531L12.7062 5.20692ZM10.8665 5.01369C10.3054 5.47036 10.2199 6.29225 10.6736 6.85274L12.2281 5.59434C12.4694 5.89238 12.4214 6.32685 12.129 6.56481L10.8665 5.01369Z" fill="#E7245B" mask="url(#path-1-inside-1)"/>
<path d="M10.6041 6.07367L15.9968 9.48238V2.52124L10.6041 6.07367Z" fill="#E7245B"/>
<path d="M0 2.52124V9.48238L5.3927 6.07367L0 2.52124Z" fill="#E7245B"/>
<path d="M9.68874 6.67964L8.27339 7.6107C8.18903 7.66694 8.0953 7.69194 7.99844 7.69194C7.90159 7.69194 7.80786 7.66382 7.7235 7.6107L6.30815 6.67651L0.03125 10.6476C0.10936 11.1225 0.503033 11.4912 0.999811 11.4912H14.9971C15.4939 11.4912 15.8875 11.1225 15.9656 10.6476L9.68874 6.67964Z" fill="#E7245B"/>
<path d="M14.9971 0.493408H0.999811C0.499908 0.493408 0.106235 0.865211 0.03125 1.34324L7.99844 6.59222L15.9656 1.34324C15.8907 0.865211 15.497 0.493408 14.9971 0.493408Z" fill="#E7245B"/>
</svg>
