<svg width="19" height="13" viewBox="0 0 19 13" fill="none" xmlns="http://www.w3.org/2000/svg">
<mask id="path-1-inside-1" fill="white">
<path d="M17.0754 0H0.924609C0.414844 0 0 0.414844 0 0.924609V11.0777C0 11.584 0.414844 12.0023 0.924609 12.0023H17.0789C17.5852 12.0023 18.0035 11.5875 18.0035 11.0777V0.924609C18 0.414844 17.5852 0 17.0754 0ZM16.7309 0.692578L9.53086 6.09258C9.40078 6.19102 9.20391 6.2543 9 6.25078C8.79609 6.25078 8.59922 6.19102 8.46914 6.09258L1.26914 0.692578H16.7309ZM12.8848 6.44766L16.8082 11.2922C16.8117 11.2957 16.8152 11.2992 16.8223 11.3063H1.17773C1.18125 11.3027 1.18828 11.2992 1.1918 11.2922L5.11523 6.44766C5.23477 6.3 5.21367 6.08203 5.0625 5.95898C4.91484 5.83945 4.69688 5.86055 4.57734 6.01172L0.692578 10.8105V1.125L8.0543 6.64453C8.33203 6.85195 8.66602 6.93984 9 6.94336C9.33398 6.94336 9.66797 6.85195 9.9457 6.64453L17.3074 1.125V10.8105L13.4227 6.01172C13.3031 5.86406 13.0852 5.83945 12.9375 5.95898C12.7863 6.08203 12.7652 6.3 12.8848 6.44766Z"/>
</mask>
<path d="M17.0754 0H0.924609C0.414844 0 0 0.414844 0 0.924609V11.0777C0 11.584 0.414844 12.0023 0.924609 12.0023H17.0789C17.5852 12.0023 18.0035 11.5875 18.0035 11.0777V0.924609C18 0.414844 17.5852 0 17.0754 0ZM16.7309 0.692578L9.53086 6.09258C9.40078 6.19102 9.20391 6.2543 9 6.25078C8.79609 6.25078 8.59922 6.19102 8.46914 6.09258L1.26914 0.692578H16.7309ZM12.8848 6.44766L16.8082 11.2922C16.8117 11.2957 16.8152 11.2992 16.8223 11.3063H1.17773C1.18125 11.3027 1.18828 11.2992 1.1918 11.2922L5.11523 6.44766C5.23477 6.3 5.21367 6.08203 5.0625 5.95898C4.91484 5.83945 4.69688 5.86055 4.57734 6.01172L0.692578 10.8105V1.125L8.0543 6.64453C8.33203 6.85195 8.66602 6.93984 9 6.94336C9.33398 6.94336 9.66797 6.85195 9.9457 6.64453L17.3074 1.125V10.8105L13.4227 6.01172C13.3031 5.86406 13.0852 5.83945 12.9375 5.95898C12.7863 6.08203 12.7652 6.3 12.8848 6.44766Z" fill="#E7245B"/>
<path d="M18.0035 0.924609H19.0035L19.0035 0.917713L18.0035 0.924609ZM16.7309 0.692578L17.3309 1.49258L19.7309 -0.307422H16.7309V0.692578ZM9.53086 6.09258L8.93085 5.29257L8.92742 5.29517L9.53086 6.09258ZM9 6.25078L9.01724 5.25093L9.00862 5.25078H9V6.25078ZM8.46914 6.09258L9.07259 5.29516L9.06914 5.29258L8.46914 6.09258ZM1.26914 0.692578V-0.307422H-1.73086L0.669141 1.49258L1.26914 0.692578ZM12.8848 6.44766L12.1075 7.07685L12.1077 7.07702L12.8848 6.44766ZM16.8082 11.2922L16.0311 11.9215L16.0641 11.9623L16.1011 11.9993L16.8082 11.2922ZM16.8223 11.3063V12.3063H19.2365L17.5294 10.5991L16.8223 11.3063ZM1.17773 11.3063L0.470628 10.5991L-1.23648 12.3063H1.17773V11.3063ZM1.1918 11.2922L0.414683 10.6628L0.346102 10.7475L0.29737 10.845L1.1918 11.2922ZM5.11523 6.44766L5.89235 7.07702L5.89248 7.07685L5.11523 6.44766ZM5.0625 5.95898L5.69377 5.18342L5.6917 5.18174L5.0625 5.95898ZM4.57734 6.01172L5.35464 6.64096L5.36176 6.63195L4.57734 6.01172ZM0.692578 10.8105H-0.307422V13.6352L1.46982 11.4397L0.692578 10.8105ZM0.692578 1.125L1.29246 0.324908L-0.307422 -0.874618L-0.307422 1.125H0.692578ZM8.0543 6.64453L7.45442 7.44462L7.45592 7.44575L8.0543 6.64453ZM9 6.94336L8.98947 7.94336H9V6.94336ZM9.9457 6.64453L10.5441 7.44575L10.5456 7.44462L9.9457 6.64453ZM17.3074 1.125H18.3074V-0.874618L16.7075 0.324908L17.3074 1.125ZM17.3074 10.8105L16.5302 11.4397L18.3074 13.6352V10.8105H17.3074ZM13.4227 6.01172L14.1999 5.38252L13.4227 6.01172ZM12.9375 5.95898L12.3083 5.18174L12.3062 5.18342L12.9375 5.95898ZM17.0754 -1H0.924609V1H17.0754V-1ZM0.924609 -1C-0.137441 -1 -1 -0.137441 -1 0.924609H1C1 0.967128 0.967128 1 0.924609 1V-1ZM-1 0.924609V11.0777H1V0.924609H-1ZM-1 11.0777C-1 12.1338 -0.13991 13.0023 0.924609 13.0023V11.0023C0.949034 11.0023 0.968851 11.0134 0.979175 11.0237C0.989132 11.0337 1 11.0528 1 11.0777H-1ZM0.924609 13.0023H17.0789V11.0023H0.924609V13.0023ZM17.0789 13.0023C18.135 13.0023 19.0035 12.1423 19.0035 11.0777H17.0035C17.0035 11.0533 17.0145 11.0335 17.0249 11.0232C17.0349 11.0132 17.054 11.0023 17.0789 11.0023V13.0023ZM19.0035 11.0777V0.924609H17.0035V11.0777H19.0035ZM19.0035 0.917713C18.9962 -0.13761 18.1388 -1 17.0754 -1V1C17.0533 1 17.0338 0.989875 17.0231 0.979175C17.0126 0.968687 17.0037 0.951019 17.0035 0.931506L19.0035 0.917713ZM16.1309 -0.107422L8.93086 5.29258L10.1309 6.89258L17.3309 1.49258L16.1309 -0.107422ZM8.92742 5.29517C8.94996 5.27811 8.96792 5.26813 8.97894 5.26268C8.99022 5.25711 8.99798 5.25445 9.00195 5.25324C9.00849 5.25125 9.01228 5.25084 9.01724 5.25093L8.98276 7.25063C9.38159 7.25751 9.80413 7.13985 10.1343 6.88998L8.92742 5.29517ZM9 5.25078C8.99351 5.25078 8.99006 5.24952 8.99381 5.25064C8.99638 5.25141 9.00401 5.25387 9.01608 5.25975C9.0279 5.2655 9.04775 5.27638 9.07258 5.29517L7.8657 6.88998C8.20456 7.14642 8.62677 7.25078 9 7.25078V5.25078ZM9.06914 5.29258L1.86914 -0.107422L0.669141 1.49258L7.86914 6.89258L9.06914 5.29258ZM1.26914 1.69258H16.7309V-0.307422H1.26914V1.69258ZM12.1077 7.07702L16.0311 11.9215L17.5853 10.6628L13.6619 5.8183L12.1077 7.07702ZM16.1011 11.9993C16.1011 11.9993 16.1011 11.9993 16.1011 11.9993C16.1011 11.9993 16.1012 11.9993 16.1012 11.9994C16.1012 11.9994 16.1012 11.9994 16.1012 11.9994C16.1012 11.9994 16.1012 11.9994 16.1012 11.9994C16.1012 11.9994 16.1012 11.9994 16.1012 11.9994C16.1012 11.9994 16.1013 11.9995 16.1013 11.9995C16.1013 11.9995 16.1013 11.9995 16.1013 11.9995C16.1014 11.9996 16.1014 11.9996 16.1014 11.9996C16.1022 12.0004 16.101 11.9992 16.1018 12C16.1018 12 16.1019 12.0001 16.1019 12.0001C16.1019 12.0001 16.102 12.0001 16.102 12.0002C16.102 12.0002 16.102 12.0002 16.102 12.0002C16.102 12.0002 16.102 12.0002 16.102 12.0002C16.102 12.0002 16.1021 12.0003 16.1021 12.0003C16.1021 12.0003 16.1021 12.0003 16.1021 12.0003C16.1021 12.0003 16.1021 12.0003 16.1021 12.0003C16.1021 12.0003 16.1021 12.0003 16.1021 12.0003C16.1022 12.0004 16.1022 12.0004 16.1022 12.0004C16.1022 12.0004 16.1022 12.0004 16.1022 12.0004C16.1022 12.0004 16.1022 12.0004 16.1022 12.0004C16.1022 12.0004 16.1022 12.0004 16.1022 12.0004C16.1022 12.0004 16.1022 12.0004 16.1023 12.0005C16.1023 12.0005 16.1023 12.0005 16.1024 12.0006C16.1025 12.0007 16.1025 12.0007 16.1025 12.0007C16.1025 12.0007 16.1026 12.0008 16.1026 12.0008C16.1026 12.0008 16.1027 12.0009 16.1028 12.001C16.1029 12.0011 16.1029 12.0011 16.1031 12.0013C16.1031 12.0013 16.1031 12.0013 16.1031 12.0013C16.1031 12.0013 16.1031 12.0013 16.1031 12.0013C16.1031 12.0013 16.1032 12.0014 16.1032 12.0014C16.1541 12.0523 16.0524 11.9506 16.1033 12.0015C16.1033 12.0015 16.1034 12.0016 16.1034 12.0016C16.1034 12.0016 16.1035 12.0017 16.1035 12.0017C16.1035 12.0017 16.1035 12.0017 16.1035 12.0017C16.1035 12.0017 16.1035 12.0017 16.1035 12.0017C16.1035 12.0017 16.1035 12.0017 16.1035 12.0017C16.1035 12.0017 16.1035 12.0017 16.1035 12.0017C16.1036 12.0018 16.1036 12.0018 16.1036 12.0018C16.1036 12.0018 16.1036 12.0018 16.1036 12.0018C16.1038 12.002 16.1036 12.0018 16.1038 12.002C16.1043 12.0025 16.1035 12.0017 16.104 12.0022C16.104 12.0022 16.1041 12.0023 16.1041 12.0023C16.1043 12.0025 16.1043 12.0025 16.1045 12.0027C16.1048 12.003 16.1045 12.0027 16.1049 12.0031C16.1218 12.02 16.0881 11.9863 16.105 12.0032C16.1051 12.0033 16.1051 12.0033 16.1051 12.0033C16.1051 12.0033 16.1051 12.0033 16.1051 12.0033C16.1051 12.0033 16.1051 12.0033 16.1051 12.0033C16.1134 12.0116 16.097 11.9952 16.1052 12.0034C16.1052 12.0034 16.1052 12.0034 16.1052 12.0034L16.1053 12.0035C16.1053 12.0035 16.1053 12.0035 16.1053 12.0035C16.1053 12.0035 16.1053 12.0035 16.1053 12.0035C16.1054 12.0036 16.1053 12.0035 16.1054 12.0036C16.1054 12.0036 16.1054 12.0036 16.1054 12.0036C16.1054 12.0036 16.1054 12.0036 16.1054 12.0036C16.1056 12.0038 16.1054 12.0036 16.1056 12.0038C16.1057 12.0039 16.1056 12.0038 16.1057 12.0039C16.1058 12.004 16.1058 12.004 16.1058 12.004C16.1059 12.0041 16.1059 12.0041 16.106 12.0042C16.1062 12.0044 16.1062 12.0044 16.1064 12.0046C16.1067 12.0049 16.1063 12.0045 16.1066 12.0048C16.1361 12.0343 16.0772 11.9754 16.1067 12.0049C16.1067 12.0049 16.1067 12.0049 16.1067 12.0049C16.1067 12.0049 16.1067 12.0049 16.1068 12.005C16.1068 12.005 16.1068 12.005 16.1068 12.005C16.1068 12.005 16.1068 12.005 16.1068 12.005C16.1069 12.0051 16.1069 12.0051 16.1069 12.0051C16.107 12.0052 16.107 12.0052 16.107 12.0052C16.1071 12.0053 16.1071 12.0053 16.1071 12.0053C16.1072 12.0054 16.1072 12.0054 16.1072 12.0054C16.1084 12.0066 16.1065 12.0047 16.1077 12.0059C16.1078 12.006 16.1079 12.0061 16.1081 12.0063C16.1081 12.0063 16.1082 12.0064 16.1082 12.0064C16.1084 12.0066 16.1082 12.0064 16.1083 12.0065C16.1083 12.0065 16.1083 12.0065 16.1083 12.0065C16.1084 12.0066 16.1084 12.0066 16.1084 12.0066C16.1084 12.0066 16.1084 12.0066 16.1084 12.0066C16.1085 12.0067 16.1084 12.0066 16.1085 12.0067C16.1088 12.007 16.1086 12.0068 16.1088 12.007C16.1089 12.0071 16.1089 12.0071 16.109 12.0072C16.1092 12.0074 16.109 12.0072 16.1092 12.0074C16.1095 12.0077 16.1093 12.0075 16.1095 12.0077C16.1096 12.0078 16.1096 12.0078 16.1097 12.0079C16.1098 12.008 16.1098 12.008 16.1098 12.008C16.1099 12.008 16.1098 12.008 16.1099 12.0081C16.1099 12.0081 16.1099 12.0081 16.1099 12.0081C16.1099 12.0081 16.1099 12.0081 16.1099 12.0081C16.1099 12.0081 16.1099 12.0081 16.11 12.0081C16.11 12.0082 16.11 12.0082 16.11 12.0082C16.1104 12.0086 16.1098 12.008 16.1102 12.0084C16.1103 12.0085 16.1104 12.0086 16.1105 12.0087C16.1106 12.0088 16.1105 12.0087 16.1106 12.0088C16.1107 12.0089 16.1106 12.0088 16.1107 12.0089C16.1107 12.0089 16.1107 12.0089 16.1107 12.0089C16.1107 12.0089 16.1107 12.0089 16.1107 12.0089C16.1109 12.0091 16.1109 12.0091 16.111 12.0092C16.1111 12.0093 16.111 12.0092 16.1111 12.0093C16.1112 12.0094 16.111 12.0092 16.1111 12.0093C16.1112 12.0094 16.1112 12.0094 16.1113 12.0095C16.1116 12.0098 16.1112 12.0094 16.1116 12.0097C16.112 12.0102 16.1116 12.0098 16.1121 12.0103C16.1124 12.0106 16.1121 12.0103 16.1124 12.0106C16.1128 12.011 16.1123 12.0105 16.1127 12.0109C16.1128 12.011 16.1127 12.0109 16.1128 12.011C16.1129 12.0111 16.1129 12.0111 16.113 12.0112C16.1216 12.0198 16.1047 12.0029 16.1133 12.0115C16.1133 12.0115 16.1133 12.0115 16.1133 12.0115C16.1133 12.0115 16.1133 12.0115 16.1133 12.0115C16.1134 12.0116 16.1134 12.0116 16.1134 12.0116C16.1221 12.0203 16.1049 12.0031 16.1136 12.0118C16.1138 12.012 16.1136 12.0118 16.1139 12.0121C16.1144 12.0126 16.1139 12.0121 16.1145 12.0127C16.1149 12.0131 16.1144 12.0126 16.1148 12.013C16.115 12.0132 16.1149 12.013 16.115 12.0132C16.1152 12.0134 16.1149 12.0131 16.1152 12.0134L17.5294 10.5991C17.5293 10.5991 17.5293 10.5991 17.5292 10.599C17.5291 10.5988 17.5292 10.599 17.529 10.5988C17.5289 10.5987 17.529 10.5988 17.5289 10.5987C17.5289 10.5986 17.5289 10.5986 17.5288 10.5986C17.5288 10.5986 17.5288 10.5986 17.5288 10.5986C17.5288 10.5986 17.5288 10.5985 17.5288 10.5985C17.5287 10.5985 17.5287 10.5985 17.5287 10.5985C17.527 10.5968 17.5298 10.5996 17.5281 10.5979C17.528 10.5977 17.5279 10.5977 17.5278 10.5976C17.5272 10.597 17.528 10.5978 17.5275 10.5973C17.5275 10.5972 17.5275 10.5972 17.5274 10.5972C17.5274 10.5972 17.5274 10.5972 17.5274 10.5972C17.5273 10.5971 17.5274 10.5972 17.5273 10.5971C17.5273 10.5971 17.5273 10.5971 17.5273 10.5971C17.5273 10.5971 17.5273 10.597 17.5273 10.597C17.5272 10.597 17.5272 10.597 17.5272 10.597C17.5271 10.5968 17.527 10.5968 17.5269 10.5967C17.5268 10.5965 17.5267 10.5965 17.5266 10.5964C17.5264 10.5962 17.5265 10.5963 17.5263 10.5961C17.5261 10.5958 17.5263 10.5961 17.526 10.5958C17.5257 10.5955 17.5262 10.596 17.5259 10.5957C17.5259 10.5957 17.5259 10.5957 17.5259 10.5956C17.5259 10.5956 17.5258 10.5956 17.5258 10.5956C17.5258 10.5956 17.5258 10.5956 17.5258 10.5955C17.5255 10.5953 17.5255 10.5952 17.5252 10.595C17.5251 10.5949 17.5251 10.5949 17.525 10.5947C17.5248 10.5946 17.5248 10.5946 17.5247 10.5945C17.5246 10.5944 17.5246 10.5943 17.5244 10.5942C17.5243 10.5941 17.5244 10.5942 17.5243 10.5941C17.5243 10.5941 17.5243 10.5941 17.5243 10.594C17.5242 10.594 17.5242 10.594 17.5242 10.594C17.5242 10.594 17.5242 10.594 17.5242 10.594C17.5241 10.5939 17.5242 10.594 17.5241 10.5939C17.5241 10.5938 17.5241 10.5939 17.5241 10.5938C17.524 10.5938 17.524 10.5938 17.5239 10.5937C17.5236 10.5934 17.524 10.5938 17.5237 10.5935C17.5235 10.5933 17.5234 10.5932 17.5232 10.593C17.5231 10.5929 17.5231 10.5928 17.523 10.5928C17.523 10.5928 17.523 10.5927 17.523 10.5927C17.523 10.5927 17.5229 10.5927 17.5229 10.5927C17.5229 10.5927 17.5229 10.5927 17.5229 10.5927C17.5229 10.5927 17.5229 10.5927 17.5229 10.5926C17.5229 10.5926 17.5229 10.5926 17.5228 10.5926C17.5228 10.5926 17.5228 10.5926 17.5228 10.5926C17.5228 10.5926 17.5228 10.5925 17.5228 10.5925L17.5227 10.5925C17.5227 10.5925 17.5227 10.5925 17.5227 10.5924C17.5227 10.5924 17.5227 10.5924 17.5226 10.5924C17.5226 10.5924 17.5226 10.5924 17.5226 10.5924C17.5226 10.5923 17.5226 10.5923 17.5225 10.5923C17.5223 10.5921 17.5225 10.5923 17.5223 10.5921C17.5222 10.592 17.5222 10.592 17.5221 10.5919C17.522 10.5918 17.5219 10.5917 17.5219 10.5916C17.5218 10.5916 17.5218 10.5916 17.5218 10.5916C17.5218 10.5916 17.5218 10.5916 17.5218 10.5916C17.5218 10.5915 17.5218 10.5915 17.5218 10.5915C17.5218 10.5915 17.5217 10.5915 17.5217 10.5915C17.5217 10.5915 17.5217 10.5915 17.5217 10.5915C17.5217 10.5915 17.5217 10.5915 17.5217 10.5915C17.5217 10.5914 17.5217 10.5914 17.5217 10.5914C17.5216 10.5914 17.5216 10.5914 17.5216 10.5914C17.5216 10.5913 17.5216 10.5914 17.5215 10.5913C17.5215 10.5913 17.5215 10.5912 17.5214 10.5912C17.5213 10.591 17.5214 10.5912 17.5212 10.591C17.5212 10.591 17.5212 10.5909 17.5211 10.5909C17.5209 10.5907 17.5213 10.591 17.521 10.5908C17.521 10.5908 17.5209 10.5907 17.5209 10.5907C17.5062 10.5759 17.5356 10.6053 17.5208 10.5906C17.5207 10.5905 17.5207 10.5905 17.5206 10.5904C17.5197 10.5895 17.5211 10.5909 17.5202 10.59C17.5199 10.5896 17.5202 10.5899 17.5198 10.5896C17.5198 10.5895 17.5198 10.5896 17.5198 10.5896C17.5198 10.5895 17.5197 10.5895 17.5197 10.5895C17.5196 10.5894 17.5198 10.5895 17.5196 10.5894C17.5196 10.5894 17.5196 10.5894 17.5196 10.5894C17.5196 10.5894 17.5196 10.5894 17.5196 10.5894C17.5195 10.5893 17.5196 10.5894 17.5195 10.5893C17.5195 10.5893 17.5196 10.5893 17.5195 10.5893C17.5195 10.5893 17.5195 10.5893 17.5195 10.5892C17.5195 10.5892 17.5195 10.5892 17.5195 10.5892C17.5194 10.5892 17.5194 10.5892 17.5194 10.5892C17.5194 10.5892 17.5194 10.5892 17.5194 10.5892C17.5194 10.5892 17.5194 10.5892 17.5194 10.5892C17.5194 10.5891 17.5194 10.5891 17.5194 10.5891C17.5193 10.589 17.5193 10.5891 17.5193 10.589C17.5192 10.589 17.5192 10.589 17.5192 10.5889C17.5192 10.5889 17.5192 10.5889 17.5191 10.5889C17.5191 10.5889 17.5191 10.5889 17.5191 10.5889C17.5191 10.5889 17.5191 10.5889 17.5191 10.5888C17.519 10.5888 17.519 10.5887 17.5189 10.5887C17.5187 10.5885 17.5189 10.5886 17.5187 10.5885C17.5187 10.5885 17.5187 10.5885 17.5187 10.5885C17.5187 10.5885 17.5187 10.5884 17.5187 10.5884C17.5186 10.5884 17.5187 10.5884 17.5186 10.5884C17.5186 10.5884 17.5186 10.5884 17.5186 10.5883C17.5185 10.5883 17.5186 10.5884 17.5185 10.5883C17.5185 10.5883 17.5185 10.5883 17.5184 10.5882C17.5184 10.5882 17.5184 10.5882 17.5184 10.5882C17.5183 10.5881 17.5184 10.5882 17.5184 10.5881C17.5183 10.588 17.5183 10.588 17.5182 10.5879C17.5182 10.5879 17.5182 10.5879 17.5182 10.5879C17.5181 10.5879 17.5181 10.5879 17.5181 10.5879C17.5181 10.5879 17.5181 10.5879 17.5181 10.5879C17.5181 10.5879 17.5181 10.5878 17.518 10.5878C17.518 10.5878 17.518 10.5878 17.518 10.5878C17.518 10.5878 17.518 10.5878 17.518 10.5878C17.5179 10.5877 17.5179 10.5877 17.5178 10.5876C17.5176 10.5874 17.5179 10.5877 17.5177 10.5874C17.5175 10.5873 17.5175 10.5872 17.5173 10.5871C17.517 10.5868 17.5174 10.5872 17.5171 10.5869C17.517 10.5868 17.5172 10.5869 17.5171 10.5868C17.517 10.5868 17.517 10.5868 17.517 10.5867C17.517 10.5867 17.5169 10.5867 17.5169 10.5867C17.4999 10.5697 17.5337 10.6035 17.5168 10.5866C17.5166 10.5864 17.5169 10.5866 17.5166 10.5864C17.5166 10.5863 17.5165 10.5863 17.5165 10.5862C17.4928 10.5626 17.5399 10.6097 17.5163 10.5861C17.5162 10.5859 17.5163 10.5861 17.5161 10.5859C17.5161 10.5859 17.5161 10.5859 17.5161 10.5859C17.5161 10.5859 17.5161 10.5859 17.5161 10.5859C17.5161 10.5859 17.5161 10.5858 17.5161 10.5858C17.516 10.5858 17.516 10.5858 17.516 10.5857C17.5155 10.5853 17.5161 10.5859 17.5156 10.5854C17.5153 10.5851 17.5158 10.5855 17.5155 10.5852C17.5154 10.5852 17.5155 10.5852 17.5154 10.5852C17.5154 10.5852 17.5154 10.5851 17.5154 10.5851C17.5153 10.5851 17.5153 10.5851 17.5153 10.5851C17.5153 10.5851 17.5153 10.5851 17.5153 10.5851L16.1011 11.9993ZM16.8223 10.3063H1.17773V12.3063H16.8223V10.3063ZM1.88484 12.0134C1.857 12.0412 1.83311 12.0617 1.81938 12.0732C1.80561 12.0846 1.79466 12.0931 1.79236 12.0949C1.77906 12.1051 1.80491 12.0855 1.82494 12.0688C1.87267 12.029 1.99513 11.9216 2.08622 11.7394L0.29737 10.845C0.384949 10.6698 0.50214 10.5677 0.544592 10.5323C0.561986 10.5178 0.585202 10.5001 0.569483 10.5123C0.565967 10.515 0.553866 10.5243 0.539025 10.5367C0.524226 10.549 0.499347 10.5704 0.470628 10.5991L1.88484 12.0134ZM1.96891 11.9215L5.89235 7.07702L4.33812 5.8183L0.414683 10.6628L1.96891 11.9215ZM5.89248 7.07685C6.35951 6.49993 6.27165 5.65379 5.69377 5.18342L4.43123 6.73455C4.15569 6.51027 4.11002 6.10007 4.33799 5.81846L5.89248 7.07685ZM5.6917 5.18174C5.12016 4.71907 4.26483 4.79467 3.79293 5.39148L5.36176 6.63195C5.12892 6.92642 4.70952 6.95984 4.4333 6.73623L5.6917 5.18174ZM3.8001 5.38252L-0.0846667 10.1813L1.46982 11.4397L5.35459 6.64092L3.8001 5.38252ZM1.69258 10.8105V1.125H-0.307422V10.8105H1.69258ZM0.0927004 1.92509L7.45442 7.44462L8.65417 5.84444L1.29246 0.324908L0.0927004 1.92509ZM7.45592 7.44575C7.9383 7.806 8.49131 7.93806 8.98947 7.9433L9.01053 5.94341C8.84072 5.94163 8.72576 5.8979 8.65267 5.84332L7.45592 7.44575ZM9 7.94336C9.5136 7.94336 10.0667 7.80225 10.5441 7.44575L9.34733 5.84332C9.26921 5.90165 9.15437 5.94336 9 5.94336V7.94336ZM10.5456 7.44462L17.9073 1.92509L16.7075 0.324908L9.34583 5.84444L10.5456 7.44462ZM16.3074 1.125V10.8105H18.3074V1.125H16.3074ZM18.0847 10.1813L14.1999 5.38252L12.6454 6.64092L16.5302 11.4397L18.0847 10.1813ZM14.1999 5.38252C13.7384 4.81248 12.8921 4.70917 12.3083 5.18174L13.5667 6.73623C13.2782 6.96974 12.8678 6.91564 12.6454 6.64092L14.1999 5.38252ZM12.3062 5.18342C11.7283 5.65379 11.6405 6.49993 12.1075 7.07685L13.662 5.81846C13.89 6.10007 13.8443 6.51027 13.5688 6.73455L12.3062 5.18342Z" fill="#E7245B" mask="url(#path-1-inside-1)"/>
</svg>
