<svg width="32" height="23" viewBox="0 0 32 23" fill="none" xmlns="http://www.w3.org/2000/svg">
<path d="M31.1319 1.61004L30.0438 2.45161L17.2481 12.3483C17.2478 12.3486 17.2475 12.3488 17.2472 12.349C16.9169 12.6064 16.4542 12.7514 15.9925 12.7441M31.1319 1.61004L16.9404 11.9542C16.7092 12.1346 16.3593 12.2506 15.9969 12.2441C15.6344 12.2441 15.2845 12.1346 15.0533 11.9542M31.1319 1.61004C31.3543 1.82608 31.4972 2.13404 31.5 2.48318V21.0918C31.5 21.3671 31.4105 21.6175 31.2627 21.8171V20.6021V2.84872V1.8301L30.4569 2.45316L17.3727 12.5698L31.1319 1.61004ZM15.9925 12.7441C15.991 12.7441 15.9895 12.7441 15.988 12.7441L15.9969 12.2442V12.7441C15.9954 12.7441 15.9939 12.7441 15.9925 12.7441ZM15.9925 12.7441C15.5438 12.7433 15.0814 12.6099 14.7467 12.3491L14.7474 12.3497L15.0533 11.9542M15.0533 11.9542L2.90227 2.5561L17.372 12.5703C16.9792 12.8725 16.4986 13.0131 15.9996 13.0136C15.4924 13.0076 15.0116 12.8704 14.6213 12.57C14.6212 12.5699 14.6211 12.5698 14.621 12.5698L1.53685 2.45316L0.73101 1.8301V2.84872V20.6021V21.8084C0.586842 21.6098 0.5 21.3623 0.5 21.0918V2.48141C0.5 2.13367 0.640993 1.82624 0.862212 1.61034L1.94991 2.45161L14.7457 12.3483L15.0533 11.9542ZM30.3503 1.28662C30.6197 1.28662 30.8727 1.38675 31.0725 1.5561H29.7379H2.25581H0.921734C1.12077 1.38685 1.37368 1.28662 1.64343 1.28662H30.3503ZM30.3694 20.9108L31.1688 21.9291C30.9583 22.1509 30.6675 22.2866 30.3566 22.2866H1.64343C1.37171 22.2866 1.11666 22.1835 0.916691 22.0107H2.09334H29.9004H31.0817L30.2594 21.1626L30.2525 21.1556L23.2951 12.2963C23.2951 12.2963 23.295 12.2962 23.295 12.2962C23.2479 12.2361 23.2567 12.1434 23.3164 12.0927C23.3565 12.0597 23.4216 12.06 23.4645 12.1147L30.3694 20.9108ZM1.73437 21.1627L0.914217 22.0086C0.884118 21.9824 0.855277 21.9547 0.827825 21.9255L1.62431 20.9108L8.52921 12.1147L8.52923 12.1147L8.5327 12.1102C8.55404 12.0824 8.57896 12.0712 8.60216 12.0686C8.62593 12.0661 8.65246 12.0722 8.67727 12.0927C8.73709 12.1433 8.74587 12.2361 8.69874 12.2962C8.69872 12.2962 8.6987 12.2963 8.69868 12.2963L1.74076 21.1562C1.73867 21.1582 1.73654 21.1604 1.73437 21.1627Z" fill="#13B4C9" stroke="#13B4C9"/>
</svg>
