<svg width="26" height="25" viewBox="0 0 26 25" fill="none" xmlns="http://www.w3.org/2000/svg">
<g clip-path="url(#clip0)">
<path d="M25.5688 12.5C25.5688 5.5957 19.9731 0 13.0688 0C6.16455 0 0.568848 5.5957 0.568848 12.5C0.568848 19.4043 6.16455 25 13.0688 25C13.1421 25 13.2153 25 13.2886 24.9951V15.2686H10.603V12.1387H13.2886V9.83398C13.2886 7.16309 14.9194 5.70801 17.3022 5.70801C18.4448 5.70801 19.4263 5.79102 19.7095 5.83008V8.62305H18.0688C16.7749 8.62305 16.521 9.23828 16.521 10.1416V12.1338H19.6216L19.2163 15.2637H16.521V24.5166C21.7456 23.0176 25.5688 18.208 25.5688 12.5Z" fill="#E7245B"/>
</g>
<defs>
<clipPath id="clip0">
<rect width="25" height="25" fill="white" transform="translate(0.568848)"/>
</clipPath>
</defs>
</svg>
