<svg width="27" height="27" viewBox="0 0 27 27" fill="none" xmlns="http://www.w3.org/2000/svg">
<g clip-path="url(#clip0)">
<path d="M26.7865 13.3932C26.7865 5.99556 20.7909 0 13.3932 0C5.99556 0 0 5.99556 0 13.3932C0 20.7909 5.99556 26.7865 13.3932 26.7865C13.4717 26.7865 13.5502 26.7865 13.6287 26.7812V16.3596H10.7512V13.0061H13.6287V10.5367C13.6287 7.67495 15.3761 6.11589 17.9291 6.11589C19.1534 6.11589 20.2049 6.20483 20.5084 6.24669V9.23924H18.7505C17.3641 9.23924 17.0921 9.89844 17.0921 10.8663V13.0009H20.4142L19.98 16.3544H17.0921V26.2685C22.69 24.6624 26.7865 19.5091 26.7865 13.3932Z" fill="white"/>
</g>
<defs>
<clipPath id="clip0">
<rect width="26.7865" height="26.7865" fill="white"/>
</clipPath>
</defs>
</svg>
