<svg width="16" height="17" viewBox="0 0 16 17" fill="none" xmlns="http://www.w3.org/2000/svg">
<g clip-path="url(#clip0)">
<path d="M16 8.49341C16 4.07466 12.4187 0.493408 8 0.493408C3.58125 0.493408 0 4.07466 0 8.49341C0 12.9122 3.58125 16.4934 8 16.4934C8.04688 16.4934 8.09375 16.4934 8.14062 16.4903V10.2653H6.42188V8.26216H8.14062V6.78716C8.14062 5.07778 9.18438 4.14653 10.7094 4.14653C11.4406 4.14653 12.0688 4.19966 12.25 4.22466V6.01216H11.2C10.3719 6.01216 10.2094 6.40591 10.2094 6.98403V8.25903H12.1938L11.9344 10.2622H10.2094V16.184C13.5531 15.2247 16 12.1465 16 8.49341Z" fill="#E7245B"/>
</g>
<defs>
<clipPath id="clip0">
<rect width="16" height="16" fill="white" transform="translate(0 0.493408)"/>
</clipPath>
</defs>
</svg>
