<svg width="18" height="20" viewBox="0 0 18 20" fill="none" xmlns="http://www.w3.org/2000/svg">
<path d="M9.52112 12.1209C9.85327 12.0951 10.1561 11.9256 10.3526 11.6554L13.34 7.52543C13.4316 7.39876 13.4178 7.22391 13.3068 7.11288C13.1958 7.00216 13.0209 6.98844 12.8943 7.0797L8.76366 10.0681C8.49437 10.264 8.32495 10.5667 8.2991 10.8989C8.27326 11.231 8.39355 11.5562 8.6287 11.7913C8.84279 12.0057 9.13154 12.1244 9.43178 12.1244C9.46145 12.1244 9.49113 12.1231 9.52112 12.1209ZM8.93532 10.9487C8.94649 10.8029 9.02115 10.6698 9.13856 10.5843L11.6582 8.76148L9.83604 11.2805C9.74989 11.3989 9.61684 11.4732 9.47103 11.4847C9.32585 11.4943 9.18323 11.4439 9.07953 11.3402C8.9768 11.2371 8.92383 11.0942 8.93532 10.9487Z" fill="#E7245B"/>
<path d="M16.6683 6.24217C16.6651 6.23547 16.6651 6.22845 16.6616 6.22175C16.6578 6.21537 16.6517 6.21186 16.6476 6.2058C16.325 5.65254 15.9434 5.13789 15.5101 4.67142L16.1955 3.98639L16.6466 4.43754L18.0001 3.08375L16.6466 1.73028L15.2928 3.08375L15.7443 3.53523L15.059 4.22026C14.5925 3.78697 14.0782 3.40505 13.5246 3.08248C13.5185 3.07833 13.515 3.07227 13.5086 3.06844C13.5019 3.06461 13.4949 3.06493 13.4882 3.06142C12.5013 2.49285 11.3926 2.11412 10.2105 1.97533V1.59532H10.6891C11.1291 1.59532 11.4867 1.23765 11.4867 0.79766C11.4867 0.357671 11.1287 0 10.6887 0H7.81717C7.37718 0 7.01951 0.357671 7.01951 0.79766C7.01951 1.23765 7.37718 1.59532 7.81717 1.59532H8.29576V1.96416C7.95117 2.00085 7.60722 2.05701 7.2671 2.13486C7.09544 2.1741 6.98792 2.34544 7.02748 2.5171C7.06673 2.68875 7.23807 2.7966 7.40972 2.75671C7.70326 2.68939 7.99967 2.63866 8.29672 2.60452L8.63908 2.57804C8.74373 2.57006 8.84009 2.56432 8.93389 2.55985V3.19064C8.93389 3.36708 9.07651 3.5097 9.25295 3.5097C9.4294 3.5097 9.57202 3.36708 9.57202 3.19064V2.56208C10.772 2.61728 11.9028 2.93954 12.9082 3.46982L12.5936 4.01446C12.5055 4.1673 12.5578 4.36224 12.7103 4.45031C12.7604 4.47934 12.8153 4.49306 12.8695 4.49306C12.9799 4.49306 13.0871 4.43595 13.1462 4.33353L13.4598 3.79016C14.4582 4.4235 15.3062 5.27158 15.9396 6.26993L15.3962 6.58357C15.244 6.67163 15.1917 6.86658 15.2801 7.01941C15.3394 7.12183 15.4463 7.17894 15.5567 7.17894C15.6109 7.17894 15.6658 7.16522 15.7159 7.13619L16.2606 6.82159C16.7982 7.84132 17.1214 8.99059 17.1696 10.2097H16.5394C16.363 10.2097 16.2204 10.3524 16.2204 10.5288C16.2204 10.7052 16.363 10.8479 16.5394 10.8479H17.1696C17.1214 12.067 16.7982 13.2163 16.2606 14.236L15.7159 13.9214C15.5634 13.8333 15.3681 13.885 15.2801 14.0382C15.192 14.191 15.2443 14.386 15.3969 14.474L15.9402 14.7877C15.3069 15.786 14.4588 16.6341 13.4605 17.2674L13.1468 16.7241C13.0584 16.5709 12.8628 16.5189 12.711 16.6073C12.5581 16.6953 12.5058 16.8906 12.5942 17.0431L12.9088 17.5878C11.9034 18.1181 10.7727 18.4403 9.57266 18.4955V17.8676C9.57266 17.6911 9.43004 17.5485 9.25359 17.5485C9.07715 17.5485 8.93453 17.6911 8.93453 17.8676V18.4981C8.42498 18.4805 7.91384 18.4167 7.41068 18.3012C7.23902 18.26 7.06768 18.3692 7.02844 18.5408C6.98888 18.7125 7.0964 18.8838 7.26806 18.9231C7.90491 19.0698 8.55548 19.1438 9.20095 19.1438C9.21658 19.1438 9.23158 19.1429 9.24721 19.1426C9.24944 19.1426 9.25104 19.1438 9.25295 19.1438C9.25551 19.1438 9.25774 19.1423 9.26029 19.1423C10.794 19.1317 12.233 18.7176 13.478 18.0022C13.4879 17.9978 13.4984 17.9955 13.508 17.9898C13.5144 17.986 13.5179 17.9799 13.5239 17.9758C14.8126 17.2247 15.8895 16.1491 16.6422 14.8614C16.6482 14.8528 16.6559 14.8461 16.6613 14.8365C16.6651 14.8298 16.6648 14.8228 16.668 14.8161C17.3967 13.5526 17.8157 12.0893 17.8157 10.5291C17.8157 8.96889 17.3967 7.50566 16.6683 6.24217ZM16.6463 2.6326L17.0975 3.08375L16.6463 3.53523L16.1948 3.08375L16.6463 2.6326ZM8.93389 1.92108V0.957192H7.81717C7.72942 0.957192 7.65763 0.885403 7.65763 0.79766C7.65763 0.709918 7.72942 0.638128 7.81717 0.638128H10.6887C10.7765 0.638128 10.8483 0.709918 10.8483 0.79766C10.8483 0.885403 10.7765 0.957192 10.6887 0.957192H9.57202V1.92108C9.46098 1.91662 9.35505 1.91438 9.25295 1.91438C9.24402 1.91438 9.23381 1.91502 9.22488 1.91502C9.2169 1.91502 9.20892 1.91438 9.20095 1.91438C9.14862 1.91438 9.09629 1.91789 9.04397 1.91885C9.00696 1.91981 8.97218 1.91949 8.93389 1.92108Z" fill="#E7245B"/>
<path d="M6.38118 4.4668H4.78586C4.60942 4.4668 4.4668 4.60942 4.4668 4.78586C4.4668 4.9623 4.60942 5.10493 4.78586 5.10493H6.38118C6.55762 5.10493 6.70025 4.9623 6.70025 4.78586C6.70025 4.60942 6.55762 4.4668 6.38118 4.4668Z" fill="#E7245B"/>
<path d="M6.38129 6.7002H3.19065C3.0142 6.7002 2.87158 6.84282 2.87158 7.01926C2.87158 7.1957 3.0142 7.33832 3.19065 7.33832H6.38129C6.55773 7.33832 6.70035 7.1957 6.70035 7.01926C6.70035 6.84282 6.55773 6.7002 6.38129 6.7002Z" fill="#E7245B"/>
<path d="M6.38139 8.93359H1.59543C1.41899 8.93359 1.27637 9.07622 1.27637 9.25266C1.27637 9.4291 1.41899 9.57172 1.59543 9.57172H6.38139C6.55783 9.57172 6.70046 9.4291 6.70046 9.25266C6.70046 9.07622 6.55783 8.93359 6.38139 8.93359Z" fill="#E7245B"/>
<path d="M6.38128 11.1675H0.319064C0.142622 11.1675 0 11.3101 0 11.4865C0 11.663 0.142622 11.8056 0.319064 11.8056H6.38128C6.55772 11.8056 6.70035 11.663 6.70035 11.4865C6.70035 11.3101 6.55772 11.1675 6.38128 11.1675Z" fill="#E7245B"/>
<path d="M6.3812 13.4009H2.23337C2.05693 13.4009 1.91431 13.5435 1.91431 13.7199C1.91431 13.8964 2.05693 14.039 2.23337 14.039H6.3812C6.55765 14.039 6.70027 13.8964 6.70027 13.7199C6.70027 13.5435 6.55765 13.4009 6.3812 13.4009Z" fill="#E7245B"/>
<path d="M6.38137 15.6343H4.14792C3.97148 15.6343 3.82886 15.7769 3.82886 15.9533C3.82886 16.1298 3.97148 16.2724 4.14792 16.2724H6.38137C6.55781 16.2724 6.70043 16.1298 6.70043 15.9533C6.70043 15.7769 6.55781 15.6343 6.38137 15.6343Z" fill="#E7245B"/>
</svg>
