<svg width="20" height="20" viewBox="0 0 20 20" fill="none" xmlns="http://www.w3.org/2000/svg">
<g clip-path="url(#clip0)">
<path d="M18.8098 2.91748H5.96345C5.45406 2.91748 5.45334 3.71092 5.96345 3.71092H18.8098C19.0286 3.71092 19.2066 3.88889 19.2066 4.10765V13.4829C19.2066 13.7017 19.0286 13.8796 18.8098 13.8796H11.8635C11.7421 13.8796 11.6273 13.9352 11.5521 14.0305L9.95186 16.0579L8.25464 14.0223C8.17926 13.9319 8.06763 13.8796 7.94992 13.8796H1.19017C0.971414 13.8796 0.793445 13.7017 0.793445 13.4829V4.10765C0.793445 3.88889 0.971414 3.71092 1.19017 3.71092H2.69977C3.20917 3.71092 3.20988 2.91748 2.69977 2.91748H1.19017C0.533909 2.91748 0 3.45139 0 4.10765V13.4829C0 14.1392 0.533909 14.6731 1.19017 14.6731H7.76421L9.65562 16.9415C9.81534 17.1331 10.1171 17.1292 10.2717 16.9332L12.0558 14.6731H18.8098C19.4661 14.6731 20 14.1392 20 13.4829V4.10765C20 3.45139 19.4661 2.91748 18.8098 2.91748Z" fill="#E7245B"/>
<path d="M2.19692 8.022C2.15491 8.15126 2.182 8.293 2.26873 8.39766L3.04119 9.33024L2.96442 10.5388C2.90412 11.4856 4.32557 10.4801 4.63224 10.4862C4.94156 10.4924 6.35969 11.4749 6.30006 10.5388L6.22325 9.33024L6.99575 8.39766C7.17618 8.1799 7.06431 7.83082 6.78862 7.76029L5.61556 7.45989L4.96731 6.43706C4.81596 6.19815 4.44943 6.19668 4.29713 6.43706L3.64888 7.45989L2.47582 7.76029C2.34414 7.79397 2.23893 7.89271 2.19692 8.022ZM3.99816 8.18942C4.29146 8.11436 4.4845 7.6235 4.6322 7.39042C4.77752 7.61973 4.97576 8.11507 5.26624 8.18942L5.98534 8.37358L5.51177 8.94526C5.44731 9.02309 5.41497 9.12263 5.4214 9.22348L5.46849 9.96436L4.77847 9.69066C4.68449 9.65341 4.57987 9.65341 4.48589 9.69066L3.79587 9.96436L3.84292 9.22348C3.84935 9.12263 3.81702 9.02309 3.75255 8.94526L3.27902 8.37358L3.99816 8.18942Z" fill="#E7245B"/>
<path d="M12.3956 8.02203C12.3536 7.89278 12.2484 7.794 12.1167 7.76028L10.9437 7.45988L10.2954 6.43705C10.1441 6.19815 9.77753 6.19668 9.62523 6.43705L8.97699 7.45988L7.80392 7.76028C7.67225 7.794 7.567 7.89278 7.52503 8.02203C7.48305 8.15129 7.51011 8.29303 7.59683 8.39769L8.36933 9.33026L8.29252 10.5388C8.23218 11.4856 9.65371 10.4802 9.96034 10.4863C10.2697 10.4925 11.6878 11.4749 11.6282 10.5388L11.5514 9.33026L12.3238 8.39769C12.4105 8.29303 12.4376 8.15129 12.3956 8.02203ZM10.8399 8.94528C10.7754 9.02312 10.7431 9.12266 10.7495 9.2235L10.7966 9.96438C10.5489 9.86611 10.2325 9.66271 9.96034 9.66271C9.68942 9.66271 9.37113 9.86635 9.12405 9.96438L9.17114 9.2235C9.17757 9.12266 9.14524 9.02312 9.08077 8.94528L8.6072 8.37361L9.3263 8.18945C9.6196 8.11439 9.81264 7.62353 9.96034 7.39045C10.1057 7.61976 10.3039 8.1151 10.5944 8.18945L11.3135 8.37361L10.8399 8.94528Z" fill="#E7245B"/>
<path d="M17.7236 8.02203C17.6816 7.89274 17.5764 7.794 17.4447 7.76028L16.2717 7.45988L15.6234 6.43705C15.4721 6.19815 15.1055 6.19668 14.9532 6.43705L14.305 7.45988L13.1319 7.76028C12.8579 7.83042 12.7432 8.17854 12.9248 8.39765L13.6973 9.33022L13.6205 10.5388C13.5602 11.4854 14.981 10.4801 15.2883 10.4862C15.597 10.4924 17.0157 11.4751 16.9561 10.5388L16.8794 9.33022L17.6518 8.39765C17.7385 8.29303 17.7656 8.15129 17.7236 8.02203ZM16.1679 8.94528C16.1035 9.02312 16.0711 9.12266 16.0776 9.2235L16.1246 9.96438L15.4346 9.69068C15.3371 9.65343 15.2395 9.65343 15.142 9.69068L14.452 9.96438L14.4991 9.2235C14.5055 9.12266 14.4732 9.02312 14.4087 8.94528L13.9352 8.37361L14.6543 8.18945C14.9476 8.11439 15.1406 7.62353 15.2883 7.39045C15.4336 7.61976 15.6319 8.1151 15.9223 8.18945L16.6414 8.37361L16.1679 8.94528Z" fill="#E7245B"/>
<path d="M4.12033 3.64364C4.41894 3.84827 4.81761 3.55092 4.72235 3.20831C4.67701 3.04518 4.52915 2.92636 4.35979 2.91795C4.19082 2.90958 4.0311 3.0138 3.9704 3.17146C3.90503 3.34141 3.96695 3.54338 4.12033 3.64364Z" fill="#E7245B"/>
</g>
<defs>
<clipPath id="clip0">
<rect width="20" height="20" fill="white"/>
</clipPath>
</defs>
</svg>
