<svg width="52" height="26" viewBox="0 0 52 26" fill="none" xmlns="http://www.w3.org/2000/svg">
<path d="M0 25.0216C0.841565 23.0008 1.68701 20.98 2.52857 18.9629C2.7186 18.5076 2.89312 18.0447 3.09479 17.5932C3.54853 16.5922 4.34356 16.0729 5.47599 16.054C5.94913 16.0465 6.41839 16.054 6.92643 16.054C6.92643 15.7154 6.92643 15.4068 6.92643 15.0154C6.66659 15.0154 6.40287 15.0192 6.14303 15.0154C5.53804 15.0041 5.21615 14.7407 5.22391 14.2666C5.23166 13.8075 5.57682 13.5215 6.16243 13.5139C6.89152 13.5064 7.61674 13.5139 8.34584 13.5102C8.44279 13.5102 8.54363 13.4914 8.70651 13.4763C8.70651 12.9457 8.70651 12.4264 8.70651 11.9071C8.71039 11.1432 8.86164 10.9964 9.6683 10.9926C10.4788 10.9889 11.2894 10.9926 12.0999 10.9926C12.3132 10.6088 12.0301 10.5599 11.7897 10.4921C9.81567 9.91638 7.84168 9.34438 5.86768 8.76862C5.28596 8.59928 4.70423 8.41865 4.11475 8.27189C3.68427 8.15899 3.49036 7.88052 3.47873 7.48539C3.45934 6.63116 3.45934 5.77693 3.47485 4.9227C3.4826 4.47489 3.74244 4.23028 4.21558 4.23028C5.38291 4.23028 6.55024 4.22276 7.71757 4.23405C8.19071 4.23781 8.49709 4.54639 8.49709 4.96786C8.49709 5.3818 8.18296 5.70167 7.7137 5.70919C6.83723 5.72425 5.96076 5.71296 5.04551 5.71296C5.04551 6.07422 5.04551 6.39408 5.04551 6.7704C5.26657 6.7704 5.46435 6.7704 5.66214 6.7704C11.7199 6.7704 17.7814 6.77416 23.8392 6.76287C24.3433 6.76287 24.7195 6.89082 25.1073 7.22574C27.2287 9.06215 29.3772 10.8722 31.518 12.6823C31.8243 12.9419 32.0958 13.2091 31.9368 13.6456C31.77 14.0935 31.3939 14.1725 30.9556 14.1725C28.0121 14.1687 25.0647 14.18 22.1211 14.1537C21.8186 14.1499 21.4541 14.0144 21.2214 13.8187C19.1155 12.0651 17.0368 10.2814 14.9426 8.51273C14.8108 8.39983 14.6324 8.27189 14.4734 8.27189C12.9376 8.25307 11.4057 8.2606 9.85057 8.35091C10.7464 8.61433 11.6384 8.87775 12.5343 9.14117C12.6972 9.19009 12.86 9.23149 13.0229 9.27664C13.4922 9.40459 13.7288 9.68682 13.7132 10.176C13.6977 10.6841 13.7132 11.1958 13.7094 11.7039C13.7016 12.257 13.4844 12.4753 12.9066 12.4828C12.0456 12.4904 11.1847 12.4866 10.2811 12.4866C10.2811 12.8177 10.2811 13.1188 10.2811 13.5064C10.4556 13.5064 10.6495 13.5064 10.8434 13.5064C13.7365 13.5064 16.6335 13.5064 19.5266 13.5064C19.6973 13.5064 19.8679 13.4989 20.0347 13.5215C20.4496 13.5817 20.6629 13.8564 20.6668 14.2365C20.6707 14.6165 20.4729 14.9101 20.0579 14.9703C19.7089 15.0192 19.356 15.0154 18.972 15.038C18.972 15.3692 18.972 15.674 18.972 16.0126C27.2481 16.0126 35.5164 16.0126 43.9165 16.0126C43.4007 15.5761 42.9237 15.2262 42.5203 14.8122C42.0162 14.2929 41.45 14.1311 40.7209 14.1537C39.1657 14.2026 37.6067 14.1875 36.0515 14.1537C35.7452 14.1461 35.3806 14.0144 35.1479 13.8225C32.9257 11.971 30.7268 10.097 28.5201 8.23049C28.206 7.96707 27.9694 7.6886 28.1284 7.25584C28.2874 6.81932 28.652 6.76287 29.0708 6.76663C30.3351 6.77792 31.6033 6.7704 32.887 6.71771C32.3401 6.25485 31.9562 5.68662 31.0371 5.69414C24.5062 5.7393 17.9715 5.71672 11.4367 5.71672C11.2855 5.71672 11.1304 5.72048 10.9791 5.71672C10.4323 5.70543 10.1531 5.46459 10.1453 5.00549C10.1376 4.54639 10.4594 4.24157 10.9985 4.23405C12.0495 4.22276 13.0966 4.23028 14.1476 4.23028C14.3337 4.23028 14.5199 4.23028 14.8185 4.23028C14.6091 3.96686 14.4501 3.76742 14.2911 3.57174C13.6783 2.82664 13.0656 2.0853 12.449 1.34396C12.224 1.07302 12.0922 0.787019 12.2667 0.440811C12.4373 0.0983655 12.7359 0.000524167 13.1044 0.000524167C15.3227 0.0042873 17.5371 -0.0107652 19.7554 0.0193398C20.0424 0.023103 20.3759 0.181154 20.6086 0.365548C22.0668 1.5133 23.5095 2.68364 24.9406 3.8615C25.2547 4.12115 25.5611 4.2491 25.9838 4.24157C27.9112 4.219 29.8426 4.24157 31.7739 4.22276C32.1889 4.21899 32.5108 4.32813 32.8249 4.59531C37.2111 8.3321 41.6051 12.0651 46.0107 15.7831C46.193 15.9374 46.4838 16.0315 46.7282 16.0352C48.167 16.0578 49.6058 16.0503 51.0446 16.0428C51.4285 16.039 51.7465 16.1218 51.9249 16.4868C52.0956 16.8368 51.9521 17.119 51.7271 17.39C49.47 20.1145 47.2091 22.8427 44.9636 25.5748C44.6727 25.9247 44.3159 25.9962 43.8893 25.9962C37.7463 25.9887 31.6033 25.9925 25.4564 25.9925C17.351 25.9925 9.2417 25.9887 1.13631 26C0.663168 26 0.275351 25.9097 0.00387818 25.5108C0 25.349 0 25.1872 0 25.0216ZM49.6252 17.5405C49.3149 17.5405 49.1326 17.5405 48.9504 17.5405C34.5856 17.5405 20.2208 17.5405 5.85217 17.5405C5.68153 17.5405 5.4915 17.4953 5.34801 17.5593C5.08429 17.676 4.73138 17.7964 4.61891 18.0146C4.25048 18.7259 3.97513 19.4823 3.64161 20.28C3.90533 20.28 4.0876 20.28 4.26987 20.28C8.82286 20.28 13.372 20.2838 17.9249 20.2725C18.3283 20.2725 18.6385 20.3741 18.91 20.6676C19.2629 21.044 19.6352 21.4052 20.023 21.7439C20.1588 21.8606 20.3721 21.9546 20.5466 21.9546C28.9041 21.9659 37.2654 21.9659 45.6229 21.9546C45.7858 21.9546 46.003 21.8907 46.0999 21.7778C47.2595 20.408 48.3997 19.0232 49.6252 17.5405ZM44.7232 23.4524C44.4245 23.4524 44.2461 23.4524 44.0639 23.4524C36.6022 23.4524 29.1406 23.411 21.6829 23.4862C20.1937 23.5013 19.0225 23.2416 18.1227 22.0562C17.9947 21.8869 17.669 21.7815 17.4324 21.7778C15.0628 21.7589 12.6972 21.7665 10.3276 21.7665C8.04334 21.7665 5.75909 21.7627 3.47485 21.774C3.30809 21.774 3.03661 21.8154 2.99008 21.9132C2.61389 22.7449 2.28425 23.5954 1.91582 24.4947C2.20668 24.4947 2.40835 24.4947 2.61001 24.4947C16.1604 24.4947 29.7107 24.4947 43.265 24.4947C43.3658 24.4947 43.4744 24.5173 43.5675 24.491C43.7342 24.4383 43.9242 24.3931 44.0367 24.2802C44.2617 24.0582 44.44 23.7986 44.7232 23.4524ZM17.0601 8.26436C17.1687 8.38478 17.2036 8.43746 17.2501 8.4751C18.8286 9.81477 20.3992 11.1582 21.9893 12.4866C22.1366 12.607 22.381 12.6672 22.5826 12.6672C24.6109 12.6785 26.6392 12.6748 28.6714 12.6748C28.7916 12.6748 28.9118 12.6522 29.1174 12.6296C27.4071 11.1733 25.7705 9.7809 24.1261 8.39231C24.0369 8.31704 23.8857 8.26812 23.7616 8.26812C21.5627 8.26436 19.3637 8.26436 17.0601 8.26436ZM39.8909 12.6785C39.8056 12.5619 39.7824 12.5129 39.7474 12.4828C38.1613 11.1319 36.5751 9.77714 34.9773 8.44123C34.8416 8.32833 34.6166 8.27565 34.4305 8.27189C33.5191 8.25683 32.6077 8.26436 31.6925 8.26436C31.4714 8.26436 31.2542 8.26436 30.9013 8.26436C32.6659 9.75832 34.3025 11.1507 35.9507 12.5355C36.0438 12.6145 36.1912 12.671 36.3114 12.671C37.4748 12.6823 38.6383 12.6785 39.8909 12.6785ZM18.0801 1.55846C18.8092 2.4428 19.5034 3.28574 20.2014 4.12492C20.2402 4.17007 20.31 4.21899 20.3682 4.21899C21.1981 4.22652 22.0319 4.22276 22.9898 4.22276C22.0862 3.49271 21.2485 2.89814 20.5233 2.19819C19.8369 1.53588 19.0768 1.37783 18.0801 1.55846ZM14.5548 1.50201C15.3188 2.43151 15.9897 3.25187 16.6723 4.06471C16.7382 4.14373 16.8623 4.21523 16.9593 4.21899C17.3704 4.23781 17.7853 4.22652 18.3011 4.22652C17.5449 3.31208 16.8662 2.48043 16.1759 1.66007C16.11 1.58104 15.982 1.5133 15.8811 1.50954C15.4856 1.49449 15.0861 1.50201 14.5548 1.50201ZM12.0146 15.0418C12.0146 15.3842 12.0146 15.7003 12.0146 16.0164C12.6623 16.0164 13.275 16.0164 13.8916 16.0164C13.8916 15.6777 13.8916 15.3729 13.8916 15.0418C13.2595 15.0418 12.6429 15.0418 12.0146 15.0418ZM10.4362 15.0493C9.79628 15.0493 9.17965 15.0493 8.54751 15.0493C8.54751 15.3842 8.54751 15.7003 8.54751 16.0089C9.19904 16.0089 9.81179 16.0089 10.4362 16.0089C10.4362 15.689 10.4362 15.4105 10.4362 15.0493ZM17.3471 15.0531C16.7149 15.0531 16.0983 15.0531 15.4817 15.0531C15.4817 15.3955 15.4817 15.7003 15.4817 16.0164C16.1293 16.0164 16.7421 16.0164 17.3859 16.0164C17.3859 15.753 17.3898 15.5272 17.3859 15.2977C17.3859 15.2186 17.3626 15.1396 17.3471 15.0531Z" fill="white"/>
<path d="M40.7984 20.5372C40.333 20.5447 39.9995 20.2324 39.9879 19.7808C39.9762 19.3367 40.302 18.9943 40.7557 18.9755C41.2366 18.9567 41.6089 19.2954 41.6051 19.7545C41.6012 20.1759 41.2405 20.5297 40.7984 20.5372Z" fill="white"/>
<path d="M33.8061 20.5334C33.3717 20.5221 33.011 20.1609 33.0149 19.7394C33.0227 19.2991 33.4144 18.9491 33.8759 18.9755C34.3219 18.9981 34.6515 19.3518 34.6321 19.7883C34.6166 20.2173 34.2482 20.5485 33.8061 20.5334Z" fill="white"/>
<path d="M37.3081 18.9755C37.7618 18.9755 38.107 19.3142 38.107 19.7582C38.107 20.1985 37.7541 20.5409 37.3042 20.5372C36.866 20.5372 36.4898 20.1721 36.4937 19.7507C36.4937 19.3254 36.8621 18.9755 37.3081 18.9755Z" fill="white"/>
</svg>
