<svg width="9" height="13" viewBox="0 0 9 13" fill="none" xmlns="http://www.w3.org/2000/svg">
<path d="M6.46742 5.37277C6.46742 6.5187 5.53838 7.44775 4.39258 7.44775C3.24665 7.44775 2.3176 6.51858 2.3176 5.37277C2.3176 4.22697 3.24665 3.29793 4.39258 3.29793C5.53838 3.29793 6.46742 4.22697 6.46742 5.37277ZM8.78401 5.30073C8.78401 2.87545 6.81799 0.909424 4.39245 0.909424C1.96742 0.909424 0.0013946 2.87532 0.0010141 5.30023L0 5.30073C0 5.44824 0.00938541 5.59435 0.0232101 5.74008C0.0240979 5.74795 0.0249853 5.75543 0.0258731 5.76304C0.367812 9.21706 4.39258 12.0907 4.39258 12.0907C4.39258 12.0907 8.78401 9.28935 8.78401 5.30073Z" fill="#656565"/>
</svg>
