<svg width="32" height="44" viewBox="0 0 32 44" fill="none" xmlns="http://www.w3.org/2000/svg">
<path d="M3.89975 43.3973C3.4456 43.2231 3.14219 42.9045 2.92188 42.4847C2.69578 42.0574 2.42522 41.6545 2.18365 41.2366C1.74689 40.4833 1.92469 39.8405 2.68611 39.4058C3.48812 38.9485 4.29399 38.4987 5.11339 38.0377C4.98198 37.841 4.8641 37.6686 4.73461 37.4755C4.1935 37.7773 3.66592 38.0733 3.13833 38.3657C2.40396 38.7723 1.94981 38.525 1.94981 37.7079C1.94788 33.2722 1.94788 28.8365 1.94788 24.4007C1.94788 24.2321 1.94788 24.0634 1.94788 23.8723C1.86864 23.8479 1.80487 23.8254 1.73916 23.8067C0.745833 23.5424 0.229842 22.8959 0.229842 21.8933C0.225977 18.9268 0.22791 15.9603 0.22791 12.9938C0.22791 10.0703 0.225977 7.14504 0.22791 4.22161C0.229842 1.7011 1.9846 0.00139023 4.58967 0.00139023C12.2522 -0.000483756 19.9148 -0.000483756 27.5773 0.00139023C30.2095 0.00139023 31.9546 1.69548 31.9546 4.2516C31.9565 10.0853 31.9546 15.9191 31.9546 21.7528C31.9546 23.1302 31.2279 23.8441 29.8017 23.8254C29.3205 23.8198 28.9011 23.9079 28.4856 24.1609C27.7126 24.6312 26.9087 25.0566 26.1009 25.5082C26.1975 25.7144 26.2787 25.8905 26.383 26.1098C27.1966 25.6525 27.9967 25.2047 28.7949 24.7568C29.8655 24.1571 30.4182 24.3014 31.0405 25.349C31.2666 25.7275 31.4908 26.1061 31.7149 26.4865C32.2251 27.3523 32.057 27.9576 31.1603 28.4617C28.0508 30.2101 24.9433 31.9604 21.8338 33.7088C17.8817 35.9314 13.9278 38.1521 9.97376 40.3746C9.36887 40.7138 8.97849 40.6894 8.76398 40.2978C8.55526 39.9155 8.72146 39.6119 9.31282 39.2783C16.299 35.3486 23.2852 31.4207 30.2713 27.4909C30.395 27.4216 30.5168 27.3448 30.6617 27.2567C30.3544 26.7413 30.0587 26.2447 29.736 25.7031C20.9139 30.6505 12.115 35.5828 3.28134 40.5358C3.58861 41.053 3.88429 41.5496 4.21089 42.0968C4.71336 41.8176 5.20036 41.5477 5.68543 41.2779C5.91347 41.1523 6.13571 41.0155 6.36762 40.8993C6.75799 40.7007 7.12325 40.7888 7.3107 41.113C7.49236 41.4278 7.40347 41.7707 7.03628 41.9806C6.2478 42.4341 5.44773 42.8651 4.65152 43.3074C4.6032 43.3336 4.55682 43.3674 4.51044 43.3973C4.30752 43.3973 4.10267 43.3973 3.89975 43.3973ZM15.5762 29.155C15.5762 27.3429 15.5762 25.6001 15.5762 23.8292C14.8863 23.8292 14.2312 23.8385 13.578 23.8254C13.2011 23.8179 12.9827 23.6005 12.9595 23.2407C12.9364 22.8772 13.1451 22.656 13.5045 22.583C13.6591 22.5511 13.8234 22.5623 13.9838 22.5623C19.2577 22.5623 24.5316 22.5623 29.8036 22.5605C30.4994 22.5605 30.6443 22.418 30.6443 21.7397C30.6443 15.8909 30.6462 10.0422 30.6443 4.19538C30.6443 2.42071 29.4654 1.27383 27.6431 1.27195C19.936 1.27008 12.231 1.27008 4.52397 1.27195C2.72476 1.27195 1.54011 2.42071 1.54011 4.16539C1.53818 10.0272 1.53818 15.8909 1.54011 21.7528C1.54011 22.4218 1.68698 22.5605 2.39236 22.5605C5.07281 22.5605 7.75326 22.5586 10.4337 22.5623C10.9787 22.5623 11.2763 22.8022 11.2686 23.2145C11.2608 23.6174 10.9864 23.8292 10.453 23.831C9.15629 23.8348 7.85955 23.831 6.56281 23.8329C6.46231 23.8329 6.36182 23.8535 6.14731 23.876C9.34761 25.6694 12.4416 27.401 15.5762 29.155ZM14.9597 30.2776C11.0598 28.0944 7.20828 25.9411 3.30066 23.7542C3.30066 28.1712 3.30066 32.4626 3.30066 36.7934C3.51324 36.6791 3.67365 36.5798 3.84178 36.5048C4.26887 36.3155 4.5201 36.0401 4.66698 35.5697C5.04575 34.3666 6.37535 33.6564 7.60638 33.9656C8.01029 34.0668 8.3137 34.0087 8.65962 33.8119C10.7313 32.6369 12.8127 31.4788 14.9597 30.2776ZM16.9619 23.8535C16.9619 25.6413 16.9619 27.3804 16.9619 29.155C18.3687 28.368 19.7331 27.6127 21.0821 26.835C21.2135 26.7582 21.3101 26.5577 21.3449 26.3984C21.6869 24.7943 23.2426 23.9416 24.8351 24.4925C24.9394 24.5282 25.0805 24.5881 25.1597 24.5488C25.5482 24.3576 25.9212 24.1365 26.2999 23.9247C26.2864 23.9004 26.2729 23.876 26.2574 23.8516C23.1634 23.8535 20.0694 23.8535 16.9619 23.8535ZM9.53507 35.5603C13.7016 33.2235 17.8508 30.8978 22.0232 28.5591C21.8647 28.3586 21.7372 28.1955 21.6019 28.0269C17.4508 30.3506 13.3364 32.6556 9.20653 34.9681C9.32442 35.178 9.41911 35.3504 9.53507 35.5603ZM23.948 25.4989C23.3779 25.5963 22.9141 25.8943 22.7228 26.344C22.5276 26.7994 22.6378 27.3354 22.9856 27.6783C23.1344 27.8245 23.2658 27.8788 23.4745 27.7495C23.8649 27.5059 24.2766 27.2942 24.6805 27.0674C25.2254 26.7619 25.295 26.4715 24.8389 26.033C24.5954 25.8006 24.2476 25.6732 23.948 25.4989ZM6.3251 37.3575C6.8952 37.0389 7.46337 36.7016 8.0528 36.3999C8.33689 36.2537 8.33302 36.0925 8.21127 35.8564C7.98516 35.416 7.52135 35.1499 7.00536 35.1762C6.4855 35.2024 6.04488 35.5378 5.87868 36.0307C5.71248 36.5217 5.85936 36.9714 6.3251 37.3575Z" fill="white"/>
<path d="M3.29298 8.3144C3.29298 7.2406 3.28911 6.16868 3.29298 5.09489C3.29684 3.87867 4.07373 3.10096 5.32602 3.08222C6.49135 3.06536 7.65667 3.06723 8.82007 3.08222C10.0724 3.09722 10.8589 3.8693 10.8628 5.08739C10.8724 7.26122 10.8724 9.43692 10.8628 11.6107C10.857 12.8288 10.0685 13.5822 8.80654 13.5953C7.65667 13.6065 6.50487 13.6065 5.35501 13.5953C4.0718 13.5822 3.29684 12.8176 3.29298 11.5751C3.28911 10.4901 3.29298 9.40131 3.29298 8.3144ZM4.60325 8.34064C4.60325 9.41256 4.60131 10.4864 4.60518 11.5583C4.60711 12.1205 4.81003 12.321 5.39559 12.3247C6.51647 12.3322 7.63735 12.3304 8.75823 12.3247C9.34572 12.321 9.55444 12.1242 9.55444 11.562C9.56023 9.41631 9.56023 7.27246 9.55444 5.12675C9.5525 4.55893 9.34572 4.35841 8.76016 4.35466C7.63928 4.34717 6.5184 4.34717 5.39752 4.35466C4.81583 4.35841 4.60711 4.56642 4.60518 5.12487C4.60131 6.19492 4.60325 7.26871 4.60325 8.34064Z" fill="white"/>
<path d="M21.2831 8.30879C21.2831 7.22188 21.2773 6.13497 21.285 5.04805C21.2928 3.87681 22.058 3.1066 23.2698 3.08599C24.4641 3.06537 25.6584 3.06537 26.8508 3.08599C28.0586 3.1066 28.8258 3.87681 28.8316 5.05367C28.8394 7.25561 28.8413 9.45942 28.8316 11.6614C28.8258 12.8139 28.0567 13.5747 26.8701 13.5953C25.6623 13.6141 24.4525 13.6159 23.2446 13.5953C22.06 13.5747 21.2947 12.8064 21.287 11.6576C21.2773 10.5388 21.2831 9.42382 21.2831 8.30879ZM27.5214 8.30692C27.5214 7.24812 27.5252 6.19119 27.5194 5.13238C27.5175 4.55519 27.3262 4.35843 26.7425 4.35468C25.6217 4.34718 24.5027 4.34718 23.3818 4.35468C22.7924 4.35843 22.5953 4.55332 22.5934 5.12114C22.5914 7.26498 22.5914 9.4107 22.5934 11.5545C22.5934 12.1374 22.775 12.3229 23.3683 12.3266C24.4892 12.3341 25.6081 12.3322 26.729 12.3266C27.332 12.3229 27.5156 12.1448 27.5175 11.5677C27.5252 10.4789 27.5214 9.39196 27.5214 8.30692Z" fill="white"/>
<path d="M24.0348 17.8061C23.1169 17.8118 22.4173 17.5738 21.8066 17.0922C21.5457 16.8879 21.2964 16.6705 21.0259 16.4794C20.3186 15.9809 19.3639 15.9846 18.6604 16.485C18.415 16.6593 18.187 16.8598 17.9492 17.0453C16.61 18.0797 14.9461 18.0741 13.6203 17.0341C13.3942 16.856 13.1759 16.6686 12.9401 16.5018C12.1845 15.9621 11.2143 15.9771 10.4703 16.5393C10.2171 16.7305 9.97942 16.9385 9.72432 17.1278C8.47396 18.061 6.78684 18.0516 5.56741 17.0828C4.94512 16.588 4.35763 16.0764 3.46866 16.0802C3.13433 16.0821 2.95653 15.7747 2.96619 15.4393C2.97392 15.1057 3.25801 14.8471 3.64065 14.8452C4.31125 14.8415 4.93546 15.0176 5.48624 15.3981C5.75873 15.5873 6.01383 15.7972 6.27279 16.0034C7.19655 16.7361 8.15702 16.7417 9.08465 15.9977C9.70499 15.5011 10.3157 15.0139 11.1544 14.8902C12.113 14.7497 12.9749 14.9352 13.7479 15.4993C14.003 15.6867 14.2426 15.8947 14.4939 16.0858C15.2901 16.6967 16.2718 16.7024 17.068 16.1008C17.2864 15.9359 17.4951 15.7597 17.7115 15.593C19.0315 14.5773 20.6896 14.5829 22.0057 15.6061C22.2105 15.7654 22.4076 15.9322 22.6125 16.0896C23.4242 16.708 24.4098 16.7005 25.2214 16.0727C25.4939 15.8609 25.7587 15.6379 26.037 15.4355C26.5781 15.042 27.1984 14.8584 27.869 14.8434C28.3 14.834 28.6015 15.0945 28.6189 15.4543C28.6343 15.8141 28.3599 16.0896 27.9193 16.1064C27.3318 16.1289 26.8602 16.3725 26.4389 16.7455C25.722 17.3864 24.9219 17.8436 24.0348 17.8061Z" fill="white"/>
<path d="M13.6127 8.37251C13.6127 9.43131 13.6088 10.4901 13.6146 11.5489C13.6165 12.1149 13.8214 12.3191 14.3992 12.3229C15.5356 12.3304 16.6719 12.3304 17.8063 12.3229C18.3552 12.3191 18.56 12.1074 18.5658 11.5658C18.5716 11.0429 18.5619 10.5201 18.5697 9.99913C18.5755 9.555 18.8132 9.29264 19.1958 9.28139C19.5881 9.27015 19.8664 9.54937 19.8761 10.001C19.8877 10.5801 19.8954 11.1591 19.8741 11.7382C19.8374 12.7932 19.0799 13.5597 17.9938 13.5859C16.7279 13.6178 15.4602 13.6159 14.1944 13.5859C13.0909 13.5597 12.314 12.7764 12.3063 11.7026C12.2908 9.45755 12.2908 7.21251 12.3063 4.96747C12.314 3.93303 13.0522 3.14408 14.1209 3.10285C15.4293 3.05225 16.7434 3.05225 18.0517 3.10098C19.1204 3.14221 19.8451 3.92179 19.8741 4.95998C19.8935 5.6646 19.8857 6.37296 19.8761 7.07758C19.8703 7.54608 19.621 7.81593 19.2209 7.81781C18.8151 7.81968 18.5735 7.5592 18.5697 7.08695C18.5619 6.45167 18.5697 5.81639 18.5677 5.18111C18.5639 4.55707 18.3687 4.35468 17.7445 4.35093C16.6371 4.34531 15.5317 4.34343 14.4243 4.35093C13.8195 4.35468 13.6165 4.56082 13.6146 5.15112C13.6107 6.22679 13.6127 7.30059 13.6127 8.37251Z" fill="white"/>
</svg>
