<svg width="17" height="15" viewBox="0 0 17 15" fill="none" xmlns="http://www.w3.org/2000/svg">
<path d="M7.99407 14.2012C7.80597 14.2012 7.52382 14.1072 7.33572 14.0131C6.67739 13.4488 6.01903 12.8845 5.54879 12.4143C4.13807 11.2857 2.82139 10.0631 1.59877 8.65238C0.658289 7.61786 0.0940478 6.20713 0 4.79642C0 3.5738 0.470228 2.3512 1.22261 1.41072C2.06904 0.470239 3.19758 0 4.4202 0C5.36068 0 6.20712 0.282138 6.95951 0.846425C7.3357 1.12857 7.71192 1.50477 7.99407 1.88096C8.27621 1.50477 8.65238 1.12857 9.02857 0.846425C9.78095 0.282138 10.6274 0 11.5679 0C12.7905 0 13.919 0.470239 14.7655 1.41072C15.6119 2.3512 16.0822 3.5738 15.9881 4.79642C15.9881 6.20713 15.4238 7.61786 14.3893 8.65238C13.1667 9.96905 11.85 11.2857 10.4393 12.4143C9.875 12.8845 9.31069 13.4488 8.65236 14.0131C8.46426 14.1072 8.27621 14.2012 7.99407 14.2012ZM4.51429 0.846425C3.57381 0.846425 2.63332 1.2226 1.97498 1.97498C1.31665 2.72736 0.940478 3.76189 0.940478 4.79642C0.940478 6.01904 1.50477 7.24166 2.3512 8.08809C3.57382 9.40476 4.79642 10.6274 6.20713 11.6619C6.77142 12.1322 7.42978 12.6964 7.99407 13.2607C8.6524 12.6964 9.31074 12.1322 9.87502 11.6619C11.2857 10.5334 12.5083 9.31071 13.731 8.08809C14.5774 7.14761 15.0476 6.01904 15.1417 4.79642C15.1417 3.76189 14.7655 2.82141 14.1072 1.97498C13.4488 1.31665 12.5084 0.846425 11.5679 0.846425C10.9095 0.846425 10.1571 1.0345 9.59283 1.50474C9.12259 1.88093 8.74645 2.25714 8.46431 2.72738C8.27621 3.00953 7.9 3.10356 7.61785 2.91546C7.5238 2.82141 7.42975 2.82143 7.42975 2.72738C7.1476 2.25714 6.7714 1.78689 6.30116 1.50474C5.92497 1.12855 5.17262 0.846425 4.51429 0.846425Z" fill="#E7245B"/>
<path d="M14.7556 1.42222C13.9556 0.444444 12.8 0 11.5556 0C10.5778 0 9.77778 0.266667 8.97778 0.888889C8.62222 1.15556 8.26667 1.51111 8 1.86667C7.73333 1.51111 7.37778 1.15556 6.93333 0.888889C6.22222 0.266667 5.33333 0 4.44444 0C3.2 0 2.04444 0.444444 1.24444 1.42222C0.444444 2.31111 0 3.55556 0 4.8C0.0888889 6.22222 0.622222 7.64444 1.6 8.62222C2.84444 10.0444 4.17778 11.2889 5.51111 12.3556C5.95555 12.8 6.66667 13.4222 7.28889 13.9556C7.55555 14.1333 7.82222 14.2222 8 14.2222C8.26667 14.2222 8.44444 14.1333 8.62222 14.0444C9.24444 13.5111 9.86667 12.8889 10.4 12.4444C11.8222 11.2889 13.1556 9.95556 14.3111 8.71111C15.4667 7.64444 16 6.22222 16 4.8C16.0889 3.55556 15.6444 2.31111 14.7556 1.42222Z" fill="#E7245B"/>
</svg>
