<svg width="45" height="35" viewBox="0 0 45 35" fill="none" xmlns="http://www.w3.org/2000/svg">
<path d="M44.2473 34.3394C43.9909 34.7083 43.6127 34.7476 43.1939 34.7476C29.1754 34.7427 15.1595 34.7427 1.14101 34.7427C1.01156 34.7427 0.88211 34.7501 0.752662 34.7378C0.328782 34.6985 0.0901916 34.4722 0.0851152 34.0615C0.0749624 33.0875 0.0724242 32.1112 0.0851152 31.1372C0.0901916 30.7265 0.336397 30.5027 0.762815 30.4855C1.02679 30.4732 1.29076 30.483 1.62073 30.483C1.53443 30.3675 1.50651 30.3207 1.46843 30.2838C0.50138 29.2927 0.0724242 28.1146 0.0749624 26.7546C0.0851152 18.3681 0.0800388 9.98151 0.0800388 1.59497C0.0800388 0.866991 0.27548 0.672699 1.01917 0.672699C2.77307 0.67024 4.52697 0.67024 6.28086 0.675158C6.43823 0.675158 6.60068 0.682537 6.74789 0.724346C7.06517 0.812885 7.22507 1.04653 7.20223 1.35395C7.18192 1.654 7.00425 1.87288 6.67428 1.92207C6.51945 1.94421 6.35955 1.94421 6.20218 1.94421C4.76556 1.94667 3.3264 1.94421 1.88978 1.94421C1.73495 1.94421 1.58012 1.94421 1.41259 1.94421C1.41259 8.28453 1.41259 14.5732 1.41259 20.9037C1.62326 20.9037 1.80602 20.9037 1.9913 20.9037C8.79114 20.9037 15.591 20.9037 22.3934 20.9062C22.5939 20.9062 22.8401 20.8693 22.9797 20.9652C23.1777 21.1029 23.3833 21.3292 23.4264 21.5481C23.4822 21.8383 23.2716 22.0793 22.9467 22.1432C22.7512 22.1826 22.5482 22.1801 22.3477 22.1801C15.5605 22.1826 8.77591 22.1826 1.98877 22.1826C1.80601 22.1826 1.62326 22.1826 1.41767 22.1826C1.41767 23.5844 1.41767 24.9396 1.41767 26.3242C1.61819 26.3242 1.79079 26.3242 1.96085 26.3242C8.19974 26.3242 14.4412 26.3267 20.6801 26.3168C21.175 26.3168 21.4771 26.4816 21.6877 26.9243C22.2081 28.0089 22.7715 29.0738 23.3071 30.151C23.4188 30.3748 23.5381 30.483 23.8198 30.483C27.0408 30.4707 30.2618 30.4806 33.4802 30.4707C33.9752 30.4683 34.4701 30.3896 35.0717 30.3379C33.8406 29.2263 32.9497 28.0138 32.338 26.6095C31.7263 25.2052 31.4877 23.7345 31.4928 22.1801C31.2821 22.1801 31.1121 22.1801 30.9446 22.1801C29.3633 22.1801 27.782 22.1801 26.2007 22.1777C26.0433 22.1777 25.8834 22.1752 25.7286 22.1482C25.4037 22.0916 25.2184 21.8776 25.2031 21.5702C25.1854 21.2406 25.3681 21.0119 25.7057 20.9332C25.858 20.8988 26.0179 20.8988 26.1753 20.8988C27.8429 20.8963 29.5105 20.8963 31.1781 20.8963C31.3329 20.8963 31.4852 20.8963 31.6502 20.8963C32.102 18.5501 33.2036 16.5899 35.0818 14.8856C34.4041 14.8413 33.8559 14.7773 33.3076 14.7749C31.2897 14.77 29.4191 14.2805 27.6982 13.2525C27.5383 13.1566 27.3276 13.1049 27.1373 13.1025C26.1448 13.0853 25.1524 13.1295 24.1625 13.0804C21.8502 12.9648 20.0481 11.954 18.949 9.97168C18.4591 9.08875 18.1901 8.08532 17.8677 7.12124C17.718 6.67117 18.0327 6.33177 18.5353 6.32685C19.614 6.31701 20.6928 6.32439 21.769 6.32439C22.0609 6.32439 22.3527 6.32439 22.6979 6.32439C22.6167 6.17191 22.5761 6.08583 22.5228 6.00467C20.977 3.59446 18.7536 2.19015 15.8346 1.99585C13.8878 1.86797 11.9258 1.94913 9.97141 1.93437C9.79881 1.93191 9.58814 1.97372 9.46377 1.89256C9.26832 1.76713 9.01197 1.56054 9.00181 1.37609C8.98912 1.1695 9.18456 0.916179 9.35716 0.744022C9.45107 0.650564 9.68205 0.662861 9.85211 0.662861C11.5629 0.657943 13.2736 0.630889 14.9844 0.672699C15.7991 0.692374 16.6291 0.761237 17.4159 0.95307C21.0633 1.84583 23.4163 4.08142 24.6574 7.51474C25.9367 11.0489 28.5637 13.0115 32.3964 13.4443C33.2239 13.5378 34.0691 13.4985 34.8864 13.6288C38.7267 14.2437 41.8284 17.0892 42.6076 20.6602C43.4223 24.3985 41.8766 28.0753 38.5845 30.2273C38.5033 30.2814 38.4322 30.3502 38.2876 30.4683C40.0465 30.4683 41.6989 30.4757 43.3513 30.4634C43.7472 30.4609 44.0544 30.5568 44.2473 30.9036C44.2473 32.0546 44.2473 33.1982 44.2473 34.3394ZM36.2189 29.6272C36.4474 29.8165 36.625 29.8461 36.9017 29.7059C39.846 28.2106 41.473 25.8717 41.4857 22.6425C41.4959 19.4305 39.8892 17.0916 36.9804 15.5717C36.6504 15.3996 36.4321 15.434 36.1529 15.6701C33.9701 17.5171 32.871 19.8437 32.8051 22.64C32.8837 25.4585 34.0031 27.7925 36.2189 29.6272ZM42.9426 32.2243C42.9426 32.0866 42.9426 31.9488 42.9426 31.7791C29.0891 31.7791 15.261 31.7791 1.40752 31.7791C1.40752 32.3202 1.40752 32.8588 1.40752 33.4319C15.2331 33.4319 29.0637 33.4319 42.9426 33.4319C42.9426 33.0039 42.9426 32.6153 42.9426 32.2243ZM23.2868 7.60574C21.9822 7.60574 20.708 7.60574 19.4313 7.60574C20.0303 10.5103 22.2233 12.2048 25.8098 11.7818C24.5864 10.5595 23.7818 9.16745 23.2868 7.60574ZM11.5984 27.6203C11.6822 29.1181 13.4081 30.5052 15.1392 30.4806C16.8652 30.456 18.5607 29.0615 18.5937 27.6203C16.2611 27.6203 13.931 27.6203 11.5984 27.6203ZM5.1209 30.4757C6.83165 30.4043 8.41549 29.0836 8.5094 27.6252C6.1768 27.6252 3.84673 27.6252 1.48874 27.6252C1.74002 29.2681 3.38478 30.547 5.1209 30.4757ZM22.0025 30.4609C21.5304 29.5288 21.0887 28.6311 20.6141 27.7507C20.5608 27.6523 20.3273 27.6203 20.175 27.6129C20.1014 27.608 19.9668 27.7211 19.9516 27.7974C19.7663 28.8131 19.2663 29.669 18.4693 30.4609C19.6902 30.4609 20.8146 30.4609 22.0025 30.4609ZM11.6822 30.4585C11.6035 30.3552 11.5527 30.2814 11.4918 30.2174C10.8598 29.5436 10.4486 28.7615 10.2557 27.8687C10.2354 27.7703 10.1262 27.6916 10.0577 27.6031C9.98664 27.6744 9.86734 27.7384 9.85211 27.8195C9.66428 28.823 9.17695 29.669 8.36726 30.4609C9.52214 30.4585 10.5755 30.4585 11.6822 30.4585Z" fill="white"/>
<path d="M6.85192 13.1074C6.40774 13.1099 6.10823 12.9648 5.96863 12.5393C5.38738 10.7784 4.79852 9.01989 4.21981 7.2565C4.03198 6.68592 4.30865 6.33669 4.93558 6.33423C7.23519 6.33177 9.53734 6.2998 11.8344 6.34407C14.0528 6.38834 15.794 7.35242 17.0758 9.10597C17.7281 9.99873 17.9895 11.0489 18.3373 12.0622C18.5708 12.7483 18.2992 13.1 17.5479 13.1025C15.7788 13.1049 14.0122 13.1025 12.2431 13.1025C10.446 13.1025 8.64897 13.0976 6.85192 13.1074ZM6.74532 10.7341C7.11082 11.8359 7.11336 11.8359 8.32916 11.8359C10.9892 11.8359 13.6467 11.8359 16.3067 11.8359C16.4717 11.8359 16.6392 11.8359 16.8575 11.8359C16.3981 9.95938 15.3625 8.62393 13.5452 7.94759C13.0071 7.74592 12.403 7.62541 11.8268 7.61312C9.87238 7.57131 7.91797 7.5959 5.96355 7.5959C5.89502 7.5959 5.82649 7.6082 5.71735 7.62049C6.06254 8.67312 6.40266 9.7036 6.74532 10.7341Z" fill="white"/>
<path d="M26.2031 28.759C25.3173 28.7221 24.6624 28.0704 24.6421 27.2317C24.6218 26.3832 25.2259 25.6725 26.1117 25.6282C27.0838 25.579 28.0636 25.579 29.0383 25.6257C29.9139 25.67 30.546 26.398 30.5256 27.2244C30.5028 28.0556 29.8378 28.7197 28.9621 28.759C28.5027 28.7787 28.0433 28.7615 27.5839 28.7639C27.1219 28.7639 26.6625 28.7787 26.2031 28.759ZM28.8022 27.4826C28.9443 27.4678 29.0713 27.3031 29.2058 27.2071C29.0713 27.0989 28.9393 26.8997 28.7997 26.8948C27.9849 26.8653 27.1676 26.8677 26.3503 26.8923C26.2158 26.8973 26.0863 27.0719 25.9543 27.1678C26.0889 27.276 26.2132 27.4654 26.3554 27.4801C26.7666 27.5219 27.1854 27.4949 27.5991 27.4949C28.0027 27.4973 28.4062 27.5219 28.8022 27.4826Z" fill="white"/>
</svg>
