<svg width="16" height="16" viewBox="0 0 16 16" fill="none" xmlns="http://www.w3.org/2000/svg">
<path d="M8 0C3.58862 0 0 3.58862 0 8C0 12.4114 3.58862 16 8 16C12.4114 16 16 12.4114 16 8C16 3.58862 12.4114 0 8 0ZM8 3.33337C8.36804 3.33337 8.66663 3.63196 8.66663 4C8.66663 4.36804 8.36804 4.66663 8 4.66663C7.63196 4.66663 7.33337 4.36804 7.33337 4C7.33337 3.63196 7.63196 3.33337 8 3.33337ZM9.5 12.6666H6.5C6.13135 12.6666 5.83337 12.368 5.83337 12C5.83337 11.632 6.13135 11.3334 6.5 11.3334H7.33337V7.33337H6.83337C6.46472 7.33337 6.16663 7.03467 6.16663 6.66663C6.16663 6.29871 6.46472 6 6.83337 6H8C8.36865 6 8.66663 6.29871 8.66663 6.66663V11.3334H9.5C9.86865 11.3334 10.1666 11.632 10.1666 12C10.1666 12.368 9.86865 12.6666 9.5 12.6666Z" fill="#414142"/>
</svg>
