<svg width="26" height="25" viewBox="0 0 26 25" fill="none" xmlns="http://www.w3.org/2000/svg">
<g clip-path="url(#clip0)">
<path d="M25.8362 7.35007C25.7757 6.02172 25.5534 5.1085 25.2351 4.31717C24.9067 3.4772 24.4015 2.72518 23.7396 2.10002C23.0929 1.46513 22.3098 0.971793 21.4509 0.659309C20.6276 0.351593 19.6878 0.136784 18.3136 0.0782166C16.9292 0.0146894 16.4897 0 12.9785 0C9.46722 0 9.02772 0.0146894 7.64844 0.0732565C6.27429 0.131824 5.32957 0.346824 4.51116 0.654348C3.64203 0.971793 2.86407 1.46017 2.21735 2.10002C1.56057 2.72518 1.05042 3.48216 0.726965 4.3124C0.408639 5.1085 0.186422 6.01676 0.125836 7.34511C0.0601178 8.68338 0.0449219 9.10822 0.0449219 12.5024C0.0449219 15.8967 0.0601178 16.3215 0.120704 17.6548C0.181291 18.9832 0.403705 19.8964 0.722031 20.6877C1.05042 21.5277 1.56057 22.2797 2.21735 22.9049C2.86407 23.5398 3.64716 24.0331 4.50603 24.3456C5.32957 24.6533 6.26916 24.8681 7.6435 24.9267C9.02259 24.9854 9.46229 24.9999 12.9735 24.9999C16.4848 24.9999 16.9243 24.9854 18.3036 24.9267C19.6777 24.8681 20.6224 24.6533 21.4409 24.3456C23.1789 23.696 24.5531 22.3677 25.2251 20.6877C25.5432 19.8916 25.7656 18.9832 25.8262 17.6548C25.8868 16.3215 25.902 15.8967 25.902 12.5024C25.902 9.10822 25.8968 8.68338 25.8362 7.35007ZM23.5073 17.5571C23.4517 18.7781 23.2395 19.4374 23.0627 19.8769C22.6281 20.966 21.7339 21.8304 20.6073 22.2505C20.1526 22.4214 19.4656 22.6265 18.2075 22.6801C16.8434 22.7389 16.4343 22.7534 12.9836 22.7534C9.53294 22.7534 9.1187 22.7389 7.75955 22.6801C6.4965 22.6265 5.81446 22.4214 5.35977 22.2505C4.79909 22.0502 4.28874 21.7328 3.87451 21.3176C3.44507 20.9123 3.11668 20.4239 2.90946 19.8819C2.73264 19.4424 2.52049 18.7781 2.46503 17.5621C2.40425 16.2435 2.38925 15.8478 2.38925 12.5122C2.38925 9.17652 2.40425 8.77609 2.46503 7.46243C2.52049 6.24149 2.73264 5.58218 2.90946 5.14264C3.11668 4.60047 3.44507 4.10732 3.87964 3.7067C4.29881 3.29158 4.80403 2.97414 5.3649 2.77402C5.81959 2.60309 6.50677 2.39801 7.76468 2.34421C9.12876 2.28564 9.53807 2.27095 12.9885 2.27095C16.4443 2.27095 16.8535 2.28564 18.2126 2.34421C19.4756 2.39801 20.1577 2.60309 20.6124 2.77402C21.1731 2.97414 21.6834 3.29158 22.0976 3.7067C22.5271 4.11209 22.8555 4.60047 23.0627 5.14264C23.2395 5.58218 23.4517 6.24626 23.5073 7.46243C23.5679 8.78105 23.5831 9.17652 23.5831 12.5122C23.5831 15.8478 23.5679 16.2385 23.5073 17.5571Z" fill="#13B4C9"/>
<path d="M12.9786 6.08032C9.31081 6.08032 6.33496 8.95679 6.33496 12.5025C6.33496 16.0482 9.31081 18.9246 12.9786 18.9246C16.6465 18.9246 19.6222 16.0482 19.6222 12.5025C19.6222 8.95679 16.6465 6.08032 12.9786 6.08032ZM12.9786 16.6684C10.5991 16.6684 8.66903 14.8028 8.66903 12.5025C8.66903 10.2021 10.5991 8.33658 12.9786 8.33658C15.3582 8.33658 17.2881 10.2021 17.2881 12.5025C17.2881 14.8028 15.3582 16.6684 12.9786 16.6684Z" fill="#13B4C9"/>
<path d="M21.4361 5.82643C21.4361 6.65438 20.7417 7.32571 19.885 7.32571C19.0285 7.32571 18.334 6.65438 18.334 5.82643C18.334 4.99829 19.0285 4.32715 19.885 4.32715C20.7417 4.32715 21.4361 4.99829 21.4361 5.82643Z" fill="#13B4C9"/>
</g>
<defs>
<clipPath id="clip0">
<rect width="25.8621" height="25" fill="white"/>
</clipPath>
</defs>
</svg>
