<svg width="29" height="27" viewBox="0 0 29 27" fill="none" xmlns="http://www.w3.org/2000/svg">
<g clip-path="url(#clip0)">
<path d="M28.3287 7.87529C28.2638 6.45203 28.0257 5.47354 27.6846 4.62567C27.3327 3.72568 26.7914 2.91992 26.0822 2.25008C25.3893 1.56983 24.5502 1.04124 23.63 0.706422C22.7478 0.376717 21.7409 0.146558 20.2685 0.0838058C18.7852 0.0157391 18.3143 0 14.5521 0C10.7899 0 10.319 0.0157391 8.84119 0.0784913C7.36884 0.141243 6.35662 0.371607 5.47972 0.701107C4.54849 1.04124 3.71494 1.56451 3.02201 2.25008C2.31829 2.91992 1.77169 3.73099 1.42512 4.62056C1.08404 5.47354 0.845948 6.44671 0.781032 7.86998C0.710618 9.30388 0.694336 9.75909 0.694336 13.3958C0.694336 17.0326 0.710618 17.4878 0.775534 18.9164C0.84045 20.3397 1.07876 21.3182 1.41983 22.166C1.77169 23.066 2.31829 23.8718 3.02201 24.5416C3.71494 25.2219 4.55398 25.7505 5.47423 26.0853C6.35662 26.415 7.36334 26.6451 8.8359 26.7079C10.3135 26.7708 10.7846 26.7864 14.5468 26.7864C18.309 26.7864 18.7799 26.7708 20.2577 26.7079C21.7301 26.6451 22.7423 26.415 23.6192 26.0853C25.4815 25.3893 26.9538 23.966 27.6738 22.166C28.0147 21.313 28.253 20.3397 28.3179 18.9164C28.3828 17.4878 28.3991 17.0326 28.3991 13.3958C28.3991 9.75909 28.3936 9.30388 28.3287 7.87529ZM25.8333 18.8117C25.7737 20.1199 25.5464 20.8264 25.3569 21.2973C24.8913 22.4643 23.9332 23.3904 22.726 23.8405C22.2388 24.0237 21.5028 24.2434 20.1548 24.3008C18.6932 24.3638 18.2549 24.3793 14.5576 24.3793C10.8603 24.3793 10.4165 24.3638 8.96024 24.3008C7.60694 24.2434 6.87616 24.0237 6.38897 23.8405C5.78823 23.6259 5.24142 23.2858 4.79758 22.841C4.33746 22.4066 3.9856 21.8833 3.76357 21.3026C3.57411 20.8317 3.3468 20.1199 3.28738 18.8171C3.22225 17.4042 3.20618 16.9803 3.20618 13.4063C3.20618 9.83226 3.22225 9.40322 3.28738 7.99569C3.3468 6.6875 3.57411 5.98108 3.76357 5.51013C3.9856 4.92921 4.33746 4.40083 4.80307 3.97158C5.2522 3.52679 5.79352 3.18667 6.39447 2.97224C6.88165 2.7891 7.61793 2.56936 8.96573 2.51172C10.4273 2.44897 10.8658 2.43323 14.5629 2.43323C18.2656 2.43323 18.704 2.44897 20.1603 2.51172C21.5135 2.56936 22.2443 2.7891 22.7315 2.97224C23.3323 3.18667 23.8791 3.52679 24.3229 3.97158C24.783 4.40594 25.1349 4.92921 25.3569 5.51013C25.5464 5.98108 25.7737 6.69261 25.8333 7.99569C25.8982 9.40853 25.9145 9.83226 25.9145 13.4063C25.9145 16.9803 25.8982 17.3989 25.8333 18.8117Z" fill="white"/>
<path d="M14.5512 6.51465C10.6214 6.51465 7.43286 9.59666 7.43286 13.3957C7.43286 17.1948 10.6214 20.2768 14.5512 20.2768C18.4813 20.2768 21.6696 17.1948 21.6696 13.3957C21.6696 9.59666 18.4813 6.51465 14.5512 6.51465ZM14.5512 17.8593C12.0017 17.8593 9.93371 15.8604 9.93371 13.3957C9.93371 10.931 12.0017 8.93214 14.5512 8.93214C17.1009 8.93214 19.1687 10.931 19.1687 13.3957C19.1687 15.8604 17.1009 17.8593 14.5512 17.8593Z" fill="white"/>
<path d="M23.6129 6.24265C23.6129 7.12976 22.8688 7.84906 21.9509 7.84906C21.0332 7.84906 20.2891 7.12976 20.2891 6.24265C20.2891 5.35533 21.0332 4.63623 21.9509 4.63623C22.8688 4.63623 23.6129 5.35533 23.6129 6.24265Z" fill="white"/>
</g>
<defs>
<clipPath id="clip0">
<rect width="27.7101" height="26.7865" fill="white" transform="translate(0.644775)"/>
</clipPath>
</defs>
</svg>
