<svg width="27" height="25" viewBox="0 0 27 25" fill="none" xmlns="http://www.w3.org/2000/svg">
<g clip-path="url(#clip0)">
<path d="M26.4056 7.35007C26.345 6.02172 26.1228 5.1085 25.8045 4.31717C25.4761 3.4772 24.9708 2.72518 24.3089 2.10002C23.6622 1.46513 22.8791 0.971793 22.0203 0.659309C21.1969 0.351593 20.2571 0.136784 18.883 0.0782166C17.4986 0.0146894 17.0591 0 13.5478 0C10.0366 0 9.59706 0.0146894 8.21777 0.0732565C6.84362 0.131824 5.89891 0.346824 5.08049 0.654348C4.21136 0.971793 3.43341 1.46017 2.78669 2.10002C2.12991 2.72518 1.61976 3.48216 1.2963 4.3124C0.977975 5.1085 0.755758 6.01676 0.695171 7.34511C0.629454 8.68338 0.614258 9.10822 0.614258 12.5024C0.614258 15.8967 0.629454 16.3215 0.69004 17.6548C0.750627 18.9832 0.973041 19.8964 1.29137 20.6877C1.61976 21.5277 2.12991 22.2797 2.78669 22.9049C3.43341 23.5398 4.21649 24.0331 5.07536 24.3456C5.89891 24.6533 6.83849 24.8681 8.21284 24.9267C9.59192 24.9854 10.0316 24.9999 13.5429 24.9999C17.0541 24.9999 17.4936 24.9854 18.8729 24.9267C20.2471 24.8681 21.1918 24.6533 22.0102 24.3456C23.7483 23.696 25.1224 22.3677 25.7944 20.6877C26.1125 19.8916 26.3349 18.9832 26.3955 17.6548C26.4561 16.3215 26.4713 15.8967 26.4713 12.5024C26.4713 9.10822 26.4662 8.68338 26.4056 7.35007ZM24.0767 17.5571C24.021 18.7781 23.8088 19.4374 23.632 19.8769C23.1975 20.966 22.3033 21.8304 21.1766 22.2505C20.7219 22.4214 20.0349 22.6265 18.7768 22.6801C17.4127 22.7389 17.0036 22.7534 13.5529 22.7534C10.1023 22.7534 9.68803 22.7389 8.32888 22.6801C7.06584 22.6265 6.3838 22.4214 5.9291 22.2505C5.36843 22.0502 4.85808 21.7328 4.44384 21.3176C4.01441 20.9123 3.68602 20.4239 3.4788 19.8819C3.30197 19.4424 3.08982 18.7781 3.03437 17.5621C2.97358 16.2435 2.95858 15.8478 2.95858 12.5122C2.95858 9.17652 2.97358 8.77609 3.03437 7.46243C3.08982 6.24149 3.30197 5.58218 3.4788 5.14264C3.68602 4.60047 4.01441 4.10732 4.44897 3.7067C4.86815 3.29158 5.37336 2.97414 5.93423 2.77402C6.38893 2.60309 7.0761 2.39801 8.33401 2.34421C9.6981 2.28564 10.1074 2.27095 13.5579 2.27095C17.0137 2.27095 17.4228 2.28564 18.7819 2.34421C20.045 2.39801 20.727 2.60309 21.1817 2.77402C21.7424 2.97414 22.2527 3.29158 22.667 3.7067C23.0964 4.11209 23.4248 4.60047 23.632 5.14264C23.8088 5.58218 24.021 6.24626 24.0767 7.46243C24.1372 8.78105 24.1524 9.17652 24.1524 12.5122C24.1524 15.8478 24.1372 16.2385 24.0767 17.5571Z" fill="#E7245B"/>
<path d="M13.5479 6.08008C9.88015 6.08008 6.9043 8.95654 6.9043 12.5022C6.9043 16.0479 9.88015 18.9244 13.5479 18.9244C17.2159 18.9244 20.1915 16.0479 20.1915 12.5022C20.1915 8.95654 17.2159 6.08008 13.5479 6.08008ZM13.5479 16.6681C11.1684 16.6681 9.23836 14.8026 9.23836 12.5022C9.23836 10.2019 11.1684 8.33634 13.5479 8.33634C15.9276 8.33634 17.8574 10.2019 17.8574 12.5022C17.8574 14.8026 15.9276 16.6681 13.5479 16.6681Z" fill="#E7245B"/>
<path d="M22.0052 5.82643C22.0052 6.65438 21.3108 7.32571 20.4541 7.32571C19.5976 7.32571 18.9031 6.65438 18.9031 5.82643C18.9031 4.99829 19.5976 4.32715 20.4541 4.32715C21.3108 4.32715 22.0052 4.99829 22.0052 5.82643Z" fill="#E7245B"/>
</g>
<defs>
<clipPath id="clip0">
<rect width="25.8621" height="25" fill="white" transform="translate(0.568848)"/>
</clipPath>
</defs>
</svg>
