<svg width="16" height="16" viewBox="0 0 16 16" fill="none" xmlns="http://www.w3.org/2000/svg">
<g clip-path="url(#clip0)">
<path d="M15.9843 5.04065C15.9468 4.21885 15.8094 3.65386 15.6124 3.1643C15.4092 2.64464 15.0967 2.17939 14.6872 1.79262C14.2871 1.39984 13.8026 1.09462 13.2713 0.9013C12.7619 0.710927 12.1805 0.578032 11.3303 0.541798C10.4738 0.502496 10.2019 0.493408 8.02964 0.493408C5.85734 0.493408 5.58543 0.502496 4.73212 0.53873C3.88198 0.574963 3.29751 0.707977 2.79119 0.898232C2.25349 1.09462 1.77219 1.39677 1.37209 1.79262C0.965759 2.17939 0.650146 2.64771 0.450033 3.16135C0.253096 3.65386 0.115618 4.21578 0.0781347 5.03758C0.0374774 5.86552 0.0280762 6.12836 0.0280762 8.22825C0.0280762 10.3281 0.0374774 10.591 0.0749603 11.4159C0.112443 12.2377 0.250043 12.8026 0.446981 13.2922C0.650146 13.8119 0.965759 14.2771 1.37209 14.6639C1.77219 15.0567 2.25666 15.3619 2.78801 15.5552C3.29751 15.7456 3.8788 15.8785 4.72907 15.9147C5.58226 15.9511 5.85429 15.96 8.02658 15.96C10.1989 15.96 10.4708 15.9511 11.3241 15.9147C12.1742 15.8785 12.7587 15.7456 13.265 15.5552C14.3403 15.1533 15.1905 14.3315 15.6062 13.2922C15.803 12.7997 15.9406 12.2377 15.9781 11.4159C16.0156 10.591 16.025 10.3281 16.025 8.22825C16.025 6.12836 16.0218 5.86552 15.9843 5.04065ZM14.5435 11.3554C14.509 12.1108 14.3778 12.5187 14.2684 12.7906C13.9996 13.4644 13.4463 13.9992 12.7493 14.2591C12.468 14.3648 12.043 14.4917 11.2646 14.5249C10.4207 14.5612 10.1676 14.5702 8.03281 14.5702C5.89799 14.5702 5.64172 14.5612 4.80086 14.5249C4.01945 14.4917 3.5975 14.3648 3.31619 14.2591C2.96932 14.1351 2.65359 13.9387 2.39731 13.6819C2.13164 13.4311 1.92847 13.129 1.80027 12.7937C1.69088 12.5217 1.55962 12.1108 1.52532 11.3585C1.48771 10.5427 1.47843 10.2979 1.47843 8.23427C1.47843 6.17062 1.48771 5.92288 1.52532 5.11017C1.55962 4.35481 1.69088 3.94692 1.80027 3.67499C1.92847 3.33957 2.13164 3.03447 2.40049 2.78662C2.65981 2.5298 2.97238 2.33341 3.31937 2.2096C3.60067 2.10385 4.0258 1.97697 4.80403 1.94369C5.64795 1.90746 5.90117 1.89837 8.03586 1.89837C10.1739 1.89837 10.427 1.90746 11.2678 1.94369C12.0492 1.97697 12.4712 2.10385 12.7525 2.2096C13.0994 2.33341 13.4151 2.5298 13.6714 2.78662C13.937 3.03742 14.1402 3.33957 14.2684 3.67499C14.3778 3.94692 14.509 4.35776 14.5435 5.11017C14.581 5.92595 14.5904 6.17062 14.5904 8.23427C14.5904 10.2979 14.581 10.5396 14.5435 11.3554Z" fill="#E7245B"/>
<path d="M8.02961 4.25513C5.76049 4.25513 3.91943 6.0347 3.91943 8.2283C3.91943 10.4219 5.76049 12.2015 8.02961 12.2015C10.2989 12.2015 12.1398 10.4219 12.1398 8.2283C12.1398 6.0347 10.2989 4.25513 8.02961 4.25513ZM8.02961 10.8056C6.55752 10.8056 5.36344 9.65144 5.36344 8.2283C5.36344 6.80516 6.55752 5.651 8.02961 5.651C9.50182 5.651 10.6958 6.80516 10.6958 8.2283C10.6958 9.65144 9.50182 10.8056 8.02961 10.8056Z" fill="#E7245B"/>
<path d="M13.262 4.09796C13.262 4.61019 12.8323 5.02552 12.3023 5.02552C11.7724 5.02552 11.3428 4.61019 11.3428 4.09796C11.3428 3.58562 11.7724 3.17041 12.3023 3.17041C12.8323 3.17041 13.262 3.58562 13.262 4.09796Z" fill="#E7245B"/>
</g>
<defs>
<clipPath id="clip0">
<rect width="16" height="15.4667" fill="white" transform="translate(0 0.493408)"/>
</clipPath>
</defs>
</svg>
