<svg width="16" height="17" viewBox="0 0 16 17" fill="none" xmlns="http://www.w3.org/2000/svg">
<path d="M11.2547 6.88031C11.2547 8.52009 9.92522 9.84952 8.28562 9.84952C6.64584 9.84952 5.31641 8.51991 5.31641 6.88031C5.31641 5.2407 6.64584 3.91127 8.28562 3.91127C9.92522 3.91127 11.2547 5.2407 11.2547 6.88031ZM14.5696 6.77722C14.5696 3.30672 11.7563 0.493408 8.28544 0.493408C4.81531 0.493408 2.002 3.30654 2.00145 6.77649L2 6.77722C2 6.98829 2.01343 7.19738 2.03321 7.40591C2.03448 7.41716 2.03575 7.42787 2.03702 7.43876C2.52633 12.3813 8.28562 16.4934 8.28562 16.4934C8.28562 16.4934 14.5696 12.4848 14.5696 6.77722Z" fill="#E7245B"/>
<path d="M2.5305 7.35365C2.51569 7.19665 2.50512 7.04367 2.50143 6.89257L2.50145 6.77657C2.50195 3.58271 5.09144 0.993408 8.28544 0.993408C11.4802 0.993408 14.0696 3.58288 14.0696 6.77722C14.0696 9.4476 12.5956 11.7598 11.0589 13.438C10.2959 14.2712 9.53146 14.9326 8.95772 15.3854C8.68925 15.5973 8.4634 15.7629 8.30017 15.8784C8.14977 15.7616 7.94459 15.5978 7.70081 15.3918C7.16533 14.9393 6.44672 14.2858 5.71425 13.4826C4.23512 11.8608 2.76306 9.6973 2.53459 7.3895L2.53467 7.38949L2.53366 7.38082L2.5305 7.35365ZM8.28562 10.3495C10.2014 10.3495 11.7547 8.79621 11.7547 6.88031C11.7547 4.96456 10.2014 3.41127 8.28562 3.41127C6.36972 3.41127 4.81641 4.96454 4.81641 6.88031C4.81641 8.79603 6.36968 10.3495 8.28562 10.3495Z" stroke="#E7245B"/>
</svg>
