<svg width="16" height="17" viewBox="0 0 16 17" fill="none" xmlns="http://www.w3.org/2000/svg">
<path d="M11.2547 6.78924C11.2547 8.42902 9.92522 9.75846 8.28562 9.75846C6.64584 9.75846 5.31641 8.42884 5.31641 6.78924C5.31641 5.14964 6.64584 3.82021 8.28562 3.82021C9.92522 3.82021 11.2547 5.14964 11.2547 6.78924ZM14.5696 6.68615C14.5696 3.21566 11.7563 0.402344 8.28544 0.402344C4.81531 0.402344 2.002 3.21548 2.00145 6.68543L2 6.68615C2 6.89723 2.01343 7.10631 2.03321 7.31485C2.03448 7.3261 2.03575 7.33681 2.03702 7.3477C2.52633 12.2903 8.28562 16.4023 8.28562 16.4023C8.28562 16.4023 14.5696 12.3937 14.5696 6.68615Z" fill="#13B4C9"/>
<path d="M2.5305 7.26258C2.51569 7.10558 2.50512 6.9526 2.50143 6.8015L2.50145 6.68551C2.50195 3.49165 5.09144 0.902344 8.28544 0.902344C11.4802 0.902344 14.0696 3.49182 14.0696 6.68615C14.0696 9.35653 12.5956 11.6687 11.0589 13.3469C10.2959 14.1802 9.53146 14.8415 8.95772 15.2943C8.68925 15.5062 8.4634 15.6718 8.30017 15.7873C8.14977 15.6705 7.94459 15.5067 7.70081 15.3007C7.16533 14.8482 6.44672 14.1947 5.71425 13.3916C4.23512 11.7697 2.76306 9.60623 2.53459 7.29844L2.53467 7.29843L2.53366 7.28975L2.5305 7.26258ZM8.28562 10.2585C10.2014 10.2585 11.7547 8.70515 11.7547 6.78924C11.7547 4.8735 10.2014 3.32021 8.28562 3.32021C6.36972 3.32021 4.81641 4.87348 4.81641 6.78924C4.81641 8.70497 6.36968 10.2585 8.28562 10.2585Z" stroke="#13B4C9"/>
</svg>
