<svg width="22" height="15" viewBox="0 0 22 15" fill="none" xmlns="http://www.w3.org/2000/svg">
<path fill-rule="evenodd" clip-rule="evenodd" d="M-1.1096e-07 1.26923C-4.96783e-08 0.568254 0.568254 4.96783e-08 1.26923 1.1096e-07L20.7308 1.81234e-06C21.4317 1.87362e-06 22 0.568256 22 1.26923C22 1.97021 21.4317 2.53846 20.7308 2.53846L1.26923 2.53846C0.568254 2.53846 -1.72241e-07 1.97021 -1.1096e-07 1.26923Z" fill="#E7245B"/>
<path fill-rule="evenodd" clip-rule="evenodd" d="M-9.24664e-08 7.19233C-4.13986e-08 6.49135 0.568254 5.9231 1.26923 5.9231L20.7308 5.9231C21.4317 5.9231 22 6.49135 22 7.19233C22 7.89331 21.4317 8.46156 20.7308 8.46156L1.26923 8.46156C0.568254 8.46156 -1.43534e-07 7.8933 -9.24664e-08 7.19233Z" fill="#E7245B"/>
<path fill-rule="evenodd" clip-rule="evenodd" d="M-9.24664e-08 13.1154C-4.13986e-08 12.4144 0.568254 11.8462 1.26923 11.8462L20.7308 11.8462C21.4317 11.8462 22 12.4144 22 13.1154C22 13.8164 21.4317 14.3847 20.7308 14.3847L1.26923 14.3847C0.568254 14.3847 -1.43534e-07 13.8164 -9.24664e-08 13.1154Z" fill="#E7245B"/>
</svg>
