<svg width="56" height="34" viewBox="0 0 56 34" fill="none" xmlns="http://www.w3.org/2000/svg">
<path d="M55.0981 27.5661C54.7814 28.0327 54.3473 28.1555 53.8106 28.1371C52.7665 28.1033 51.7195 28.1279 50.6402 28.1279C50.3176 29.9851 49.47 31.4831 47.9889 32.5422C46.9008 33.3219 45.6866 33.6872 44.3726 33.6504C41.7331 33.5798 39.0583 31.6949 38.4306 28.1586C31.3595 28.1586 24.2825 28.1586 17.2114 28.1586C16.4664 32.005 13.6098 33.6473 11.1169 33.6565C8.50367 33.6657 5.64413 31.8607 4.96957 28.1248C3.87854 28.1248 2.77872 28.1279 1.68183 28.1248C0.822495 28.1217 0.538007 27.827 0.538007 26.9184C0.538007 20.9139 0.532142 14.9095 0.538007 8.90809C0.543873 4.26354 3.86094 0.671918 8.3013 0.496941C8.94067 0.472383 9.58004 0.484662 10.2194 0.484662C20.0738 0.484662 29.9283 0.457034 39.7827 0.493871C45.6778 0.51536 50.1768 3.20447 53.1888 8.53051C54.2124 10.3417 54.7814 12.3309 55.0043 14.4244C55.0189 14.5687 55.0688 14.7069 55.1011 14.8481C55.0981 19.0874 55.0981 23.3268 55.0981 27.5661ZM53.3384 26.2707C53.3032 25.7764 53.3061 25.3129 53.2358 24.8647C52.4233 19.6768 48.5138 16.1773 43.4898 16.1742C29.9576 16.165 16.4253 16.1711 2.8931 16.1711C2.7054 16.1711 2.51769 16.1711 2.35052 16.1711C2.35052 19.5939 2.35052 22.9277 2.35052 26.2707C3.26264 26.2707 4.12197 26.2707 4.9725 26.2707C6.01954 22.6852 8.02268 20.8433 10.9321 20.7758C12.2665 20.7451 13.4954 21.1196 14.5923 21.9208C16.0499 22.9799 16.8829 24.4656 17.1996 26.2768C24.303 26.2768 31.3654 26.2768 38.4189 26.2768C39.3486 22.8018 41.428 20.8709 44.314 20.7758C47.3905 20.6775 49.3702 22.3843 50.6783 26.2737C51.5376 26.2707 52.3999 26.2707 53.3384 26.2707ZM46.4022 4.17451C46.411 4.1254 46.4168 4.07628 46.4256 4.02717C44.6131 2.99266 42.6716 2.36643 40.6039 2.36336C29.8403 2.3388 19.0796 2.3388 8.31597 2.35722C5.20127 2.36029 2.52649 4.98186 2.34759 8.23274C2.242 10.179 2.31239 12.1344 2.30653 14.0868C2.30653 14.139 2.33292 14.1911 2.36225 14.3047C2.57635 14.3047 2.80218 14.3047 3.02801 14.3047C16.3667 14.3047 29.7024 14.3047 43.0411 14.3047C43.3784 14.3047 43.7157 14.3017 44.0529 14.3201C47.7924 14.5472 50.7809 16.2264 52.9923 19.3975C53.0686 19.508 53.1536 19.6093 53.2358 19.7136C53.2797 17.2824 53.5408 14.8665 52.8251 12.4844C52.5935 12.4844 52.3823 12.4844 52.1711 12.4844C48.1942 12.4844 44.2143 12.4844 40.2373 12.4844C38.4277 12.4844 38.372 12.426 38.372 10.5596C38.372 8.8866 38.372 7.21358 38.372 5.54056C38.372 4.43237 38.6213 4.17451 39.7006 4.17451C41.7418 4.17451 43.7861 4.17451 45.8273 4.17451C46.0209 4.17451 46.2115 4.17451 46.4022 4.17451ZM52.1301 10.5995C52.1359 10.5473 52.1535 10.5074 52.1418 10.4767C52.0978 10.3539 52.0538 10.2342 51.9981 10.1176C51.3294 8.70855 50.4789 7.43153 49.382 6.35404C49.2001 6.176 48.898 6.04707 48.6517 6.04707C46.0238 6.02558 43.396 6.03479 40.7681 6.03479C40.5775 6.03479 40.3869 6.03479 40.1845 6.03479C40.1845 7.59116 40.1845 9.08613 40.1845 10.6026C44.1879 10.5995 48.159 10.5995 52.1301 10.5995ZM15.4839 27.2192C15.4898 24.659 13.5365 22.6146 11.0905 22.6176C8.66791 22.6207 6.72049 24.6468 6.70583 27.1762C6.69409 29.7364 8.64152 31.8054 11.0729 31.8116C13.5218 31.8177 15.478 29.7794 15.4839 27.2192ZM40.1522 27.2069C40.1464 29.764 42.1026 31.8146 44.5457 31.8116C46.9594 31.8085 48.9156 29.7733 48.9303 27.2468C48.942 24.6805 47.0063 22.6299 44.5603 22.6176C42.1114 22.6054 40.1552 24.6437 40.1522 27.2069Z" fill="white"/>
<path d="M8.46551 19.8549C7.11639 19.8549 5.7702 19.8549 4.42109 19.8549C4.26271 19.8549 4.09847 19.861 3.94303 19.8303C3.47084 19.7413 3.18048 19.376 3.18928 18.9002C3.19808 18.4336 3.50603 18.0775 3.98116 18.0038C4.12193 17.9823 4.26564 17.9915 4.40642 17.9915C7.10173 17.9915 9.79996 17.9915 12.4953 17.9915C12.6009 17.9915 12.7094 17.9854 12.815 17.9946C13.3663 18.0376 13.7505 18.4336 13.7388 18.9401C13.7271 19.4282 13.3605 19.8149 12.8296 19.8426C12.3692 19.8671 11.9087 19.8518 11.4453 19.8518C10.4511 19.8549 9.45682 19.8549 8.46551 19.8549Z" fill="white"/>
<path d="M16.399 18.0007C16.6982 18.0007 17.0032 17.9762 17.2994 18.0069C17.798 18.056 18.1236 18.4336 18.1265 18.9186C18.1294 19.4036 17.8098 19.8027 17.3082 19.8364C16.6923 19.8763 16.0706 19.8733 15.4547 19.8395C14.9649 19.8119 14.6188 19.3975 14.6188 18.9309C14.6159 18.4428 14.9795 18.0468 15.4987 18.0069C15.7978 17.9823 16.0999 18.0038 16.399 18.0038C16.399 17.9977 16.399 18.0007 16.399 18.0007Z" fill="white"/>
<path d="M32.6442 12.4844C31.4182 12.4844 30.1952 12.4874 28.9693 12.4813C28.1187 12.4782 27.8196 12.159 27.8196 11.2626C27.8166 9.29182 27.8166 7.3241 27.8196 5.35331C27.8196 4.49685 28.1217 4.1776 28.9458 4.17453C31.4123 4.16839 33.8818 4.16839 36.3484 4.17453C37.2018 4.1776 37.5039 4.49378 37.5039 5.38708C37.5068 7.35787 37.5068 9.32558 37.5039 11.2964C37.501 12.1467 37.1872 12.4752 36.3718 12.4813C35.1283 12.4905 33.8848 12.4844 32.6442 12.4844ZM29.6233 6.05322C29.6233 7.59731 29.6233 9.08921 29.6233 10.5842C31.6763 10.5842 33.6853 10.5842 35.6914 10.5842C35.6914 9.05238 35.6914 7.56047 35.6914 6.05322C33.656 6.05322 31.6587 6.05322 29.6233 6.05322Z" fill="white"/>
<path d="M11.5157 12.4844C10.2898 12.4844 9.06677 12.4905 7.84083 12.4813C7.0079 12.4782 6.70875 12.1651 6.70581 11.3117C6.70288 9.32251 6.70288 7.33638 6.70581 5.34718C6.70581 4.48457 6.9991 4.1776 7.83203 4.17453C10.2986 4.16839 12.7651 4.16839 15.2346 4.17453C16.0822 4.1776 16.3813 4.49685 16.3843 5.39322C16.3901 7.34559 16.3901 9.29489 16.3843 11.2473C16.3813 12.1651 16.0763 12.4782 15.1877 12.4813C13.9647 12.4874 12.7387 12.4844 11.5157 12.4844ZM14.5923 6.07164C12.5188 6.07164 10.5068 6.07164 8.49193 6.07164C8.49193 7.60345 8.49193 9.09535 8.49193 10.5842C10.5508 10.5842 12.5627 10.5842 14.5923 10.5842C14.5923 9.06159 14.5923 7.58196 14.5923 6.07164Z" fill="white"/>
<path d="M22.1034 12.4843C20.8775 12.4843 19.6544 12.4874 18.4285 12.4843C17.5633 12.4813 17.2642 12.1743 17.2642 11.2871C17.2612 9.29794 17.2612 7.3118 17.2642 5.3226C17.2642 4.50297 17.5692 4.18065 18.3669 4.17758C20.8511 4.17144 23.3381 4.17144 25.8223 4.17758C26.6376 4.18065 26.9456 4.50911 26.9456 5.36864C26.9514 7.33943 26.9514 9.30715 26.9456 11.2779C26.9426 12.159 26.6288 12.4813 25.7783 12.4843C24.5523 12.4905 23.3264 12.4843 22.1034 12.4843ZM25.1506 6.07162C23.08 6.07162 21.0681 6.07162 19.0561 6.07162C19.0561 7.60343 19.0561 9.09533 19.0561 10.5842C21.1121 10.5842 23.124 10.5842 25.1506 10.5842C25.1506 9.06157 25.1506 7.58194 25.1506 6.07162Z" fill="white"/>
<path d="M11.1169 24.4503C12.5657 24.4626 13.7506 25.7242 13.7388 27.2346C13.7271 28.7449 12.5158 29.9943 11.0758 29.9789C9.62989 29.9636 8.43328 28.6927 8.45088 27.1916C8.47141 25.6721 9.67095 24.438 11.1169 24.4503ZM10.2282 27.2376C10.2399 27.7534 10.6388 28.1463 11.1286 28.1248C11.6184 28.1064 11.9791 27.6889 11.9586 27.164C11.9381 26.6667 11.5685 26.3044 11.0875 26.3106C10.5889 26.3136 10.2165 26.7158 10.2282 27.2376Z" fill="white"/>
<path d="M44.5252 24.4503C45.9711 24.4411 47.1707 25.6813 47.1824 27.2008C47.1941 28.708 45.9975 29.9728 44.5516 29.982C43.1087 29.9912 41.9033 28.7387 41.8974 27.2284C41.8886 25.712 43.0764 24.4564 44.5252 24.4503ZM44.5399 28.1248C45.0297 28.1248 45.4139 27.7165 45.4051 27.2008C45.3992 26.682 45.0121 26.2983 44.5106 26.3106C44.0325 26.3228 43.6776 26.7004 43.6747 27.2039C43.6718 27.7257 44.0472 28.1248 44.5399 28.1248Z" fill="white"/>
</svg>
