<svg width="55" height="34" viewBox="0 0 55 34" fill="none" xmlns="http://www.w3.org/2000/svg">
<path d="M55 24.0023C54.6568 25.0696 54.0583 25.8919 52.9582 26.2561C52.9582 26.5859 52.9692 26.8997 52.956 27.2112C52.9252 27.9602 52.6568 28.6152 52.021 28.9748C51.6183 29.2016 51.1211 29.3253 50.6635 29.3413C49.2466 29.3871 47.8297 29.3573 46.415 29.3573C46.3577 29.5452 46.3137 29.6849 46.2741 29.8246C45.6405 32.1013 43.7066 33.6451 41.4712 33.6542C39.2248 33.6657 37.2491 32.1563 36.6286 29.891C36.5032 29.4283 36.3052 29.3459 35.896 29.3482C29.5023 29.3596 23.1086 29.3642 16.715 29.3436C16.2243 29.3413 16.0263 29.4764 15.8833 29.9803C15.2519 32.1861 13.2915 33.6611 11.087 33.6565C8.889 33.6519 6.94625 32.1448 6.29941 29.9483C6.2444 29.7605 6.185 29.5704 6.12119 29.3573C4.99471 29.3573 3.89683 29.3619 2.79675 29.3573C1.23243 29.3505 0.435976 28.5213 0.435976 26.8997C0.433776 20.6467 0.433776 14.3961 0.435976 8.14774C0.435976 3.70197 3.5228 0.481593 7.78672 0.481593C19.6522 0.479303 31.5155 0.486174 43.3809 0.474722C44.9936 0.472431 46.1025 1.19163 46.8132 2.69646C48.6569 6.60856 50.5491 10.4955 52.3752 14.4144C52.6898 15.0924 52.769 15.8895 52.9648 16.6293C53.0022 16.769 53.055 16.9751 53.1518 17.0164C54.1375 17.4287 54.6876 18.2189 55 19.2312C55 20.8208 55 22.4127 55 24.0023ZM36.402 27.667C37.5395 24.3664 39.1786 23.0426 41.8826 23.2166C44.096 23.3586 45.8869 25.0948 46.415 27.6326C46.5206 27.651 46.6394 27.6876 46.7582 27.6876C48.0717 27.6922 49.3874 27.6807 50.7009 27.6945C51.1805 27.6991 51.3697 27.4792 51.3697 26.9936C51.3631 23.5167 51.3719 20.0421 51.3631 16.5652C51.3609 15.6375 51.2927 15.5894 50.3862 15.5894C49.1101 15.5894 47.8341 15.5894 46.4678 15.5894C46.4678 16.0177 46.47 16.4163 46.4678 16.8125C46.4568 18.0104 45.8891 18.7113 44.767 18.9197C42.8221 19.2793 40.952 18.1135 40.3733 16.1254C40.2435 15.6833 40.0609 15.578 39.6407 15.578C30.3692 15.5917 21.0999 15.5871 11.8284 15.5871C11.6326 15.5871 11.4368 15.5917 11.2432 15.578C10.7789 15.5459 10.5171 15.2573 10.4951 14.7992C10.4731 14.332 10.7393 14.0365 11.1816 13.954C11.3884 13.9151 11.6062 13.9311 11.8196 13.9311C21.0735 13.9311 30.3252 13.9311 39.579 13.9311C39.8079 13.9311 40.0367 13.9311 40.2721 13.9311C40.6747 12.6095 41.4184 11.6361 42.6373 11.1299C43.843 10.6283 45.0201 10.6741 46.2125 11.6063C46.1487 11.3475 46.1399 11.249 46.1003 11.1643C45.5459 9.96636 44.9936 8.76845 44.4216 7.57971C44.349 7.43083 44.1554 7.24301 44.0168 7.24301C41.6934 7.2224 39.37 7.22927 37.0071 7.22927C37.0071 8.64477 37.0071 10.019 37.0071 11.4758C37.2271 11.4758 37.4515 11.4643 37.6737 11.4781C38.1775 11.5101 38.4966 11.8377 38.4966 12.3072C38.4966 12.779 38.1775 13.1066 37.6737 13.1295C37.3899 13.1432 37.1061 13.1409 36.8222 13.1295C35.9664 13.0974 35.3943 12.5133 35.3833 11.6132C35.3657 10.0969 35.3657 8.58064 35.3855 7.06436C35.3965 6.1665 35.9708 5.58014 36.842 5.57556C39.3458 5.56182 41.8496 5.57098 44.3534 5.57327C44.9408 5.57327 45.3831 5.855 45.6405 6.39783C46.3643 7.92099 47.0882 9.44185 47.7768 10.981C48.2411 12.0186 47.7527 12.8363 46.4942 13.1959C46.4942 13.4089 46.4942 13.6265 46.4942 13.8876C47.7637 13.8876 49.0265 13.8876 50.3488 13.8876C50.2608 13.6838 50.197 13.5166 50.12 13.3585C48.5447 10.0511 46.9584 6.74827 45.3985 3.4317C44.9738 2.53155 44.349 2.12843 43.3787 2.12843C31.5243 2.14675 19.6786 2.13988 7.83292 2.14217C4.37647 2.14217 2.03329 4.59983 2.02889 8.21416C2.02669 10.0969 2.02889 11.9774 2.02889 13.9059C2.25771 13.9174 2.44692 13.9334 2.63614 13.9334C4.14545 13.9357 5.65476 13.9334 7.16407 13.9357C7.30708 13.9357 7.45009 13.9288 7.5887 13.9495C8.05734 14.0159 8.34116 14.3526 8.32356 14.8084C8.30595 15.2779 7.98913 15.5848 7.46549 15.5894C5.86817 15.5986 4.26866 15.594 2.67134 15.594C2.47993 15.594 2.28851 15.594 2.0619 15.594C2.04869 15.8001 2.02889 15.9605 2.02889 16.1208C2.02669 19.7077 2.02669 23.2945 2.02889 26.8814C2.02889 27.5983 2.1147 27.6922 2.78795 27.6945C3.76482 27.6991 4.74169 27.6899 5.71856 27.6991C5.97378 27.7013 6.12119 27.6624 6.1982 27.3417C6.80324 24.7993 8.73499 23.1937 11.131 23.2052C13.5225 23.2166 15.4213 24.8429 16.0263 27.3967C16.0461 27.4837 16.0857 27.5685 16.1231 27.6739C22.8886 27.667 29.6497 27.667 36.402 27.667ZM11.1046 24.8566C9.21242 24.8543 7.68551 26.4301 7.67451 28.3953C7.66351 30.3674 9.17062 31.9753 11.0496 31.9959C12.9725 32.0166 14.517 30.443 14.528 28.4526C14.5412 26.4485 13.0253 24.8589 11.1046 24.8566ZM38.0015 28.4549C38.0257 30.4247 39.5548 31.9959 41.4404 31.9937C43.3435 31.9914 44.8858 30.3697 44.8726 28.3885C44.8572 26.4279 43.3215 24.852 41.4316 24.8543C39.5196 24.8589 37.9751 26.4782 38.0015 28.4549ZM44.3314 17.3256C44.6944 17.2798 44.8946 17.1561 44.8836 16.7026C44.8528 15.5024 44.8572 14.2999 44.8814 13.0997C44.8902 12.6897 44.7252 12.5477 44.371 12.4927C43.0509 12.2866 41.7726 13.473 41.7748 14.9183C41.7792 16.3567 42.9871 17.4928 44.3314 17.3256ZM52.9846 24.268C53.5611 23.7778 53.6051 19.6389 52.9846 18.8625C52.9846 20.7269 52.9846 22.4883 52.9846 24.268Z" fill="white"/>
<path d="M32.8927 5.57326C33.8784 5.57784 34.435 6.1642 34.4416 7.1949C34.4504 8.61728 34.4482 10.0396 34.4416 11.462C34.4372 12.5523 33.8784 13.1295 32.8267 13.1318C29.3857 13.1363 25.9424 13.1363 22.5014 13.1318C21.4189 13.1295 20.8798 12.5637 20.8732 11.4208C20.8666 10.0351 20.8666 8.64934 20.8732 7.26591C20.8798 6.12755 21.4145 5.57784 22.5146 5.57326C24.2175 5.56868 25.9204 5.57097 27.6233 5.57097C29.3813 5.57097 31.137 5.5641 32.8927 5.57326ZM32.8289 7.2682C29.3791 7.2682 25.949 7.2682 22.4926 7.2682C22.4926 8.66767 22.4926 10.0419 22.4926 11.446C25.9402 11.446 29.3593 11.446 32.8289 11.446C32.8289 10.0328 32.8289 8.66996 32.8289 7.2682Z" fill="white"/>
<path d="M7.98699 13.1318C6.93312 13.1272 6.38748 12.5614 6.37428 11.4574C6.36548 10.8482 6.36548 10.2366 6.37428 9.62736C6.41388 7.25445 8.0134 5.587 10.2884 5.57555C12.9704 5.5618 15.6524 5.56868 18.3344 5.57326C19.3926 5.57555 19.9405 6.14816 19.9449 7.24758C19.9515 8.6333 19.9493 10.0213 19.9449 11.407C19.9405 12.5706 19.397 13.1295 18.2705 13.1318C16.5654 13.1363 14.8603 13.1318 13.1552 13.1318C11.4324 13.134 9.70972 13.1363 7.98699 13.1318ZM18.3322 7.25903C18.1517 7.24758 17.9801 7.23155 17.8107 7.23155C15.3619 7.22926 12.9132 7.22696 10.4644 7.23155C8.83626 7.23384 7.97159 8.13398 7.96279 9.82663C7.96059 10.358 7.96279 10.8871 7.96279 11.446C11.4412 11.446 14.8581 11.446 18.3344 11.446C18.3322 10.0374 18.3322 8.67453 18.3322 7.25903Z" fill="white"/>
<path d="M37.1567 17.7837C36.8201 17.7837 36.4812 17.7676 36.1468 17.7883C35.6782 17.8157 35.3768 18.1433 35.3746 18.5968C35.3702 19.0503 35.6628 19.4076 36.1314 19.4259C36.8399 19.4557 37.5505 19.4557 38.259 19.4282C38.7518 19.4099 39.0532 19.0343 39.0312 18.5579C39.0092 18.1066 38.7056 17.8066 38.2216 17.786C37.8651 17.7699 37.5109 17.7837 37.1567 17.7837Z" fill="white"/>
<path d="M12.2729 28.3587C12.2443 27.6762 11.7074 27.1746 11.0386 27.2066C10.3895 27.2364 9.8857 27.8159 9.9231 28.4893C9.9583 29.1604 10.5259 29.6895 11.164 29.6528C11.8152 29.6139 12.3015 29.0459 12.2729 28.3587Z" fill="white"/>
<path d="M40.2656 28.3931C40.2546 29.0779 40.7606 29.6368 41.4096 29.6528C42.0433 29.6689 42.6021 29.1123 42.6219 28.4503C42.6417 27.7815 42.1159 27.2181 41.4646 27.2043C40.7936 27.1906 40.2766 27.7036 40.2656 28.3931Z" fill="white"/>
</svg>
