<svg width="19" height="19" viewBox="0 0 19 19" fill="none" xmlns="http://www.w3.org/2000/svg">
<path d="M4.31987 17.5018H1.27502V14.4569L11.8409 3.88867L14.8858 6.93354L4.31987 17.5018Z" stroke="#E7245B"/>
<path d="M15.7945 0.646366C15.7946 0.646448 15.7946 0.646531 15.7947 0.646613L18.1283 2.98104C18.1284 2.98112 18.1285 2.98121 18.1286 2.98129C18.1286 2.98131 18.1286 2.98132 18.1286 2.98134C18.2223 3.07541 18.275 3.20278 18.275 3.33557C18.275 3.46849 18.2223 3.59597 18.1284 3.69006C18.1284 3.69007 18.1284 3.69009 18.1283 3.69011L16.6538 5.16733L13.6092 2.12278L15.0854 0.646614C15.0855 0.646535 15.0855 0.646457 15.0856 0.646379C15.1798 0.552635 15.3072 0.5 15.4401 0.5C15.5729 0.5 15.7003 0.55263 15.7945 0.646366Z" stroke="#E7245B"/>
<path d="M0.775024 14.2499V18.0018H4.527L15.5929 6.9335L11.8409 3.18152L0.775024 14.2499Z" fill="white"/>
<path d="M18.4823 2.62785L16.1478 0.292552C15.9599 0.105205 15.7054 0 15.4401 0C15.1748 0 14.9203 0.105205 14.7324 0.292552L12.9022 2.12278L16.6541 5.87476L18.4823 4.04329C18.6698 3.85546 18.775 3.60094 18.775 3.33557C18.775 3.07021 18.6698 2.81568 18.4823 2.62785Z" fill="white"/>
</svg>
