<svg width="18" height="19" viewBox="0 0 18 19" fill="none" xmlns="http://www.w3.org/2000/svg">
<path d="M12.576 11.455L12.5761 11.455L12.5788 11.4462C12.8454 10.5845 13.9992 10.2861 14.6966 10.9835L17.2094 13.4964C17.6683 13.9552 17.6961 14.784 17.1993 15.3625L15.5061 17.0557C15.1529 17.4089 14.6333 17.6004 13.9418 17.6017C13.2471 17.6031 12.4061 17.4107 11.4658 17.025C9.58644 16.254 7.3864 14.7418 5.30546 12.6608C3.2258 10.5811 1.7353 8.3817 0.974431 6.50222C0.59373 5.56182 0.402881 4.71926 0.400032 4.02201C0.3972 3.32867 0.578982 2.80812 0.911122 2.45609L2.61037 0.753345C2.61039 0.753318 2.61042 0.75329 2.61045 0.753262C3.06932 0.294483 3.89808 0.266678 4.47652 0.763458L6.97926 3.2662C7.6775 3.96444 7.37708 5.12035 6.51762 5.38361L6.51758 5.38348L6.50778 5.38676C5.53453 5.71259 4.83557 6.80337 5.17378 7.84872C5.42686 8.88779 6.19868 9.99814 7.10544 10.8937C8.01735 11.7943 9.13234 12.5434 10.1265 12.792L10.1265 12.7921L10.137 12.7944C11.124 13.0133 12.2352 12.473 12.576 11.455Z" stroke="#E7245B" stroke-width="0.8"/>
</svg>
