<svg width="16" height="17" viewBox="0 0 16 17" fill="none" xmlns="http://www.w3.org/2000/svg">
<path d="M15.5472 12.2376L13.3137 10.0042C12.5163 9.20676 11.1613 9.52448 10.8405 10.5618C10.6006 11.2782 9.80317 11.6769 9.08673 11.5181C7.49187 11.1193 5.33943 9.04478 4.94071 7.37204C4.70086 6.6556 5.18056 5.85816 5.89701 5.61831C6.93429 5.30058 7.25202 3.94246 6.45458 3.14503L4.22115 0.911593C3.58258 0.354013 2.62629 0.354013 2.06871 0.911593L0.554836 2.42858C-0.959037 4.02345 0.716815 8.25046 4.46412 11.9978C8.21143 15.7451 12.4384 17.4988 14.0333 15.9039L15.5472 14.3901C16.1048 13.7515 16.1048 12.7952 15.5472 12.2376Z" fill="#E7245B"/>
</svg>
