<svg width="18" height="18" viewBox="0 0 18 18" fill="none" xmlns="http://www.w3.org/2000/svg">
<path d="M11.471 7.89161C10.9101 7.8907 10.3545 8.0017 9.83699 8.21812C9.79496 8.23428 9.7566 8.25871 9.72418 8.28997C9.69176 8.32122 9.66593 8.35867 9.64824 8.40008C9.63054 8.44149 9.62133 8.48603 9.62115 8.53106C9.62097 8.57609 9.62984 8.62069 9.64721 8.66224C9.66457 8.70379 9.6901 8.74143 9.72227 8.77294C9.75445 8.80445 9.79261 8.82918 9.83451 8.84567C9.87641 8.86217 9.9212 8.8701 9.96622 8.86898C10.0112 8.86786 10.0556 8.85772 10.0966 8.83916C10.8581 8.52204 11.706 8.47892 12.4957 8.71716C13.2854 8.95539 13.968 9.46022 14.4271 10.1455C14.8861 10.8309 15.0932 11.6542 15.013 12.4752C14.9328 13.2962 14.5702 14.0639 13.9872 14.6474C13.4041 15.2308 12.6367 15.594 11.8158 15.6748C10.9949 15.7557 10.1714 15.5492 9.48571 15.0907C8.80003 14.6321 8.29467 13.9499 8.05584 13.1604C7.81701 12.3708 7.85949 11.5229 8.17604 10.7612C8.21037 10.6787 8.21054 10.586 8.17651 10.5034C8.14249 10.4209 8.07705 10.3552 7.9946 10.3209C7.91215 10.2865 7.81943 10.2864 7.73685 10.3204C7.65427 10.3544 7.5886 10.4198 7.55427 10.5023C7.20388 11.3427 7.13318 12.2736 7.35262 13.1573C7.57206 14.0411 8.06999 14.8307 8.77283 15.4096C9.47567 15.9885 10.3461 16.326 11.2555 16.372C12.1649 16.4181 13.065 16.1703 13.8227 15.6654C14.5805 15.1605 15.1556 14.4252 15.4633 13.5682C15.7709 12.7111 15.7946 11.7779 15.5309 10.9063C15.2672 10.0348 14.7302 9.27121 13.999 8.72844C13.2679 8.18567 12.3816 7.89252 11.471 7.89233V7.89161Z" fill="#E7245B"/>
<path d="M11.2239 14.6919C11.7704 14.6919 12.3047 14.5298 12.7591 14.2261C13.2136 13.9225 13.5678 13.4909 13.7769 12.986C13.9861 12.481 14.0408 11.9254 13.9342 11.3893C13.8275 10.8533 13.5643 10.3609 13.1779 9.97442C12.7914 9.58795 12.299 9.32476 11.763 9.21814C11.2269 9.11151 10.6713 9.16624 10.1664 9.3754C9.66141 9.58455 9.22981 9.93874 8.92616 10.3932C8.62252 10.8476 8.46045 11.3819 8.46045 11.9285C8.46045 12.6614 8.75159 13.3642 9.26983 13.8825C9.78807 14.4007 10.491 14.6919 11.2239 14.6919ZM11.2239 9.84353C11.6367 9.84353 12.0402 9.96593 12.3834 10.1953C12.7266 10.4246 12.9941 10.7506 13.1521 11.1319C13.3101 11.5133 13.3514 11.9329 13.2709 12.3378C13.1903 12.7427 12.9915 13.1145 12.6997 13.4064C12.4078 13.6983 12.0359 13.8971 11.631 13.9776C11.2262 14.0582 10.8065 14.0168 10.4252 13.8589C10.0438 13.7009 9.71783 13.4334 9.4885 13.0902C9.25916 12.7469 9.13675 12.3434 9.13675 11.9306C9.13752 11.3773 9.35767 10.8469 9.74891 10.4557C10.1401 10.0644 10.6706 9.8443 11.2239 9.84353Z" fill="#E7245B"/>
<path d="M16.2169 5.62971H15.15L13.9225 3.53097C13.8917 3.47803 13.8475 3.43406 13.7945 3.40344C13.7414 3.37283 13.6813 3.35663 13.62 3.35645H8.74766C8.68638 3.35655 8.62619 3.37272 8.57311 3.40334C8.52003 3.43397 8.47591 3.47798 8.44514 3.53097L7.2176 5.62971H5.20395V5.20356C5.208 5.03479 5.17825 4.86692 5.11646 4.70982C5.05467 4.55271 4.96208 4.40956 4.84415 4.28876C4.72622 4.16797 4.58532 4.07198 4.42974 4.00644C4.27417 3.94091 4.10705 3.90714 3.93824 3.90714C3.76942 3.90714 3.60231 3.94091 3.44673 4.00644C3.29115 4.07198 3.15025 4.16797 3.03232 4.28876C2.91439 4.40956 2.8218 4.55271 2.76001 4.70982C2.69822 4.86692 2.66848 5.03479 2.67252 5.20356V5.62971H1.78314C1.3079 5.63279 0.853276 5.82423 0.518998 6.16206C0.18472 6.49988 -0.00192072 6.95649 1.49065e-05 7.43174V16.191C-0.00172769 16.6661 0.184999 17.1226 0.519256 17.4602C0.853513 17.7979 1.30802 17.9893 1.78314 17.9923H16.2169C16.692 17.9893 17.1465 17.7979 17.4807 17.4602C17.815 17.1226 18.0017 16.6661 18 16.191V7.43174C18.0017 6.95662 17.815 6.50019 17.4807 6.16253C17.1465 5.82486 16.692 5.63352 16.2169 5.63044V5.62971ZM8.94473 4.06693H13.4193L14.3334 5.62971H8.03063L8.94473 4.06693ZM3.37574 5.20356C3.37302 5.12799 3.38556 5.05265 3.4126 4.98203C3.43965 4.91142 3.48064 4.84697 3.53314 4.79255C3.58564 4.73813 3.64857 4.69484 3.71817 4.66528C3.78777 4.63571 3.86262 4.62047 3.93824 4.62047C4.01385 4.62047 4.0887 4.63571 4.1583 4.66528C4.2279 4.69484 4.29083 4.73813 4.34333 4.79255C4.39583 4.84697 4.43683 4.91142 4.46387 4.98203C4.49091 5.05265 4.50345 5.12799 4.50074 5.20356V5.62971H3.37574V5.20356ZM17.2997 16.1903C17.2997 16.4777 17.1863 16.7535 16.9841 16.9578C16.7818 17.1621 16.5072 17.2782 16.2198 17.2811H1.78314C1.49573 17.2782 1.22107 17.1621 1.01886 16.9578C0.816642 16.7535 0.703215 16.4777 0.70323 16.1903V7.43174C0.703215 7.14432 0.816642 6.86851 1.01886 6.66425C1.22107 6.45999 1.49573 6.3438 1.78314 6.34092H16.2169C16.5043 6.3438 16.7789 6.45999 16.9811 6.66425C17.1834 6.86851 17.2968 7.14432 17.2968 7.43174V16.191L17.2997 16.1903Z" fill="#E7245B"/>
<path d="M11.2158 11.2058C11.3894 11.2058 11.5559 11.2748 11.6786 11.3975C11.8014 11.5203 11.8703 11.6867 11.8703 11.8603C11.8703 11.9496 11.9058 12.0353 11.9689 12.0984C12.0321 12.1616 12.1177 12.197 12.207 12.197C12.2963 12.197 12.382 12.1616 12.4451 12.0984C12.5083 12.0353 12.5437 11.9496 12.5437 11.8603C12.5434 11.5077 12.4031 11.1696 12.1537 10.9203C11.9044 10.6709 11.5663 10.5307 11.2137 10.5303C11.1244 10.5303 11.0387 10.5657 10.9756 10.6289C10.9124 10.692 10.877 10.7777 10.877 10.867C10.877 10.9563 10.9124 11.0419 10.9756 11.105C11.0387 11.1682 11.1244 11.2037 11.2137 11.2037L11.2158 11.2058Z" fill="#E7245B"/>
<path d="M11.1853 2.47034C11.2295 2.47034 11.2733 2.46163 11.3141 2.44471C11.355 2.42779 11.3921 2.40299 11.4233 2.37172C11.4546 2.34046 11.4794 2.30334 11.4963 2.26249C11.5133 2.22164 11.522 2.17786 11.522 2.13364V0.3367C11.522 0.247401 11.4865 0.16176 11.4233 0.098617C11.3602 0.0354736 11.2746 0 11.1853 0C11.096 0 11.0103 0.0354736 10.9472 0.098617C10.884 0.16176 10.8486 0.247401 10.8486 0.3367V2.13364C10.8486 2.22294 10.884 2.30858 10.9472 2.37172C11.0103 2.43487 11.096 2.47034 11.1853 2.47034Z" fill="#E7245B"/>
<path d="M12.9059 2.47068C12.9501 2.47065 12.9938 2.4619 13.0346 2.44492C13.0754 2.42795 13.1125 2.4031 13.1437 2.37178L14.3799 1.13552C14.4112 1.10424 14.436 1.06712 14.453 1.02625C14.4699 0.985387 14.4786 0.941589 14.4786 0.897358C14.4786 0.853127 14.4699 0.809329 14.453 0.768465C14.436 0.727601 14.4112 0.690472 14.3799 0.659197C14.3487 0.627921 14.3116 0.603111 14.2707 0.586185C14.2298 0.569259 14.186 0.560547 14.1418 0.560547C14.0976 0.560547 14.0538 0.569259 14.0129 0.586185C13.972 0.603111 13.9349 0.627921 13.9036 0.659197L12.6674 1.89546C12.6204 1.94254 12.5884 2.00249 12.5755 2.06773C12.5625 2.13296 12.5692 2.20058 12.5946 2.26203C12.6201 2.32348 12.6631 2.37603 12.7184 2.41303C12.7737 2.45004 12.8387 2.46984 12.9052 2.46996L12.9059 2.47068Z" fill="#E7245B"/>
<path d="M9.24211 2.37178C9.30528 2.43495 9.39095 2.47043 9.48027 2.47043C9.5696 2.47043 9.65527 2.43495 9.71844 2.37178C9.7816 2.30862 9.81708 2.22295 9.81708 2.13362C9.81708 2.04429 9.7816 1.95862 9.71844 1.89546L8.48218 0.659197C8.41901 0.596032 8.33334 0.560547 8.24402 0.560547C8.15469 0.560547 8.06902 0.596032 8.00585 0.659197C7.94269 0.722361 7.9072 0.80803 7.9072 0.897358C7.9072 0.986686 7.94269 1.07236 8.00585 1.13552L9.24211 2.37178Z" fill="#E7245B"/>
<path d="M4.64625 8.6543H2.89584C2.80654 8.6543 2.72091 8.68977 2.65776 8.75291C2.59462 8.81605 2.55914 8.9017 2.55914 8.99099C2.55914 9.08029 2.59462 9.16594 2.65776 9.22908C2.72091 9.29222 2.80654 9.32769 2.89584 9.32769H4.64625C4.73554 9.32769 4.82118 9.29222 4.88432 9.22908C4.94747 9.16594 4.98294 9.08029 4.98294 8.99099C4.98294 8.9017 4.94747 8.81605 4.88432 8.75291C4.82118 8.68977 4.73554 8.6543 4.64625 8.6543Z" fill="#E7245B"/>
<path d="M8.29607 9.3277C8.37397 9.32783 8.4495 9.30093 8.50981 9.25161C8.57011 9.20229 8.61144 9.13358 8.62676 9.0572C8.64208 8.98082 8.63044 8.90148 8.59382 8.83272C8.5572 8.76396 8.49786 8.71003 8.42593 8.68011C8.354 8.6502 8.27392 8.64615 8.19934 8.66866C8.12476 8.69117 8.06029 8.73884 8.01693 8.80356C7.97356 8.86828 7.95397 8.94604 7.96151 9.02358C7.96905 9.10112 8.00324 9.17364 8.05826 9.2288C8.12142 9.29177 8.20687 9.32731 8.29607 9.3277Z" fill="#E7245B"/>
</svg>
