<svg width="12" height="16" viewBox="0 0 12 16" fill="none" xmlns="http://www.w3.org/2000/svg">
<path d="M5.29737 8.85691H4.91104L4.89761 9.24301C4.87103 10.0071 4.6684 10.7828 4.28024 11.5728L4.27962 11.574C3.89744 12.3589 3.42666 12.9762 2.87272 13.4378L1.9976 14.1671L3.13654 14.145L10.5292 14.0019V15.6H0.572623V14.2183C1.17309 13.5747 1.63547 12.839 1.95847 12.0136C2.30083 11.1387 2.47148 10.2188 2.47148 9.25691V8.85691H2.07148H0.4V7.58543H1.81254H2.34162L2.19739 7.07639L2.01398 6.42906L2.01374 6.42821C1.88582 5.98049 1.78722 5.61058 1.71724 5.31712C1.66037 5.04988 1.62994 4.73156 1.62994 4.35873C1.62994 3.54384 1.83075 2.85433 2.2195 2.27385C2.61729 1.69054 3.18623 1.23302 3.94488 0.906938L3.94488 0.906948L3.94758 0.905762C4.70731 0.57255 5.60368 0.4 6.64599 0.4C7.71441 0.4 8.5947 0.61554 9.30489 1.02602L9.30488 1.02604L9.30865 1.02816C9.90065 1.36184 10.324 1.80185 10.5916 2.35221L8.98803 3.0235C8.81311 2.74029 8.56829 2.50873 8.26154 2.33052C7.83341 2.07758 7.32404 1.96278 6.75388 1.96278C5.96345 1.96278 5.29106 2.17367 4.78783 2.64147C4.289 3.10468 4.05583 3.72959 4.05583 4.46662C4.05583 4.97944 4.18795 5.60555 4.42916 6.3312L4.69618 7.29249L4.77756 7.58543H5.08159H8.14484V8.85691H5.29737Z" stroke="#E7245B" stroke-width="0.8"/>
<path d="M5.29737 9.25691C5.2686 10.0841 5.04922 10.9148 4.63924 11.7492C4.23646 12.5763 3.73297 13.2416 3.12879 13.7451L10.9292 13.5941V16H0.172623V14.058C0.791189 13.425 1.26231 12.695 1.58597 11.8678C1.90964 11.0407 2.07148 10.1704 2.07148 9.25691H0V7.18543H1.81254L1.62913 6.5381C1.49966 6.08496 1.39897 5.70735 1.32704 5.40526C1.26231 5.10317 1.22994 4.75433 1.22994 4.35873C1.22994 3.47404 1.44931 2.70443 1.88806 2.0499C2.33401 1.39537 2.96696 0.891886 3.78692 0.539447C4.60688 0.179816 5.5599 0 6.64599 0C7.76804 0 8.72106 0.226568 9.50506 0.679703C10.2962 1.12565 10.8321 1.755 11.1126 2.56777L8.79299 3.53877C8.66352 3.17195 8.41897 2.88424 8.05934 2.67566C7.7069 2.46707 7.27175 2.36278 6.75388 2.36278C6.03461 2.36278 5.46999 2.55338 5.06001 2.93459C4.65723 3.30861 4.45583 3.81929 4.45583 4.46662C4.45583 4.91976 4.57451 5.50236 4.81187 6.21443L5.08159 7.18543H8.54484V9.25691H5.29737Z" fill="#E7245B"/>
</svg>
