<svg width="18" height="17" viewBox="0 0 18 17" fill="none" xmlns="http://www.w3.org/2000/svg">
<path d="M7.11872 5.12257L7.0047 5.17019C6.90893 4.99789 6.7691 4.85412 6.59952 4.75359C6.42994 4.65307 6.2367 4.59941 6.03957 4.59809H4.26694C3.96881 4.60075 3.68391 4.7216 3.4748 4.93411C3.26568 5.14662 3.14944 5.43342 3.15158 5.73156V10.8469C3.14944 11.1451 3.26568 11.4319 3.4748 11.6444C3.68391 11.8569 3.96881 11.9777 4.26694 11.9804H6.03957C6.20646 11.9792 6.37092 11.9402 6.52063 11.8665C6.67034 11.7927 6.80144 11.6861 6.9041 11.5545C7.52088 11.8322 8.18945 11.9762 8.86586 11.977H12.605C12.9094 11.9749 13.2005 11.852 13.4143 11.6353C13.6281 11.4186 13.7471 11.1258 13.7451 10.8214C13.7456 10.6291 13.6983 10.4397 13.6076 10.2701C13.7481 10.2032 13.8737 10.1087 13.9771 9.99244C14.0805 9.87613 14.1595 9.74029 14.2095 9.59294C14.2595 9.44559 14.2795 9.28972 14.2683 9.13451C14.2571 8.97931 14.2149 8.82793 14.1442 8.6893C14.3543 8.60007 14.5335 8.451 14.6594 8.26066C14.7854 8.07032 14.8525 7.84713 14.8525 7.61889C14.8525 7.39064 14.7854 7.16745 14.6594 6.97711C14.5335 6.78676 14.3543 6.63769 14.1442 6.54846C14.2281 6.38422 14.2718 6.20238 14.2716 6.01795C14.2736 5.71353 14.1546 5.4208 13.9408 5.2041C13.727 4.9874 13.4359 4.86447 13.1315 4.86235H11.2683C11.183 4.86146 11.1015 4.8268 11.0416 4.76596C10.9818 4.70512 10.9485 4.62306 10.949 4.53773V3.49548C10.9523 2.99857 10.7584 2.52064 10.4099 2.16638C10.0614 1.81213 9.58677 1.61043 9.08987 1.60547C8.87197 1.60724 8.66366 1.69537 8.51064 1.85053C8.35763 2.00568 8.2724 2.21519 8.27365 2.4331V3.37207C8.27557 3.7453 8.1669 4.11074 7.96136 4.42228C7.75581 4.73381 7.4626 4.9775 7.11872 5.12257V5.12257ZM6.03957 11.2695H4.26694C4.1557 11.2684 4.04944 11.2232 3.97147 11.1439C3.89351 11.0645 3.85022 10.9575 3.85111 10.8462V5.73156C3.85022 5.62032 3.89351 5.51327 3.97147 5.43393C4.04944 5.35458 4.1557 5.30941 4.26694 5.30835H6.03957C6.15081 5.30941 6.25708 5.35458 6.33504 5.43393C6.41301 5.51327 6.4563 5.62032 6.4554 5.73156V10.8469C6.45612 10.958 6.41275 11.0649 6.3348 11.1441C6.25686 11.2233 6.15069 11.2684 6.03957 11.2695V11.2695ZM8.97251 3.37207V2.4331C8.97233 2.40209 8.98443 2.37226 9.00617 2.35015C9.02791 2.32803 9.05752 2.31541 9.08853 2.31506C9.39864 2.31789 9.69497 2.44363 9.91249 2.66467C10.13 2.88571 10.251 3.18402 10.2488 3.49414V4.53907C10.247 4.8113 10.3533 5.07312 10.5443 5.26712C10.7353 5.46112 10.9954 5.57147 11.2676 5.57395H13.1308C13.2489 5.57395 13.3622 5.62087 13.4457 5.70438C13.5292 5.7879 13.5761 5.90117 13.5761 6.01929C13.5761 6.1374 13.5292 6.25067 13.4457 6.33419C13.3622 6.41771 13.2489 6.46463 13.1308 6.46463H10.949C10.8575 6.4686 10.7711 6.50775 10.7077 6.57392C10.6444 6.64008 10.609 6.72815 10.609 6.81975C10.609 6.91136 10.6444 6.99942 10.7077 7.06559C10.7711 7.13175 10.8575 7.17091 10.949 7.17489H13.7123C13.8304 7.17489 13.9437 7.22181 14.0272 7.30532C14.1107 7.38884 14.1576 7.50211 14.1576 7.62023C14.1576 7.73834 14.1107 7.85161 14.0272 7.93512C13.9437 8.01864 13.8304 8.06556 13.7123 8.06556H10.949C10.8575 8.06954 10.7711 8.10869 10.7077 8.17486C10.6444 8.24102 10.609 8.32909 10.609 8.42069C10.609 8.5123 10.6444 8.60036 10.7077 8.66653C10.7711 8.73269 10.8575 8.77185 10.949 8.77583H13.1308C13.2489 8.77583 13.3622 8.82275 13.4457 8.90626C13.5292 8.98978 13.5761 9.10305 13.5761 9.22117C13.5761 9.33928 13.5292 9.45255 13.4457 9.53606C13.3622 9.61958 13.2489 9.6665 13.1308 9.6665H10.949C10.8575 9.67048 10.7711 9.70963 10.7077 9.7758C10.6444 9.84196 10.609 9.93003 10.609 10.0216C10.609 10.1132 10.6444 10.2013 10.7077 10.2675C10.7711 10.3336 10.8575 10.3728 10.949 10.3768H12.6056C12.7237 10.3768 12.837 10.4237 12.9205 10.5072C13.0041 10.5907 13.051 10.704 13.051 10.8221C13.051 10.9402 13.0041 11.0535 12.9205 11.137C12.837 11.2205 12.7237 11.2674 12.6056 11.2674H8.86586C8.27332 11.2666 7.68801 11.1373 7.15024 10.8885C7.15024 10.8737 7.15024 10.8597 7.15024 10.8449V5.87777L7.38431 5.77985C7.85728 5.58029 8.26055 5.2451 8.5432 4.81658C8.82586 4.38806 8.97525 3.88541 8.97251 3.37207V3.37207Z" fill="#E7245B"/>
<path d="M14.8357 0.000976562H10.5822C10.489 0.000976562 10.3996 0.0380038 10.3337 0.103912C10.2677 0.16982 10.2307 0.25921 10.2307 0.352419C10.2307 0.445627 10.2677 0.535017 10.3337 0.600925C10.3996 0.666834 10.489 0.703861 10.5822 0.703861H14.8357C15.4881 0.704571 16.1136 0.964057 16.5749 1.42539C17.0362 1.88672 17.2957 2.51221 17.2964 3.16462V11.3209C17.2957 11.9733 17.0362 12.5988 16.5749 13.0601C16.1136 13.5215 15.4881 13.781 14.8357 13.7817H10.218C10.1563 13.7816 10.0956 13.7979 10.0422 13.8287C9.98872 13.8596 9.94434 13.9039 9.91348 13.9574L9 15.5395L8.08652 13.9581C8.05566 13.9046 8.01128 13.8602 7.95782 13.8294C7.90437 13.7985 7.84374 13.7823 7.78203 13.7823H3.16432C2.5119 13.7816 1.88641 13.5221 1.42508 13.0608C0.963751 12.5995 0.704265 11.974 0.703555 11.3216V3.1653C0.704265 2.51288 0.963751 1.88739 1.42508 1.42606C1.88641 0.964727 2.5119 0.705241 3.16432 0.704531H7.41784C7.51105 0.704531 7.60044 0.667504 7.66635 0.601596C7.73226 0.535688 7.76928 0.446297 7.76928 0.353089C7.76928 0.259881 7.73226 0.17049 7.66635 0.104582C7.60044 0.0386742 7.51105 0.00164688 7.41784 0.00164688H3.16432C2.32548 0.00253425 1.52124 0.33611 0.928025 0.929198C0.334811 1.52229 0.00106518 2.32646 0 3.1653L0 11.3209C0.00017726 12.1603 0.333531 12.9653 0.926841 13.5592C1.52015 14.153 2.3249 14.487 3.16432 14.4879H7.57881L8.69484 16.4215C8.72566 16.475 8.77004 16.5194 8.82349 16.5503C8.87694 16.5812 8.93759 16.5975 8.99933 16.5975C9.06107 16.5975 9.12171 16.5812 9.17517 16.5503C9.22862 16.5194 9.273 16.475 9.30382 16.4215L10.4205 14.4879H14.8357C15.6746 14.487 16.479 14.1533 17.0722 13.5601C17.6654 12.9669 17.9991 12.1625 18 11.3236V3.1653C17.9991 2.32634 17.6654 1.522 17.0722 0.928764C16.479 0.335532 15.6746 0.00186425 14.8357 0.000976562V0.000976562Z" fill="#E7245B"/>
<path d="M8.99994 0.710932C9.08218 0.71086 9.16184 0.682277 9.22537 0.630053C9.28889 0.57783 9.33235 0.505197 9.34833 0.424529C9.3643 0.343861 9.35181 0.260149 9.31299 0.187655C9.27417 0.11516 9.21142 0.0583693 9.13542 0.0269564C9.05942 -0.00445649 8.97488 -0.00854764 8.8962 0.0153805C8.81752 0.0393087 8.74958 0.0897749 8.70394 0.158182C8.6583 0.22659 8.63779 0.308706 8.6459 0.39054C8.65401 0.472374 8.69025 0.548862 8.74843 0.606975C8.81533 0.67337 8.90569 0.710723 8.99994 0.710932Z" fill="#E7245B"/>
</svg>
