<svg width="25" height="24" viewBox="0 0 25 24" fill="none" xmlns="http://www.w3.org/2000/svg">
<path d="M17.8673 12.343H6.61731C5.82166 12.343 5.0586 12.0269 4.49599 11.4643C3.93338 10.9017 3.61731 10.1386 3.61731 9.34296C3.61731 8.54731 3.93338 7.78424 4.49599 7.22164C5.0586 6.65903 5.82166 6.34296 6.61731 6.34296H19.4583L18.3333 7.46796C18.2348 7.56645 18.1567 7.68337 18.1034 7.81206C18.0501 7.94074 18.0226 8.07867 18.0226 8.21796C18.0226 8.35724 18.0501 8.49517 18.1034 8.62385C18.1567 8.75254 18.2348 8.86947 18.3333 8.96796C18.5322 9.16686 18.802 9.2786 19.0833 9.2786C19.3646 9.2786 19.6344 9.16686 19.8333 8.96796L22.7878 6.01342C22.9988 5.80245 23.1173 5.5163 23.1173 5.21793C23.1173 4.91957 22.9988 4.63342 22.7878 4.42244L19.8333 1.46796C19.7348 1.36946 19.6179 1.29133 19.4892 1.23803C19.3605 1.18472 19.2226 1.15729 19.0833 1.15729C18.944 1.15729 18.8061 1.18472 18.6774 1.23803C18.5487 1.29133 18.4318 1.36946 18.3333 1.46796C18.2348 1.56645 18.1567 1.68337 18.1034 1.81206C18.0501 1.94074 18.0226 2.07867 18.0226 2.21796C18.0226 2.35724 18.0501 2.49517 18.1034 2.62385C18.1567 2.75254 18.2348 2.86947 18.3333 2.96796L19.4583 4.09296H6.61731C5.22492 4.09296 3.88956 4.64608 2.905 5.63065C1.92043 6.61521 1.36731 7.95057 1.36731 9.34296C1.36731 10.7353 1.92043 12.0707 2.905 13.0553C3.88956 14.0398 5.22492 14.593 6.61731 14.593H17.8673C18.663 14.593 19.426 14.909 19.9886 15.4716C20.5512 16.0342 20.8673 16.7973 20.8673 17.593C20.8673 18.3886 20.5512 19.1517 19.9886 19.7143C19.426 20.2769 18.663 20.593 17.8673 20.593H5.11731C4.81894 20.593 4.53279 20.7115 4.32181 20.9225C4.11084 21.1334 3.99231 21.4196 3.99231 21.718C3.99231 22.0163 4.11084 22.3025 4.32181 22.5135C4.53279 22.7244 4.81894 22.843 5.11731 22.843H17.8673C19.2597 22.843 20.5951 22.2898 21.5796 21.3053C22.5642 20.3207 23.1173 18.9853 23.1173 17.593C23.1173 16.2006 22.5642 14.8652 21.5796 13.8806C20.5951 12.8961 19.2597 12.343 17.8673 12.343Z" fill="#414142"/>
</svg>
