<svg width="18" height="16" viewBox="0 0 18 16" fill="none" xmlns="http://www.w3.org/2000/svg">
<path d="M17.7039 1.02438L11.9429 0.00551079C11.9022 -0.00169639 11.8587 -0.00169639 11.818 0.00551079L6.11953 1.01333L0.420992 0.00551079C0.316649 -0.0130271 0.209402 0.01573 0.128151 0.0838574C0.0469362 0.151985 0 0.252563 0 0.358626V14.3208C0 14.4947 0.124817 14.6436 0.296139 14.6739L6.05711 15.6927C6.09856 15.6996 6.14051 15.6996 6.18196 15.6927L11.8805 14.6849L17.579 15.6927C17.5998 15.6964 17.6207 15.6982 17.6414 15.6982C17.725 15.6982 17.8068 15.669 17.8718 15.6144C17.9531 15.5463 18 15.4457 18 15.3396V1.37749C18 1.20351 17.8752 1.05467 17.7039 1.02438ZM5.76097 12.9137L4.194 12.5068C4.16854 11.9707 3.72449 11.5423 3.1822 11.5423C2.62363 11.5423 2.16918 11.9968 2.16918 12.5553C2.16918 13.114 2.62363 13.5684 3.1822 13.5684C3.50075 13.5684 3.78527 13.4204 3.97108 13.1898L5.76093 13.6546V14.9121L0.717131 14.02V0.786144L5.76097 1.67818V12.9137ZM3.47809 12.5553C3.47809 12.7185 3.34535 12.8512 3.1822 12.8512C3.01905 12.8512 2.88631 12.7185 2.88631 12.5553C2.88631 12.3922 3.01905 12.2595 3.1822 12.2595C3.34535 12.2595 3.47809 12.3922 3.47809 12.5553ZM11.5219 14.02L6.4781 14.9121V13.6705L11.5219 12.8246V14.02ZM11.5219 7.53188L10.2979 7.74487C9.63803 7.81511 9.10262 7.68495 8.74911 7.36808C8.40883 7.06309 8.22894 6.58465 8.22894 5.9846C8.22894 4.74514 9.03066 3.78239 10.3224 3.46865L10.8077 3.3993C11.0037 3.3713 11.14 3.18968 11.1119 2.99365C11.0839 2.79763 10.9023 2.66141 10.7063 2.68941L10.2043 2.76112C10.1934 2.76267 10.1826 2.76475 10.1719 2.76726C9.36588 2.9592 8.69081 3.36656 8.21983 3.94532C7.75667 4.51455 7.51184 5.2197 7.51184 5.9846C7.51184 6.7942 7.77417 7.45726 8.2705 7.90213C8.78199 8.36059 9.51375 8.55232 10.387 8.45658C10.3945 8.45576 10.402 8.45472 10.4094 8.45343L11.5219 8.25984V12.0975L6.4781 12.9434V1.67818L11.5219 0.786144V7.53188ZM12.2391 8.26332L12.2484 8.26522C12.2719 8.26999 12.2958 8.27242 12.3199 8.27242C13.5132 8.27242 14.4389 9.60614 14.4389 10.7535V10.773C14.4389 11.2754 14.2675 11.6031 13.8997 11.8045C13.5628 11.9888 13.0506 12.079 12.3339 12.0802L12.2391 12.0726V8.26332ZM17.2829 14.9121L12.239 14.02V12.792L12.2915 12.7962C12.3009 12.7969 12.3104 12.7973 12.3199 12.7973C13.1791 12.7973 13.7905 12.6817 14.2439 12.4335C14.8491 12.1023 15.156 11.5436 15.156 10.773V10.7535C15.156 9.25547 13.9618 7.58143 12.3575 7.55554L12.239 7.53145V0.786144L17.2829 1.67818V14.9121Z" fill="#E7245B"/>
<path d="M1.79289 8.1111C1.99089 8.1111 2.15146 7.95057 2.15146 7.75253V2.25554C2.15146 2.0575 1.99089 1.89697 1.79289 1.89697C1.59489 1.89697 1.43433 2.0575 1.43433 2.25554V7.75253C1.43433 7.95057 1.59489 8.1111 1.79289 8.1111Z" fill="#E7245B"/>
<path d="M1.79289 10.1799C1.99089 10.1799 2.15146 10.0194 2.15146 9.82132V8.99382C2.15146 8.79578 1.99089 8.63525 1.79289 8.63525C1.59489 8.63525 1.43433 8.79578 1.43433 8.99382V9.82132C1.43433 10.0194 1.59489 10.1799 1.79289 10.1799Z" fill="#E7245B"/>
<path d="M12.975 3.3353L13.6227 3.44273C13.7056 3.91851 14.1213 4.28145 14.6204 4.28145C15.179 4.28145 15.6334 3.827 15.6334 3.26843C15.6334 2.70982 15.179 2.25537 14.6204 2.25537C14.2561 2.25537 13.9362 2.44875 13.7577 2.73814L13.0924 2.62778C12.8963 2.59533 12.7123 2.72749 12.6799 2.92284C12.6476 3.11822 12.7796 3.30288 12.975 3.3353ZM14.6204 2.9725C14.7835 2.9725 14.9163 3.10524 14.9163 3.26839C14.9163 3.43154 14.7835 3.56428 14.6204 3.56428C14.4572 3.56428 14.3245 3.43154 14.3245 3.26839C14.3245 3.10524 14.4572 2.9725 14.6204 2.9725Z" fill="#E7245B"/>
</svg>
