<svg width="50" height="37" viewBox="0 0 50 37" fill="none" xmlns="http://www.w3.org/2000/svg">
<path d="M50 23.6853C49.5747 24.0819 49.158 24.4842 48.7241 24.8693C48.3965 25.1567 48.0488 25.4182 47.8016 25.6193C48.112 26.5676 48.4913 27.4211 48.6637 28.3177C49.4454 32.361 45.9395 36.2923 41.8272 36.0336C38.919 35.8526 36.6976 34.1715 35.7436 31.4098C35.6516 31.1455 35.528 31.0621 35.2579 31.0621C29.2203 31.0679 23.1826 31.0707 17.145 31.0592C16.8174 31.0592 16.7053 31.1886 16.6076 31.4731C15.55 34.5881 12.4666 36.4733 9.26239 35.9761C6.09269 35.4847 3.71901 32.7921 3.60981 29.5649C3.60694 29.4557 3.59257 29.3436 3.58108 29.1798C2.73908 29.1798 1.91146 29.1827 1.0867 29.1798C0.238961 29.177 -0.0340411 28.9097 0.00331708 28.0648C0.0981493 25.8751 0.917155 23.9267 2.01778 22.0732C2.96036 20.4869 4.10122 19.0472 5.3484 17.6908C5.48347 17.5442 5.61279 17.3517 5.64727 17.162C6.0266 15.001 7.66174 13.4952 9.85724 13.4693C13.7942 13.4262 17.7341 13.4262 21.671 13.4664C23.9269 13.4894 25.358 15.6734 24.4758 17.6649C24.3235 18.0098 24.0505 18.3115 23.789 18.5902C23.0389 19.3978 22.1739 20.1162 21.5187 20.9955C20.2486 22.7025 20.5848 24.2716 22.3665 25.4469C23.8119 26.3981 25.4471 26.6395 27.1311 26.5734C28.861 26.5073 30.5134 26.1078 32.0106 25.2055C33.3095 24.4239 34.324 23.3865 34.6286 21.8461C34.8901 20.5242 34.5481 19.2598 34.0624 18.0385C33.3469 16.2424 32.3066 14.6332 31.1428 13.0986C30.8899 12.7653 30.6456 12.4262 30.3669 12.0526C29.9416 12.521 29.5277 12.975 29.1111 13.4291C28.6857 13.8917 28.2087 13.9693 27.8351 13.6417C27.4328 13.2883 27.4587 12.8227 27.9127 12.3198C28.3179 11.8744 28.7231 11.429 29.1283 10.9836C29.6369 10.4203 30.2261 9.91166 30.3784 9.1099C30.387 9.06392 30.4128 9.01507 30.4473 8.98346C31.0824 8.39435 30.8583 7.71041 30.6945 7.01497C30.433 5.9086 30.2088 4.79647 29.9645 3.66136C29.7088 3.66136 29.4731 3.66136 29.1915 3.66136C29.1915 4.05506 29.1973 4.42577 29.1915 4.79647C29.18 5.38846 28.8668 5.73617 28.361 5.73043C27.8754 5.72468 27.5535 5.38558 27.5506 4.82521C27.5391 3.52342 27.542 2.22164 27.5506 0.919849C27.5535 0.365224 27.8811 0.0117586 28.3553 0.000263815C28.8467 -0.011231 29.18 0.353729 29.1915 0.934217C29.2001 1.27044 29.1915 1.60954 29.1915 1.99461C29.6111 1.99461 29.9818 1.99461 30.3496 1.99461C31.0939 1.99749 31.3008 2.15841 31.4589 2.87109C31.6514 3.72746 31.8353 4.58382 32.025 5.44306C32.048 5.54938 32.0882 5.65571 32.1399 5.83101C32.9158 4.97752 33.936 4.74762 34.9361 4.47462C35.8786 4.21599 36.2982 4.52922 36.3011 5.50053C36.3039 7.55235 36.2896 9.6013 36.3154 11.6531C36.3183 11.9319 36.4476 12.2451 36.6114 12.4779C37.2982 13.4434 38.0483 14.3688 38.7265 15.343C39.5828 16.5758 40.2926 17.8891 40.6202 19.4064C44.4164 19.0357 47.5803 20.2081 49.9971 23.2025C50 23.3606 50 23.5215 50 23.6853ZM3.66154 27.4729C3.76787 27.5217 3.79373 27.5476 3.82247 27.5476C7.67898 27.5533 11.5355 27.5562 15.3949 27.5476C15.5213 27.5476 15.7139 27.4269 15.7627 27.3148C16.2053 26.2717 16.7196 25.2429 17.0214 24.1595C17.4467 22.6249 16.8547 21.714 15.3029 21.3346C13.3459 20.8576 11.3861 20.9409 9.47504 21.5588C6.53524 22.5157 4.74205 24.6279 3.66154 27.4729ZM1.68443 27.5102C1.75053 27.5303 1.81662 27.5476 1.88559 27.5677C1.9718 27.3349 2.06089 27.105 2.14423 26.8723C4.76504 19.6937 11.524 18.5701 16.1018 19.8805C18.1795 20.4754 19.0818 22.1479 18.6968 24.2744C18.4439 25.671 17.8605 26.9384 17.1708 28.1568C16.9352 28.5735 16.9036 28.9614 17.0214 29.3925C22.036 29.3925 27.0247 29.3925 31.9905 29.3925C32.094 28.5591 32.1945 27.7631 32.298 26.9326C30.5422 27.7918 28.7174 28.2028 26.8035 28.2114C24.8091 28.22 22.9067 27.8579 21.263 26.6596C19.9238 25.6825 19.0387 24.4095 19.1508 22.6594C19.2284 21.4582 19.8204 20.4668 20.5445 19.5472C20.7802 19.2483 21.0359 18.9638 21.3463 18.596C21.0733 18.596 20.9009 18.596 20.7285 18.596C16.6104 18.596 12.4924 18.6506 8.37441 18.5615C7.13585 18.5356 6.33408 18.9006 5.5898 19.8604C4.04662 21.8548 2.60402 23.8836 1.92295 26.355C1.81375 26.7314 1.75915 27.1251 1.68443 27.5102ZM42.1002 24.3348C39.3242 24.3262 37.0655 26.5648 37.0425 29.3436C37.0195 32.0909 39.2897 34.3899 42.0513 34.4128C44.8245 34.4358 47.132 32.1484 47.1349 29.3666C47.1378 26.605 44.8762 24.3434 42.1002 24.3348ZM47.9654 23.3836C45.5831 20.8748 41.491 20.2455 38.3069 21.8548C35.4533 23.3002 33.2837 26.8751 33.7435 29.3925C34.2837 29.3925 34.8269 29.3925 35.3843 29.3925C35.5367 26.5533 36.7982 24.4296 39.3932 23.2801C42.0111 22.1192 44.4394 22.6479 46.632 24.4468C47.0746 24.0934 47.5056 23.7514 47.9654 23.3836ZM13.6189 29.2086C13.3344 31.3236 12.2855 32.5076 10.5757 32.657C9.82276 32.7231 9.12158 32.5449 8.48936 32.1311C7.44333 31.4443 6.99216 30.4242 6.96055 29.2201C6.36282 29.2201 5.82257 29.2201 5.24783 29.2201C5.26794 31.1886 6.06108 32.6972 7.71059 33.6801C9.45205 34.7175 11.2539 34.6859 12.9695 33.6168C14.5644 32.6197 15.3058 31.1167 15.3316 29.2086C14.7425 29.2086 14.1994 29.2086 13.6189 29.2086ZM36.3758 21.0128C37.1517 20.6478 37.8873 20.2685 38.646 19.9553C38.965 19.8231 39.0569 19.6506 38.942 19.3719C38.6431 18.6535 38.3874 17.9063 37.9965 17.2425C36.3758 14.4895 34.2377 12.1445 32.0221 9.86568C31.9934 9.83695 31.9388 9.83407 31.8957 9.81971C31.6083 10.3944 31.6284 10.9634 31.9761 11.4807C32.1572 11.7508 32.3698 11.998 32.5624 12.2595C34.4878 14.8889 36.2062 17.6132 36.3758 21.0128ZM7.43759 16.9149C10.0814 16.9149 12.6936 16.9149 15.2885 16.9149C15.2885 16.2884 15.2885 15.6993 15.2885 15.0958C13.4264 15.0958 11.6045 15.0757 9.78253 15.1044C8.67328 15.1217 7.68472 15.9177 7.43759 16.9149ZM22.9987 16.9235C23.3033 15.9579 22.6941 15.1102 21.6653 15.0987C20.2198 15.0815 18.7715 15.0929 17.326 15.0958C17.2168 15.0958 17.1105 15.1217 17.0013 15.1332C17.0013 15.7395 17.0013 16.32 17.0013 16.9235C19.0157 16.9235 21.0072 16.9235 22.9987 16.9235ZM11.8918 29.1798C10.8803 29.1798 9.8946 29.1712 8.90892 29.1942C8.81122 29.1971 8.63305 29.4011 8.63592 29.5074C8.66178 30.3954 9.49803 31.0851 10.4377 31.019C11.3401 30.9529 11.9838 30.177 11.8918 29.1798ZM34.6343 9.94615C34.6343 8.84839 34.6343 7.58109 34.6343 6.31091C33.7119 6.43161 32.9043 7.16153 32.7549 8.00065C32.7377 8.09836 32.7463 8.25066 32.8066 8.30814C33.4331 8.88288 34.0739 9.44612 34.6343 9.94615Z" fill="#13B4C9"/>
<path d="M42.0657 32.6682C40.2639 32.6567 38.7782 31.1567 38.784 29.3577C38.7897 27.5559 40.284 26.0673 42.0887 26.0645C43.9106 26.0645 45.4193 27.5875 45.3963 29.4037C45.3705 31.2113 43.8733 32.6797 42.0657 32.6682ZM43.7497 29.3491C43.7411 28.4324 42.9681 27.6795 42.0571 27.6996C41.1404 27.7197 40.4076 28.4899 40.4248 29.4094C40.4421 30.3147 41.1777 31.0245 42.0916 31.0216C43.0255 31.0216 43.7583 30.2802 43.7497 29.3491Z" fill="#13B4C9"/>
</svg>
