<svg width="61" height="44" viewBox="0 0 61 44" fill="none" xmlns="http://www.w3.org/2000/svg">
<path d="M60.064 28.4224C59.5536 28.8983 59.0536 29.3811 58.5329 29.8431C58.1397 30.188 57.7225 30.5018 57.4259 30.7432C57.7983 31.8812 58.2535 32.9054 58.4604 33.9813C59.3984 38.8332 55.1913 43.5507 50.2566 43.2403C46.7668 43.0231 44.1011 41.0058 42.9562 37.6918C42.8459 37.3745 42.6976 37.2745 42.3735 37.2745C35.1283 37.2814 27.8831 37.2849 20.6379 37.2711C20.2448 37.2711 20.1103 37.4263 19.9931 37.7677C18.724 41.5058 15.0238 43.768 11.1788 43.1714C7.3752 42.5817 4.52678 39.3505 4.39574 35.4779C4.39229 35.3469 4.37505 35.2124 4.36126 35.0158C3.35086 35.0158 2.35771 35.0193 1.36801 35.0158C0.350718 35.0124 0.0231156 34.6917 0.0679453 33.6778C0.181744 31.0501 1.16455 28.7121 2.4853 26.4878C3.61639 24.5843 4.98543 22.8566 6.48205 21.2289C6.64413 21.0531 6.79931 20.822 6.84069 20.5944C7.29588 18.0012 9.25805 16.1942 11.8927 16.1632C16.617 16.1114 21.3448 16.1114 26.0692 16.1597C28.7762 16.1873 30.4936 18.8081 29.4349 21.1979C29.2521 21.6117 28.9245 21.9738 28.6107 22.3083C27.7107 23.2773 26.6727 24.1394 25.8864 25.1946C24.3622 27.243 24.7657 29.1259 26.9037 30.5363C28.6383 31.6777 30.6005 31.9674 32.6213 31.8881C34.6972 31.8088 36.6801 31.3294 38.4767 30.2466C40.0354 29.3086 41.2527 28.0637 41.6182 26.2154C41.932 24.6291 41.5217 23.1118 40.9389 21.6462C40.0802 19.4909 38.8319 17.5598 37.4353 15.7183C37.1318 15.3183 36.8387 14.9114 36.5042 14.4631C35.9938 15.0252 35.4973 15.57 34.9972 16.1149C34.4869 16.6701 33.9144 16.7632 33.4661 16.3701C32.9833 15.9459 33.0144 15.3873 33.5592 14.7838C34.0455 14.2493 34.5317 13.7148 35.0179 13.1803C35.6283 12.5044 36.3352 11.894 36.518 10.9319C36.5283 10.8767 36.5594 10.8181 36.6008 10.7801C37.3629 10.0732 37.0939 9.25249 36.8973 8.41797C36.5835 7.09032 36.3145 5.75577 36.0214 4.39363C35.7145 4.39363 35.4317 4.39363 35.0938 4.39363C35.0938 4.86607 35.1007 5.31092 35.0938 5.75577C35.08 6.46615 34.7041 6.88341 34.0972 6.87651C33.5144 6.86962 33.1282 6.4627 33.1247 5.79025C33.1109 4.22811 33.1144 2.66596 33.1247 1.10382C33.1282 0.438269 33.5213 0.0141104 34.0903 0.000316578C34.68 -0.0134772 35.08 0.424475 35.0938 1.12106C35.1041 1.52453 35.0938 1.93144 35.0938 2.39354C35.5973 2.39354 36.0421 2.39354 36.4835 2.39354C37.3767 2.39698 37.6249 2.5901 37.8146 3.44531C38.0457 4.47295 38.2664 5.50058 38.4939 6.53167C38.5215 6.65926 38.5698 6.78685 38.6319 6.99721C39.563 5.97302 40.7872 5.69714 41.9872 5.36954C43.1183 5.05918 43.6218 5.43506 43.6252 6.60064C43.6287 9.06282 43.6114 11.5216 43.6425 13.9838C43.6459 14.3183 43.8011 14.6941 43.9977 14.9735C44.8218 16.1321 45.7219 17.2425 46.5357 18.4116C47.5634 19.8909 48.4151 21.4669 48.8082 23.2877C53.3636 22.8428 57.1604 24.2498 60.0605 27.843C60.064 28.0327 60.064 28.2258 60.064 28.4224ZM4.45781 32.9674C4.58541 33.0261 4.61644 33.0571 4.65093 33.0571C9.27874 33.064 13.9065 33.0674 18.5378 33.0571C18.6895 33.0571 18.9206 32.9123 18.9792 32.7778C19.5103 31.526 20.1275 30.2914 20.4896 28.9914C21 27.1499 20.2896 26.0568 18.4275 25.6016C16.0791 25.0291 13.7272 25.1291 11.434 25.8705C7.90626 27.0189 5.75443 29.5535 4.45781 32.9674ZM2.08528 33.0123C2.1646 33.0364 2.24391 33.0571 2.32668 33.0812C2.43013 32.8019 2.53703 32.526 2.63704 32.2467C5.78202 23.6325 13.8928 22.2842 19.3861 23.8566C21.8794 24.5705 22.9622 26.5775 22.5001 29.1293C22.1966 30.8053 21.4966 32.326 20.6689 33.7882C20.3862 34.2882 20.3482 34.7537 20.4896 35.271C26.5072 35.271 32.4937 35.271 38.4526 35.271C38.5767 34.2709 38.6974 33.3157 38.8216 32.3191C36.7146 33.3502 34.5248 33.8433 32.2281 33.8537C29.8349 33.864 27.552 33.4295 25.5795 31.9915C23.9726 30.819 22.9104 29.2914 23.0449 27.1913C23.138 25.7498 23.8484 24.5601 24.7174 23.4566C25.0002 23.098 25.3071 22.7566 25.6795 22.3152C25.3519 22.3152 25.145 22.3152 24.9381 22.3152C19.9965 22.3152 15.0549 22.3807 10.1133 22.2738C8.62698 22.2428 7.66487 22.6807 6.77172 23.8325C4.9199 26.2257 3.18879 28.6603 2.37151 31.626C2.24046 32.0777 2.17494 32.5502 2.08528 33.0123ZM50.5842 29.2017C47.253 29.1914 44.5425 31.8777 44.5149 35.2124C44.4873 38.5091 47.2116 41.2678 50.5256 41.2954C53.8533 41.323 56.6224 38.578 56.6259 35.24C56.6293 31.926 53.9154 29.2121 50.5842 29.2017ZM57.6225 28.0603C54.7637 25.0498 49.8531 24.2946 46.0322 26.2257C42.6079 27.9603 40.0044 32.2502 40.5561 35.271C41.2044 35.271 41.8562 35.271 42.5252 35.271C42.708 31.8639 44.2218 29.3155 47.3358 27.9362C50.4773 26.543 53.3912 27.1775 56.0224 29.3362C56.5534 28.9121 57.0707 28.5017 57.6225 28.0603ZM16.4067 35.0503C16.0653 37.5883 14.8066 39.0091 12.7548 39.1884C11.8513 39.2677 11.0099 39.0539 10.2512 38.5574C8.99597 37.7332 8.45456 36.509 8.41663 35.0641C7.69935 35.0641 7.05104 35.0641 6.36135 35.0641C6.38549 37.4263 7.33726 39.2367 9.31667 40.4161C11.4064 41.661 13.5686 41.623 15.6273 40.3402C17.5412 39.1436 18.4309 37.3401 18.4619 35.0503C17.755 35.0503 17.1033 35.0503 16.4067 35.0503ZM43.7149 25.2153C44.646 24.7774 45.5288 24.3222 46.4392 23.9463C46.8219 23.7877 46.9323 23.5808 46.7944 23.2463C46.4357 22.3842 46.1288 21.4876 45.6598 20.691C43.7149 17.3874 41.1493 14.5734 38.4905 11.8388C38.456 11.8043 38.3905 11.8009 38.3388 11.7836C37.9939 12.4733 38.0181 13.1561 38.4353 13.7768C38.6526 14.101 38.9078 14.3976 39.1388 14.7114C41.4493 17.8667 43.5114 21.1358 43.7149 25.2153ZM8.98907 20.2979C12.1616 20.2979 15.2963 20.2979 18.4102 20.2979C18.4102 19.5461 18.4102 18.8392 18.4102 18.115C16.1756 18.115 13.9893 18.0909 11.803 18.1253C10.4719 18.146 9.28563 19.1012 8.98907 20.2979ZM27.6624 20.3082C28.0279 19.1495 27.2969 18.1322 26.0623 18.1184C24.3277 18.0977 22.5897 18.1115 20.8552 18.115C20.7241 18.115 20.5965 18.146 20.4655 18.1598C20.4655 18.8874 20.4655 19.584 20.4655 20.3082C22.8828 20.3082 25.2726 20.3082 27.6624 20.3082ZM14.3342 35.0158C13.1203 35.0158 11.9375 35.0055 10.7547 35.033C10.6374 35.0365 10.4236 35.2813 10.4271 35.4089C10.4581 36.4745 11.4616 37.3021 12.5892 37.2228C13.6721 37.1435 14.4445 36.2124 14.3342 35.0158ZM41.6251 11.9354C41.6251 10.6181 41.6251 9.09731 41.6251 7.5731C40.5182 7.71793 39.5492 8.59384 39.3699 9.60078C39.3492 9.71803 39.3595 9.9008 39.4319 9.96977C40.1837 10.6595 40.9527 11.3354 41.6251 11.9354Z" fill="#E7245B"/>
<path d="M50.5429 39.2022C48.3807 39.1884 46.5979 37.3884 46.6048 35.2296C46.6117 33.0675 48.4048 31.2812 50.5705 31.2777C52.7568 31.2777 54.5672 33.1054 54.5396 35.2848C54.5086 37.4539 52.7119 39.216 50.5429 39.2022ZM52.5637 35.2193C52.5533 34.1192 51.6257 33.2157 50.5325 33.2399C49.4325 33.264 48.5531 34.1882 48.5738 35.2917C48.5945 36.378 49.4773 37.2297 50.5739 37.2263C51.6947 37.2263 52.574 36.3366 52.5637 35.2193Z" fill="#E7245B"/>
</svg>
