<svg width="49" height="35" viewBox="0 0 49 35" fill="none" xmlns="http://www.w3.org/2000/svg">
<path d="M49 22.9921C48.5832 23.377 48.1748 23.7676 47.7496 24.1414C47.4285 24.4203 47.0878 24.6742 46.8456 24.8695C47.1497 25.79 47.5215 26.6185 47.6905 27.4889C48.4565 31.4138 45.0207 35.23 40.9906 34.9789C38.1406 34.8032 35.9637 33.1713 35.0287 30.4905C34.9386 30.2338 34.8175 30.1529 34.5527 30.1529C28.6358 30.1585 22.719 30.1613 16.8021 30.1502C16.481 30.1502 16.3712 30.2757 16.2754 30.5519C15.239 33.5758 12.2172 35.4057 9.07714 34.9231C5.97084 34.4461 3.64463 31.8323 3.53762 28.6996C3.5348 28.5936 3.52072 28.4848 3.50946 28.3258C2.6843 28.3258 1.87323 28.3286 1.06497 28.3258C0.234181 28.323 -0.0333602 28.0635 0.00325074 27.2434C0.0961863 25.1177 0.898812 23.2264 1.97743 21.4271C2.90115 19.8872 4.01919 18.4897 5.24144 17.173C5.3738 17.0307 5.50053 16.8438 5.53432 16.6597C5.90607 14.5619 7.5085 13.1002 9.6601 13.0751C13.5183 13.0332 17.3794 13.0332 21.2376 13.0723C23.4484 13.0946 24.8508 15.2147 23.9863 17.1479C23.837 17.4826 23.5695 17.7755 23.3132 18.0461C22.5781 18.83 21.7305 19.5274 21.0884 20.381C19.8436 22.038 20.1731 23.5611 21.9191 24.7021C23.3357 25.6254 24.9381 25.8598 26.5885 25.7956C28.2838 25.7314 29.9032 25.3437 31.3704 24.4678C32.6433 23.709 33.6375 22.7019 33.936 21.2067C34.1923 19.9235 33.8571 18.6961 33.3812 17.5105C32.68 15.767 31.6605 14.2049 30.5199 12.7152C30.2721 12.3916 30.0327 12.0624 29.7595 11.6998C29.3427 12.1545 28.9372 12.5953 28.5288 13.036C28.112 13.4851 27.6445 13.5605 27.2784 13.2424C26.8842 12.8993 26.9095 12.4474 27.3545 11.9592C27.7516 11.5268 28.1486 11.0945 28.5457 10.6621C29.0442 10.1153 29.6215 9.62156 29.7708 8.84326C29.7792 8.79863 29.8046 8.7512 29.8384 8.72052C30.4608 8.14865 30.2411 7.48473 30.0806 6.80965C29.8243 5.73565 29.6046 4.65608 29.3653 3.55419C29.1146 3.55419 28.8837 3.55419 28.6077 3.55419C28.6077 3.93637 28.6133 4.29623 28.6077 4.65608C28.5964 5.23074 28.2895 5.56828 27.7938 5.5627C27.3179 5.55712 27.0024 5.22795 26.9996 4.68398C26.9884 3.42029 26.9912 2.15661 26.9996 0.892925C27.0024 0.354534 27.3235 0.0114145 27.7882 0.000256094C28.2697 -0.0109023 28.5964 0.343376 28.6077 0.906873C28.6161 1.23326 28.6077 1.56243 28.6077 1.93623C29.0189 1.93623 29.3822 1.93623 29.7426 1.93623C30.472 1.93902 30.6748 2.09524 30.8297 2.78706C31.0184 3.61836 31.1986 4.44965 31.3845 5.28374C31.407 5.38696 31.4464 5.49017 31.4971 5.66034C32.2575 4.83183 33.2573 4.60866 34.2373 4.34365C35.1611 4.09259 35.5722 4.39665 35.575 5.33953C35.5779 7.3313 35.5638 9.32028 35.5891 11.312C35.5919 11.5826 35.7187 11.8867 35.8792 12.1127C36.5523 13.05 37.2873 13.9482 37.9519 14.8939C38.7912 16.0906 39.4868 17.3655 39.8078 18.8384C43.5281 18.4785 46.6287 19.6167 48.9972 22.5234C49 22.6768 49 22.8331 49 22.9921ZM3.58831 26.6687C3.69251 26.7162 3.71786 26.7413 3.74602 26.7413C7.5254 26.7469 11.3048 26.7496 15.087 26.7413C15.2109 26.7413 15.3996 26.6241 15.4474 26.5153C15.8811 25.5027 16.3853 24.504 16.681 23.4523C17.0978 21.9627 16.5176 21.0784 14.9969 20.7102C13.079 20.2471 11.1583 20.328 9.28554 20.9278C6.40454 21.8567 4.64721 23.907 3.58831 26.6687ZM1.65074 26.705C1.71552 26.7245 1.78029 26.7413 1.84788 26.7608C1.93237 26.5348 2.01967 26.3117 2.10134 26.0857C4.66974 19.1173 11.2935 18.0266 15.7798 19.2986C17.8159 19.8761 18.7002 21.4996 18.3228 23.5639C18.075 24.9197 17.5033 26.1499 16.8274 27.3327C16.5965 27.7372 16.5655 28.1138 16.681 28.5322C21.5953 28.5322 26.4843 28.5322 31.3507 28.5322C31.4521 27.7232 31.5506 26.9505 31.652 26.1443C29.9313 26.9784 28.143 27.3773 26.2674 27.3857C24.3129 27.394 22.4486 27.0425 20.8377 25.8793C19.5254 24.9308 18.658 23.695 18.7678 21.9962C18.8438 20.8301 19.424 19.8677 20.1337 18.9751C20.3646 18.6849 20.6152 18.4088 20.9194 18.0517C20.6518 18.0517 20.4829 18.0517 20.3139 18.0517C16.2782 18.0517 12.2426 18.1047 8.20693 18.0182C6.99313 17.9931 6.2074 18.3474 5.478 19.2791C3.96568 21.2151 2.55194 23.1845 1.88449 25.5836C1.77747 25.949 1.72397 26.3312 1.65074 26.705ZM41.2582 23.6225C38.5377 23.6141 36.3242 25.7872 36.3016 28.4848C36.2791 31.1516 38.5039 33.3833 41.2103 33.4056C43.928 33.4279 46.1894 31.2074 46.1922 28.5071C46.195 25.8263 43.9787 23.6309 41.2582 23.6225ZM47.0061 22.6992C44.6715 20.2638 40.6611 19.6529 37.5408 21.2151C34.7443 22.6183 32.618 26.0885 33.0686 28.5322C33.598 28.5322 34.1303 28.5322 34.6767 28.5322C34.8259 25.7761 36.0622 23.7146 38.6053 22.5987C41.1709 21.4717 43.5506 21.985 45.6994 23.7313C46.1331 23.3882 46.5555 23.0562 47.0061 22.6992ZM13.3465 28.3537C13.0677 30.4068 12.0398 31.5561 10.3642 31.7012C9.62631 31.7653 8.93915 31.5924 8.31957 31.1907C7.29447 30.524 6.85232 29.5337 6.82134 28.3648C6.23557 28.3648 5.70611 28.3648 5.14287 28.3648C5.16258 30.2757 5.93986 31.7402 7.55638 32.6943C9.26301 33.7013 11.0288 33.6706 12.7101 32.6329C14.2731 31.6649 14.9997 30.2059 15.025 28.3537C14.4477 28.3537 13.9154 28.3537 13.3465 28.3537ZM35.6483 20.3977C36.4086 20.0435 37.1296 19.6752 37.8731 19.3712C38.1857 19.2429 38.2758 19.0755 38.1632 18.8049C37.8703 18.1075 37.6196 17.3822 37.2366 16.7378C35.6483 14.0654 33.553 11.7891 31.3817 9.57692C31.3535 9.54903 31.3 9.54624 31.2578 9.53229C30.9761 10.0902 30.9958 10.6425 31.3366 11.1447C31.514 11.4069 31.7224 11.6468 31.9111 11.9007C33.798 14.4531 35.4821 17.0977 35.6483 20.3977ZM7.28883 16.4198C9.87977 16.4198 12.4397 16.4198 14.9828 16.4198C14.9828 15.8117 14.9828 15.2398 14.9828 14.654C13.1579 14.654 11.3724 14.6345 9.58688 14.6623C8.49981 14.6791 7.53103 15.4518 7.28883 16.4198ZM22.5387 16.4282C22.8372 15.4909 22.2402 14.6679 21.232 14.6568C19.8154 14.64 18.396 14.6512 16.9795 14.654C16.8725 14.654 16.7683 14.6791 16.6612 14.6902C16.6612 15.2788 16.6612 15.8423 16.6612 16.4282C18.6354 16.4282 20.5871 16.4282 22.5387 16.4282ZM11.654 28.3258C10.6627 28.3258 9.69671 28.3174 8.73074 28.3397C8.63499 28.3425 8.46039 28.5406 8.4632 28.6438C8.48855 29.5058 9.30807 30.1753 10.229 30.1111C11.1133 30.0469 11.7441 29.2938 11.654 28.3258ZM33.9416 9.65503C33.9416 8.58941 33.9416 7.3592 33.9416 6.1262C33.0376 6.24336 32.2463 6.95192 32.0998 7.76648C32.0829 7.86132 32.0914 8.00917 32.1505 8.06496C32.7644 8.62288 33.3925 9.16964 33.9416 9.65503Z" fill="white"/>
<path d="M41.2244 31.7123C39.4587 31.7012 38.0027 30.245 38.0083 28.4987C38.0139 26.7497 39.4784 25.3046 41.247 25.3019C43.0325 25.3019 44.511 26.7803 44.4885 28.5434C44.4631 30.298 42.9959 31.7235 41.2244 31.7123ZM42.8748 28.4904C42.8663 27.6005 42.1087 26.8696 41.216 26.8891C40.3176 26.9087 39.5995 27.6563 39.6164 28.5489C39.6333 29.4277 40.3542 30.1167 41.2498 30.1139C42.1651 30.1139 42.8832 29.3942 42.8748 28.4904Z" fill="white"/>
</svg>
