<svg width="15" height="15" viewBox="0 0 15 15" fill="none" xmlns="http://www.w3.org/2000/svg">
<path d="M14.3177 3.40899H2.3278L4.57285 1.16389C4.83912 0.897671 4.83912 0.46596 4.57285 0.199697C4.30664 -0.0665657 3.87492 -0.0665657 3.60866 0.199697L0.199697 3.60866C-0.0665657 3.87488 -0.0665657 4.30659 0.199697 4.57285L3.60866 7.98182C3.74179 8.11495 3.91629 8.18154 4.09078 8.18154C4.26527 8.18154 4.43977 8.11495 4.57285 7.98182C4.83912 7.7156 4.83912 7.28389 4.57285 7.01763L2.3278 4.77257H14.3177C14.6942 4.77257 14.9995 4.46731 14.9995 4.09078C14.9995 3.71425 14.6942 3.40899 14.3177 3.40899Z" fill="#E7245B"/>
<path d="M11.3912 7.01802C11.125 6.75181 10.6933 6.75181 10.4271 7.01802C10.1608 7.28424 10.1608 7.71595 10.4271 7.98221L12.6722 10.2273H0.682281C0.30575 10.2273 0.000488281 10.5326 0.000488281 10.9091C0.000488281 11.2856 0.30575 11.5909 0.682281 11.5909H12.6722L10.4271 13.836C10.1608 14.1022 10.1608 14.5339 10.4271 14.8002C10.5602 14.9333 10.7347 14.9999 10.9092 14.9999C11.0837 14.9999 11.2582 14.9333 11.3912 14.8001L14.8002 11.3912C15.0665 11.125 15.0665 10.6933 14.8002 10.427L11.3912 7.01802Z" fill="#E7245B"/>
</svg>
