<svg width="16" height="16" viewBox="0 0 16 16" fill="none" xmlns="http://www.w3.org/2000/svg">
<path d="M8 0C3.55556 0 0 3.55556 0 8C0 12.4444 3.55556 16 8 16C12.4444 16 16 12.4444 16 8C15.9111 3.55556 12.3556 0 8 0ZM10.4 10.5778C10.2222 10.5778 10.0444 10.5778 9.95556 10.4889L7.55556 8.53333C7.46667 8.44444 7.37778 8.17778 7.37778 8V4.35556C7.37778 4 7.73333 3.73333 8 3.73333C8.35556 3.73333 8.62222 4.08889 8.62222 4.35556V7.73333L10.8444 9.42222C10.9333 9.51111 11.0222 9.77778 11.0222 9.95556C11.0222 10.2222 10.7556 10.5778 10.4 10.5778Z" fill="#E7245B"/>
</svg>
