<svg width="12" height="15" viewBox="0 0 12 15" fill="none" xmlns="http://www.w3.org/2000/svg">
<path d="M8.67624 5.98772C8.67624 7.52501 7.4299 8.77135 5.89277 8.77135C4.35547 8.77135 3.10913 7.52484 3.10913 5.98772C3.10913 4.45059 4.35547 3.20425 5.89277 3.20425C7.4299 3.20425 8.67624 4.45059 8.67624 5.98772ZM11.784 5.89107C11.784 2.63748 9.14653 0 5.8926 0C2.63935 0 0.00187089 2.63731 0.00136044 5.89039L0 5.89107C0 6.08895 0.0125908 6.28497 0.031137 6.48047C0.0323281 6.49102 0.0335185 6.50106 0.0347095 6.51127C0.493431 11.1449 5.89277 15 5.89277 15C5.89277 15 11.784 11.2419 11.784 5.89107Z" fill="#E7245B"/>
</svg>
