<svg width="35" height="15" viewBox="0 0 35 15" fill="none" xmlns="http://www.w3.org/2000/svg">
<path d="M34.9471 13.8905C34.7885 14.1636 34.577 14.2729 34.2598 14.2729C23.0514 14.2729 11.8429 14.2729 0.687311 14.2729C0.581571 14.2729 0.528701 14.2729 0.422961 14.2729C0.15861 14.2183 0 14.0544 0 13.7813C0 13.6174 0.15861 13.399 0.317221 13.2897C0.422961 13.2351 0.581571 13.2351 0.740181 13.2351C11.8958 13.2351 23.0514 13.2351 34.207 13.2351C34.5242 13.2351 34.7885 13.2897 35 13.5628C34.9471 13.6721 34.9471 13.7813 34.9471 13.8905Z" fill="#E7245B"/>
<path d="M15.3323 11.2144C18.9274 11.2144 22.5755 11.2144 26.1706 11.2144C27.1223 11.2144 28.074 10.9959 29.0256 10.8866C29.3428 10.832 29.6072 10.6682 29.8715 10.5043C30.2945 10.2312 30.4531 9.84886 30.2945 9.35728C30.0302 8.48335 29.4486 7.82791 28.867 7.11785C28.8141 7.06323 28.6555 7.06323 28.4969 7.06323C26.7522 7.06323 25.0604 7.06323 23.3157 7.06323C21.7824 7.06323 20.6721 6.40779 19.7205 5.20614C18.9274 4.16836 18.1873 3.13058 17.3942 2.03818C17.2356 1.8197 17.077 1.76508 16.8655 1.76508C12.2658 1.76508 7.61323 1.76508 3.01354 1.76508C2.9078 1.76508 2.80206 1.76508 2.69632 1.76508C2.3791 1.76508 2.11475 1.5466 2.11475 1.21888C2.11475 0.945775 2.32623 0.727295 2.64345 0.727295C2.74919 0.727295 2.85493 0.727295 2.96067 0.727295C7.6661 0.727295 12.3715 0.727295 17.1298 0.727295C19.0332 0.727295 20.9365 0.836535 22.7869 1.32812C24.5317 1.8197 26.0649 2.58438 27.2809 3.94988C28.2854 5.0969 29.3428 6.13469 30.2416 7.28171C30.6646 7.82791 30.9818 8.48335 31.1933 9.13879C31.5105 10.0673 31.0876 10.8866 30.2945 11.3782C29.6072 11.8152 28.8141 11.979 28.0211 12.0883C27.1752 12.1975 26.3821 12.2521 25.5362 12.2521C18.0815 12.2521 10.6797 12.2521 3.22502 12.2521C2.69632 12.2521 2.43197 12.0883 2.43197 11.7059C2.43197 11.3782 2.69632 11.2144 3.22502 11.2144C7.34888 11.2144 11.367 11.2144 15.3323 11.2144ZM18.6102 1.71046C19.4561 2.80286 20.1963 3.84064 20.9894 4.87842C21.5709 5.58849 22.3111 5.97083 23.2099 5.97083C24.7431 5.97083 26.2764 5.97083 27.8096 5.91621C27.8096 5.91621 27.8625 5.86159 27.8625 5.91621C25.5362 2.69362 22.3111 1.8197 18.6102 1.71046Z" fill="#E7245B"/>
<path d="M10.3095 7.44562C7.98322 7.44562 5.65693 7.44562 3.33065 7.44562C2.69621 7.44562 2.5376 7.28176 2.5376 6.62632C2.5376 5.58854 2.5376 4.49613 2.5376 3.45835C2.5376 2.91215 2.69621 2.74829 3.22491 2.74829C6.92581 2.74829 10.6267 2.74829 14.2748 2.74829C14.592 2.74829 14.8035 2.85753 14.9621 3.07601C15.8609 4.16841 16.8125 5.31543 17.7113 6.40784C17.8699 6.62632 18.0285 6.8448 17.9228 7.1179C17.7642 7.44562 17.4998 7.44562 17.2355 7.44562C14.9621 7.44562 12.6358 7.44562 10.3095 7.44562ZM3.595 3.78607C3.595 4.65999 3.595 5.53392 3.595 6.35322C5.07536 6.35322 6.50285 6.35322 7.98321 6.35322C7.2959 5.4793 6.60859 4.71461 5.92128 3.89531C5.86841 3.84069 5.76267 3.78607 5.7098 3.78607C5.02249 3.78607 4.33518 3.78607 3.595 3.78607ZM12.2128 6.40784C11.7899 5.86163 11.4198 5.42467 11.0497 4.98771C10.7325 4.60537 10.4681 4.05917 10.0451 3.84069C9.62219 3.62221 9.09349 3.78607 8.61766 3.78607C8.1947 3.78607 7.71886 3.78607 7.19016 3.78607C7.93034 4.65999 8.56479 5.47929 9.2521 6.29859C9.30497 6.35321 9.41071 6.40784 9.46358 6.40784C10.3624 6.40784 11.2612 6.40784 12.2128 6.40784ZM11.4198 3.78607C12.16 4.65999 12.7944 5.47929 13.4817 6.24398C13.5346 6.2986 13.6932 6.35322 13.7989 6.35322C14.3805 6.35322 15.0149 6.35322 15.5965 6.35322C15.8609 6.35322 16.1252 6.35322 16.4424 6.35322C15.7022 5.4793 15.0149 4.65999 14.3276 3.84069C14.2748 3.78607 14.2219 3.78607 14.169 3.78607C13.2702 3.78607 12.3714 3.78607 11.4198 3.78607Z" fill="#E7245B"/>
</svg>
