<svg width="64" height="24" viewBox="0 0 64 24" fill="none" xmlns="http://www.w3.org/2000/svg">
<path d="M63.4501 22.8917C63.1622 23.3605 62.7782 23.548 62.2023 23.548C41.8521 23.548 21.502 23.548 1.24788 23.548C1.0559 23.548 0.959911 23.548 0.767929 23.548C0.287973 23.4542 0 23.173 0 22.7042C0 22.423 0.287973 22.048 0.575947 21.8605C0.767929 21.7668 1.0559 21.7668 1.34388 21.7668C21.598 21.7668 41.8521 21.7668 62.1063 21.7668C62.6822 21.7668 63.1622 21.8605 63.5461 22.3293C63.4501 22.5168 63.4501 22.7042 63.4501 22.8917Z" fill="white"/>
<path d="M27.8376 18.2987C34.365 18.2987 40.9884 18.2987 47.5158 18.2987C49.2436 18.2987 50.9715 17.9237 52.6993 17.7362C53.2753 17.6425 53.7552 17.3612 54.2352 17.08C55.0031 16.6113 55.2911 15.955 55.0031 15.1113C54.5232 13.6114 53.4673 12.4864 52.4114 11.2677C52.3154 11.174 52.0274 11.174 51.7394 11.174C48.5717 11.174 45.5 11.174 42.3323 11.174C39.5485 11.174 37.5327 10.049 35.8049 7.98662C34.365 6.20545 33.0211 4.42428 31.5813 2.54936C31.2933 2.17437 31.0053 2.08063 30.6214 2.08063C22.2701 2.08063 13.8229 2.08063 5.47169 2.08063C5.27971 2.08063 5.08773 2.08063 4.89575 2.08063C4.3198 2.08063 3.83984 1.70564 3.83984 1.14317C3.83984 0.674437 4.22381 0.299454 4.79975 0.299454C4.99174 0.299454 5.18372 0.299454 5.3757 0.299454C13.9189 0.299454 22.4621 0.299454 31.1013 0.299454C34.557 0.299454 38.0127 0.486946 41.3724 1.33066C44.5401 2.17437 47.3238 3.48682 49.5316 5.83047C51.3554 7.79913 53.2753 9.58031 54.9071 11.549C55.675 12.4864 56.251 13.6114 56.635 14.7363C57.2109 16.33 56.443 17.7362 55.0031 18.5799C53.7552 19.3299 52.3154 19.6111 50.8755 19.7986C49.3396 19.9861 47.8998 20.0799 46.3639 20.0799C32.8292 20.0799 19.3904 20.0799 5.85566 20.0799C4.89575 20.0799 4.41579 19.7986 4.41579 19.1424C4.41579 18.5799 4.89575 18.2987 5.85566 18.2987C13.343 18.2987 20.6383 18.2987 27.8376 18.2987ZM33.7891 1.98688C35.3249 3.8618 36.6688 5.64298 38.1087 7.42415C39.1646 8.64285 40.5085 9.29907 42.1403 9.29907C44.924 9.29907 47.7078 9.29907 50.4915 9.20532C50.4915 9.20532 50.5875 9.11158 50.5875 9.20532C46.3639 3.67431 40.5084 2.17437 33.7891 1.98688Z" fill="white"/>
<path d="M18.7179 11.8303C14.4943 11.8303 10.2707 11.8303 6.04704 11.8303C4.89515 11.8303 4.60718 11.5491 4.60718 10.4241C4.60718 8.64296 4.60718 6.76804 4.60718 4.98687C4.60718 4.04941 4.89515 3.76817 5.85506 3.76817C12.5744 3.76817 19.2938 3.76817 25.9172 3.76817C26.4932 3.76817 26.8771 3.95567 27.1651 4.33065C28.7969 6.20557 30.5248 8.17423 32.1566 10.0491C32.4446 10.4241 32.7326 10.7991 32.5406 11.2678C32.2526 11.8303 31.7727 11.8303 31.2927 11.8303C27.1651 11.8303 22.9415 11.8303 18.7179 11.8303ZM6.527 5.54934C6.527 7.04928 6.527 8.54921 6.527 9.9554C9.21475 9.9554 11.8065 9.9554 14.4943 9.9554C13.2464 8.45547 11.9985 7.14303 10.7506 5.73684C10.6546 5.64309 10.4626 5.54934 10.3666 5.54934C9.11876 5.54934 7.87088 5.54934 6.527 5.54934ZM22.1736 10.0491C21.4056 9.11169 20.7337 8.36172 20.0617 7.61175C19.4858 6.95553 19.0058 6.01807 18.2379 5.64309C17.47 5.26811 16.5101 5.54934 15.6462 5.54934C14.8782 5.54934 14.0143 5.54934 13.0544 5.54934C14.3983 7.04928 15.5502 8.45547 16.798 9.86165C16.894 9.9554 17.086 10.0491 17.182 10.0491C18.8139 10.0491 20.4457 10.0491 22.1736 10.0491ZM20.7337 5.54934C22.0776 7.04928 23.2295 8.45547 24.4773 9.76791C24.5733 9.86166 24.8613 9.9554 25.0533 9.9554C26.1092 9.9554 27.2611 9.9554 28.317 9.9554C28.7969 9.9554 29.2769 9.9554 29.8528 9.9554C28.509 8.45547 27.2611 7.04928 26.0132 5.64309C25.9172 5.54935 25.8212 5.54934 25.7252 5.54934C24.0934 5.54934 22.4615 5.54934 20.7337 5.54934Z" fill="white"/>
</svg>
