<svg width="53" height="31" viewBox="0 0 53 31" fill="none" xmlns="http://www.w3.org/2000/svg">
<path d="M52.689 29.9436C52.4294 30.3087 52.0684 30.4228 51.6089 30.4228C35.016 30.4142 18.4231 30.4171 1.83019 30.4142C1.64817 30.4142 1.45423 30.4056 1.28415 30.3515C0.917144 30.2374 0.738116 29.9636 0.782873 29.6043C0.82763 29.2478 1.0544 29.0196 1.44229 28.974C1.59148 28.9569 1.74664 28.9655 1.89881 28.9655C4.39924 28.9655 6.89966 28.9655 9.40008 28.9655C9.58209 28.9655 9.76112 28.9655 9.92225 28.9655C9.82676 28.4122 9.74023 27.8932 9.63878 27.3114C9.50153 27.3114 9.31952 27.3114 9.13751 27.3114C7.63367 27.3114 6.12984 27.3171 4.626 27.3085C3.31313 27.3 2.39711 26.6098 2.13453 25.3921C1.7168 23.4642 1.33786 21.5307 0.93803 19.6028C0.729164 18.5876 1.00666 17.6122 1.20359 16.6341C1.48407 15.2566 1.77648 13.882 2.07784 12.5103C2.16735 12.1053 2.31058 11.7089 2.44485 11.2612C1.92567 10.8049 1.56761 10.206 1.57955 9.44454C1.59745 8.37795 2.41203 7.4454 3.51006 7.26003C3.80844 7.21154 4.11577 7.19729 4.41714 7.19729C14.9112 7.19443 25.4022 7.19443 35.8962 7.19443C36.0961 7.19443 36.296 7.19443 36.4959 7.19443C36.5109 7.16306 36.5258 7.13169 36.5437 7.10032C36.1737 6.84366 35.8067 6.58699 35.4367 6.33032C34.7325 5.8398 34.7266 5.35499 35.4277 4.87303C36.5646 4.09447 37.7044 3.31877 38.9456 2.47177C38.6831 2.45181 38.5428 2.4347 38.4056 2.4347C37.4925 2.43184 36.5795 2.4404 35.6694 2.42614C35.2398 2.42044 34.9772 2.18944 34.9354 1.77307C34.8936 1.37381 35.1622 1.0601 35.5978 0.994511C35.747 0.971696 35.9022 0.980252 36.0543 0.980252C41.2253 0.980252 46.3962 0.983104 51.5671 0.974548C52.0385 0.974548 52.4324 1.05155 52.698 1.45366C52.698 1.61621 52.698 1.77592 52.698 1.93847C52.4682 2.34344 52.1072 2.4461 51.6417 2.44325C49.2248 2.42614 46.8109 2.4347 44.3941 2.4347C44.2329 2.4347 44.0718 2.4347 43.7764 2.4347C44.0121 2.61151 44.1374 2.70847 44.2658 2.79973C45.2683 3.48703 46.2738 4.16577 47.2734 4.85592C48.0044 5.36069 48.0045 5.83981 47.2854 6.34173C46.9184 6.5984 46.5513 6.85221 46.1843 7.10888C47.2824 7.19729 48.3267 7.18873 49.374 7.20014C50.6779 7.21725 51.6566 7.97584 51.8506 9.13369C51.9968 10.0035 51.6417 10.7108 51.0121 11.2583C51.1434 11.6918 51.2896 12.0854 51.3761 12.4903C51.6775 13.8621 51.9669 15.2395 52.2504 16.6141C52.4563 17.6237 52.7338 18.6304 52.513 19.677C52.1072 21.5906 51.7372 23.507 51.3194 25.4178C51.0569 26.6127 50.1409 27.3028 48.8608 27.3114C47.3391 27.3228 45.8203 27.3142 44.2986 27.3142C44.1195 27.3142 43.9435 27.3142 43.8301 27.3142C43.7227 27.9131 43.6302 28.4293 43.5347 28.9683C43.7197 28.9683 43.9047 28.9683 44.0897 28.9683C46.608 28.9683 49.1234 28.9769 51.6417 28.9598C52.1072 28.9569 52.4682 29.0596 52.698 29.4645C52.689 29.6214 52.689 29.7811 52.689 29.9436ZM39.7602 25.0784C39.7602 23.4443 39.7602 21.9014 39.7602 20.3158C39.5096 20.3158 39.2918 20.3158 39.0739 20.3158C32.1486 20.3158 25.2202 20.3158 18.2948 20.3158C18.1098 20.3158 17.9218 20.3244 17.7398 20.2987C17.3042 20.2416 17.0117 19.9279 17.0296 19.5515C17.0476 19.1694 17.3519 18.8813 17.7995 18.8671C18.3574 18.8499 18.9154 18.8614 19.4704 18.8614C19.9896 18.8614 20.5088 18.8614 21.0458 18.8614C21.0458 17.5039 21.0458 16.2063 21.0458 14.9058C18.5693 14.9058 16.1285 14.9058 13.6938 14.9058C13.6938 16.2319 13.6938 17.5181 13.6938 18.8614C13.9713 18.8614 14.2219 18.8528 14.4696 18.8642C14.9798 18.8842 15.2662 19.1323 15.2811 19.5487C15.299 19.985 15.0066 20.2702 14.4845 20.3072C14.2249 20.3244 13.9593 20.3101 13.6938 20.3101C13.6938 21.9385 13.6938 23.4814 13.6938 25.0784C13.9026 25.0784 14.0846 25.0784 14.2667 25.0784C16.0569 25.0784 17.8472 25.0898 19.6375 25.0727C20.3775 25.067 21.0309 25.2524 21.6187 25.6858C21.753 25.7828 21.9499 25.8455 22.117 25.8484C25.1903 25.8569 28.2666 25.8569 31.3399 25.8484C31.507 25.8484 31.707 25.7856 31.8382 25.6887C32.426 25.2552 33.0765 25.0698 33.8195 25.0755C35.6098 25.0898 37.4 25.0812 39.1903 25.0812C39.3723 25.0784 39.5514 25.0784 39.7602 25.0784ZM49.9887 13.3829C49.9588 13.1805 49.9409 13.0065 49.9021 12.8382C49.6933 11.88 49.5262 11.7545 48.5117 11.7517C48.0045 11.7517 47.4972 11.7717 46.9929 11.7346C46.3962 11.6918 46.062 11.0615 46.438 10.6452C46.608 10.4541 46.9482 10.3315 47.2197 10.3144C47.9776 10.2687 48.7385 10.3001 49.4993 10.2915C49.923 10.2858 50.2632 10.0691 50.296 9.6841C50.3199 9.40747 50.1826 9.04529 49.9827 8.84566C49.8216 8.6831 49.4576 8.65173 49.1831 8.65173C34.2133 8.64317 19.2406 8.64317 4.27093 8.64603C4.08594 8.64603 3.89497 8.65458 3.72191 8.70306C3.29523 8.82569 3.07741 9.12514 3.11322 9.54151C3.14902 9.95502 3.40265 10.226 3.85022 10.2801C4.06803 10.3058 4.28884 10.3001 4.50665 10.3001C17.4146 10.3001 30.3255 10.3001 43.2334 10.303C43.4512 10.303 43.675 10.2944 43.8898 10.3258C44.3135 10.3914 44.5641 10.6537 44.5462 11.0587C44.5283 11.458 44.2777 11.7118 43.8361 11.7431C43.6332 11.7574 43.4303 11.7517 43.2274 11.7517C30.4866 11.7517 17.7458 11.7517 5.00495 11.7517C4.80205 11.7517 4.5723 11.7061 4.4052 11.7802C4.1486 11.8943 3.8353 12.0483 3.71893 12.2679C3.54885 12.593 3.52797 12.9922 3.43845 13.3829C19.0019 13.3829 34.4729 13.3829 49.9887 13.3829ZM7.18312 22.7057C8.82719 22.7057 10.4683 22.7057 12.1183 22.7057C12.1183 20.0848 12.1183 17.5039 12.1183 14.8944C10.4653 14.8944 8.83614 14.8944 7.18312 14.8944C7.18312 17.5067 7.18312 20.0877 7.18312 22.7057ZM46.2738 22.7228C46.2738 20.0877 46.2738 17.5067 46.2738 14.8973C44.6238 14.8973 42.9917 14.8973 41.3506 14.8973C41.3506 17.5181 41.3506 20.1076 41.3506 22.7228C42.9976 22.7228 44.6119 22.7228 46.2738 22.7228ZM30.8506 14.9058C28.0637 14.9058 25.3544 14.9058 22.6064 14.9058C22.6064 16.1549 22.5974 17.3613 22.6213 18.5705C22.6243 18.6703 22.8361 18.8471 22.9555 18.8499C25.4708 18.8671 27.9891 18.8671 30.5045 18.8499C30.6208 18.8499 30.8327 18.6703 30.8357 18.5705C30.8566 17.3613 30.8506 16.1521 30.8506 14.9058ZM39.7602 18.83C39.7602 17.5039 39.7602 16.2091 39.7602 14.903C37.2896 14.903 34.8519 14.903 32.3992 14.903C32.3992 16.2262 32.3992 17.5124 32.3992 18.83C34.8638 18.83 37.3016 18.83 39.7602 18.83ZM45.7397 5.59455C44.2508 4.57644 42.8156 3.5954 41.3625 2.60581C39.9124 3.5954 38.4772 4.57644 36.9823 5.5974C37.773 6.1364 38.507 6.64688 39.253 7.1374C39.3514 7.20299 39.5126 7.19158 39.6468 7.19158C40.7926 7.19443 41.9414 7.19443 43.0872 7.19158C43.2184 7.19158 43.3796 7.19729 43.478 7.13169C44.224 6.63832 44.955 6.12784 45.7397 5.59455ZM22.4124 28.9255C25.2888 28.9255 28.1771 28.9255 31.0416 28.9255C30.958 28.3751 30.8775 27.8561 30.7999 27.3428C28.0757 27.3428 25.3485 27.3428 22.6541 27.3428C22.5735 27.8789 22.496 28.3837 22.4124 28.9255ZM5.61364 25.8398C5.61364 23.989 5.61364 22.1781 5.61364 20.3472C4.62004 20.3472 3.65329 20.3472 2.62686 20.3472C2.97895 22.0069 3.29821 23.6325 3.68909 25.2438C3.74578 25.4834 4.12174 25.7429 4.39924 25.817C4.76923 25.914 5.18994 25.8398 5.61364 25.8398ZM47.8374 25.8541C48.1775 25.8541 48.4789 25.8598 48.7773 25.8541C49.4456 25.8427 49.7171 25.6231 49.8514 24.9985C49.9797 24.3996 50.111 23.8008 50.2363 23.2019C50.4303 22.2608 50.6212 21.3196 50.8182 20.3472C49.7917 20.3472 48.825 20.3472 47.8374 20.3472C47.8374 22.1781 47.8374 23.9776 47.8374 25.8541ZM2.32251 18.8243C3.50708 18.8243 4.56036 18.8243 5.60171 18.8243C5.60171 17.4925 5.60171 16.1977 5.60171 14.8887C4.76028 14.8887 3.95465 14.8887 3.11322 14.8887C2.85064 16.1949 2.59105 17.4839 2.32251 18.8243ZM47.8344 18.8072C48.9354 18.8072 49.9917 18.8072 51.1345 18.8072C50.857 17.4525 50.5944 16.1692 50.3348 14.8973C49.4605 14.8973 48.6579 14.8973 47.8344 14.8973C47.8344 16.2091 47.8344 17.4953 47.8344 18.8072ZM12.1124 24.2285C10.4623 24.2285 8.83913 24.2285 7.19505 24.2285C7.19505 24.7732 7.19505 25.2923 7.19505 25.8541C8.26922 25.8541 9.31057 25.8569 10.3519 25.8512C10.4444 25.8512 10.5429 25.8056 10.6294 25.76C11.1068 25.5062 11.5842 25.2495 12.1153 24.9615C12.1124 24.7904 12.1124 24.5223 12.1124 24.2285ZM41.3386 25.0185C41.7534 25.1982 42.1771 25.3065 42.4993 25.5404C42.8514 25.7971 43.1976 25.8798 43.6153 25.8569C44.0002 25.837 44.3911 25.8512 44.776 25.8512C45.2743 25.8512 45.7726 25.8512 46.2619 25.8512C46.2619 25.2609 46.2619 24.7504 46.2619 24.2257C44.6089 24.2257 42.9827 24.2257 41.3357 24.2257C41.3386 24.5137 41.3386 24.7647 41.3386 25.0185ZM39.6946 27.7477C39.6976 28.4094 40.2615 28.9541 40.9508 28.9541C41.6251 28.9569 42.2159 28.4008 42.2278 27.7534C42.2397 27.0804 41.649 26.5271 40.9328 26.5357C40.2287 26.5471 39.6916 27.0718 39.6946 27.7477ZM12.5092 26.5357C11.814 26.5328 11.2441 27.0576 11.2291 27.7164C11.2142 28.378 11.8229 28.9626 12.5181 28.9541C13.2074 28.9426 13.7624 28.3979 13.7594 27.7335C13.7564 27.0604 13.2164 26.5414 12.5092 26.5357ZM21.0727 27.7164C21.0637 27.0405 20.5147 26.5328 19.8076 26.5357C19.1123 26.5385 18.5484 27.0747 18.5454 27.7335C18.5454 28.4008 19.1601 28.974 19.8493 28.9512C20.5416 28.9312 21.0816 28.3837 21.0727 27.7164ZM32.3813 27.762C32.3932 28.4208 32.9691 28.9626 33.6494 28.9569C34.3267 28.9483 34.9086 28.3894 34.9086 27.742C34.9086 27.0633 34.3237 26.5243 33.6017 26.5385C32.8975 26.5528 32.3694 27.0832 32.3813 27.762ZM17.3131 28.9398C16.9401 28.1185 16.9431 27.3513 17.2982 26.5699C16.5284 26.5699 15.8033 26.5699 15.1737 26.5699C15.1737 27.3798 15.1737 28.1498 15.1737 28.9398C15.8093 28.9398 16.5284 28.9398 17.3131 28.9398ZM38.4175 26.5813C37.6328 26.5813 36.9107 26.5813 36.1498 26.5813C36.5407 27.3969 36.478 28.1641 36.1528 28.9398C36.9256 28.9398 37.6447 28.9398 38.4444 28.9398C38.0863 28.147 38.0863 27.377 38.4175 26.5813Z" fill="white"/>
<path d="M16.9522 2.42899C11.9663 2.42899 6.98033 2.42899 1.9944 2.42899C1.82432 2.42899 1.65425 2.43754 1.48716 2.42328C1.05152 2.38621 0.800882 2.1438 0.779996 1.73884C0.756125 1.34813 0.988862 1.10002 1.37974 1.00876C1.54086 0.968838 1.71392 0.977394 1.884 0.977394C11.9394 0.977394 21.9978 0.977394 32.0532 0.977394C32.2531 0.977394 32.4649 0.980245 32.6529 1.03443C33.0229 1.1428 33.199 1.41373 33.1632 1.77591C33.1273 2.1381 32.9036 2.36624 32.5187 2.41473C32.3516 2.43469 32.1815 2.42613 32.0114 2.42613C26.9897 2.42899 21.9709 2.42899 16.9522 2.42899Z" fill="white"/>
</svg>
