<svg width="25" height="24" viewBox="0 0 25 24" fill="none" xmlns="http://www.w3.org/2000/svg">
<g clip-path="url(#clip0)">
<path d="M0.992486 6.74952H1.74266V11.2493H0.992486C0.577783 11.2493 0.24231 10.9154 0.24231 10.4995V7.49938C0.24231 7.08688 0.577783 6.74952 0.992486 6.74952ZM23.4921 6.74952H22.7413V11.2493H23.4921C23.9062 11.2493 24.2423 10.9154 24.2423 10.4995V7.49938C24.2423 7.08688 23.9072 6.74952 23.4921 6.74952ZM21.2422 5.25011V18.7498C21.2422 19.5792 20.5716 20.2499 19.7422 20.2499V21.7499C19.7422 22.5796 19.0716 23.25 18.2422 23.25H16.7418C15.9127 23.25 15.2418 22.5781 15.2418 21.7499V20.2499H9.24255V21.7499C9.24255 22.5796 8.5716 23.25 7.74251 23.25H6.2431C5.41369 23.25 4.74306 22.5781 4.74306 21.7499V20.2499C3.91396 20.2499 3.24302 19.578 3.24302 18.7498V5.25011C3.24239 2.76566 5.25837 0.750305 7.74251 0.750305H16.7424C19.2269 0.750305 21.2422 2.76503 21.2422 5.25011ZM9.24255 3.75038H15.2424V2.25034H9.24255V3.75038ZM7.74251 17.2504C7.74251 16.4201 7.07156 15.7504 6.2431 15.7504C5.414 15.7504 4.74306 16.421 4.74306 17.2504C4.74306 18.0789 5.414 18.7505 6.2431 18.7505C7.07125 18.7501 7.74251 18.0783 7.74251 17.2504ZM19.7422 17.2504C19.7422 16.4201 19.0716 15.7504 18.2422 15.7504C17.4127 15.7504 16.7421 16.421 16.7421 17.2504C16.7421 18.0789 17.4137 18.7505 18.2422 18.7505C19.0719 18.7501 19.7422 18.0783 19.7422 17.2504ZM19.7422 5.25011H4.74243V14.25H19.7422V5.25011Z" fill="#414142"/>
</g>
<defs>
<clipPath id="clip0">
<rect width="24" height="24" fill="white" transform="translate(0.24231 0.00012207)"/>
</clipPath>
</defs>
</svg>
