<svg width="51" height="37" viewBox="0 0 51 37" fill="none" xmlns="http://www.w3.org/2000/svg">
<path d="M0.5 5.07302C0.795806 4.30249 0.976736 3.46568 1.41039 2.77248C2.52757 0.980104 4.24497 0.0162532 6.42187 0.0134915C18.6074 -0.00860253 30.7929 0.00244447 42.9784 0.00520622C44.1759 0.00520622 45.2185 0.375281 45.9623 1.33085C47.0938 2.78629 46.5941 4.72228 44.8681 5.45414C44.3598 5.66956 43.7796 5.76622 43.2225 5.81593C42.5476 5.87669 41.8641 5.82974 41.0915 5.82974C42.8118 8.90633 43.8859 12.1072 44.2506 15.5677C44.7101 15.5677 45.1323 15.54 45.5516 15.5732C47.0134 15.6864 48.0932 16.885 48.0473 18.3211C48.0042 19.6771 46.8296 20.8012 45.408 20.8509C45.2931 20.8537 45.1811 20.8537 45.0662 20.8564C43.9835 20.8592 43.9835 20.8592 43.7854 21.9225C43.9634 21.9666 44.1444 22.0136 44.3282 22.0605C47.0794 22.7814 49.0237 24.4025 50.1294 26.9323C50.296 27.3161 50.3994 27.7387 50.4597 28.153C50.6636 29.5835 50.1036 30.3292 48.5614 30.7214C48.2971 32.3922 47.4987 33.7814 46.0858 34.8198C42.3666 37.5512 36.8698 35.5103 36.0599 31.0859C35.9939 30.7269 35.8446 30.6717 35.52 30.6744C33.2742 30.6855 31.0312 30.68 28.7854 30.6772C28.593 30.6772 28.392 30.6744 28.2053 30.6303C27.8405 30.5419 27.6596 30.2795 27.6797 29.9343C27.6998 29.5918 27.9037 29.3488 28.2799 29.2936C28.4551 29.2687 28.6361 29.2742 28.8141 29.2715C31.2208 29.2715 33.6303 29.2742 36.037 29.2632C36.2667 29.2632 36.5309 29.2107 36.7205 29.092C39.7791 27.1615 41.6659 24.4522 42.4758 21.0332C42.4873 20.989 42.4758 20.942 42.4758 20.8619C41.0111 20.4504 40.1208 19.5584 40.2012 18.0201C40.273 16.7027 41.0456 15.9875 42.7601 15.5069C42.7314 15.2501 42.7199 14.9849 42.6625 14.7309C42.6423 14.6452 42.5045 14.5237 42.4183 14.521C41.4103 14.5044 40.4023 14.5072 39.3914 14.5099C39.2822 14.5099 39.1731 14.532 38.9807 14.5541C38.9807 15.6119 39.0869 16.6696 38.9577 17.6997C38.7452 19.3844 38.4666 21.0746 38.0559 22.7234C37.605 24.5323 36.5654 25.2752 34.6269 25.3305C32.9209 25.3802 31.2122 25.3525 29.5034 25.3525C27.5189 25.3553 25.5344 25.336 23.5499 25.3608C21.574 25.3857 20.1381 24.6345 19.2105 22.9001C18.28 21.1657 16.9991 19.6965 15.2013 18.7105C14.1645 18.1416 13.0502 17.8295 11.8555 17.8268C8.65047 17.8213 5.44542 17.824 2.24038 17.824C2.17719 17.824 2.11114 17.8351 1.97616 17.8489C1.97616 18.0118 1.97616 18.1775 1.97616 18.3432C1.97616 21.5192 1.97616 24.6952 1.97616 27.8713C1.97616 29.0395 2.22602 29.2798 3.43222 29.2687C3.57581 29.2687 3.71941 29.2549 3.89746 29.2466C3.96065 27.0289 4.83945 25.2007 6.65449 23.8336C7.98419 22.8338 9.50917 22.392 11.1979 22.4113C14.3885 22.4499 17.9669 24.9134 18.1134 29.2715C18.2857 29.2715 18.4609 29.2715 18.6361 29.2715C20.6378 29.2715 22.6395 29.2715 24.6384 29.2715C24.8021 29.2715 24.9658 29.2687 25.1266 29.288C25.5258 29.3405 25.7354 29.5891 25.7441 29.9564C25.7527 30.3044 25.5603 30.5557 25.1955 30.6358C25.0232 30.6744 24.8423 30.6744 24.6642 30.6744C22.5649 30.6772 20.4655 30.6827 18.369 30.6689C18.0272 30.6662 17.8693 30.7462 17.763 31.0915C16.8986 33.9388 14.1215 35.9162 11.0112 35.9328C7.90377 35.9494 5.10079 33.9526 4.22486 31.0777C4.13009 30.7683 4.00085 30.6551 3.6591 30.6634C3.19098 30.6717 2.70562 30.6689 2.25761 30.5612C1.31849 30.3403 0.830269 29.6498 0.511488 28.8268C0.5 20.9089 0.5 12.991 0.5 5.07302ZM5.09505 16.3824C5.09505 16.1891 5.09505 16.0206 5.09505 15.8521C5.09505 13.2699 5.08643 10.6877 5.09792 8.10542C5.10941 6.19429 6.43623 4.63114 8.40923 4.49305C10.4655 4.34944 12.539 4.43229 14.6039 4.44058C15.0232 4.44334 15.3075 4.7858 15.2961 5.15311C15.2846 5.53147 14.9974 5.79936 14.5666 5.82974C14.4374 5.83802 14.3053 5.8325 14.176 5.8325C12.4845 5.8325 10.7929 5.82974 9.10136 5.8325C7.49309 5.83526 6.55972 6.73559 6.55972 8.28493C6.55685 10.8202 6.55972 13.3555 6.55972 15.8908C6.55972 16.0427 6.55972 16.1946 6.55972 16.3769C7.21739 16.3769 7.82623 16.3769 8.48964 16.3769C8.48964 16.1835 8.48964 16.0178 8.48964 15.8494C8.49251 14.5348 8.46954 13.2202 8.50113 11.9056C8.53559 10.5109 9.89975 9.47801 11.3185 9.73209C12.5505 9.95303 13.3173 10.8506 13.3345 12.1376C13.3518 13.4687 13.3403 14.7971 13.3374 16.1283C13.3374 16.3741 13.3374 16.5591 13.6792 16.6337C15.5631 17.048 17.1513 17.9952 18.3834 19.401C19.2478 20.3869 19.9715 21.4916 20.6981 22.5798C21.3845 23.6071 22.3753 24.0987 23.5815 23.8833C23.5815 17.8848 23.5815 11.8863 23.5815 5.83526C22.6625 5.83526 21.7722 5.83526 20.879 5.83526C19.9198 5.83526 18.9606 5.84078 17.9985 5.82974C17.5361 5.82421 17.2289 5.54804 17.2145 5.15863C17.2001 4.77751 17.5074 4.47096 17.9526 4.43229C18.1134 4.41848 18.2771 4.42677 18.4408 4.42677C26.5252 4.42677 34.6125 4.42953 42.6969 4.42124C43.1162 4.42124 43.547 4.39363 43.9519 4.29697C44.5378 4.15612 44.9858 3.8109 45.072 3.19227C45.1581 2.56811 44.8709 2.04614 44.3138 1.78653C43.8514 1.56836 43.2971 1.42751 42.7831 1.42751C30.7641 1.40541 18.7423 1.41094 6.71768 1.41094C3.89746 1.41094 1.96754 3.26959 1.96467 5.97887C1.9618 9.27916 1.96467 12.5822 1.96467 15.8825C1.96467 16.0455 1.96467 16.2112 1.96467 16.3796C3.04164 16.3824 4.04393 16.3824 5.09505 16.3824ZM37.5217 16.167C37.5533 16.1062 37.5792 16.0814 37.5792 16.0565C37.5821 15.9322 37.5821 15.8052 37.5821 15.6809C37.5332 12.4441 36.8698 9.32059 35.7613 6.27438C35.6378 5.93468 35.4827 5.82698 35.1093 5.82698C31.9359 5.84078 28.7653 5.83526 25.5918 5.83526C25.4339 5.83526 25.2788 5.83526 25.1209 5.83526C25.1209 7.48126 25.1209 9.06651 25.1209 10.6821C25.3248 10.6821 25.4856 10.6932 25.6464 10.6794C27.5735 10.5385 28.5987 11.9056 28.5298 13.4439C28.4551 15.1617 28.5097 16.885 28.5183 18.6056C28.5212 19.3844 28.7538 19.5998 29.5694 19.6302C29.9256 19.644 30.2845 19.6385 30.6435 19.6412C32.5419 19.6523 33.7854 20.8509 33.7911 22.6792C33.794 23.0934 33.7911 23.5105 33.7911 23.9385C34.0295 23.9385 34.1903 23.9413 34.354 23.9385C35.8647 23.9082 36.373 23.5574 36.709 22.1434C36.9962 20.9282 37.2001 19.691 37.427 18.462C37.4499 18.3377 37.4385 18.1554 37.3609 18.0753C36.3902 17.0866 35.5631 15.8273 33.8084 16.2498C33.794 16.2526 33.7768 16.2498 33.7595 16.2498C33.2024 16.2388 32.9037 16.004 32.8951 15.5677C32.8865 15.1175 33.2024 14.8496 33.7739 14.8441C34.3598 14.8358 34.9456 14.8579 35.5315 14.8358C35.9537 14.8192 36.2811 14.9435 36.5654 15.2473C36.8555 15.5649 37.1829 15.8466 37.5217 16.167ZM10.9997 23.817C7.92675 23.8032 5.40234 26.1783 5.3765 29.103C5.35065 32.0802 7.85495 34.5105 10.9652 34.5271C14.0295 34.5436 16.5913 32.1133 16.597 29.1831C16.6056 26.2363 14.0956 23.8308 10.9997 23.817ZM32.3236 23.9247C32.3236 23.4387 32.3293 23.0023 32.3236 22.5659C32.3092 21.6739 31.6918 21.0774 30.7584 21.0525C30.319 21.0415 29.8796 21.0525 29.4431 21.0359C27.9267 20.9724 27.0967 20.1522 27.0565 18.6829C27.0508 18.4786 27.0508 18.2769 27.0508 18.0726C27.0508 16.4459 27.0536 14.8192 27.0479 13.1926C27.045 12.6319 26.798 12.2149 26.3443 12.1431C25.9422 12.0796 25.52 12.1293 25.118 12.1293C25.118 16.0841 25.118 19.9975 25.118 23.922C27.5246 23.9247 29.894 23.9247 32.3236 23.9247ZM38.995 29.23C39.2391 29.2466 39.3799 29.2659 39.5177 29.2659C42.427 29.2687 45.3362 29.2687 48.2454 29.2659C48.9031 29.2659 49.0352 29.1334 49.0122 28.4871C49.0065 28.3463 48.9864 28.2082 48.9577 28.0701C48.4637 25.764 45.7813 23.5077 43.2943 23.3309C42.4097 25.6149 41.0054 27.5702 38.995 29.23ZM42.3178 13.0628C42.3121 12.9799 42.315 12.9191 42.3035 12.8639C41.7549 10.4529 40.8043 8.19103 39.5263 6.0562C39.4689 5.9623 39.3425 5.84907 39.2449 5.84631C38.5729 5.82698 37.898 5.83802 37.3006 5.83802C37.8865 8.2656 38.4609 10.6545 39.0496 13.0931C39.9743 13.0931 40.9967 13.0931 42.0163 13.0931C42.111 13.0931 42.2058 13.0738 42.3178 13.0628ZM45.8704 30.7048C45.4827 31.2903 45.2098 31.8758 44.779 32.3177C42.9898 34.1515 39.8394 33.4721 38.9347 31.0997C38.8744 30.9396 38.7251 30.7186 38.5843 30.6965C38.2426 30.6385 37.8807 30.6772 37.5275 30.6772C37.4902 32.5303 39.6642 34.4774 41.8899 34.6403C44.4028 34.8226 46.7492 33.0413 47.0392 30.7076C46.6199 30.7048 46.2035 30.7048 45.8704 30.7048ZM44.0898 19.4424C44.4947 19.4424 44.9025 19.4562 45.3075 19.4396C46.0398 19.412 46.5711 18.8873 46.5769 18.2107C46.5826 17.5506 46.0858 17.0065 45.3735 16.9789C44.5292 16.9458 43.682 16.943 42.8405 16.9789C42.134 17.0093 41.6314 17.5616 41.6401 18.2189C41.6487 18.8901 42.1915 19.4148 42.9181 19.4424C43.3115 19.4534 43.7021 19.4424 44.0898 19.4424ZM11.8239 16.41C11.844 16.2664 11.8727 16.1614 11.8727 16.0565C11.8756 14.7612 11.8814 13.466 11.8699 12.1707C11.8641 11.5134 11.4764 11.0992 10.9078 11.1019C10.3392 11.1019 9.96006 11.5245 9.95719 12.1762C9.95144 13.2533 9.95431 14.3304 9.95431 15.4047C9.95431 15.7251 9.95431 16.0482 9.95431 16.41C10.4569 16.41 10.8934 16.41 11.3271 16.41C11.4879 16.41 11.6459 16.41 11.8239 16.41ZM40.4051 30.6938C40.6952 31.5168 41.4677 31.9835 42.404 31.9393C43.2139 31.9007 43.9318 31.3814 44.1042 30.6938C42.8807 30.6938 41.6659 30.6938 40.4051 30.6938Z" fill="#13B4C9"/>
<path d="M10.9797 32.308C9.15028 32.3052 7.69422 30.9022 7.69997 29.1513C7.70858 27.4059 9.18762 26.0029 11.0113 26.0167C12.8062 26.0305 14.268 27.439 14.268 29.1596C14.2709 30.905 12.8062 32.308 10.9797 32.308ZM9.16464 29.1734C9.16751 30.1483 9.97739 30.9078 11.0027 30.8995C12.0021 30.8912 12.7976 30.1317 12.8033 29.1817C12.8091 28.2123 11.9963 27.428 10.9854 27.4252C9.97165 27.4197 9.16177 28.1985 9.16464 29.1734Z" fill="#13B4C9"/>
</svg>
