<svg width="26" height="25" viewBox="0 0 26 25" fill="none" xmlns="http://www.w3.org/2000/svg">
<g clip-path="url(#clip0)">
<path d="M25.8623 4.74844C24.9326 5.15625 23.942 5.42656 22.9092 5.55781C23.9717 4.92344 24.7826 3.92656 25.1639 2.725C24.1732 3.31562 23.0795 3.73281 21.9139 3.96563C20.9732 2.96406 19.6326 2.34375 18.1701 2.34375C15.3326 2.34375 13.0482 4.64688 13.0482 7.47031C13.0482 7.87656 13.0826 8.26719 13.167 8.63906C8.90605 8.43125 5.13574 6.38906 2.60293 3.27813C2.16074 4.04531 1.90137 4.92344 1.90137 5.86875C1.90137 7.64375 2.81543 9.21719 4.17793 10.1281C3.35449 10.1125 2.54668 9.87344 1.8623 9.49688C1.8623 9.5125 1.8623 9.53281 1.8623 9.55312C1.8623 12.0437 3.63887 14.1125 5.96855 14.5891C5.55137 14.7031 5.09668 14.7578 4.6248 14.7578C4.29668 14.7578 3.96543 14.7391 3.65449 14.6703C4.31855 16.7 6.20293 18.1922 8.44355 18.2406C6.6998 19.6047 4.48574 20.4266 2.08887 20.4266C1.66855 20.4266 1.26543 20.4078 0.862305 20.3563C3.13262 21.8203 5.82324 22.6562 8.7248 22.6562C18.1561 22.6562 23.3123 14.8438 23.3123 8.07187C23.3123 7.84531 23.3045 7.62656 23.2936 7.40938C24.3107 6.6875 25.1654 5.78594 25.8623 4.74844Z" fill="#13B4C9"/>
</g>
<defs>
<clipPath id="clip0">
<rect width="25" height="25" fill="white" transform="translate(0.862305)"/>
</clipPath>
</defs>
</svg>
