<svg width="26" height="25" viewBox="0 0 26 25" fill="none" xmlns="http://www.w3.org/2000/svg">
<g clip-path="url(#clip0)">
<path d="M25.4309 4.74844C24.5012 5.15625 23.5106 5.42656 22.4778 5.55781C23.5403 4.92344 24.3512 3.92656 24.7325 2.725C23.7418 3.31562 22.6481 3.73281 21.4825 3.96563C20.5418 2.96406 19.2012 2.34375 17.7387 2.34375C14.9012 2.34375 12.6168 4.64688 12.6168 7.47031C12.6168 7.87656 12.6512 8.26719 12.7356 8.63906C8.47466 8.43125 4.70435 6.38906 2.17153 3.27813C1.72935 4.04531 1.46997 4.92344 1.46997 5.86875C1.46997 7.64375 2.38403 9.21719 3.74653 10.1281C2.9231 10.1125 2.11528 9.87344 1.43091 9.49688C1.43091 9.5125 1.43091 9.53281 1.43091 9.55312C1.43091 12.0437 3.20747 14.1125 5.53716 14.5891C5.11997 14.7031 4.66528 14.7578 4.19341 14.7578C3.86528 14.7578 3.53403 14.7391 3.2231 14.6703C3.88716 16.7 5.77153 18.1922 8.01216 18.2406C6.26841 19.6047 4.05435 20.4266 1.65747 20.4266C1.23716 20.4266 0.834033 20.4078 0.430908 20.3563C2.70122 21.8203 5.39185 22.6562 8.29341 22.6562C17.7247 22.6562 22.8809 14.8438 22.8809 8.07187C22.8809 7.84531 22.8731 7.62656 22.8622 7.40938C23.8793 6.6875 24.734 5.78594 25.4309 4.74844Z" fill="#E7245B"/>
</g>
<defs>
<clipPath id="clip0">
<rect width="25" height="25" fill="white" transform="translate(0.430908)"/>
</clipPath>
</defs>
</svg>
