<svg width="16" height="17" viewBox="0 0 16 17" fill="none" xmlns="http://www.w3.org/2000/svg">
<g clip-path="url(#clip0)">
<path d="M16 3.53241C15.405 3.79341 14.771 3.96641 14.11 4.05041C14.79 3.64441 15.309 3.00641 15.553 2.23741C14.919 2.61541 14.219 2.88241 13.473 3.03141C12.871 2.39041 12.013 1.99341 11.077 1.99341C9.261 1.99341 7.799 3.46741 7.799 5.27441C7.799 5.53441 7.821 5.78441 7.875 6.02241C5.148 5.88941 2.735 4.58241 1.114 2.59141C0.831 3.08241 0.665 3.64441 0.665 4.24941C0.665 5.38541 1.25 6.39241 2.122 6.97541C1.595 6.96541 1.078 6.81241 0.64 6.57141C0.64 6.58141 0.64 6.59441 0.64 6.60741C0.64 8.20141 1.777 9.52541 3.268 9.83041C3.001 9.90341 2.71 9.93841 2.408 9.93841C2.198 9.93841 1.986 9.92641 1.787 9.88241C2.212 11.1814 3.418 12.1364 4.852 12.1674C3.736 13.0404 2.319 13.5664 0.785 13.5664C0.516 13.5664 0.258 13.5544 0 13.5214C1.453 14.4584 3.175 14.9934 5.032 14.9934C11.068 14.9934 14.368 9.99341 14.368 5.65941C14.368 5.51441 14.363 5.37441 14.356 5.23541C15.007 4.77341 15.554 4.19641 16 3.53241Z" fill="#E7245B"/>
</g>
<defs>
<clipPath id="clip0">
<rect width="16" height="16" fill="white" transform="translate(0 0.493408)"/>
</clipPath>
</defs>
</svg>
