<svg width="27" height="27" viewBox="0 0 27 27" fill="none" xmlns="http://www.w3.org/2000/svg">
<g clip-path="url(#clip0)">
<path d="M26.9998 5.08775C26.0037 5.52471 24.9423 5.81434 23.8357 5.95497C24.9741 5.27526 25.843 4.20715 26.2515 2.91972C25.1901 3.55255 24.0182 3.99955 22.7693 4.249C21.7614 3.17587 20.325 2.51123 18.758 2.51123C15.7177 2.51123 13.2701 4.97893 13.2701 8.00413C13.2701 8.43941 13.3069 8.85795 13.3973 9.2564C8.83192 9.03373 4.79219 6.84562 2.07839 3.51237C1.6046 4.33438 1.32669 5.27526 1.32669 6.28812C1.32669 8.18996 2.30607 9.87583 3.76593 10.8519C2.88365 10.8351 2.01812 10.579 1.28484 10.1755C1.28484 10.1922 1.28484 10.214 1.28484 10.2358C1.28484 12.9044 3.18835 15.121 5.68451 15.6316C5.23751 15.7538 4.75034 15.8124 4.24474 15.8124C3.89317 15.8124 3.53825 15.7923 3.20509 15.7186C3.91661 17.8934 5.93564 19.4922 8.33637 19.5441C6.46802 21.0056 4.09574 21.8862 1.52759 21.8862C1.07724 21.8862 0.645311 21.8661 0.213379 21.8109C2.64592 23.3796 5.52882 24.2752 8.63772 24.2752C18.7429 24.2752 24.2676 15.9045 24.2676 8.64868C24.2676 8.40593 24.2593 8.17155 24.2475 7.93884C25.3374 7.16538 26.2532 6.19939 26.9998 5.08775Z" fill="white"/>
</g>
<defs>
<clipPath id="clip0">
<rect width="26.7865" height="26.7865" fill="white" transform="translate(0.213379)"/>
</clipPath>
</defs>
</svg>
