<svg width="18" height="18" viewBox="0 0 18 18" fill="none" xmlns="http://www.w3.org/2000/svg">
<path d="M14.5788 7.67385C14.5788 7.51688 14.4516 7.38965 14.2946 7.38965H7.47878C7.32181 7.38965 7.19458 7.51691 7.19458 7.67385C7.19458 7.83082 7.32185 7.95805 7.47878 7.95805H14.2946C14.4515 7.95805 14.5788 7.83079 14.5788 7.67385Z" fill="#E7245B"/>
<path d="M8.61453 10.042C8.45755 10.042 8.33032 10.1693 8.33032 10.3262C8.33032 10.4831 8.45759 10.6104 8.61453 10.6104H8.65242C8.8094 10.6104 8.93663 10.4831 8.93663 10.3262C8.93663 10.1693 8.80936 10.042 8.65242 10.042H8.61453Z" fill="#E7245B"/>
<path d="M16.0933 4.73846V1.8C16.0933 0.807504 15.2858 0 14.2933 0H3.69327C2.70077 0 1.89327 0.807504 1.89327 1.8V9.28645C0.840832 9.33613 0 10.2085 0 11.2737C0 12.3707 0.891879 13.2632 1.98816 13.2632H7.18098V14.2476C7.18098 14.3745 7.24054 14.4943 7.34446 14.5764C7.34449 14.5764 7.34453 14.5764 7.34453 14.5764C7.52122 14.716 7.78778 14.716 7.96458 14.5764L9.43717 13.4134C9.57632 13.3035 9.65612 13.1452 9.65612 12.9789C9.65612 12.8127 9.57635 12.6544 9.43717 12.5445L7.96458 11.3814C7.78778 11.2418 7.52126 11.2418 7.34453 11.3814C7.24057 11.4635 7.18098 11.5833 7.18098 11.7102V12.6947H2.46168V1.8C2.46168 1.12092 3.01419 0.568406 3.69327 0.568406H14.2933C14.9724 0.568406 15.5249 1.12092 15.5249 1.8V4.73685H10.7922V3.75237C10.7922 3.62545 10.7326 3.50564 10.6286 3.42355C10.4519 3.28395 10.1854 3.28402 10.0086 3.42355L8.53604 4.58656C8.39686 4.69645 8.31705 4.85483 8.31705 5.02105C8.31705 5.18727 8.39686 5.34565 8.53601 5.45555L10.0086 6.61855C10.1854 6.75816 10.4519 6.75812 10.6285 6.61862C10.7325 6.53657 10.7922 6.41672 10.7922 6.28977V5.30525H15.8059C15.808 5.30529 15.8101 5.30529 15.8122 5.30525H16.0118C16.7947 5.30525 17.4316 5.94271 17.4316 6.72631C17.4316 7.48252 16.8384 8.10267 16.0932 8.14503V6.29051C16.0932 6.13353 15.966 6.0063 15.809 6.0063C15.652 6.0063 15.5248 6.13357 15.5248 6.29051V16.2C15.5248 16.8791 14.9723 17.4316 14.2932 17.4316H3.69327C3.01419 17.4316 2.46168 16.8791 2.46168 16.2V14.2863C2.46168 14.1293 2.33441 14.0021 2.17747 14.0021C2.0205 14.0021 1.89327 14.1294 1.89327 14.2863V16.2C1.89327 17.1925 2.70077 18 3.69327 18H14.2933C15.2858 18 16.0933 17.1925 16.0933 16.2V8.71414C17.1519 8.67122 18 7.796 18 6.72631C18 5.65664 17.1519 4.78139 16.0933 4.73846ZM1.89327 12.6916C1.15446 12.6426 0.568441 12.0254 0.568441 11.2737C0.568441 10.522 1.1545 9.90475 1.89327 9.85574V12.6916ZM7.74939 11.9359L9.07017 12.9789L7.74939 14.0221V11.9359ZM10.2237 6.06414L8.9029 5.02105L10.2237 3.97793V6.06414Z" fill="#E7245B"/>
<path d="M14.2944 12.6948H10.8865C10.7295 12.6948 10.6023 12.8221 10.6023 12.979C10.6023 13.136 10.7295 13.2632 10.8865 13.2632H14.2944C14.4514 13.2632 14.5786 13.136 14.5786 12.979C14.5786 12.8221 14.4514 12.6948 14.2944 12.6948Z" fill="#E7245B"/>
<path d="M3.69216 10.6104H7.4787C7.63567 10.6104 7.7629 10.4831 7.7629 10.3262C7.7629 10.1693 7.63564 10.042 7.4787 10.042H3.69216C3.53519 10.042 3.40796 10.1693 3.40796 10.3262C3.40796 10.4831 3.53522 10.6104 3.69216 10.6104Z" fill="#E7245B"/>
<path d="M14.2944 10.042H10.8865C10.7295 10.042 10.6023 10.1693 10.6023 10.3262C10.6023 10.4831 10.7295 10.6104 10.8865 10.6104H14.2944C14.4514 10.6104 14.5786 10.4831 14.5786 10.3262C14.5786 10.1693 14.4514 10.042 14.2944 10.042Z" fill="#E7245B"/>
<path d="M7.38427 5.02102C7.38427 4.86405 7.25701 4.73682 7.10007 4.73682H3.69216C3.53519 4.73682 3.40796 4.86408 3.40796 5.02102C3.40796 5.17799 3.53522 5.30522 3.69216 5.30522H7.10003C7.25701 5.30522 7.38427 5.17799 7.38427 5.02102Z" fill="#E7245B"/>
<path d="M9.71267 10.6104H9.75053C9.90754 10.6104 10.0347 10.4831 10.0347 10.3262C10.0347 10.1693 9.90754 10.042 9.75053 10.042H9.71267C9.55566 10.042 9.42847 10.1693 9.42847 10.3262C9.42847 10.4831 9.55566 10.6104 9.71267 10.6104Z" fill="#E7245B"/>
<path d="M6.30471 7.38965C6.14774 7.38965 6.02051 7.51691 6.02051 7.67385C6.02051 7.83082 6.14777 7.95805 6.30471 7.95805H6.34257C6.49955 7.95805 6.62678 7.83079 6.62678 7.67385C6.62678 7.51688 6.49951 7.38965 6.34257 7.38965H6.30471Z" fill="#E7245B"/>
<path d="M3.69216 7.95805H5.20676C5.36374 7.95805 5.49097 7.83079 5.49097 7.67385C5.49097 7.51688 5.3637 7.38965 5.20676 7.38965H3.69216C3.53519 7.38965 3.40796 7.51691 3.40796 7.67385C3.40796 7.83079 3.53522 7.95805 3.69216 7.95805Z" fill="#E7245B"/>
</svg>
