<svg width="29" height="24" viewBox="0 0 29 24" fill="none" xmlns="http://www.w3.org/2000/svg">
<path d="M14.2423 11.6444C17.4641 11.6444 20.0645 9.00319 20.0645 5.82227C20.0645 2.60046 17.4232 0.00012207 14.2423 0.00012207C11.0614 0.00012207 8.42017 2.60046 8.42017 5.78956C8.42017 9.01137 11.0205 11.6444 14.2423 11.6444Z" fill="#414142"/>
<path d="M14.2423 16.0847C10.8079 16.0847 7.54521 17.7201 4.8631 20.6475C7.41438 22.7409 10.6852 24.0002 14.2423 24.0002C17.7994 24.0002 21.0703 22.7409 23.6215 20.6475C20.9803 17.6792 17.6767 16.0847 14.2423 16.0847Z" fill="#414142"/>
<path d="M19.5645 5.82227C19.5645 8.72933 17.1857 11.1444 14.2423 11.1444C11.3003 11.1444 8.92017 8.73888 8.92017 5.78956C8.92017 2.88071 11.3334 0.500122 14.2423 0.500122C17.1494 0.500122 19.5645 2.87889 19.5645 5.82227Z" stroke="#414142"/>
<path d="M5.60172 20.5938C8.13449 17.9959 11.1297 16.5847 14.2423 16.5847C17.3615 16.5847 20.3928 17.9642 22.8888 20.5893C20.4886 22.4146 17.4893 23.5002 14.2423 23.5002C10.998 23.5002 8.00091 22.4164 5.60172 20.5938Z" stroke="#414142"/>
</svg>
