<svg width="19" height="18" viewBox="0 0 19 18" fill="none" xmlns="http://www.w3.org/2000/svg">
<path d="M8.3661 12.7902H8.31714C8.11396 12.7832 7.91454 12.7334 7.73196 12.644C7.54938 12.5546 7.38777 12.4276 7.2577 12.2713L5.87868 10.6119C5.73187 10.4348 5.66127 10.2068 5.68238 9.97776C5.70349 9.74873 5.81458 9.53743 5.99128 9.3902L6.37799 9.06852C6.55503 8.9217 6.78307 8.85111 7.0121 8.87221C7.24113 8.89332 7.45243 9.0044 7.59966 9.1811L8.29477 10.0203C8.30891 10.0372 8.32648 10.051 8.34631 10.0606C8.36614 10.0703 8.38778 10.0757 8.40983 10.0764C8.43188 10.0771 8.45383 10.0732 8.47426 10.0648C8.49468 10.0565 8.51311 10.0439 8.52833 10.028L8.53533 10.021L12.0843 6.55803C12.2434 6.39329 12.4612 6.29813 12.6901 6.29329C12.9191 6.28844 13.1407 6.3743 13.3067 6.53215L13.671 6.88181C13.8374 7.0406 13.934 7.25892 13.9397 7.48887C13.9453 7.71882 13.8595 7.94162 13.7011 8.10838L13.6955 8.11467L11.8074 9.97901C11.7534 10.0214 11.6856 10.0425 11.6171 10.0382C11.5486 10.034 11.484 10.0046 11.4357 9.95579C11.3874 9.90697 11.3587 9.8421 11.3552 9.77352C11.3516 9.70494 11.3734 9.63744 11.4165 9.5839L13.299 7.72307C13.3549 7.66295 13.3849 7.58319 13.3824 7.5011C13.3799 7.41901 13.3452 7.34122 13.2857 7.28461L12.9213 6.93496C12.8917 6.90664 12.8568 6.88445 12.8185 6.86965C12.7803 6.85486 12.7395 6.84774 12.6985 6.84872C12.6576 6.84969 12.6172 6.85874 12.5797 6.87534C12.5422 6.89194 12.5084 6.91576 12.4801 6.94544L12.4731 6.95243L8.92344 10.4154C8.85392 10.4873 8.77003 10.5438 8.67722 10.5811C8.58441 10.6184 8.48479 10.6358 8.38483 10.632C8.28487 10.6282 8.18682 10.6035 8.09708 10.5593C8.00734 10.5151 7.92792 10.4525 7.864 10.3755L7.16889 9.53636C7.11593 9.47291 7.03999 9.43301 6.95769 9.42541C6.87539 9.41781 6.79343 9.44313 6.72974 9.4958L6.34302 9.81747C6.27941 9.87033 6.23941 9.94629 6.2318 10.0286C6.2242 10.111 6.24961 10.193 6.30246 10.2566L7.68148 11.9161C7.7614 12.0121 7.86073 12.0902 7.97296 12.1452C8.08518 12.2001 8.20775 12.2307 8.33264 12.2349C8.45752 12.2392 8.58189 12.2169 8.69757 12.1697C8.81325 12.1224 8.91764 12.0513 9.00386 11.9608L9.00946 11.9545L10.5675 10.4161C10.6215 10.3736 10.6892 10.3526 10.7578 10.3568C10.8263 10.3611 10.8909 10.3905 10.9392 10.4393C10.9875 10.4881 11.0161 10.553 11.0197 10.6216C11.0232 10.6901 11.0014 10.7576 10.9584 10.8112L9.40386 12.3496C9.26931 12.49 9.10777 12.6017 8.92895 12.678C8.75013 12.7543 8.55773 12.7936 8.36331 12.7937L8.3661 12.7902Z" fill="#E7245B"/>
<path d="M17.7783 7.46129C17.5958 7.18073 17.4441 6.88134 17.3258 6.56828C17.2328 6.23192 17.1759 5.88662 17.1559 5.53822C17.1537 4.94381 16.9921 4.36086 16.6881 3.8501C16.2943 3.40085 15.7872 3.06562 15.2195 2.87947C14.8972 2.75498 14.5891 2.59627 14.3007 2.40605C14.0348 2.19295 13.7927 1.95194 13.5783 1.68717C13.2241 1.19904 12.7441 0.816197 12.1895 0.579474C11.6165 0.45145 11.0198 0.478485 10.4608 0.657796C10.1163 0.747718 9.76332 0.801159 9.40765 0.817237C9.05198 0.801138 8.69899 0.747697 8.3545 0.657796C7.79549 0.478485 7.19877 0.45145 6.62583 0.579474C6.07117 0.816197 5.59117 1.19904 5.23702 1.68717C5.02263 1.95194 4.78045 2.19295 4.51464 2.40605C4.41549 2.47707 4.31151 2.5411 4.20345 2.59766C4.17214 2.61351 4.1443 2.63546 4.12158 2.66222C4.09887 2.68898 4.08172 2.72 4.07115 2.75347C4.06058 2.78695 4.0568 2.82219 4.06003 2.85714C4.06327 2.89209 4.07345 2.92605 4.08998 2.95701C4.10651 2.98798 4.12905 3.01533 4.1563 3.03747C4.18354 3.0596 4.21493 3.07607 4.24862 3.08592C4.28231 3.09576 4.31763 3.09878 4.3525 3.09479C4.38738 3.0908 4.4211 3.07989 4.4517 3.06269C4.58141 2.99457 4.70619 2.91746 4.82513 2.83192C5.12284 2.59617 5.39391 2.32862 5.63352 2.03402C5.92889 1.62082 6.32714 1.29201 6.78877 1.08017C7.27259 0.986535 7.77231 1.01807 8.24052 1.17178C8.62221 1.27109 9.01353 1.32877 9.40765 1.34381C9.80176 1.32878 10.1931 1.2711 10.5748 1.17178C11.043 1.0181 11.5427 0.986566 12.0265 1.08017C12.4882 1.29198 12.8864 1.6208 13.1818 2.03402C13.4214 2.32863 13.6925 2.59618 13.9902 2.83192C14.3097 3.04563 14.6516 3.22384 15.0097 3.36339C15.4892 3.5166 15.9209 3.79123 16.2629 4.16059C16.5065 4.597 16.6337 5.08877 16.6321 5.58857C16.6552 5.97505 16.7199 6.35792 16.8251 6.73052C16.9552 7.08096 17.1233 7.41607 17.3265 7.72982C17.6318 8.14321 17.8228 8.62968 17.8804 9.14031C17.8227 9.65104 17.6314 10.1375 17.3258 10.5508C17.1227 10.8646 16.9545 11.1997 16.8244 11.5501C16.7192 11.9227 16.6545 12.3056 16.6314 12.6921C16.633 13.1919 16.5058 13.6836 16.2622 14.12C15.9201 14.4891 15.4885 14.7635 15.009 14.9165C14.6509 15.0561 14.309 15.2343 13.9895 15.448C13.6918 15.6838 13.4207 15.9513 13.1811 16.2459C12.8857 16.6591 12.4875 16.9879 12.0258 17.1998C11.542 17.2934 11.0423 17.2619 10.5741 17.1081C10.1924 17.0088 9.80106 16.9512 9.40695 16.9361C9.01284 16.9512 8.62151 17.0088 8.23982 17.1081C7.77161 17.2619 7.27189 17.2934 6.78807 17.1998C6.32642 16.9879 5.92817 16.6591 5.63282 16.2459C5.39322 15.9513 5.12214 15.6837 4.82443 15.448C4.50491 15.2343 4.16302 15.0561 3.80485 14.9165C3.32546 14.7635 2.89378 14.4891 2.5517 14.12C2.30809 13.6836 2.18093 13.1919 2.18247 12.6921C2.15938 12.3056 2.09467 11.9227 1.98947 11.5501C1.85939 11.1997 1.69125 10.8646 1.48807 10.5508C1.18251 10.1375 0.991246 9.65103 0.933523 9.14031C0.991929 8.63105 1.18317 8.14608 1.48807 7.73402C1.69124 7.42026 1.85938 7.08515 1.98947 6.73472C2.09467 6.36211 2.15938 5.97925 2.18247 5.59276C2.1809 5.09296 2.30806 4.60118 2.5517 4.16479C2.75081 3.9178 3.00717 3.72312 3.29856 3.59766C3.36208 3.5665 3.41062 3.51138 3.43351 3.44443C3.45639 3.37748 3.45174 3.30419 3.42059 3.24066C3.38943 3.17714 3.33431 3.1286 3.26736 3.10571C3.20041 3.08283 3.12711 3.08748 3.06359 3.11863C2.69678 3.28261 2.37487 3.53255 2.12513 3.84731C1.82107 4.35807 1.65952 4.94101 1.6573 5.53542C1.63731 5.88383 1.58035 6.22912 1.48737 6.56549C1.36946 6.87948 1.218 7.17982 1.03562 7.46129C0.677138 7.9531 0.459544 8.53336 0.40625 9.13961C0.459579 9.74586 0.67717 10.3261 1.03562 10.8179C1.21802 11.0983 1.36971 11.3974 1.48807 11.7102C1.58103 12.0466 1.638 12.3919 1.658 12.7403C1.66019 13.3347 1.82174 13.9177 2.12583 14.4284C2.51955 14.8777 3.02674 15.2129 3.59436 15.3991C3.91671 15.5235 4.22477 15.6823 4.51324 15.8725C4.77906 16.0856 5.02124 16.3266 5.23562 16.5914C5.58977 17.0795 6.06977 17.4623 6.62443 17.6991C6.81872 17.7602 7.02147 17.7902 7.22513 17.7879C7.60603 17.7728 7.9842 17.7168 8.3531 17.6207C8.69759 17.5308 9.05058 17.4774 9.40625 17.4613C9.76192 17.4774 10.1149 17.5308 10.4594 17.6207C11.0184 17.8 11.6151 17.8271 12.1881 17.6991C12.7427 17.4623 13.2227 17.0795 13.5769 16.5914C13.7913 16.3266 14.0335 16.0856 14.2993 15.8725C14.5878 15.6823 14.8958 15.5236 15.2181 15.3991C15.7858 15.2129 16.2929 14.8777 16.6867 14.4284C16.9907 13.9177 17.1523 13.3347 17.1545 12.7403C17.1745 12.3919 17.2315 12.0466 17.3244 11.7102C17.4428 11.3974 17.5945 11.0983 17.7769 10.8179C18.1353 10.3261 18.3529 9.74586 18.4062 9.13961C18.3529 8.53336 18.1353 7.95312 17.7769 7.46129H17.7783Z" fill="#E7245B"/>
<path d="M3.02131 7.06534C2.92748 7.31242 2.80744 7.54874 2.66326 7.77024C2.33431 8.15126 2.15332 8.63785 2.15332 9.14122C2.15332 9.64459 2.33431 10.1312 2.66326 10.5122C2.8074 10.7337 2.92743 10.97 3.02131 11.2171C3.0944 11.483 3.13917 11.7558 3.15487 12.0311C3.11396 12.5221 3.25124 13.0114 3.54159 13.4095C3.83194 13.8076 4.25594 14.0878 4.73599 14.1989C4.99057 14.2974 5.23391 14.4229 5.46187 14.573C5.6718 14.7417 5.8631 14.9323 6.03249 15.1416C6.32158 15.5396 6.71374 15.8512 7.16676 16.043C7.32734 16.0935 7.49492 16.1183 7.66326 16.1164C7.97189 16.1044 8.27833 16.0592 8.57725 15.9814C9.11971 15.8129 9.70052 15.8129 10.243 15.9814C10.6992 16.1276 11.1863 16.1489 11.6535 16.043C12.1065 15.8512 12.4987 15.5396 12.7877 15.1416C12.9572 14.9323 13.1485 14.7417 13.3584 14.573C13.5863 14.4229 13.8297 14.2974 14.0842 14.1989C14.5643 14.0878 14.9883 13.8076 15.2786 13.4095C15.569 13.0114 15.7063 12.5221 15.6654 12.0311C15.6811 11.7558 15.7258 11.483 15.7989 11.2171C15.8927 10.97 16.0128 10.7337 16.157 10.5122C16.4859 10.1312 16.6669 9.64459 16.6669 9.14122C16.6669 8.63785 16.4859 8.15126 16.157 7.77024C16.0128 7.54873 15.8928 7.31242 15.7989 7.06534C15.7258 6.79948 15.6811 6.52664 15.6654 6.25136C15.7063 5.76033 15.569 5.27099 15.2786 4.8729C14.9883 4.47481 14.5643 4.19459 14.0842 4.08353C13.8297 3.98499 13.5863 3.85957 13.3584 3.7094C13.1484 3.54078 12.9571 3.35018 12.7877 3.14087C12.4987 2.74285 12.1065 2.43121 11.6535 2.23947C11.1863 2.13357 10.6992 2.15482 10.243 2.30101C9.70052 2.46951 9.11971 2.46951 8.57725 2.30101C8.12103 2.15482 7.63398 2.13357 7.16676 2.23947C6.71244 2.42994 6.31879 2.7409 6.0283 3.13877C5.85887 3.34806 5.66758 3.53865 5.45767 3.7073C5.22972 3.85749 4.98638 3.98291 4.73179 4.08143C4.25175 4.19249 3.82775 4.47271 3.5374 4.8708C3.24705 5.26889 3.10976 5.75823 3.15068 6.24926C3.13649 6.52509 3.09312 6.79865 3.02131 7.06534ZM3.67375 6.30101C3.67257 5.90973 3.77125 5.52462 3.96047 5.18213C4.22974 4.89434 4.56823 4.68032 4.94368 4.56045C5.23387 4.44744 5.51082 4.30299 5.76956 4.12968C6.00991 3.93894 6.22869 3.7225 6.422 3.48423C6.65327 3.16041 6.96458 2.90212 7.3255 2.73458C7.70454 2.66326 8.09546 2.689 8.46187 2.8094C9.07774 2.99374 9.7341 2.99374 10.35 2.8094C10.7164 2.68894 11.1073 2.6632 11.4863 2.73458C11.848 2.90182 12.1601 3.16013 12.3919 3.48423C12.5863 3.72294 12.8063 3.93962 13.0479 4.13038C13.3066 4.30368 13.5836 4.44814 13.8738 4.56115C14.2492 4.68102 14.5877 4.89504 14.857 5.18283C15.0462 5.52532 15.1449 5.91043 15.1437 6.30171C15.1624 6.61485 15.2149 6.92505 15.3003 7.22688C15.4054 7.51112 15.5414 7.78292 15.7059 8.03737C15.9454 8.36101 16.0961 8.74167 16.143 9.14157C16.0961 9.54146 15.9454 9.92213 15.7059 10.2458C15.5414 10.5002 15.4054 10.772 15.3003 11.0563C15.2149 11.3581 15.1624 11.6683 15.1437 11.9814C15.1942 12.3788 15.0909 12.7805 14.855 13.1042C14.619 13.4279 14.2682 13.6492 13.8745 13.7227C13.5843 13.8357 13.3073 13.9802 13.0486 14.1535C12.807 14.3442 12.587 14.5609 12.3926 14.7996C12.1614 15.1234 11.8501 15.3817 11.4891 15.5493C11.1101 15.6206 10.7192 15.5949 10.3528 15.4744C9.7369 15.2901 9.08053 15.2901 8.46466 15.4744C8.09826 15.5949 7.70733 15.6206 7.3283 15.5493C6.96737 15.3817 6.65607 15.1234 6.4248 14.7996C6.23043 14.5609 6.01047 14.3442 5.76886 14.1535C5.5101 13.9802 5.23316 13.8357 4.94298 13.7227C4.54921 13.6492 4.19844 13.4279 3.96248 13.1042C3.72652 12.7805 3.62323 12.3788 3.67375 11.9814C3.65302 11.6681 3.59839 11.3579 3.51082 11.0563C3.40579 10.772 3.26977 10.5002 3.10522 10.2458C2.86695 9.92177 2.71749 9.54112 2.67165 9.14157C2.71852 8.74167 2.8692 8.36101 3.10872 8.03737C3.27207 7.78253 3.40691 7.5105 3.51082 7.22618C3.59742 6.92447 3.65112 6.61427 3.67096 6.30101H3.67375Z" fill="#E7245B"/>
</svg>
