<svg width="40" height="40" viewBox="0 0 40 40" fill="none" xmlns="http://www.w3.org/2000/svg">
<path d="M16.8495 24.4699C16.9145 24.5285 16.9886 24.5758 17.0695 24.61C17.1495 24.6439 17.2355 24.6622 17.3228 24.6634C17.4992 24.6604 17.668 24.5914 17.7961 24.4699C17.8563 24.4062 17.9039 24.3317 17.9362 24.2499C17.9701 24.17 17.9884 24.0839 17.9893 23.9966C17.9869 23.8202 17.9179 23.6511 17.7961 23.5233C17.6027 23.3374 17.3182 23.2822 17.0695 23.3826C16.9886 23.4168 16.9142 23.4644 16.8495 23.5233C16.7277 23.6511 16.6584 23.8202 16.656 23.9966C16.6572 24.0839 16.6752 24.17 16.7094 24.2499C16.7418 24.3317 16.7891 24.4062 16.8495 24.4699Z" fill="#EA4F2C"/>
<path d="M15.2694 20.2499C15.3033 20.1709 15.3213 20.086 15.3228 20C15.3204 19.8236 15.2514 19.6545 15.1296 19.5266C14.9362 19.3408 14.6517 19.2855 14.4027 19.3859C14.3221 19.4201 14.2477 19.4677 14.183 19.5266C14.0609 19.6545 13.9919 19.8236 13.9895 20C13.9907 20.0869 14.0087 20.173 14.0429 20.2533C14.075 20.3347 14.1226 20.4095 14.183 20.4733C14.248 20.5319 14.3221 20.5792 14.4027 20.6134C14.483 20.6473 14.569 20.6653 14.6563 20.6668C14.8327 20.6637 15.0015 20.5948 15.1296 20.4733C15.1901 20.4086 15.2377 20.3326 15.2694 20.2499Z" fill="#EA4F2C"/>
<path d="M17.5164 21.1401C17.5814 21.1987 17.6559 21.246 17.7365 21.2798C17.8167 21.314 17.9028 21.3323 17.9897 21.3333C18.1664 21.3308 18.3352 21.2615 18.4631 21.1401C18.5235 21.0763 18.5708 21.0015 18.6031 20.92C18.6373 20.8398 18.6553 20.7537 18.6566 20.6667C18.6538 20.49 18.5848 20.321 18.4631 20.1934C18.2696 20.0076 17.9852 19.9526 17.7365 20.0533C17.6559 20.0872 17.5814 20.1345 17.5164 20.1934C17.3947 20.321 17.3257 20.49 17.3232 20.6667C17.3242 20.7537 17.3425 20.8398 17.3766 20.92C17.4087 21.0015 17.4563 21.0763 17.5164 21.1401Z" fill="#EA4F2C"/>
<path d="M8.65617 22.0001C9.50059 21.9965 10.2519 21.463 10.5333 20.6668H11.3567C11.5019 22.5595 12.2682 24.3518 13.5362 25.7648L13.1447 26.1554C12.1913 25.798 11.1162 26.102 10.4909 26.9055C9.86558 27.7094 9.83506 28.826 10.4155 29.6625C10.9959 30.4993 12.0528 30.8615 13.0245 30.5569C13.9961 30.2524 14.6571 29.3515 14.6562 28.3334C14.6556 27.8445 14.5 27.3685 14.2116 26.9739L14.4914 26.694C15.8638 27.8223 17.5511 28.4995 19.3227 28.6328V30.1227C18.4044 30.4474 17.8536 31.3864 18.0183 32.3465C18.1828 33.3066 19.0154 34.0082 19.9895 34.0082C20.9636 34.0082 21.7958 33.3066 21.9606 32.3465C22.1254 31.3864 21.5746 30.4474 20.656 30.1227V28.6328C22.549 28.4875 24.3407 27.7216 25.7533 26.4532L26.144 26.8439C25.7317 27.9276 26.1757 29.1498 27.188 29.7159C28.1999 30.2817 29.474 30.0198 30.1811 29.101C30.8879 28.1818 30.8144 26.8835 30.0081 26.0501C29.2018 25.217 27.9063 25.1007 26.9649 25.7773L26.6835 25.4965C27.8117 24.1248 28.4886 22.4377 28.622 20.6668H30.1122C30.4369 21.5851 31.3759 22.1359 32.336 21.9711C33.2961 21.8063 33.9977 20.9741 33.9977 20C33.9977 19.0259 33.2961 18.1937 32.336 18.0289C31.3759 17.8641 30.4369 18.4149 30.1122 19.3332H28.622C28.4889 17.5616 27.8117 15.8743 26.6835 14.502L27.3894 13.8C28.4471 14.2618 29.6837 13.8785 30.2947 12.8989C30.9053 11.9196 30.706 10.6406 29.8259 9.8938C28.9458 9.14673 27.6512 9.15833 26.7842 9.92035C25.9175 10.6824 25.7402 11.9647 26.368 12.9333L25.7555 13.5452C24.3419 12.2775 22.5493 11.5118 20.656 11.3672V9.87732C21.5746 9.55261 22.1254 8.61359 21.9606 7.6535C21.7958 6.69342 20.9636 5.99182 19.9895 5.99182C19.0154 5.99182 18.1828 6.69342 18.0183 7.6535C17.8536 8.61359 18.4044 9.55261 19.3227 9.87732V11.3672C17.5511 11.5005 15.8638 12.1774 14.4914 13.306L13.7895 12.6041C14.2525 11.5463 13.8701 10.3088 12.8908 9.69696C11.9115 9.08508 10.6316 9.28375 9.88389 10.1639C9.13621 11.0437 9.14689 12.3389 9.90861 13.2065C10.6706 14.0741 11.9536 14.2517 12.9228 13.624L13.5347 14.2361C12.2673 15.6491 11.5016 17.4408 11.3567 19.3332H10.5333C10.1927 18.3771 9.1887 17.8284 8.19993 18.0588C7.21116 18.2889 6.55228 19.2245 6.66917 20.2328C6.78574 21.2415 7.64085 22.002 8.65617 22.0001ZM13.0303 29.0405C12.6396 29.4315 12.0064 29.4315 11.6158 29.0411C11.2251 28.6505 11.2248 28.0173 11.6155 27.6266C12.0061 27.236 12.6393 27.236 13.0303 27.6266C13.4209 28.0173 13.4209 28.6508 13.0303 29.0414V29.0405ZM19.9895 32.6666C19.6211 32.6666 19.3227 32.3682 19.3227 32.0001C19.3227 31.6318 19.6211 31.3333 19.9895 31.3333C20.3575 31.3333 20.656 31.6318 20.656 32.0001C20.656 32.3682 20.3575 32.6666 19.9895 32.6666ZM29.03 26.9601C29.2827 27.2128 29.3813 27.5809 29.2888 27.926C29.196 28.2712 28.9266 28.5406 28.5814 28.6331C28.2362 28.7256 27.8679 28.6267 27.6155 28.374C27.2368 27.9816 27.2423 27.3578 27.6283 26.972C28.0141 26.5866 28.6379 26.5814 29.03 26.9608V26.9601ZM31.9893 19.3332C32.3576 19.3332 32.6561 19.632 32.6561 20C32.6561 20.368 32.3576 20.6668 31.9893 20.6668C31.6213 20.6668 31.3228 20.368 31.3228 20C31.3228 19.632 31.6213 19.3332 31.9893 19.3332ZM27.6155 10.9595C28.0058 10.5685 28.6391 10.5685 29.0297 10.9589C29.4203 11.3495 29.4206 11.9827 29.03 12.3734C28.6394 12.764 28.0061 12.764 27.6155 12.3734C27.2249 11.9827 27.2249 11.3492 27.6155 10.9586V10.9595ZM19.9895 7.33337C20.3575 7.33337 20.656 7.63184 20.656 7.99988C20.656 8.36823 20.3575 8.66669 19.9895 8.66669C19.6211 8.66669 19.3227 8.36823 19.3227 7.99988C19.3227 7.63184 19.6211 7.33337 19.9895 7.33337ZM10.9486 12.3734C10.5583 11.9827 10.5583 11.3495 10.9493 10.9589C11.3399 10.5685 11.9731 10.5685 12.3634 10.9595C12.6231 11.2106 12.7272 11.5823 12.6357 11.9321C12.5441 12.2815 12.271 12.5543 11.9212 12.6459C11.5715 12.7371 11.1998 12.6328 10.9486 12.3727V12.3734ZM19.9895 12.6666C24.0395 12.6666 27.3229 15.95 27.3229 20C27.3229 24.05 24.0395 27.3334 19.9895 27.3334C15.9395 27.3334 12.6561 24.05 12.6561 20C12.661 15.9518 15.9413 12.6715 19.9895 12.6666ZM8.65617 19.3332C9.02421 19.3332 9.32267 19.632 9.32267 20C9.32267 20.368 9.02421 20.6668 8.65617 20.6668C8.28782 20.6668 7.98936 20.368 7.98936 20C7.98936 19.632 8.28782 19.3332 8.65617 19.3332Z" fill="#EA4F2C"/>
<path d="M19.9898 24.6666C19.6215 24.6666 19.323 24.9651 19.323 25.3332C19.323 25.7015 19.6215 26 19.9898 26C23.3019 25.9963 25.9862 23.312 25.9899 19.9999C25.9899 19.6319 25.6914 19.3331 25.3231 19.3331C24.955 19.3331 24.6566 19.6319 24.6566 19.9999C24.6535 22.5759 22.5658 24.6636 19.9898 24.6666Z" fill="#EA4F2C"/>
<path d="M21.3231 20C22.7959 20 23.9897 18.8062 23.9897 17.3334C23.9897 15.8606 22.7959 14.6667 21.3231 14.6667C19.8503 14.6667 18.6565 15.8606 18.6565 17.3334C18.6565 18.8062 19.8503 20 21.3231 20ZM21.3231 16.0001C22.0595 16.0001 22.6564 16.597 22.6564 17.3334C22.6564 18.0698 22.0595 18.6667 21.3231 18.6667C20.5867 18.6667 19.9898 18.0698 19.9898 17.3334C19.9898 16.597 20.5867 16.0001 21.3231 16.0001Z" fill="#EA4F2C"/>
<path d="M19.7897 39.9786C19.8648 39.9927 19.9411 40 20.0177 40C20.0739 40 20.1297 39.9927 20.1843 39.9786C26.9977 38.2166 32.3404 34.0274 35.2289 28.1827C36.1295 26.3666 37.323 23.6807 37.323 21.3333V7.99011C37.316 7.26441 36.7337 6.67542 36.0083 6.65985C25.5164 6.45477 21.225 1.19995 20.6335 0.405275C20.5289 0.159609 20.2875 1.86139e-06 20.0201 1.86139e-06H19.9588C19.7028 -0.00060849 19.4699 0.148928 19.3637 0.382082C18.8504 1.09253 14.6243 6.44867 3.97095 6.65985C3.24524 6.67542 2.66327 7.26441 2.65625 7.99011V21.3333C2.65625 23.6807 3.84949 26.3666 4.74762 28.1821C7.63611 34.0274 12.9788 38.2166 19.7897 39.9786ZM3.99689 7.99347C13.8168 7.79999 18.4964 3.48206 19.9896 1.7392C21.4828 3.48206 26.1636 7.79999 35.9897 7.99011V21.3333C35.9897 23.4 34.8749 25.8954 34.0363 27.5919C31.3409 33.0447 26.3562 36.9687 19.9896 38.6526C13.623 36.9687 8.63831 33.0447 5.94299 27.5912C5.10437 25.8954 3.98956 23.4 3.98956 21.3333L3.99689 7.99347Z" fill="#EA4F2C"/>
</svg>
