<svg width="18" height="18" viewBox="0 0 18 18" fill="none" xmlns="http://www.w3.org/2000/svg">
	<path class="st0" d="M9,0C5.2,0,0,2.9,0,9c0,6,5,9,9,9c6.9,0,9-6,9-9C18,4.6,14.6,0,9,0z M6.9,0.8C6,1.6,5.2,3,4.7,4.6
			C4,4.2,3.4,3.8,2.9,3.2C4,2,5.4,1.2,6.9,0.8z M2.5,3.6c0.6,0.6,1.3,1.1,2,1.6C4.3,6.3,4.1,7.5,4.1,8.7H0.6
			C0.7,6.8,1.3,5.1,2.5,3.6z M2.5,14.4C1.3,13,0.6,11.2,0.6,9.3h3.5c0,1.3,0.2,2.4,0.5,3.5C3.8,13.2,3.1,13.8,2.5,14.4z M2.9,14.8
			c0.5-0.6,1.1-1,1.8-1.4c0.5,1.6,1.3,3,2.2,3.8C5.4,16.8,4,16,2.9,14.8z M8.7,17.4c-1.5-0.2-2.8-1.9-3.5-4.3
			c1.1-0.5,2.3-0.9,3.5-0.9V17.4L8.7,17.4z M8.7,11.6c-1.3,0-2.5,0.4-3.7,0.9c-0.2-1-0.4-2.1-0.4-3.2h4.1V11.6L8.7,11.6z M8.7,8.7
			H4.6c0-1.2,0.2-2.2,0.4-3.2C6.2,6,7.4,6.3,8.7,6.4V8.7z M8.7,5.8c-1.2,0-2.4-0.4-3.5-0.9c0.7-2.4,2-4.1,3.5-4.3V5.8z M15.5,3.6
			c1.2,1.4,1.9,3.2,1.9,5.1h-3.5c0-1.3-0.2-2.4-0.5-3.5C14.2,4.8,14.9,4.2,15.5,3.6z M15.1,3.2c-0.5,0.6-1.1,1-1.8,1.4
			c-0.5-1.6-1.3-3-2.2-3.8C12.6,1.2,14,2,15.1,3.2z M9.3,0.6c1.5,0.2,2.8,1.9,3.5,4.3c-1.1,0.5-2.3,0.9-3.5,0.9V0.6z M9.3,6.4
			c1.3,0,2.5-0.4,3.7-0.9c0.2,1,0.4,2.1,0.4,3.2H9.3V6.4z M9.3,9.3h4.1c0,1.2-0.2,2.2-0.4,3.2c-1.1-0.6-2.4-0.9-3.7-0.9V9.3z
			 M9.3,17.4v-5.2c1.2,0,2.4,0.4,3.5,0.9C12.1,15.5,10.8,17.2,9.3,17.4z M11.1,17.2c0.9-0.8,1.7-2.1,2.2-3.8
			c0.7,0.4,1.3,0.9,1.8,1.4C14,16,12.6,16.8,11.1,17.2z M15.5,14.4c-0.6-0.6-1.3-1.1-2-1.6c0.3-1.1,0.4-2.3,0.5-3.5h3.5
			C17.3,11.2,16.7,12.9,15.5,14.4z" fill="#E7245B"/>
</svg>
