<svg width="16" height="17" viewBox="0 0 16 17" fill="none" xmlns="http://www.w3.org/2000/svg">
<path d="M8.28638 16.4612C9.51053 16.2858 10.5808 15.0115 11.2573 13.1252C10.2801 12.9069 9.28503 12.7887 8.28638 12.7744V16.4612Z" fill="#E7245B"/>
<path d="M10.2407 16.1606C10.3123 16.1391 10.3838 16.1176 10.4554 16.0961C10.5163 16.0782 10.5736 16.0568 10.6344 16.0353C10.706 16.0102 10.774 15.9852 10.8456 15.9601C10.9064 15.9386 10.9637 15.9136 11.0246 15.8885C11.0926 15.8599 11.1606 15.8313 11.2286 15.8026C11.2859 15.7776 11.3467 15.7489 11.404 15.7239C11.4684 15.6917 11.5364 15.6594 11.6009 15.6272C11.6581 15.5986 11.7154 15.57 11.7727 15.5377C11.8371 15.5019 11.9015 15.4697 11.9624 15.4339C12.0196 15.4017 12.0733 15.3695 12.1306 15.3337C12.1915 15.2943 12.2559 15.2585 12.3167 15.2192C12.3704 15.1834 12.4277 15.1476 12.4814 15.1118C12.5422 15.0724 12.5995 15.0295 12.6604 14.9865C12.714 14.9471 12.7677 14.9113 12.8179 14.872C12.8751 14.829 12.9324 14.7825 12.9897 14.7359C13.0398 14.6966 13.0899 14.6536 13.14 14.6142C13.1973 14.5677 13.251 14.5176 13.3082 14.4675C13.3583 14.4245 13.4049 14.3816 13.4514 14.3386C13.5051 14.2885 13.5588 14.2348 13.6125 14.1811C13.659 14.1346 13.7055 14.0917 13.7521 14.0451C13.7592 14.038 13.77 14.0272 13.7771 14.0165C13.1543 13.6943 12.4957 13.4402 11.8192 13.2612C11.4648 14.3852 10.8384 15.4053 9.99011 16.2286C10.0116 16.2214 10.0366 16.2178 10.0581 16.2107C10.1226 16.1964 10.1798 16.1785 10.2407 16.1606Z" fill="#E7245B"/>
<path d="M16 8.76196H12.5709C12.5566 10.1007 12.3633 11.4322 11.9946 12.7172C12.7499 12.9177 13.4765 13.2076 14.1638 13.5799C15.2913 12.2233 15.9391 10.5302 16 8.76196Z" fill="#E7245B"/>
<path d="M8.28638 8.19286H11.9982C11.9839 6.90069 11.7942 5.61926 11.4363 4.3772C10.4018 4.61344 9.34588 4.73872 8.28638 4.75304V8.19286Z" fill="#E7245B"/>
<path d="M8.28638 0.493408V4.18021C9.28503 4.16589 10.2801 4.04777 11.2573 3.82943C10.5808 1.94307 9.51053 0.6688 8.28638 0.493408Z" fill="#E7245B"/>
<path d="M8.28638 12.2018C9.34588 12.2161 10.4018 12.3414 11.4363 12.5776C11.7942 11.3356 11.9839 10.0541 11.9982 8.76196H8.28638V12.2018Z" fill="#E7245B"/>
<path d="M14.1638 3.37134C13.4765 3.7436 12.7499 4.03353 11.9946 4.23398C12.3633 5.51899 12.5602 6.85053 12.5709 8.18924H16C15.9391 6.42458 15.2913 4.73152 14.1638 3.37134Z" fill="#E7245B"/>
<path d="M13.7771 2.93815C13.77 2.931 13.7592 2.92026 13.7521 2.9131C13.7055 2.86657 13.659 2.82003 13.6125 2.77708C13.5588 2.72339 13.5051 2.67328 13.4514 2.61959C13.4049 2.57663 13.3548 2.53368 13.3082 2.49073C13.2545 2.44062 13.1973 2.3905 13.14 2.34397C13.0899 2.30102 13.0398 2.26164 12.9897 2.22227C12.9324 2.17574 12.8751 2.12921 12.8143 2.08625C12.7642 2.04688 12.7105 2.01109 12.6568 1.97171C12.5959 1.92876 12.5387 1.88581 12.4778 1.84643C12.4241 1.81064 12.3704 1.77484 12.3167 1.73905C12.2559 1.69968 12.1915 1.6603 12.1306 1.62093C12.0769 1.58871 12.0196 1.5565 11.9624 1.52428C11.8979 1.48849 11.8335 1.4527 11.7691 1.4169C11.7118 1.38827 11.6545 1.35605 11.5973 1.32742C11.5328 1.2952 11.4648 1.26299 11.3968 1.23077C11.3396 1.20214 11.2823 1.17708 11.2214 1.15202C11.1534 1.12339 11.0854 1.09475 11.0174 1.06612C10.9601 1.04106 10.8993 1.01959 10.842 0.994531C10.774 0.969475 10.7024 0.944419 10.6308 0.919363C10.57 0.897886 10.5127 0.87641 10.4519 0.858513C10.3803 0.837036 10.3087 0.81556 10.2371 0.794083C10.1762 0.776186 10.119 0.758289 10.0581 0.743971C10.0366 0.736812 10.0116 0.733233 9.99011 0.726074C10.8349 1.54934 11.4648 2.56947 11.8192 3.69341C12.4957 3.51444 13.1543 3.2603 13.7771 2.93815Z" fill="#E7245B"/>
<path d="M0 8.19265H3.42908C3.4434 6.85395 3.63669 5.52241 4.00537 4.2374C3.25011 4.03695 2.52349 3.74702 1.83624 3.37476C0.708725 4.73136 0.0608501 6.42442 0 8.19265Z" fill="#E7245B"/>
<path d="M7.71359 16.4612V12.7744C6.71494 12.7887 5.71986 12.9069 4.74268 13.1252C5.41919 15.0115 6.48943 16.2858 7.71359 16.4612Z" fill="#E7245B"/>
<path d="M7.7137 8.76196H4.00183C4.01615 10.0541 4.20586 11.3356 4.5638 12.5776C5.59825 12.3414 6.65419 12.2161 7.7137 12.2018V8.76196Z" fill="#E7245B"/>
<path d="M7.71359 0.493408C6.48943 0.6688 5.41561 1.94307 4.74268 3.82943C5.71986 4.04777 6.71494 4.16589 7.71359 4.18021V0.493408Z" fill="#E7245B"/>
<path d="M7.7137 4.75304C6.65419 4.73872 5.59825 4.61344 4.5638 4.3772C4.20586 5.61926 4.01615 6.90069 4.00183 8.19286H7.7137V4.75304Z" fill="#E7245B"/>
<path d="M6.00989 0.726074C5.98841 0.733233 5.96336 0.736812 5.94188 0.743971C5.88103 0.761868 5.82018 0.779765 5.76291 0.794083C5.69132 0.81556 5.61973 0.837036 5.54814 0.858513C5.48729 0.879989 5.42644 0.897886 5.36917 0.919363C5.29758 0.944419 5.22958 0.969475 5.16157 0.994531C5.10072 1.01601 5.04345 1.04106 4.9826 1.06612C4.91459 1.09475 4.84658 1.12339 4.77857 1.15202C4.7213 1.17708 4.66045 1.20572 4.60318 1.23077C4.53875 1.26299 4.47074 1.2952 4.40631 1.32742C4.34904 1.35605 4.29177 1.38827 4.2345 1.4169C4.17007 1.4527 4.10564 1.48491 4.04479 1.52071C3.98752 1.55292 3.93025 1.58513 3.87655 1.61735C3.8157 1.65314 3.75127 1.69252 3.69042 1.73189C3.63673 1.76768 3.57946 1.80348 3.52577 1.83927C3.46492 1.87865 3.40765 1.9216 3.3468 1.96455C3.29311 2.00393 3.23942 2.03972 3.1893 2.07909C3.13203 2.12205 3.07476 2.16858 3.01749 2.21511C2.96738 2.25449 2.91369 2.29744 2.86716 2.33681C2.80989 2.38334 2.75619 2.43346 2.69892 2.47999C2.64881 2.52294 2.60228 2.5659 2.55217 2.61243C2.49848 2.66254 2.44479 2.71623 2.39109 2.76634C2.34456 2.81288 2.29803 2.85583 2.2515 2.90236C2.24434 2.90952 2.2336 2.92026 2.22644 2.931C2.84926 3.25314 3.50787 3.50728 4.18438 3.68625C4.53517 2.5659 5.16157 1.54576 6.00989 0.726074Z" fill="#E7245B"/>
<path d="M2.3839 14.1811C2.43759 14.2348 2.49128 14.2849 2.54497 14.3386C2.5915 14.3816 2.64161 14.4245 2.69173 14.4675C2.74542 14.5176 2.80269 14.5677 2.85996 14.6142C2.91007 14.6572 2.96018 14.6966 3.0103 14.7359C3.06757 14.7825 3.12484 14.829 3.18569 14.872C3.2358 14.9113 3.28949 14.9471 3.34318 14.9865C3.40403 15.0295 3.46488 15.0724 3.52573 15.1118C3.57942 15.1476 3.63312 15.1834 3.68681 15.2192C3.74766 15.2585 3.81209 15.2979 3.87294 15.3337C3.92663 15.3659 3.9839 15.3981 4.04117 15.4304C4.1056 15.4662 4.17003 15.5019 4.23446 15.5377C4.29173 15.5664 4.349 15.5986 4.40627 15.6272C4.4707 15.6594 4.53871 15.6917 4.60672 15.7239C4.66399 15.7525 4.72126 15.7776 4.78211 15.8026C4.85012 15.8313 4.91813 15.8599 4.98614 15.8885C5.04341 15.9136 5.10426 15.9351 5.16153 15.9601C5.22954 15.9852 5.30113 16.0102 5.37272 16.0353C5.43357 16.0568 5.49084 16.0782 5.55169 16.0961C5.62328 16.1176 5.69487 16.1391 5.76646 16.1606C5.82731 16.1785 5.88458 16.1964 5.94543 16.2107C5.9669 16.2178 5.99196 16.2214 6.01701 16.2286C5.17227 15.4053 4.54229 14.3852 4.18793 13.2612C3.50784 13.4402 2.8528 13.6943 2.22998 14.0165C2.23714 14.0236 2.24788 14.0344 2.25504 14.0415C2.29083 14.0917 2.33736 14.1346 2.3839 14.1811Z" fill="#E7245B"/>
<path d="M1.83624 13.5833C2.52349 13.211 3.25011 12.9211 4.00537 12.7206C3.63669 11.4356 3.43982 10.1041 3.42908 8.76538H0C0.0608501 10.53 0.708725 12.2231 1.83624 13.5833Z" fill="#E7245B"/>
</svg>
