<svg width="37" height="35" viewBox="0 0 37 35" fill="none" xmlns="http://www.w3.org/2000/svg">
<path d="M0 31.6544C0.162809 31.3772 0.369769 31.161 0.725741 31.2441C1.11483 31.3356 1.18933 31.6461 1.21693 31.9954C1.29419 32.9242 2.00062 33.6644 2.88917 33.7697C3.85498 33.8834 4.69938 33.3539 5.00844 32.4501C5.10227 32.1756 5.10227 31.9289 4.96429 31.6544C4.21647 30.1796 3.48521 28.6964 2.74844 27.216C2.37867 26.4702 2.61322 26.0821 3.43554 26.0821C8.0825 26.0821 12.7322 26.0821 17.3792 26.0821C17.5337 26.0821 17.691 26.0821 17.8759 26.0821C17.8759 25.414 17.8759 24.7708 17.8759 24.086C17.7213 24.086 17.5778 24.086 17.4371 24.086C14.2472 24.086 11.0544 24.0888 7.8645 24.0805C7.6603 24.0805 7.42298 24.0333 7.25741 23.9252C6.95663 23.7228 6.96767 23.3403 7.24914 23.0048C8.40811 21.6297 9.57261 20.2574 10.7344 18.8851C13.0661 16.1294 15.4006 13.3765 17.7213 10.6125C17.8372 10.4739 17.8979 10.2466 17.8979 10.0581C17.909 6.99742 17.9062 3.93678 17.9062 0.876138C17.9062 0.16088 18.0635 0.00285716 18.7727 0.00285716C20.3263 0.00285716 21.8799 0.00562948 23.4334 8.48412e-05C23.7618 -0.00268748 24.0323 0.0610759 24.1647 0.399299C24.2916 0.726433 24.1261 0.953763 23.9026 1.16446C23.6652 1.38625 23.4307 1.61358 23.1051 1.92408C23.4059 2.18745 23.6818 2.42032 23.9467 2.65874C24.1702 2.86112 24.2861 3.09954 24.1509 3.40172C24.0185 3.69559 23.7756 3.78153 23.4748 3.77876C22.1613 3.77321 20.8506 3.77599 19.5371 3.77599C19.4046 3.77599 19.2749 3.77599 19.0983 3.77599C19.0983 4.28055 19.0873 4.76016 19.1066 5.237C19.1121 5.34235 19.2142 5.4477 19.286 5.54195C20.0779 6.60653 20.8727 7.6711 21.6674 8.73567C21.7336 8.82161 21.7998 8.90755 21.8605 8.99904C22.073 9.31786 22.0344 9.66994 21.7667 9.87232C21.4908 10.0802 21.1486 10.0359 20.9085 9.72539C20.4146 9.08498 19.9372 8.43071 19.4515 7.78476C19.3577 7.66001 19.2666 7.53525 19.1231 7.34396C19.1231 12.5587 19.1231 17.6958 19.1231 22.8523C22.9588 22.8523 26.7972 22.8523 30.6881 22.8523C30.5943 22.7193 30.517 22.6056 30.4342 22.4947C27.7741 18.9212 25.1112 15.3504 22.4456 11.7824C22.3793 11.6965 22.3103 11.6106 22.2579 11.5163C22.0923 11.2308 22.1586 10.887 22.4069 10.7068C22.647 10.5321 22.9754 10.5626 23.1934 10.7927C23.2927 10.8981 23.3727 11.0201 23.461 11.1337C26.3944 15.0621 29.3249 18.9905 32.2582 22.9189C32.4459 23.1684 32.6197 23.4096 32.4514 23.7422C32.2858 24.0666 31.9933 24.0888 31.6815 24.0888C27.6582 24.086 23.6376 24.086 19.6143 24.086C19.4598 24.086 19.3025 24.086 19.1204 24.086C19.1204 24.7486 19.1204 25.3835 19.1204 26.0599C19.2666 26.0682 19.4157 26.0793 19.5674 26.0793C24.1785 26.0793 28.7923 26.0793 33.4034 26.0793C33.511 26.0793 33.6214 26.0765 33.729 26.0793C34.3361 26.1015 34.5928 26.5201 34.3223 27.069C33.6242 28.4885 32.9315 29.9107 32.203 31.3135C31.9547 31.7931 31.814 32.2311 32.1065 32.7357C32.421 33.279 32.8653 33.645 33.4834 33.7531C34.6562 33.9582 35.6745 33.1626 35.7876 31.9733C35.8014 31.8319 35.8152 31.6766 35.8787 31.5519C36.0056 31.2996 36.2319 31.1776 36.5078 31.2386C36.8279 31.3107 36.988 31.5325 36.999 31.8651C37.0376 33.2513 35.9339 34.6236 34.5265 34.9147C33.3758 35.1531 32.3852 34.8426 31.5601 34.0026C31.4773 33.9167 31.3973 33.8279 31.2869 33.706C30.6219 34.5127 29.7913 34.9923 28.7372 34.9923C27.6913 34.9923 26.8607 34.5404 26.1764 33.7004C25.5141 34.5072 24.689 34.9895 23.6349 34.9923C22.5752 34.9951 21.7336 34.5404 21.0603 33.6949C20.4008 34.5155 19.5674 34.9895 18.5105 34.9923C17.4509 34.9951 16.6148 34.5293 15.9442 33.6976C15.2764 34.5238 14.4431 34.9895 13.3862 34.9923C12.3266 34.9951 11.496 34.5183 10.8365 33.7087C9.60297 35.2612 7.27397 35.569 5.70107 33.7281C5.62657 33.8058 5.55482 33.8862 5.48307 33.961C4.61384 34.862 3.56524 35.203 2.35935 34.8814C1.15346 34.5598 0.405643 33.7448 0.0827842 32.536C0.0607084 32.4584 0.0303542 32.3808 0.00275947 32.3032C0 32.0897 0 31.8735 0 31.6544ZM5.08571 29.2176C5.26507 29.578 5.41133 29.8552 5.54102 30.138C5.8694 30.856 6.2778 31.5269 6.40198 32.3448C6.53443 33.2153 7.39815 33.7975 8.28394 33.7864C9.17249 33.778 9.9479 33.1737 10.1604 32.3143C10.2101 32.1147 10.2073 31.9067 10.2487 31.7043C10.3149 31.3883 10.5301 31.222 10.842 31.2303C11.1538 31.2386 11.3497 31.4243 11.4104 31.7404C11.427 31.8236 11.4187 31.9095 11.427 31.9927C11.5346 32.9852 12.2852 33.7171 13.2537 33.7808C14.2085 33.8418 15.0584 33.218 15.282 32.2754C15.3234 32.1008 15.3178 31.915 15.3509 31.7376C15.4117 31.4188 15.6628 31.2136 15.958 31.2247C16.2505 31.2358 16.4879 31.4604 16.5348 31.7764C16.543 31.8346 16.5403 31.8984 16.5458 31.9566C16.6175 32.719 16.9901 33.2846 17.6772 33.6034C18.3643 33.9222 19.0431 33.8529 19.6585 33.401C20.1745 33.0212 20.4284 32.4917 20.456 31.8457C20.4725 31.4798 20.7181 31.2358 21.0382 31.2247C21.3556 31.2136 21.6039 31.4493 21.6563 31.8125C21.6646 31.8735 21.6646 31.9345 21.6701 31.9927C21.7474 32.9242 22.4704 33.6755 23.381 33.7697C24.3524 33.8695 25.2326 33.2957 25.4893 32.3808C25.5472 32.1729 25.5472 31.9511 25.5858 31.7376C25.6438 31.4216 25.8452 31.2386 26.157 31.2303C26.4689 31.222 26.6813 31.3883 26.7503 31.7071C26.7779 31.8374 26.7834 31.9705 26.8 32.1036C26.9269 33.0656 27.741 33.778 28.7151 33.7891C29.6726 33.7975 30.4784 33.1044 30.6605 32.1701C30.7405 31.7626 30.8813 31.3606 31.0468 30.9808C31.3007 30.4014 31.6015 29.8441 31.9133 29.2176C31.7119 29.2176 31.5849 29.2176 31.4552 29.2176C30.1666 29.2176 28.8779 29.2148 27.5892 29.2176C27.2608 29.2176 26.9849 29.1316 26.8855 28.7823C26.7641 28.3609 27.0539 28.0227 27.5423 28.0199C29.0103 28.0144 30.4811 28.0172 31.9492 28.0172C32.6004 28.0172 32.6142 28.0061 32.8129 27.313C23.2706 27.313 13.7311 27.313 4.18612 27.313C4.40136 28.0172 4.40136 28.0172 5.05811 28.0172C5.44444 28.0172 5.82801 28.0144 6.21433 28.0172C6.69172 28.0199 6.95111 28.2362 6.94559 28.6215C6.94007 28.993 6.69172 29.2037 6.23365 29.212C5.87216 29.2231 5.51619 29.2176 5.08571 29.2176ZM17.8952 12.409C17.8731 12.3924 17.8483 12.3785 17.8262 12.3619C14.8791 15.8439 11.932 19.3287 8.95725 22.844C11.9761 22.844 14.9287 22.844 17.8952 22.844C17.8952 19.3453 17.8952 15.8772 17.8952 12.409ZM19.1176 1.21991C19.1176 1.66348 19.1176 2.09041 19.1176 2.53676C20.111 2.53676 21.0851 2.53676 22.1365 2.53676C21.6067 2.09319 21.6425 1.66625 22.1227 1.21991C21.0907 1.21991 20.1331 1.21991 19.1176 1.21991Z" fill="white"/>
<path d="M15.9497 28.0199C18.2014 28.0199 20.4532 28.0199 22.7049 28.0199C22.8263 28.0199 22.9477 28.0088 23.0664 28.031C23.3755 28.092 23.5576 28.2833 23.5603 28.6076C23.5631 28.9265 23.4003 29.1344 23.0857 29.1981C22.956 29.2231 22.8208 29.2203 22.6911 29.2203C18.1987 29.2203 13.7063 29.2203 9.21385 29.2203C8.604 29.2203 8.31978 29.0346 8.31426 28.6298C8.30598 28.214 8.59573 28.0227 9.2304 28.0227C11.4683 28.0199 13.709 28.0199 15.9497 28.0199Z" fill="white"/>
<path d="M8.00799 31.7931C7.73205 31.7931 7.45334 31.8042 7.17739 31.7903C6.79106 31.7709 6.55651 31.5214 6.56479 31.1721C6.57031 30.8394 6.8021 30.5954 7.17187 30.5844C7.7486 30.5705 8.32809 30.5677 8.90482 30.5844C9.26631 30.5954 9.50639 30.856 9.50915 31.1804C9.51191 31.5048 9.26907 31.7626 8.9131 31.7848C8.60956 31.8042 8.30878 31.7903 8.00799 31.7931C8.00799 31.7903 8.00799 31.7903 8.00799 31.7931Z" fill="white"/>
<path d="M18.5354 31.7903C18.3063 31.7903 18.0773 31.8041 17.851 31.7875C17.4923 31.7598 17.2633 31.5047 17.2688 31.1748C17.2743 30.8588 17.5006 30.6037 17.84 30.5899C18.3091 30.5677 18.7782 30.5677 19.2473 30.5899C19.5895 30.6065 19.8075 30.8615 19.8102 31.1804C19.813 31.513 19.584 31.7626 19.2225 31.7875C18.9934 31.8041 18.7644 31.7903 18.5354 31.7903Z" fill="white"/>
<path d="M29.3415 31.7875C29.1262 31.7875 28.9082 31.8042 28.693 31.7848C28.3646 31.7543 28.1273 31.4937 28.1245 31.1887C28.1218 30.8838 28.3563 30.6065 28.6875 30.5899C29.1428 30.5677 29.6009 30.565 30.0534 30.5899C30.3901 30.6093 30.6053 30.881 30.597 31.1998C30.5887 31.502 30.3818 31.746 30.0589 31.7792C29.8216 31.8042 29.5788 31.7848 29.3387 31.7848C29.3415 31.7875 29.3415 31.7875 29.3415 31.7875Z" fill="white"/>
</svg>
